<svg width="72" height="72" viewBox="0 0 72 72" fill="none" xmlns="http://www.w3.org/2000/svg">
<path d="M66.4663 71.752H5.54245C2.62634 71.752 0.253906 69.3795 0.253906 66.4634V5.53952C0.253906 2.62341 2.62634 0.250977 5.54245 0.250977H66.4663C69.3825 0.250977 71.7549 2.62341 71.7549 5.53952V66.4634C71.7549 69.3795 69.3825 71.752 66.4663 71.752Z" fill="white"/>
<path d="M5.54244 0.500977C2.76418 0.500977 0.503906 2.76125 0.503906 5.53951V66.4634C0.503906 69.2417 2.76418 71.502 5.54244 71.502H66.4663C69.2446 71.502 71.5049 69.2417 71.5049 66.4634V5.53951C71.5049 2.76125 69.2446 0.500977 66.4663 0.500977H5.54244ZM5.54244 0.000976562H66.4663C69.5252 0.000976562 72.0049 2.48067 72.0049 5.53951V66.4634C72.0049 69.5223 69.5252 72.002 66.4663 72.002H5.54244C2.4836 72.002 0.00390625 69.5223 0.00390625 66.4634V5.53951C0.00390625 2.48067 2.4836 0.000976562 5.54244 0.000976562Z" fill="#E7E8E8"/>
<path d="M47.6987 33.7443C47.6987 30.8763 45.4648 28.9162 43.6698 27.3442C42.5358 26.3492 41.4647 25.4103 41.4697 24.6823C41.4997 22.1913 41.4697 16.2323 41.4697 16.1733C41.4687 15.969 41.3867 15.7734 41.2419 15.6293C41.097 15.4852 40.9011 15.4043 40.6967 15.4043H31.5517C31.3474 15.4043 31.1514 15.4852 31.0065 15.6293C30.8617 15.7734 30.7798 15.969 30.7787 16.1733C30.7787 16.2333 30.7487 22.1923 30.7787 24.6823C30.7877 25.4093 29.7167 26.3492 28.5787 27.3442C26.7837 28.9192 24.5497 30.8783 24.5497 33.7443C24.5494 34.3356 24.6402 34.9235 24.8187 35.4872C23.3667 39.7572 25.7797 42.0372 27.9187 44.0522C29.3187 45.3682 30.6327 46.6122 30.7767 48.3022V55.7873C30.7767 55.9923 30.8582 56.1889 31.0031 56.3339C31.1481 56.4788 31.3447 56.5602 31.5497 56.5602H40.6987C40.9038 56.5602 41.1003 56.4788 41.2453 56.3339C41.3903 56.1889 41.4717 55.9923 41.4717 55.7873V48.3022C41.6157 46.6122 42.9337 45.3682 44.3297 44.0522C46.4667 42.0372 48.8797 39.7572 47.4297 35.4872C47.6083 34.9235 47.6991 34.3356 47.6987 33.7443ZM29.5987 28.5033C31.0687 27.2133 32.3387 26.1033 32.3217 24.6613C32.2987 22.7193 32.3117 18.6463 32.3217 16.9473H39.9297C39.9367 18.6473 39.9497 22.7193 39.9297 24.6613C39.9127 26.1003 41.1827 27.2133 42.6527 28.5033C44.2947 29.9433 46.1527 31.5753 46.1527 33.7443C46.1514 34.8681 45.7044 35.9456 44.9097 36.7402C44.115 37.5349 43.0376 37.982 41.9137 37.9833C41.4435 37.9712 40.9804 37.866 40.5513 37.6735C40.1221 37.4811 39.7354 37.2053 39.4137 36.8622C38.5423 36.0081 37.4081 35.4732 36.1947 35.3442H36.1297H36.0647C34.8513 35.4731 33.717 36.008 32.8457 36.8622C32.5239 37.2053 32.1373 37.481 31.7081 37.6735C31.279 37.8659 30.8159 37.9712 30.3457 37.9833C29.2219 37.982 28.1444 37.5349 27.3497 36.7402C26.5551 35.9456 26.108 34.8681 26.1067 33.7443C26.1007 31.5753 27.9617 29.9433 29.6027 28.5033H29.5987ZM43.2667 42.9272C41.7117 44.3942 40.1027 45.9112 39.9257 48.2112C39.9257 48.2312 39.9257 48.2503 39.9257 48.2703V55.0113H32.3257V48.2712C32.3257 48.2512 32.3257 48.2323 32.3257 48.2123C32.1487 45.9123 30.5407 44.3943 28.9847 42.9283C27.2727 41.3133 25.7527 39.8783 25.9557 37.5093C26.4977 38.1428 27.1705 38.6514 27.9278 39.0001C28.6851 39.3488 29.509 39.5294 30.3427 39.5293C31.6539 39.5111 32.906 38.981 33.8317 38.0522C34.0967 37.6919 34.4428 37.399 34.8419 37.1971C35.241 36.9953 35.682 36.8901 36.1292 36.8901C36.5765 36.8901 37.0175 36.9953 37.4166 37.1971C37.8157 37.399 38.1617 37.6919 38.4267 38.0522C39.3527 38.9812 40.6052 39.5113 41.9167 39.5293C42.7504 39.5294 43.5743 39.3488 44.3316 39.0001C45.0889 38.6514 45.7617 38.1428 46.3037 37.5093C46.5027 39.8773 44.9837 41.3112 43.2707 42.9272H43.2667Z" fill="#062D4C"/>
<path d="M36.5039 44.0005C25.7519 44.0005 17.0039 41.2501 17.0039 37.8701C17.0039 36.9071 17.6979 35.9844 19.0659 35.1284C20.7872 34.1494 22.6481 33.4392 24.584 33.0225L24.5669 33.0303V34.3301C23.195 34.6601 21.8805 35.1941 20.667 35.9141C19.715 36.5331 19.2319 37.1911 19.2319 37.8711C19.2319 40.5711 26.9799 42.7715 36.5029 42.7715C46.0259 42.7715 53.7739 40.5711 53.7739 37.8711C53.7739 36.4351 51.5607 35.0711 47.7007 34.1401L47.6079 32.8604L47.5659 32.8262C52.8489 33.9742 56.0029 35.8621 56.0029 37.8711C56.0039 41.2511 47.2559 44.0005 36.5039 44.0005Z" fill="#1EC8BB"/>
</svg>
