<svg width="72" height="72" viewBox="0 0 72 72" fill="none" xmlns="http://www.w3.org/2000/svg">
<path d="M66.4624 71.751H5.53854C2.62243 71.751 0.25 69.3785 0.25 66.4624V5.53854C0.25 2.62243 2.62243 0.25 5.53854 0.25H66.4624C69.3785 0.25 71.751 2.62243 71.751 5.53854V66.4624C71.751 69.3785 69.3785 71.751 66.4624 71.751Z" fill="white"/>
<path d="M5.53854 0.5C2.76028 0.5 0.5 2.76028 0.5 5.53854V66.4624C0.5 69.2407 2.76028 71.501 5.53854 71.501H66.4624C69.2407 71.501 71.501 69.2407 71.501 66.4624V5.53854C71.501 2.76028 69.2407 0.5 66.4624 0.5H5.53854ZM5.53854 0H66.4624C69.5213 0 72.001 2.47969 72.001 5.53854V66.4624C72.001 69.5213 69.5213 72.001 66.4624 72.001H5.53854C2.47969 72.001 0 69.5213 0 66.4624V5.53854C0 2.47969 2.47969 0 5.53854 0Z" fill="#E7E8E8"/>
<path d="M41.7533 55.2897H35.8913V52.8457C34.95 52.3334 34.1643 51.5768 33.617 50.6555C33.0696 49.7341 32.7809 48.6823 32.7813 47.6107V42.3057H44.7013V47.6057C44.6978 48.6447 44.4244 49.6649 43.9077 50.5664C43.3911 51.4678 42.649 52.2195 41.7543 52.7477L41.7533 55.2897ZM37.4973 53.6837H40.1472V51.7637L40.6053 51.5457C41.3486 51.1897 41.9763 50.631 42.4161 49.934C42.8559 49.2369 43.09 48.4298 43.0912 47.6057V43.9057H34.3913V47.6057C34.3904 48.456 34.6387 49.288 35.1053 49.9988C35.572 50.7097 36.2367 51.2683 37.0173 51.6057L37.5013 51.8157L37.4973 53.6837Z" fill="#062D4C"/>
<path d="M33.9895 24.771C33.0232 24.771 32.0785 24.4845 31.275 23.9476C30.4715 23.4107 29.8453 22.6476 29.4754 21.7548C29.1056 20.862 29.0089 19.8796 29.1974 18.9318C29.3859 17.984 29.8513 17.1134 30.5346 16.4301C31.2179 15.7468 32.0885 15.2814 33.0363 15.0929C33.9841 14.9044 34.9665 15.0011 35.8593 15.371C36.7521 15.7408 37.5152 16.367 38.0521 17.1705C38.589 17.974 38.8755 18.9187 38.8755 19.885C38.8742 21.1805 38.359 22.4225 37.443 23.3385C36.527 24.2545 35.285 24.7697 33.9895 24.771ZM33.9895 16.606C33.341 16.606 32.707 16.7983 32.1678 17.1586C31.6286 17.5189 31.2083 18.0311 30.9601 18.6302C30.7119 19.2294 30.647 19.8887 30.7735 20.5247C30.9 21.1608 31.2123 21.745 31.6709 22.2036C32.1295 22.6622 32.7137 22.9745 33.3498 23.101C33.9859 23.2275 34.6452 23.1626 35.2443 22.9144C35.8435 22.6662 36.3556 22.246 36.7159 21.7067C37.0762 21.1675 37.2685 20.5335 37.2685 19.885C37.2674 19.0157 36.9217 18.1823 36.307 17.5676C35.6923 16.9529 34.8588 16.6071 33.9895 16.606Z" fill="#062D4C"/>
<path d="M29.5039 56.4927H20.0039V54.8867H27.9039V42.2377C27.905 41.3684 28.2508 40.535 28.8655 39.9203C29.4802 39.3056 30.3136 38.9597 31.1829 38.9587H38.5709C39.8591 38.9571 41.0941 38.4446 42.005 37.5338C42.9159 36.6229 43.4283 35.3879 43.4299 34.0997V25.1057C43.4299 24.662 43.2536 24.2364 42.9399 23.9227C42.6261 23.609 42.2006 23.4327 41.7569 23.4327C41.3132 23.4327 40.8877 23.609 40.5739 23.9227C40.2602 24.2364 40.0839 24.662 40.0839 25.1057V32.8687C40.0828 33.738 39.737 34.5714 39.1223 35.1861C38.5076 35.8008 37.6742 36.1466 36.8049 36.1477H29.7049C28.5536 36.1487 27.4497 36.6065 26.6355 37.4205C25.8212 38.2346 25.3632 39.3383 25.3619 40.4897V53.9497H23.7559V40.4897C23.7575 38.9124 24.3848 37.4002 25.5001 36.2849C26.6154 35.1695 28.1276 34.5423 29.7049 34.5407H36.8049C37.2484 34.5402 37.6737 34.3637 37.9873 34.0501C38.3009 33.7364 38.4774 33.3112 38.4779 32.8677V25.1047C38.4779 24.2349 38.8234 23.4008 39.4384 22.7857C40.0535 22.1707 40.8876 21.8252 41.7574 21.8252C42.6272 21.8252 43.4613 22.1707 44.0764 22.7857C44.6914 23.4008 45.0369 24.2349 45.0369 25.1047V34.0987C45.035 35.8128 44.3533 37.4562 43.1414 38.6684C41.9294 39.8806 40.286 40.5626 38.5719 40.5647H31.1839C30.7404 40.5652 30.3151 40.7416 30.0015 41.0553C29.6879 41.3689 29.5114 41.7941 29.5109 42.2377L29.5039 56.4927Z" fill="#062D4C"/>
<path d="M47.0096 43.0558L46.0938 44.375L50.1632 47.2002L51.0791 45.8809L47.0096 43.0558Z" fill="#1EC8BB"/>
<path d="M47.629 38.8071L47.584 40.4131L51.817 40.5316L51.862 38.9256L47.629 38.8071Z" fill="#1EC8BB"/>
<path d="M38.7484 44.9268L38.8044 45.0267C38.922 45.2275 39.0498 45.4221 39.1874 45.6097C39.3034 45.7737 39.4284 45.9407 39.5504 46.1037V46.1097C40.0657 46.6545 40.4243 47.3282 40.5884 48.0598C40.5871 48.5487 40.3923 49.0172 40.0466 49.3629C39.7009 49.7086 39.2324 49.9034 38.7434 49.9048H38.7384C38.5383 49.9041 38.3396 49.8703 38.1505 49.8047C37.7852 49.6812 37.4678 49.4462 37.2432 49.1328C37.0186 48.8194 36.898 48.4433 36.8984 48.0577C37.0635 47.324 37.4239 46.6485 37.9414 46.1028C38.211 45.7583 38.4601 45.3984 38.6874 45.0247L38.7484 44.9268Z" fill="#1EC8BB"/>
<path d="M49.5553 32.7856L46.0977 35.2275L47.0241 36.5394L50.4818 34.0974L49.5553 32.7856Z" fill="#1EC8BB"/>
</svg>
