<svg width="72" height="72" viewBox="0 0 72 72" fill="none" xmlns="http://www.w3.org/2000/svg">
<rect width="70" height="70" transform="translate(1 1)" fill="white"/>
<path d="M69.7 71H2.3C1.6 71 1 70.4 1 69.7V2.3C1 1.6 1.6 1 2.3 1H69.7C70.4 1 71 1.6 71 2.3V69.7C71 70.4 70.4 71 69.7 71Z" stroke="#E8E6D9" stroke-width="0.5" stroke-miterlimit="10"/>
<path d="M57.7857 33.5C57.7857 35.9853 58.771 38 56.2857 38C53.8004 38 54.2855 35.9853 54.2855 33.5C54.2855 31.0147 51.7985 26.5 54.2838 26.5C56.7691 26.5 57.7857 31.0147 57.7857 33.5Z" fill="#1EC8BB"/>
<path d="M41.2021 10C41.5364 10.1114 41.8707 10.2229 42.2151 10.3377C42.2151 12.3434 42.2151 14.3491 42.2151 16.4156C43.1901 16.3947 44.1651 16.3738 45.1696 16.3523C49.651 16.3225 53.6345 17.0969 57.0089 20.2354C60.323 23.7944 60.7673 28.9274 60.9764 33.5731C60.9908 33.8798 61.0051 34.1865 61.0199 34.5025C61.1484 37.4786 61.1569 40.4504 61.1242 43.4286C60.7899 43.4286 60.4556 43.4286 60.1112 43.4286C59.7735 43.0909 59.7735 43.0909 59.7352 42.3707C59.7378 41.9065 59.7378 41.9065 59.7405 41.4329C59.7422 40.9318 59.7422 40.9318 59.7438 40.4206C59.7481 39.8934 59.7481 39.8934 59.7524 39.3555C59.7539 39.0027 59.7555 38.65 59.757 38.2865C59.761 37.4117 59.7666 36.5371 59.7735 35.6623C59.5507 35.6623 59.3278 35.6623 59.0982 35.6623C59.0703 36.0106 59.0425 36.3588 59.0138 36.7175C58.7296 38.1857 58.3716 38.9131 57.4099 40.0519C57.0295 40.243 56.649 40.4341 56.2571 40.631C54.8722 41.3974 54.3411 42.4525 53.78 43.8929C53.6334 44.2512 53.6334 44.2512 53.4838 44.6168C51.4088 49.88 51.2207 54.8615 52.494 60.317C52.6826 61.3247 52.6826 61.3247 52.3449 62C51.7118 61.8312 51.7118 61.8312 50.9943 61.3247C50.3696 59.4507 50.1201 57.5507 49.9813 55.5844C49.963 55.3359 49.9448 55.0873 49.9259 54.8313C49.8252 52.0972 50.4395 49.4671 50.9943 46.8052C50.8337 46.9027 50.6731 47.0002 50.5076 47.1007C47.8476 48.5115 44.9916 48.5294 42.0594 48.0081C39.8723 47.3165 38.1199 45.6681 36.8125 43.8295C36.4748 43.0909 36.4748 43.0909 36.4748 42.4156C36.252 42.4156 36.0291 42.4156 35.7995 42.4156C35.7229 42.6524 35.6463 42.8892 35.5673 43.1331C34.4678 45.5416 32.9177 46.6618 30.5512 47.7707C27.8944 48.6473 25.0556 48.605 22.4829 47.4805C22.0803 47.2585 21.6789 47.0339 21.28 46.8052C21.4393 47.3889 21.4393 47.3889 21.6018 47.9844C21.9559 49.4075 22.1272 50.7879 22.2086 52.25C22.2224 52.4967 22.2362 52.7434 22.2505 52.9976C22.3837 56.1645 22.1467 59.1745 20.6047 62C20.3818 62 20.159 62 19.9294 62C19.494 60.6938 19.7667 59.9812 20.0771 58.6445C21.3056 52.8905 20.2236 47.8114 17.7425 42.5712C15.9381 38.4722 17.4839 33.9564 18.526 29.8284C18.8281 28.6275 19.0762 27.4345 19.254 26.2078C19.6998 26.3192 20.1455 26.4306 20.6047 26.5455C20.3286 29.3098 19.9824 31.975 19.2118 34.6494C18.2995 37.925 18.4051 40.0104 19.9294 43.0909C21.0015 44.9465 22.727 45.6915 24.6566 46.4675C26.8756 47.0515 28.8565 46.7534 30.881 45.7038C33.1971 44.2548 34.3581 42.6854 35.1242 40.0519C35.2451 39.0431 35.2451 39.0431 35.264 38.0075C35.277 37.6332 35.2901 37.2588 35.3036 36.8732C35.314 36.4875 35.3244 36.1019 35.3352 35.7045C35.3483 35.3111 35.3613 34.9176 35.3748 34.5122C35.4065 33.545 35.4354 32.5778 35.4618 31.6104C35.7961 31.6104 36.1304 31.6104 36.4748 31.6104C37.0483 32.1839 36.8561 32.9249 36.86 33.7089C36.8665 34.0734 36.873 34.438 36.8797 34.8136C36.891 35.5785 36.8973 36.3436 36.8982 37.1086C36.9678 40.2083 37.671 42.6992 39.9148 44.9269C41.7826 46.3501 43.9344 46.9215 46.267 46.8263C48.5793 46.4773 50.5391 45.4629 51.9822 43.604C53.461 41.2147 54.1178 39.0776 53.5414 36.2592C53.332 35.4648 53.1057 34.6773 52.8725 33.8896C52.1828 31.4386 51.7258 29.1039 51.6696 26.5455C52.1153 26.5455 52.5611 26.5455 53.0203 26.5455C53.0816 26.8963 53.143 27.2471 53.2063 27.6086C53.6279 29.9653 54.052 32.2734 54.8273 34.5452C55.115 35.5695 55.2334 36.635 55.3839 37.6883C56.0592 38.0075 57.1144 37.1086 57.1144 37.1086L57.4099 35.8707C57.4099 35.8707 57.2149 32.4796 57.1144 32.2316C56.3921 30.3682 55.8814 28.8842 56.0592 26.8831C56.3935 26.8831 56.7278 26.8831 57.0722 26.8831C57.7408 28.8888 58.4094 30.8945 59.0982 32.961C59.0982 28.5048 58.4999 24.7261 55.6372 21.2273C52.3288 18.5204 48.8956 18.0267 44.7475 17.724C44.3732 17.6949 43.9989 17.6657 43.6132 17.6357C42.6971 17.5646 41.7809 17.4956 40.8644 17.4286C40.8547 16.2538 40.8486 15.079 40.8433 13.9042C40.8405 13.5688 40.8377 13.2335 40.8348 12.8879C40.8337 12.5691 40.8326 12.2503 40.8315 11.9218C40.8297 11.6265 40.8279 11.3312 40.8261 11.0269C40.8644 10.3377 40.8644 10.3377 41.2021 10Z" fill="#062D4C"/>
<path d="M30.398 10C30.7322 10.1114 31.0665 10.2229 31.4109 10.3377C31.4109 12.6777 31.4109 15.0177 31.4109 17.4286C30.8651 17.4656 30.3193 17.5026 29.7569 17.5407C29.0279 17.5946 28.299 17.6487 27.57 17.7029C27.0327 17.7385 27.0327 17.7385 26.4845 17.7748C22.6386 18.0697 18.8958 18.9096 16.0143 21.6573C13.5722 24.7193 13.1633 28.945 13.0321 32.7131C13.0072 33.3189 12.9822 33.9248 12.9569 34.5306C12.9184 35.4806 12.8814 36.4305 12.8482 37.3807C12.8155 38.3012 12.7766 39.2214 12.7366 40.1416C12.7239 40.57 12.7239 40.57 12.7109 41.0071C12.6735 41.8065 12.6735 41.8065 12.5018 43.0909C12.0004 43.4252 12.0004 43.4252 11.4889 43.7662C10.8485 43.1258 11.1065 42.1925 11.1041 41.3408C11.1057 41.0478 11.1073 40.7548 11.109 40.4529C11.1104 40.151 11.1118 39.849 11.1132 39.538C11.2353 24.5366 11.2353 24.5366 15.4775 20.0032C16.7471 18.826 17.975 18.0363 19.5928 17.4286C19.843 17.328 20.0933 17.2275 20.3512 17.1239C23.4859 16.0627 26.7965 16.3293 30.0603 16.4156C30.0564 15.9808 30.0525 15.5459 30.0484 15.0979C30.0453 14.5312 30.0422 13.9645 30.0392 13.3977C30.0364 13.1107 30.0335 12.8236 30.0306 12.5279C30.0295 12.2547 30.0284 11.9816 30.0273 11.7002C30.0255 11.4473 30.0238 11.1945 30.022 10.9339C30.0603 10.3377 30.0603 10.3377 30.398 10Z" fill="#062D4C"/>
<path d="M52.0083 26.208C52.3426 26.3194 52.6768 26.4309 53.0213 26.5457C53.0826 26.8887 53.144 27.2317 53.2072 27.585C53.7221 30.4193 54.3035 33.2151 55.0472 36.0002C54.4901 35.8888 53.933 35.7774 53.3589 35.6626C52.4769 32.6596 51.6425 29.7082 51.6706 26.5457C51.782 26.4342 51.8935 26.3228 52.0083 26.208Z" fill="#062D4C"/>
<path d="M11.8274 35.3242C12.0503 35.4356 12.2731 35.5471 12.5027 35.6619C12.532 36.8859 12.5501 38.1097 12.566 39.334C12.5788 39.8569 12.5788 39.8569 12.5918 40.3905C12.595 40.7235 12.5983 41.0564 12.6016 41.3995C12.607 41.7072 12.6123 42.0149 12.6177 42.3319C12.5798 42.5822 12.5418 42.8325 12.5027 43.0905C12.1684 43.3133 11.8341 43.5362 11.4897 43.7658C10.718 42.994 11.0895 41.151 11.0888 40.1148C11.0846 39.8055 11.0805 39.4963 11.0762 39.1777C11.0756 38.8788 11.0749 38.58 11.0743 38.2722C11.0729 37.9985 11.0715 37.7248 11.07 37.4428C11.1599 36.6016 11.4066 36.0519 11.8274 35.3242Z" fill="#062D4C"/>
<path d="M47.2814 41.7412C48.8196 41.9288 48.8196 41.9288 49.3074 42.4165C49.3707 43.2396 49.3707 43.2396 49.3074 44.1048C49.0845 44.3277 48.8617 44.5506 48.6321 44.7802C47.0938 44.5926 47.0938 44.5926 46.6061 44.1048C46.5428 43.2818 46.5428 43.2818 46.6061 42.4165C46.8289 42.1937 47.0518 41.9708 47.2814 41.7412Z" fill="#062D4C"/>
<path d="M23.6447 41.7412C25.1829 41.9288 25.1829 41.9288 25.6707 42.4165C25.7551 43.2396 25.7551 43.2396 25.6707 44.1048C24.6577 44.7802 24.6577 44.7802 23.9401 44.6747C23.307 44.4425 23.307 44.4425 22.9694 44.1048C22.906 43.2818 22.906 43.2818 22.9694 42.4165C23.1922 42.1937 23.4151 41.9708 23.6447 41.7412Z" fill="#062D4C"/>
<path d="M24.3184 46.4668C25.0984 46.5782 25.8784 46.6897 26.682 46.8045C26.682 47.0273 26.682 47.2502 26.682 47.4798C27.5734 47.5912 28.4649 47.7026 29.3833 47.8174C29.3833 47.9289 29.3833 48.0403 29.3833 48.1551C27.7119 48.1551 26.0404 48.1551 24.3184 48.1551C24.3184 47.5923 24.3184 47.0296 24.3184 46.4668Z" fill="#062D4C"/>
<path d="M47.9583 42.7529C48.2926 42.7529 48.6269 42.7529 48.9713 42.7529C48.9713 43.3101 48.9713 43.8672 48.9713 44.4412C47.7051 44.8211 47.7051 44.8211 46.9453 44.4412C46.9453 44.107 46.9453 43.7727 46.9453 43.4283C47.2796 43.4283 47.6139 43.4283 47.9583 43.4283C47.9583 43.2054 47.9583 42.9825 47.9583 42.7529Z" fill="#062D4C"/>
<path d="M23.6445 41.7412C25.1827 41.9288 25.1827 41.9288 25.6705 42.4165C25.6842 42.9791 25.6849 43.5423 25.6705 44.1048C25.559 43.6591 25.4476 43.2134 25.3328 42.7542C24.6642 42.7542 23.9956 42.7542 23.3068 42.7542C23.1954 43.1999 23.084 43.6456 22.9692 44.1048C22.9269 43.3029 22.9269 43.3029 22.9692 42.4165C23.192 42.1937 23.4149 41.9708 23.6445 41.7412Z" fill="#062D4C"/>
<path d="M16.8932 18.7793C17.116 18.8907 17.3389 19.0022 17.5685 19.117C17.3282 19.3259 17.3282 19.3259 17.0831 19.539C16.5006 20.1915 16.3644 20.6303 16.2178 21.4806C15.7721 21.2577 15.3264 21.0349 14.8672 20.8053C15.5358 20.1367 16.2043 19.4681 16.8932 18.7793Z" fill="#062D4C"/>
<path d="M50.9941 59.9736C51.6484 60.0792 51.6484 60.0792 52.3448 60.3113C52.4562 60.6456 52.5676 60.9799 52.6825 61.3243C52.571 61.5471 52.4596 61.77 52.3448 61.9996C51.8991 61.7767 51.4534 61.5539 50.9941 61.3243C50.9941 60.8786 50.9941 60.4329 50.9941 59.9736Z" fill="#062D4C"/>
<path d="M55.7227 19.4541C56.3912 20.0112 57.0598 20.5684 57.7486 21.1424C57.0801 21.4767 57.0801 21.4767 56.398 21.8177C55.7227 20.8048 55.7227 20.8048 55.7227 19.4541Z" fill="#062D4C"/>
</svg>
