<svg width="72" height="71" viewBox="0 0 72 71" fill="none" xmlns="http://www.w3.org/2000/svg">
<rect width="70" height="70" transform="translate(1 0.500977)" fill="white"/>
<path d="M69.7 70.501H2.3C1.6 70.501 1 69.901 1 69.201V1.80098C1 1.10098 1.6 0.500977 2.3 0.500977H69.7C70.4 0.500977 71 1.10098 71 1.80098V69.201C71 69.901 70.4 70.501 69.7 70.501Z" stroke="#E8E6D9" stroke-width="0.5" stroke-miterlimit="10"/>
<path d="M36.1008 59.3014C35.7008 59.3014 35.3008 58.9014 35.3008 58.5014V56.7014C35.3008 56.3014 35.7008 55.9014 36.1008 55.9014C36.5008 55.9014 36.9008 56.3014 36.9008 56.7014V58.5014C36.9008 59.0014 36.5008 59.3014 36.1008 59.3014Z" fill="#062D4C"/>
<path d="M48.0009 36.6009H47.401C47.201 36.6009 47.0009 36.401 47.0009 36.201C47.0009 36.0009 47.201 35.8009 47.401 35.8009L49.701 35.701C49.804 35.6991 49.9056 35.7262 49.994 35.7792C50.0824 35.8323 50.1541 35.9091 50.201 36.0009C50.301 36.201 50.2009 36.4009 50.0009 36.5009C49.301 36.601 48.7009 36.6009 48.0009 36.6009ZM45.1009 36.201H45.0009C44.2009 36.0009 43.401 35.601 42.701 35.201C42.501 35.101 42.4009 34.8009 42.6009 34.6009C42.7009 34.4009 43.001 34.3009 43.201 34.5009C43.901 34.9009 44.6009 35.201 45.3009 35.401C45.3928 35.4478 45.4696 35.5195 45.5227 35.6079C45.5757 35.6963 45.6028 35.7979 45.6009 35.901C45.4009 36.101 45.3009 36.201 45.1009 36.201ZM52.3009 35.901C52.1009 35.901 52.001 35.8009 51.901 35.6009C51.801 35.4009 51.9009 35.2009 52.1009 35.1009C52.8009 34.8009 53.501 34.5009 54.201 34.0009C54.2966 33.9438 54.4094 33.9225 54.5193 33.9408C54.6292 33.9591 54.729 34.0159 54.8009 34.1009C54.8581 34.1966 54.8794 34.3094 54.8611 34.4193C54.8428 34.5292 54.786 34.629 54.701 34.701C54.001 35.201 53.301 35.601 52.5009 35.901H52.3009ZM41.0009 33.8009C40.9009 33.8009 40.801 33.801 40.701 33.701C40.101 33.101 39.6009 32.4009 39.3009 31.6009C39.2009 31.4009 39.3009 31.201 39.5009 31.101C39.7009 31.0009 39.9009 31.1009 40.0009 31.3009C40.3009 32.0009 40.8009 32.601 41.3009 33.201C41.5009 33.401 41.4009 33.6009 41.3009 33.8009H41.0009ZM56.201 33.1009C56.101 33.1009 56.001 33.101 55.901 33.0009C55.701 32.9009 55.7009 32.601 55.8009 32.401C56.3009 31.801 56.701 31.1009 56.901 30.4009C57.001 30.2009 57.201 30.101 57.401 30.201C57.601 30.301 57.7009 30.501 57.6009 30.701C57.3009 31.501 56.9009 32.201 56.3009 32.901C56.4009 33.101 56.301 33.1009 56.201 33.1009ZM57.8009 28.601C57.6009 28.601 57.401 28.401 57.401 28.201V28.101C57.401 27.301 57.301 26.6009 57.201 25.9009C57.1991 25.7979 57.2262 25.6963 57.2792 25.6079C57.3323 25.5195 57.4091 25.4478 57.5009 25.4009C57.604 25.3991 57.7056 25.4262 57.794 25.4792C57.8824 25.5323 57.9541 25.6091 58.0009 25.701C58.101 26.401 58.201 27.2009 58.201 28.0009V28.101C58.201 28.5009 58.0009 28.601 57.8009 28.601ZM57.0009 23.9009C56.8009 23.9009 56.7009 23.801 56.6009 23.601C56.3009 22.901 56.0009 22.2009 55.5009 21.5009C55.4438 21.4053 55.4225 21.2925 55.4408 21.1826C55.4591 21.0727 55.5159 20.9729 55.6009 20.9009C55.6966 20.8438 55.8094 20.8225 55.9193 20.8408C56.0292 20.8591 56.129 20.9159 56.201 21.0009C56.701 21.801 57.0009 22.501 57.3009 23.201C57.4009 23.401 57.3009 23.601 57.1009 23.701C57.1009 23.901 57.101 23.9009 57.0009 23.9009ZM54.5009 19.701C54.4009 19.701 54.301 19.6009 54.201 19.5009C53.601 18.7009 53.201 18.1009 52.901 17.3009C52.801 17.1009 52.9009 16.9009 53.1009 16.8009C53.3009 16.7009 53.5009 16.8009 53.6009 17.0009C53.9009 17.6009 54.2009 18.2009 54.8009 19.0009C54.8581 19.0966 54.8794 19.2094 54.8611 19.3193C54.8428 19.4292 54.786 19.529 54.701 19.601C54.701 19.701 54.601 19.701 54.5009 19.701Z" fill="#1EC8BB"/>
<path d="M55.9996 20.401L54.3996 20.101C55.6996 13.901 56.9996 9.50098 56.9996 9.50098L58.4996 10.001C58.5996 10.001 57.1996 14.301 55.9996 20.401ZM51.9996 27.501C51.9996 28.401 51.2996 29.201 50.2996 29.201C49.3996 29.201 48.5996 28.501 48.5996 27.501C48.5996 26.501 49.2996 25.801 50.2996 25.801C51.2996 25.901 51.9996 26.601 51.9996 27.501Z" fill="#062D4C"/>
<path d="M24.9992 36.6012C24.7992 36.6012 24.5992 36.4012 24.5992 36.2012C24.5992 36.0012 24.6992 35.8012 24.9992 35.8012C25.7992 35.7012 26.5992 35.6012 27.2992 35.3012C27.4992 35.2012 27.6992 35.3012 27.7992 35.6012C27.8992 35.8012 27.7992 36.0012 27.4992 36.1012L24.9992 36.6012ZM22.5992 36.6012C21.6992 36.5012 20.8992 36.3012 20.0992 36.1012C20.0074 36.0543 19.9306 35.9826 19.8775 35.8942C19.8245 35.8058 19.7973 35.7043 19.7992 35.6012C19.7992 35.4012 20.0992 35.3012 20.2992 35.3012C20.9992 35.5012 21.7992 35.7012 22.5992 35.8012C22.7992 35.8012 22.9992 36.0012 22.9992 36.2012C22.9992 36.4012 22.7992 36.6012 22.5992 36.6012ZM17.9992 35.1012C17.8992 35.1012 17.8992 35.1012 17.7992 35.0012C16.9992 34.6012 16.3992 34.0012 15.7992 33.4012C15.5992 33.2012 15.6992 33.0012 15.7992 32.8012C15.8992 32.6012 16.1992 32.7012 16.3992 32.8012C16.8992 33.3012 17.4992 33.8012 18.1992 34.2012C18.3992 34.3012 18.4992 34.6012 18.2992 34.8012C18.2992 35.0012 18.1992 35.1012 17.9992 35.1012ZM29.5992 35.0012C29.4992 35.0012 29.2992 34.9012 29.2992 34.8012C29.2421 34.7055 29.2208 34.5927 29.2391 34.4828C29.2574 34.3729 29.3141 34.2731 29.3992 34.2012C29.9992 33.8012 30.5992 33.2012 31.0992 32.6012C31.1992 32.4012 31.4992 32.4012 31.6992 32.5012C31.8992 32.6012 31.8992 32.9012 31.7992 33.1012C31.2992 33.8012 30.6992 34.3012 29.8992 34.8012C29.6992 35.0012 29.5992 35.0012 29.5992 35.0012ZM14.7992 31.6012C14.5992 31.6012 14.4992 31.5012 14.3992 31.4012C13.9992 30.6012 13.7992 29.8012 13.6992 28.9012C13.6992 28.7012 13.7992 28.5012 14.0992 28.5012C14.2992 28.5012 14.4992 28.6012 14.4992 28.9012C14.5992 29.7012 14.7992 30.4012 15.0992 31.1012C15.1992 31.3012 15.0992 31.5012 14.8992 31.6012H14.7992ZM14.1992 26.8012C13.8992 26.8012 13.7992 26.6012 13.7992 26.4012C13.8992 25.5012 14.0992 24.7012 14.2992 24.0012C14.3461 23.9093 14.4178 23.8325 14.5062 23.7795C14.5946 23.7264 14.6961 23.6993 14.7992 23.7012C14.8911 23.748 14.9679 23.8197 15.0209 23.9081C15.074 23.9966 15.1011 24.0981 15.0992 24.2012C14.8992 24.9012 14.6992 25.7012 14.5992 26.5012C14.5992 26.7012 14.3992 26.8012 14.1992 26.8012ZM15.6992 22.3012C15.5992 22.3012 15.5992 22.3012 15.4992 22.2012C15.2992 22.1012 15.1992 21.8012 15.2992 21.6012C15.6992 20.8012 16.1992 20.2012 16.6992 19.5012C16.7992 19.3012 17.0992 19.3012 17.2992 19.4012C17.4992 19.5012 17.4992 19.8012 17.3992 20.0012C16.8992 20.6012 16.4992 21.3012 16.0992 22.0012C15.8992 22.2012 15.7992 22.3012 15.6992 22.3012ZM18.3992 18.2012H18.1992C17.9992 18.1012 17.8992 17.9012 17.9992 17.7012C18.3992 17.0012 18.5992 16.3012 18.5992 15.6012C18.5992 15.4012 18.7992 15.2012 18.9992 15.2012C19.1992 15.2012 19.3992 15.4012 19.3992 15.6012C19.3992 16.5012 19.1992 17.3012 18.6992 18.1012C18.5992 18.1012 18.4992 18.2012 18.3992 18.2012Z" fill="#1EC8BB"/>
<path d="M15.9008 20.4014C14.6008 14.3014 13.3008 10.0014 13.3008 9.90137L14.8008 9.40137C14.8008 9.40137 16.1008 13.8014 17.5008 20.0014L15.9008 20.4014ZM24.0008 27.5014C24.0008 28.4014 23.3008 29.2014 22.3008 29.2014C21.4008 29.2014 20.6008 28.5014 20.6008 27.5014C20.6008 26.5014 21.3008 25.8014 22.3008 25.8014C23.2008 25.9014 24.0008 26.6014 24.0008 27.5014ZM57.2008 61.5014C53.3008 57.5014 51.4008 50.4014 51.7008 40.4014H53.3008C53.0008 50.0014 54.7008 56.7014 58.3008 60.4014L57.2008 61.5014ZM14.7008 61.5014L13.5008 60.4014C17.1008 56.7014 18.8008 50.0014 18.5008 40.4014H20.1008C20.4008 50.4014 18.6008 57.5014 14.7008 61.5014Z" fill="#062D4C"/>
<path d="M21.7005 41.5011C17.3005 41.5011 13.1005 39.2011 11.3005 35.6011C8.20053 29.5011 12.5005 24.2011 15.1005 21.0011C15.7005 20.3011 16.2005 19.7011 16.5005 19.1011C16.5005 19.1011 17.8005 17.1011 18.1005 14.9011C18.2005 14.5011 18.6005 14.1011 19.0005 14.2011C19.4005 14.3011 19.8005 14.7011 19.7005 15.1011C19.4005 17.7011 17.9005 19.9011 17.9005 20.0011C17.5005 20.6011 17.0005 21.2011 16.4005 22.0011C13.8005 25.2011 10.2005 29.7011 12.8005 34.9011C14.6005 38.5011 19.2005 40.5011 23.7005 39.7011C28.0005 39.0011 31.0005 35.8011 31.6005 31.3011C31.7005 30.9011 32.1005 30.5011 32.5005 30.6011C32.9005 30.7011 33.3005 31.1011 33.2005 31.5011C32.5005 36.8011 29.0005 40.4011 24.0005 41.3011C23.1005 41.4011 22.4005 41.5011 21.7005 41.5011ZM50.3005 41.5011C49.6005 41.5011 48.9005 41.4011 48.2005 41.3011C43.1005 40.5011 39.7005 36.8011 39.0005 31.5011C38.9005 31.1011 39.3005 30.7011 39.7005 30.6011C40.1005 30.5011 40.6005 30.9011 40.6005 31.3011C41.2005 35.8011 44.2005 38.9011 48.5005 39.7011C53.0005 40.5011 57.6005 38.4011 59.4005 34.9011C62.0005 29.7011 58.4005 25.3011 55.8005 22.0011C55.2005 21.2011 54.7005 20.6011 54.3005 20.0011C54.2005 19.9011 52.8005 17.7011 52.5005 15.1011C52.4005 14.7011 52.8005 14.3011 53.2005 14.2011C53.6005 14.1011 54.0005 14.5011 54.1005 14.9011C54.4005 17.1011 55.7005 19.1011 55.7005 19.1011C56.0005 19.6011 56.5005 20.2011 57.1005 21.0011C59.7005 24.2011 64.0005 29.5011 60.9005 35.6011C58.9005 39.2011 54.7005 41.5011 50.3005 41.5011Z" fill="#062D4C"/>
</svg>
