<svg width="72" height="71" viewBox="0 0 72 71" fill="none" xmlns="http://www.w3.org/2000/svg">
<rect width="70" height="70" transform="translate(1 0.500977)" fill="white"/>
<path d="M69.7 70.501H2.3C1.6 70.501 1 69.901 1 69.201V1.80098C1 1.10098 1.6 0.500977 2.3 0.500977H69.7C70.4 0.500977 71 1.10098 71 1.80098V69.201C71 69.901 70.4 70.501 69.7 70.501Z" stroke="#E8E6D9" stroke-width="0.5" stroke-miterlimit="10"/>
<path d="M34.1992 20.5007C33.9992 20.5007 33.6992 20.4007 33.5992 20.2007C28.2992 14.2007 25.7992 8.70073 25.6992 8.50073C25.4992 8.10073 25.6992 7.60073 26.0992 7.40073C26.4992 7.20073 26.9992 7.40073 27.1992 7.80073C27.1992 7.90073 29.5992 13.3007 34.7992 19.2007C35.0992 19.5007 35.0992 20.1007 34.6992 20.4007C34.5992 20.5007 34.3992 20.5007 34.1992 20.5007ZM48.2992 31.7007C48.1992 31.7007 47.9992 31.7007 47.8992 31.6007C45.0992 30.1007 42.4992 28.5007 40.0992 26.6007C39.6992 26.3007 39.6992 25.8007 39.8992 25.4007C40.1992 25.0007 40.6992 25.0007 41.0992 25.2007C43.3992 27.0007 45.8992 28.6007 48.5992 30.0007C48.9992 30.2007 49.1992 30.7007 48.9992 31.1007C48.8992 31.6007 48.5992 31.7007 48.2992 31.7007ZM21.5992 63.7007C21.4992 63.7007 21.2992 63.7007 21.1992 63.6007C20.7992 63.4007 20.5992 62.9007 20.7992 62.5007C21.2992 61.4007 21.9992 60.4007 22.7992 59.4007C25.3992 56.1007 25.5992 55.0007 25.5992 54.8007C25.5992 54.6007 25.5992 54.3007 25.7992 54.2007C25.9992 54.0007 26.2992 53.9007 26.5992 53.9007C34.2992 55.1007 40.4992 53.7007 44.9992 49.8007C48.6992 46.5007 50.4992 42.2007 51.2992 39.1007C51.3657 38.8971 51.5035 38.7243 51.6872 38.6141C51.8709 38.5039 52.0882 38.4636 52.2992 38.5007C52.5028 38.5673 52.6756 38.7051 52.7858 38.8888C52.896 39.0725 52.9362 39.2897 52.8992 39.5007C51.9992 42.8007 50.0992 47.5007 46.0992 51.0007C41.3992 55.1007 34.9992 56.7007 27.1992 55.7007C26.6992 57.0007 25.3992 58.9007 24.1992 60.5007C23.4992 61.4007 22.8992 62.3007 22.3992 63.3007C22.1992 63.5007 21.8992 63.7007 21.5992 63.7007Z" fill="#062D4C"/>
<path d="M52.6984 37.7011H52.4984C50.2984 37.3011 49.8984 35.9011 49.8984 35.7011L51.4984 35.3011C51.4984 35.3011 51.5984 35.5011 51.9984 35.7011V35.6011C51.9984 35.4011 52.0984 35.2011 52.1984 35.1011L52.7984 34.5011C52.8835 34.4292 52.9403 34.3294 52.9586 34.2195C52.9769 34.1096 52.9556 33.9968 52.8984 33.9011C52.7984 33.7011 52.5984 33.5011 52.3984 33.5011L51.6984 33.4011C51.5984 33.4011 51.4984 33.4011 51.4984 33.3011L50.3984 32.8011C49.9984 32.6011 49.7984 32.1011 49.9984 31.7011C50.1984 31.3011 50.6984 31.1011 51.0984 31.3011C51.4984 31.5011 51.7984 31.6011 52.0984 31.8011L52.6984 31.9011C53.5984 32.0011 54.2984 32.6011 54.5984 33.4011C54.8984 34.2011 54.6984 35.1011 54.1984 35.7011L53.7984 36.1011C53.7984 36.3011 53.6984 36.6011 53.6984 37.0011C53.6984 37.2011 53.4984 37.4011 53.2984 37.6011C52.9984 37.6011 52.7984 37.7011 52.6984 37.7011Z" fill="#062D4C"/>
<path d="M40.1008 29.0012C39.8008 29.0012 39.5008 28.8012 39.3008 28.5012V28.4012C38.8008 27.3012 39.0008 26.0012 39.7008 25.0012C40.0008 24.6012 40.1008 24.1012 40.1008 23.6012C40.0008 22.7012 39.3008 21.9012 38.3008 21.8012C37.7008 21.7012 37.2008 21.9012 36.7008 22.3012C35.8008 23.1012 34.6008 23.4012 33.4008 23.0012L32.6008 22.7012C32.2008 22.6012 31.9008 22.1012 32.1008 21.6012C32.2008 21.2012 32.7008 20.9012 33.2008 21.1012L34.0008 21.4012C34.6008 21.6012 35.2008 21.5012 35.6008 21.1012C36.4008 20.4012 37.4008 20.0012 38.5008 20.1012C40.2008 20.3012 41.6008 21.7012 41.8008 23.4012C41.9008 24.3012 41.6008 25.2012 41.1008 25.9012C40.7008 26.4012 40.6008 27.0012 40.9008 27.6012V27.7012C41.1008 28.1012 40.9008 28.6012 40.5008 28.8012C40.4008 29.0012 40.3008 29.0012 40.1008 29.0012ZM39.7008 18.2012C39.2008 18.2012 38.9008 17.8012 38.9008 17.4012V14.0012C38.9008 13.5012 39.3008 13.2012 39.7008 13.2012C40.2008 13.2012 40.5008 13.6012 40.5008 14.0012V17.4012C40.5008 17.8012 40.1008 18.2012 39.7008 18.2012ZM48.1008 24.0012H44.7008C44.2008 24.0012 43.9008 23.6012 43.9008 23.2012C43.9008 22.8012 44.3008 22.4012 44.7008 22.4012H48.1008C48.6008 22.4012 48.9008 22.8012 48.9008 23.2012C48.9008 23.6012 48.6008 24.0012 48.1008 24.0012ZM43.2008 20.2012C42.9388 20.1895 42.6899 20.0829 42.5008 19.9012C42.2008 19.5012 42.3008 19.0012 42.6008 18.7012L45.3008 16.6012C45.7008 16.3012 46.2008 16.4012 46.5008 16.7012C46.8008 17.1012 46.7008 17.6012 46.4008 17.9012L43.7008 20.0012C43.5008 20.1012 43.3008 20.2012 43.2008 20.2012Z" fill="#1EC8BB"/>
<path d="M26.5004 55.5014H26.3004C20.2004 54.3014 17.6004 49.8014 17.5004 49.6014C17.3004 49.2014 17.4004 48.7014 17.8004 48.5014C18.2004 48.3014 18.7004 48.4014 18.9004 48.8014C18.9004 48.8014 21.3004 52.8014 26.6004 53.9014C27.1004 54.0014 27.3004 54.4014 27.3004 54.9014C27.2004 55.3014 26.9004 55.5014 26.5004 55.5014Z" fill="#062D4C"/>
</svg>
