<svg width="72" height="71" viewBox="0 0 72 71" fill="none" xmlns="http://www.w3.org/2000/svg">
<rect width="70" height="70" transform="translate(1 0.500977)" fill="white"/>
<path d="M69.7 70.501H2.3C1.6 70.501 1 69.901 1 69.201V1.80098C1 1.10098 1.6 0.500977 2.3 0.500977H69.7C70.4 0.500977 71 1.10098 71 1.80098V69.201C71 69.901 70.4 70.501 69.7 70.501Z" stroke="#E8E6D9" stroke-width="0.5" stroke-miterlimit="10"/>
<path d="M42.9007 66.6008C42.8007 66.6008 42.6007 66.6008 42.5007 66.5008C42.1007 66.3008 41.9007 65.7008 42.1007 65.3008C42.2007 65.1008 44.0007 61.5008 43.6007 58.5008C43.3007 55.7008 42.1007 47.2008 41.9007 45.5008L41.8007 45.0008L41.3007 45.1008C40.6007 45.2008 40.2007 45.3008 40.0007 45.3008H39.2007C35.3007 45.3008 32.1007 43.9008 29.6007 41.2008C27.3007 38.7008 26.2007 35.5008 25.6007 33.3008C24.9007 30.7008 25.9007 27.9008 27.8007 26.7008C28.2007 26.5008 36.2007 21.1008 41.4007 16.3008L41.6007 16.1008L41.5007 15.8008C41.5007 15.7008 41.4007 15.5008 41.5007 15.4008L42.8007 5.10078C42.9007 4.60078 43.2007 4.30078 43.7007 4.30078H43.8007C44.3007 4.40078 44.6007 4.80078 44.6007 5.30078L43.5007 14.0008L44.4007 13.0008C44.6007 12.8008 44.8007 12.7008 45.1007 12.7008C45.3007 12.7008 45.5007 12.8008 45.6007 12.9008C45.8007 13.0008 45.9007 13.3008 45.9007 13.5008C45.9007 13.7008 45.9007 14.0008 45.7007 14.2008C41.4007 19.8008 29.2007 27.9008 28.7007 28.2008C27.4007 29.0008 26.8007 31.0008 27.3007 32.8008C27.8007 34.8008 28.9007 37.7008 30.9007 40.0008C33.0007 42.4008 35.8007 43.5008 39.1007 43.5008H39.7007C40.3007 43.4008 45.8007 42.7008 47.8007 38.9008C48.0007 38.6008 48.3007 38.4008 48.6007 38.4008C48.8007 38.4008 48.9007 38.4008 49.0007 38.5008C49.2007 38.6008 49.4007 38.8008 49.4007 39.0008C49.5007 39.2008 49.4007 39.5008 49.3007 39.7008C48.0007 42.2008 45.5007 43.6008 43.6007 44.3008L43.5007 44.5008L43.6007 44.9008C43.8007 46.0008 45.0007 55.3008 45.4007 58.3008C45.8007 61.9008 43.8007 66.0008 43.7007 66.2008C43.5007 66.5008 43.2007 66.6008 42.9007 66.6008Z" fill="#062D4C"/>
<path d="M22.9 43.9006C22.7 43.9006 22.6 43.8006 22.5 43.7006C22.4 43.5006 22.2 43.3006 22.1 43.2006C22 43.1006 22 42.9006 22 42.8006C22.025 42.6502 22.0947 42.5108 22.2 42.4006C22.3 42.3006 22.4 42.3006 22.5 42.3006C22.7 42.3006 22.8 42.4006 23 42.5006C23.1 42.7006 23.3 42.9006 23.4 43.0006C23.6 43.2006 23.5 43.6006 23.3 43.8006C23.1 43.8006 23 43.9006 22.9 43.9006ZM18.3 35.6006C18.1 35.6006 17.8 35.4006 17.8 35.2006C17.7 35.0006 17.6 34.8006 17.6 34.5006V34.1006L17.9 33.8006H18.1C18.3 33.8006 18.6 34.0006 18.6 34.2006C18.7 34.4006 18.7 34.6006 18.8 34.8006C18.9 34.9006 18.8 35.1006 18.8 35.2006L18.5 35.5006C18.4 35.6006 18.4 35.6006 18.3 35.6006ZM19.8 27.0006C19.6969 27.0025 19.5954 26.9753 19.507 26.9223C19.4186 26.8693 19.3468 26.7924 19.3 26.7006C19.1 26.4006 19.2 26.1006 19.5 25.9006L19.6 25.8006L20 25.5006C20.1 25.4006 20.2 25.4006 20.3 25.4006C20.5 25.4006 20.7 25.5006 20.8 25.6006C21 25.9006 20.9 26.2006 20.7 26.4006C20.5 26.5006 20.4 26.6006 20.3 26.7006L20 26.9006C19.9 27.0006 19.8 27.0006 19.8 27.0006ZM38.6 12.7006C38.4 12.7006 38.3 12.6006 38.2 12.5006C38 12.3006 38 12.2006 38 12.0006C38 11.8006 38.1 11.7006 38.2 11.6006L38.7 11.2006C38.8 11.1006 38.9 11.1006 39.1 11.1006C39.3 11.1006 39.4 11.2006 39.5 11.3006C39.5517 11.3572 39.5904 11.4243 39.6137 11.4974C39.6369 11.5704 39.644 11.6476 39.6345 11.7236C39.625 11.7997 39.5991 11.8728 39.5586 11.9378C39.5181 12.0029 39.464 12.0584 39.4 12.1006L38.9 12.5006C38.8 12.6006 38.7 12.7006 38.6 12.7006ZM17.5 31.0006C17.2 31.0006 17 30.7006 17 30.4006C17 30.2006 17.1 29.9006 17.1 29.7006C17.2 29.4006 17.4 29.3006 17.7 29.3006H17.8C17.9504 29.3256 18.0897 29.3953 18.2 29.5006C18.3 29.6006 18.3 29.8006 18.3 29.9006C18.3 30.1006 18.2 30.3006 18.2 30.5006C18.1 30.8006 17.9 31.0006 17.5 31.0006ZM27.4 21.4006C27.2 21.4006 27.1 21.3006 26.9 21.2006C26.8 21.1006 26.8 20.9006 26.8 20.8006C26.8 20.6006 26.9 20.5006 27 20.4006L27.5 20.0006C27.6 19.9006 27.7 19.9006 27.8 19.9006C28 19.9006 28.1 20.0006 28.3 20.1006C28.4 20.2006 28.4 20.4006 28.4 20.5006C28.375 20.651 28.3053 20.7903 28.2 20.9006L27.7 21.3006C27.6 21.3006 27.5 21.4006 27.4 21.4006ZM20.3 39.9006C20.1969 39.9025 20.0954 39.8753 20.007 39.8223C19.9186 39.7693 19.8468 39.6924 19.8 39.6006L19.5 39.0006C19.4 38.7006 19.5 38.4006 19.7 38.2006C19.8 38.2006 19.9 38.1006 20 38.1006C20.1031 38.0987 20.2046 38.1258 20.293 38.1789C20.3814 38.2319 20.4532 38.3087 20.5 38.4006L20.8 39.0006C21 39.3006 20.9 39.6006 20.6 39.8006C20.5 39.9006 20.4 39.9006 20.3 39.9006ZM34.4 51.6006H34.3C34.1 51.6006 33.8 51.5006 33.6 51.4006C33.5 51.4006 33.3 51.3006 33.3 51.1006C33.2 51.0006 33.2 50.8006 33.2 50.7006C33.3 50.4006 33.5 50.3006 33.8 50.3006H33.9C34.1 50.4006 34.3 50.4006 34.5 50.4006C34.8 50.5006 35 50.8006 34.9 51.1006C34.9044 51.1674 34.8945 51.2344 34.871 51.297C34.8474 51.3597 34.8107 51.4166 34.7634 51.464C34.716 51.5113 34.6591 51.548 34.5964 51.5715C34.5338 51.5951 34.4668 51.605 34.4 51.6006ZM23.6 24.2006C23.4 24.2006 23.3 24.1006 23.1 24.0006C22.9 23.7006 23 23.4006 23.2 23.2006L23.7 22.8006C23.8 22.7006 23.9 22.7006 24 22.7006C24.2 22.7006 24.3 22.8006 24.5 22.9006C24.7 23.2006 24.6 23.5006 24.4 23.7006L23.9 24.1006C23.8 24.1006 23.7 24.2006 23.6 24.2006ZM38.4 51.9006C38.1 51.9006 37.8 51.7006 37.8 51.3006C37.8 51.0006 38 50.7006 38.4 50.7006H39.1C39.4 50.7006 39.7 50.9006 39.7 51.2006C39.7 51.5006 39.5 51.8006 39.2 51.8006C38.9 51.9006 38.6 51.9006 38.4 51.9006Z" fill="#1EC8BB"/>
<path d="M34.9002 15.6006C34.7002 15.6006 34.6002 15.5006 34.5002 15.4006C34.3002 15.2006 34.4002 14.8006 34.6002 14.6006L35.1002 14.2006C35.2002 14.1006 35.3002 14.1006 35.5002 14.1006C35.7002 14.1006 35.8002 14.2006 35.9002 14.3006C36.0002 14.4006 36.0002 14.6006 36.0002 14.7006C35.9752 14.851 35.9055 14.9903 35.8002 15.1006L35.2002 15.5006C35.1002 15.6006 35.0002 15.6006 34.9002 15.6006ZM26.1002 47.3006C26.0002 47.3006 25.8002 47.2006 25.7002 47.2006L25.2002 46.7006C25.1039 46.5896 25.0508 46.4476 25.0508 46.3006C25.0508 46.1536 25.1039 46.0116 25.2002 45.9006C25.3105 45.7953 25.4499 45.7256 25.6002 45.7006C25.7506 45.7256 25.89 45.7953 26.0002 45.9006C26.2002 46.0006 26.3002 46.2006 26.5002 46.3006C26.6002 46.4006 26.7002 46.5006 26.7002 46.7006C26.7002 46.9006 26.7002 47.0006 26.6002 47.1006C26.4002 47.2006 26.2002 47.3006 26.1002 47.3006ZM31.1002 18.5006C30.9002 18.5006 30.8002 18.4006 30.6002 18.3006C30.5002 18.2006 30.5002 18.0006 30.5002 17.9006C30.5002 17.7006 30.6002 17.6006 30.7002 17.5006L31.2002 17.1006C31.3002 17.0006 31.4002 17.0006 31.5002 17.0006C31.7002 17.0006 31.8002 17.1006 32.0002 17.2006C32.1002 17.3006 32.1002 17.5006 32.1002 17.6006C32.1002 17.8006 32.0002 17.9006 31.9002 18.0006L31.4002 18.4006C31.4002 18.5006 31.3002 18.5006 31.1002 18.5006ZM30.0002 50.0006C29.9002 50.0006 29.8002 50.0006 29.7002 49.9006L29.1002 49.6006L28.8002 49.3006C28.8002 49.2006 28.8002 49.0006 28.9002 48.9006C28.9471 48.8087 29.0188 48.7319 29.1072 48.6789C29.1956 48.6258 29.2972 48.5987 29.4002 48.6006C29.5002 48.6006 29.6002 48.6006 29.7002 48.7006L30.3002 49.0006L30.6002 49.3006V49.7006C30.4002 49.9006 30.2002 50.0006 30.0002 50.0006ZM30.0002 32.5006H29.8002C29.3002 32.3006 29.1002 31.5006 29.4002 30.8006C29.6002 30.1006 30.1002 29.6006 30.6002 29.6006H30.8002C31.3002 29.8006 31.5002 30.6006 31.2002 31.3006C30.9002 32.0006 30.4002 32.5006 30.0002 32.5006Z" fill="#1EC8BB"/>
</svg>
