<svg width="72" height="71" viewBox="0 0 72 71" fill="none" xmlns="http://www.w3.org/2000/svg">
<rect width="70" height="70" transform="translate(1 0.500977)" fill="white"/>
<path d="M69.7 70.501H2.3C1.6 70.501 1 69.901 1 69.201V1.80098C1 1.10098 1.6 0.500977 2.3 0.500977H69.7C70.4 0.500977 71 1.10098 71 1.80098V69.201C71 69.901 70.4 70.501 69.7 70.501Z" stroke="#E8E6D9" stroke-width="0.5" stroke-miterlimit="10"/>
<path d="M60.4009 64.401C60.1009 64.401 59.8009 64.201 59.6009 63.901C58.9009 62.301 58.0009 60.801 57.1009 59.201C54.9009 55.501 52.4009 51.301 52.2009 45.001V44.601H51.8009C48.2009 44.401 45.4009 42.801 43.4009 39.801C41.7009 37.101 40.9009 33.801 40.2009 31.101C39.8009 29.501 39.5009 27.901 39.0009 27.001C38.9009 26.801 38.9009 26.601 38.9009 26.401C39.0009 26.201 39.1009 26.001 39.3009 25.901C39.4009 25.801 39.6009 25.801 39.7009 25.801C40.0009 25.801 40.3009 26.001 40.4009 26.301C41.0009 27.401 41.3009 28.901 41.8009 30.801C42.4009 33.501 43.2009 36.601 44.7009 39.001C46.5009 41.701 48.9009 43.001 52.4009 43.001C55.6009 43.001 57.8009 42.001 59.2009 39.901C62.3009 35.301 60.4009 26.201 58.4009 21.201C56.6009 16.601 54.9009 13.301 54.9009 13.301C54.7009 12.901 54.9009 12.401 55.3009 12.201C55.4009 12.101 55.5009 12.101 55.7009 12.101C56.0009 12.101 56.3009 12.301 56.5009 12.601C56.6009 12.801 57.2009 14.101 58.2009 16.301L58.9009 17.901L59.1009 16.201C59.5009 11.801 59.5009 7.40098 59.5009 7.40098C59.5009 6.90098 59.9009 6.60098 60.3009 6.60098C60.7009 6.60098 61.1009 7.00098 61.1009 7.40098C61.1009 7.70098 61.1009 15.101 60.1009 20.701V20.801V20.901C62.0009 25.801 64.3009 35.501 60.6009 40.901C59.2009 43.001 57.0009 44.301 54.1009 44.601H53.7009V45.001C53.9009 50.801 56.2009 54.601 58.4009 58.301C59.4009 59.901 60.3009 61.501 61.0009 63.201C61.1009 63.401 61.1009 63.601 61.0009 63.801C60.9009 64.001 60.8009 64.201 60.6009 64.301C60.6009 64.401 60.5009 64.401 60.4009 64.401ZM53.0009 40.201C52.4009 40.201 52.0009 39.701 52.0009 39.201C52.0009 38.601 52.5009 38.201 53.0009 38.201C53.6009 38.201 54.0009 38.701 54.0009 39.201C54.0098 39.3346 53.99 39.4685 53.9428 39.5939C53.8957 39.7192 53.8223 39.833 53.7277 39.9277C53.633 40.0224 53.5192 40.0958 53.3938 40.1429C53.2685 40.19 53.1345 40.2098 53.0009 40.201ZM11.6009 64.401C11.5009 64.401 11.4009 64.401 11.3009 64.301C11.1009 64.201 10.9009 64.001 10.8009 63.801C10.7009 63.601 10.7009 63.401 10.8009 63.201C11.5009 61.501 12.4009 60.001 13.4009 58.301C15.6009 54.601 17.9009 50.801 18.1009 44.901V44.501H17.7009C14.8009 44.201 12.7009 42.901 11.2009 40.801C9.50092 38.301 8.90092 34.801 9.40092 30.301C9.70092 27.201 10.6009 23.701 11.7009 20.801V20.701V20.601C10.7009 15.001 10.7009 7.60098 10.7009 7.30098C10.7009 6.80098 11.1009 6.50098 11.5009 6.50098C12.0009 6.50098 12.3009 6.90098 12.3009 7.30098C12.3009 7.30098 12.3009 11.701 12.7009 16.101L12.9009 17.801L13.6009 16.201C14.5009 14.101 15.2009 12.701 15.3009 12.501C15.4009 12.201 15.7009 12.001 16.1009 12.001C16.2009 12.001 16.4009 12.001 16.5009 12.101C16.9009 12.301 17.1009 12.801 16.9009 13.201C16.9009 13.201 15.3009 16.601 13.4009 21.101C11.4009 26.101 9.50092 35.201 12.6009 39.801C14.0009 41.901 16.2009 42.901 19.4009 42.901C22.9009 42.901 25.3009 41.601 27.1009 38.901C28.7009 36.501 29.4009 33.401 30.0009 30.701C30.4009 28.901 30.8009 27.301 31.4009 26.201C31.5009 25.901 31.8009 25.701 32.1009 25.701C32.2009 25.701 32.4009 25.701 32.5009 25.801C32.7009 25.901 32.8009 26.101 32.9009 26.301C33.0009 26.501 32.9009 26.701 32.8009 26.901C32.3009 27.801 32.0009 29.301 31.6009 31.001C31.0009 33.701 30.2009 37.101 28.4009 39.701C26.5009 42.701 23.6009 44.301 20.0009 44.501H19.6009V44.901C19.4009 51.201 16.9009 55.401 14.7009 59.101C13.8009 60.701 12.9009 62.201 12.2009 63.801C12.3009 64.201 12.0009 64.401 11.6009 64.401ZM19.0009 40.201C18.4009 40.201 18.0009 39.701 18.0009 39.201C18.0009 38.601 18.5009 38.201 19.0009 38.201C19.6009 38.201 20.0009 38.701 20.0009 39.201C20.0009 39.801 19.5009 40.201 19.0009 40.201ZM35.5009 62.101C35.4009 62.101 35.3009 62.101 35.2009 62.001C35.1009 61.901 35.0009 61.801 35.0009 61.701C35.0009 61.601 35.0009 61.401 35.1009 61.301C35.6009 60.601 35.8009 60.101 35.7009 59.601C35.6009 59.201 35.4009 58.901 35.2009 58.901C35.0009 58.801 34.9009 58.501 35.1009 58.201C35.2009 58.001 35.4009 58.001 35.5009 58.001C35.6009 58.001 35.7009 58.001 35.8009 58.101C35.9352 58.6555 36.2522 59.1486 36.7009 59.501C36.9009 60.301 36.6009 61.101 35.9009 62.001C35.8009 62.101 35.7009 62.101 35.5009 62.101Z" fill="#062D4C"/>
<path d="M47.9992 35.1006H47.7992C47.5992 35.0006 47.3992 35.0006 47.1992 34.9006C47.0992 34.8006 46.9992 34.8006 46.8992 34.6006C46.7992 34.5006 46.7992 34.3006 46.8992 34.2006C46.9461 34.1087 47.0178 34.0319 47.1062 33.9789C47.1946 33.9258 47.2961 33.8987 47.3992 33.9006H47.5992C47.7992 34.0006 47.9992 34.0006 48.1992 34.1006C48.4992 34.2006 48.5992 34.5006 48.4992 34.8006C48.4524 34.8924 48.3807 34.9693 48.2922 35.0223C48.2038 35.0753 48.1023 35.1025 47.9992 35.1006ZM44.2992 32.7006C44.0992 32.7006 43.9992 32.6006 43.8992 32.5006C43.7992 32.3006 43.5992 32.1006 43.4992 31.9006C43.3992 31.7006 43.3992 31.3006 43.6992 31.2006C43.7992 31.2006 43.8992 31.1006 43.9992 31.1006C44.1992 31.1006 44.3992 31.2006 44.3992 31.4006C44.4992 31.6006 44.5992 31.7006 44.6992 31.9006C44.8992 32.1006 44.7992 32.5006 44.5992 32.6006C44.4992 32.6006 44.3992 32.7006 44.2992 32.7006ZM58.5992 30.6006H58.3992C58.0992 30.5006 57.9992 30.2006 58.0992 29.9006C58.1992 29.7006 58.2992 29.5006 58.2992 29.3006C58.3461 29.2087 58.4178 29.1319 58.5062 29.0789C58.5946 29.0258 58.6961 28.9987 58.7992 29.0006H58.9992L59.2992 29.3006C59.3992 29.4006 59.3992 29.6006 59.2992 29.7006L58.9992 30.3006C58.9992 30.5006 58.7992 30.6006 58.5992 30.6006ZM55.9992 34.1006C55.7992 34.1006 55.6992 34.0006 55.5992 33.9006C55.3992 33.7006 55.4992 33.3006 55.6992 33.2006C55.8992 33.1006 55.9992 33.0006 56.1992 32.8006C56.2992 32.7006 56.3992 32.7006 56.4992 32.7006C56.6496 32.7256 56.789 32.7953 56.8992 32.9006C57.0992 33.1006 57.0992 33.4006 56.8992 33.6006C56.6992 33.8006 56.4992 33.9006 56.3992 34.0006C56.1992 34.1006 56.0992 34.1006 55.9992 34.1006ZM51.7992 35.5006C51.7324 35.505 51.6654 35.4951 51.6028 35.4715C51.5401 35.448 51.4832 35.4113 51.4359 35.364C51.3885 35.3166 51.3518 35.2597 51.3283 35.197C51.3047 35.1344 51.2948 35.0674 51.2992 35.0006C51.2992 34.9006 51.2992 34.7006 51.3992 34.6006C51.4992 34.5006 51.5992 34.4006 51.7992 34.4006C51.9992 34.4006 52.1992 34.4006 52.3992 34.3006C52.6992 34.3006 52.8992 34.5006 52.9992 34.7006C52.9992 34.8006 52.9992 35.0006 52.8992 35.1006C52.7992 35.2006 52.6992 35.3006 52.5992 35.3006C52.2992 35.5006 51.9992 35.5006 51.7992 35.5006ZM20.0992 35.5006C19.8992 35.5006 19.6992 35.5006 19.3992 35.4006C19.2992 35.4006 19.0992 35.3006 19.0992 35.2006C18.9992 35.1006 18.9992 35.0006 18.9992 34.8006C18.9992 34.5006 19.2992 34.3006 19.4992 34.3006C19.7992 34.3006 19.9992 34.4006 20.1992 34.4006C20.3496 34.4256 20.489 34.4953 20.5992 34.6006C20.6992 34.7006 20.6992 34.8006 20.6992 35.0006C20.5992 35.3006 20.3992 35.5006 20.0992 35.5006ZM23.8992 35.1006C23.6992 35.1006 23.4992 35.0006 23.3992 34.7006C23.2992 34.4006 23.4992 34.1006 23.6992 34.0006C23.8992 33.9006 24.0992 33.9006 24.2992 33.8006H24.4992C24.6023 33.7987 24.7038 33.8258 24.7922 33.8789C24.8807 33.9319 24.9524 34.0087 24.9992 34.1006C25.0992 34.2006 24.9992 34.4006 24.9992 34.5006L24.6992 34.8006C24.4992 34.9006 24.2992 35.0006 24.0992 35.0006C23.9992 35.1006 23.9992 35.1006 23.8992 35.1006ZM15.8992 34.1006C15.7992 34.1006 15.6992 34.1006 15.5992 34.0006C15.3992 33.9006 15.1992 33.7006 15.0992 33.6006C14.9992 33.5006 14.8992 33.4006 14.8992 33.2006C14.8992 33.0006 14.8992 32.9006 14.9992 32.8006C15.0992 32.7006 15.1992 32.6006 15.3992 32.6006C15.4992 32.6006 15.6992 32.6006 15.6992 32.7006C15.7992 32.8006 15.9992 33.0006 16.1992 33.1006C16.3992 33.3006 16.4992 33.6006 16.2992 33.8006C16.1992 34.1006 16.0992 34.1006 15.8992 34.1006ZM13.1992 30.6006C13.0961 30.6025 12.9946 30.5753 12.9062 30.5223C12.8178 30.4693 12.7461 30.3924 12.6992 30.3006L12.3992 29.7006C12.2992 29.6006 12.2992 29.4006 12.3992 29.3006L12.6992 29.0006H12.8992C13.0023 28.9987 13.1038 29.0258 13.1922 29.0789C13.2807 29.1319 13.3524 29.2087 13.3992 29.3006C13.4992 29.5006 13.5992 29.7006 13.5992 29.9006C13.6992 30.2006 13.5992 30.5006 13.2992 30.6006C13.3992 30.6006 13.2992 30.6006 13.1992 30.6006ZM27.5992 32.7006C27.4992 32.7006 27.3992 32.7006 27.2992 32.6006C27.0992 32.4006 26.9992 32.1006 27.1992 31.9006C27.2992 31.7006 27.3992 31.6006 27.4992 31.4006C27.5992 31.2006 27.7992 31.1006 27.8992 31.1006C27.9992 31.1006 28.0992 31.1006 28.1992 31.2006C28.3992 31.3006 28.4992 31.7006 28.3992 31.9006C28.2992 32.1006 28.0992 32.3006 27.9992 32.5006C27.8992 32.6006 27.7992 32.7006 27.5992 32.7006ZM22.2992 27.9006C21.9992 27.9006 21.6992 27.7006 21.6992 27.3006V19.8006L19.8992 21.6006C19.7992 21.7006 19.6992 21.8006 19.4992 21.8006C19.3488 21.7755 19.2095 21.7059 19.0992 21.6006C18.9992 21.5006 18.8992 21.4006 18.8992 21.2006C18.9243 21.0502 18.9939 20.9108 19.0992 20.8006L22.2992 17.6006L25.4992 20.8006C25.5956 20.9116 25.6487 21.0536 25.6487 21.2006C25.6487 21.3476 25.5956 21.4896 25.4992 21.6006C25.3992 21.7006 25.2992 21.8006 25.0992 21.8006C24.9488 21.7755 24.8095 21.7059 24.6992 21.6006L22.8992 19.8006V27.3006C22.7992 27.6006 22.5992 27.9006 22.2992 27.9006ZM48.9992 27.9006C48.6992 27.9006 48.3992 27.7006 48.3992 27.3006V19.8006L46.5992 21.6006C46.4992 21.7006 46.3992 21.8006 46.1992 21.8006C46.0488 21.7755 45.9095 21.7059 45.7992 21.6006C45.6992 21.5006 45.5992 21.4006 45.5992 21.2006C45.6243 21.0502 45.6939 20.9108 45.7992 20.8006L48.9992 17.6006L52.1992 20.8006C52.2956 20.9116 52.3487 21.0536 52.3487 21.2006C52.3487 21.3476 52.2956 21.4896 52.1992 21.6006C52.0992 21.7006 51.9992 21.8006 51.7992 21.8006C51.6488 21.7755 51.5095 21.7059 51.3992 21.6006L49.5992 19.8006V27.3006C49.5992 27.6006 49.3992 27.9006 48.9992 27.9006Z" fill="#1EC8BB"/>
</svg>
