<svg width="72" height="72" viewBox="0 0 72 72" fill="none" xmlns="http://www.w3.org/2000/svg">
<path d="M66.4663 71.752H5.54245C2.62634 71.752 0.253906 69.3795 0.253906 66.4634V5.53952C0.253906 2.62341 2.62634 0.250977 5.54245 0.250977H66.4663C69.3825 0.250977 71.7549 2.62341 71.7549 5.53952V66.4634C71.7549 69.3795 69.3825 71.752 66.4663 71.752Z" fill="white"/>
<path d="M5.54244 0.500977C2.76418 0.500977 0.503906 2.76125 0.503906 5.53951V66.4634C0.503906 69.2417 2.76418 71.502 5.54244 71.502H66.4663C69.2446 71.502 71.5049 69.2417 71.5049 66.4634V5.53951C71.5049 2.76125 69.2446 0.500977 66.4663 0.500977H5.54244ZM5.54244 0.000976562H66.4663C69.5252 0.000976562 72.0049 2.48067 72.0049 5.53951V66.4634C72.0049 69.5223 69.5252 72.002 66.4663 72.002H5.54244C2.4836 72.002 0.00390625 69.5223 0.00390625 66.4634V5.53951C0.00390625 2.48067 2.4836 0.000976562 5.54244 0.000976562Z" fill="#E7E8E8"/>
<path d="M36.2065 30.667C37.2819 30.667 38.3331 30.9859 39.2272 31.5833C40.1213 32.1807 40.8182 33.0299 41.2297 34.0233C41.6412 35.0168 41.7488 36.11 41.5391 37.1647C41.3293 38.2194 40.8114 39.1882 40.0511 39.9485C39.2907 40.7089 38.3219 41.2267 37.2672 41.4365C36.2126 41.6463 35.1194 41.5386 34.1259 41.1271C33.1324 40.7156 32.2833 40.0187 31.6858 39.1246C31.0884 38.2305 30.7695 37.1793 30.7695 36.104C30.7695 34.662 31.3424 33.2791 32.362 32.2595C33.3816 31.2398 34.7645 30.667 36.2065 30.667Z" fill="#1EC8BB"/>
<path d="M58.0088 35.4165C57.6088 34.9955 48.1378 25.0645 36.2038 25.0645C24.2698 25.0645 14.7968 34.9945 14.4008 35.4165C14.2249 35.6022 14.127 35.8482 14.127 36.104C14.127 36.3597 14.2249 36.6057 14.4008 36.7915C14.8008 37.2125 24.2708 47.1475 36.2008 47.1475C48.1308 47.1475 57.6138 37.2125 58.0088 36.7915C58.1846 36.6057 58.2826 36.3597 58.2826 36.104C58.2826 35.8482 58.1846 35.6022 58.0088 35.4165ZM36.2088 44.5095C34.5463 44.5091 32.9214 44.0157 31.5393 43.0919C30.1572 42.168 29.0801 40.8551 28.4442 39.3191C27.8082 37.7832 27.642 36.0931 27.9665 34.4627C28.291 32.8322 29.0916 31.3346 30.2672 30.1592C31.4428 28.9837 32.9405 28.1832 34.571 27.8589C36.2014 27.5346 37.8915 27.7011 39.4274 28.3372C40.9633 28.9734 42.2761 30.0506 43.1998 31.4328C44.1235 32.815 44.6166 34.44 44.6168 36.1025C44.617 37.2066 44.3997 38.3 43.9773 39.3202C43.5548 40.3404 42.9355 41.2673 42.1546 42.048C41.3738 42.8288 40.4468 43.448 39.4266 43.8703C38.4064 44.2927 37.313 44.5098 36.2088 44.5095ZM29.5418 28.1685C28.37 29.1325 27.4263 30.344 26.7784 31.7161C26.1305 33.0881 25.7945 34.5866 25.7945 36.104C25.7945 37.6213 26.1305 39.1198 26.7784 40.4918C27.4263 41.8639 28.37 43.0754 29.5418 44.0395C24.7053 42.3353 20.2823 39.6313 16.5608 36.1035C20.2828 32.5766 24.7058 29.873 29.5418 28.1685ZM42.8718 44.0365C44.0439 43.0733 44.988 41.8624 45.6362 40.4908C46.2844 39.1192 46.6206 37.621 46.6206 36.104C46.6206 34.5869 46.2844 33.0887 45.6362 31.7171C44.988 30.3455 44.0439 29.1346 42.8718 28.1715C47.7068 29.8748 52.1288 32.5774 55.8498 36.1035C52.1274 39.6286 47.7054 42.3318 42.8708 44.0375L42.8718 44.0365Z" fill="#062D4C" stroke="white" stroke-width="0.4"/>
<path opacity="0.604" d="M38.258 37.7679C39.642 37.7679 40.764 36.6459 40.764 35.2619C40.764 33.8778 39.642 32.7559 38.258 32.7559C36.8739 32.7559 35.752 33.8778 35.752 35.2619C35.752 36.6459 36.8739 37.7679 38.258 37.7679Z" fill="white"/>
</svg>
