<svg width="72" height="71" viewBox="0 0 72 71" fill="none" xmlns="http://www.w3.org/2000/svg">
<rect width="70" height="70" transform="translate(1 0.500977)" fill="white"/>
<path d="M69.7 70.501H2.3C1.6 70.501 1 69.901 1 69.201V1.80098C1 1.10098 1.6 0.500977 2.3 0.500977H69.7C70.4 0.500977 71 1.10098 71 1.80098V69.201C71 69.901 70.4 70.501 69.7 70.501Z" stroke="#E8E6D9" stroke-width="0.5" stroke-miterlimit="10"/>
<path d="M40.0012 61.1014H32.2012C30.8012 61.1014 29.7012 60.1014 29.5012 58.8014L26.9012 41.4014C24.5012 38.5014 23.2012 34.7014 23.2012 30.7014C23.2012 22.3014 29.0012 15.4014 36.1012 15.4014C43.2012 15.4014 49.0012 22.3014 49.0012 30.7014C49.0012 34.7014 47.7012 38.5014 45.3012 41.4014L42.7012 58.8014C42.4012 60.1014 41.3012 61.1014 40.0012 61.1014ZM36.1012 16.7014C29.7012 16.7014 24.6012 23.0014 24.6012 30.7014C24.6012 34.5014 25.8012 38.1014 28.1012 40.7014C28.2012 40.8014 28.2012 40.9014 28.3012 41.0014L30.9012 58.6014C31.0012 59.3014 31.6012 59.8014 32.3012 59.8014H40.0012C40.7012 59.8014 41.3012 59.3014 41.4012 58.6014L44.0012 41.0014C44.0012 40.9014 44.1012 40.8014 44.2012 40.7014C46.5012 38.0014 47.7012 34.5014 47.7012 30.7014C47.6012 22.9014 42.4012 16.7014 36.1012 16.7014ZM57.4012 36.7014C54.4012 36.7014 52.1012 35.1014 52.1012 33.0014C52.1012 30.9014 54.4012 29.3014 57.4012 29.3014C60.4012 29.3014 62.7012 30.9014 62.7012 33.0014C62.7012 35.1014 60.4012 36.7014 57.4012 36.7014ZM57.4012 30.5014C55.3012 30.5014 53.4012 31.6014 53.4012 32.9014C53.4012 34.2014 55.2012 35.3014 57.4012 35.3014C59.6012 35.3014 61.4012 34.2014 61.4012 32.9014C61.3012 31.6014 59.5012 30.5014 57.4012 30.5014Z" fill="#062D4C"/>
<path d="M52.8008 33.6015H52.6008C52.5008 33.6015 49.4008 32.8015 47.8008 30.6015C47.6008 30.3015 47.6008 29.9015 47.9008 29.7015C48.2008 29.5015 48.6008 29.5015 48.8008 29.8015C50.1008 31.6015 52.9008 32.3015 52.9008 32.3015C53.3008 32.4015 53.5008 32.7015 53.4008 33.1015C53.3008 33.4015 53.1008 33.6015 52.8008 33.6015ZM61.8008 32.7015C61.5008 32.7015 61.3008 32.5015 61.2008 32.3015C61.1008 32.0015 61.2008 31.6015 61.6008 31.4015C62.1008 31.2015 64.7008 30.0015 64.1008 25.9015C63.9008 24.5015 63.1008 23.4015 61.7008 22.6015C58.6008 21.0015 53.3008 21.7015 47.4008 24.7015C47.1008 24.9015 46.7008 24.7015 46.5008 24.4015C46.3008 24.1015 46.5008 23.7015 46.8008 23.5015C55.5008 19.2015 60.3008 20.4015 62.4008 21.4015C64.1008 22.3015 65.2008 23.8015 65.5008 25.6015C66.3008 30.9015 62.6008 32.4015 62.2008 32.6015C62.0008 32.7015 61.9008 32.7015 61.8008 32.7015ZM14.6008 36.7015C11.6008 36.7015 9.30078 35.1015 9.30078 33.0015C9.30078 30.9015 11.6008 29.3015 14.6008 29.3015C17.6008 29.3015 19.9008 30.9015 19.9008 33.0015C19.9008 35.1015 17.6008 36.7015 14.6008 36.7015ZM14.6008 30.5015C12.5008 30.5015 10.6008 31.6015 10.6008 32.9015C10.6008 34.2015 12.4008 35.3015 14.6008 35.3015C16.8008 35.3015 18.6008 34.2015 18.6008 32.9015C18.6008 31.6015 16.8008 30.5015 14.6008 30.5015Z" fill="#062D4C"/>
<path d="M19.2004 33.601C18.9004 33.601 18.6004 33.401 18.6004 33.101C18.5004 32.701 18.7004 32.401 19.1004 32.301C19.1004 32.301 22.1004 31.601 23.3004 29.601C23.5004 29.301 23.9004 29.201 24.2004 29.401C24.5004 29.601 24.6004 30.001 24.4004 30.301C22.9004 32.701 19.5004 33.501 19.4004 33.501C19.3004 33.601 19.3004 33.601 19.2004 33.601ZM10.2004 32.701H10.0004C9.30037 32.401 6.00037 30.801 6.70037 25.701C7.20037 22.601 10.0004 20.601 14.0004 20.501C14.4004 20.501 14.7004 20.801 14.7004 21.101C14.7004 21.501 14.4004 21.801 14.1004 21.801C10.7004 21.901 8.40037 23.401 8.10037 25.901C7.50037 30.001 10.0004 31.201 10.5004 31.401C10.8004 31.501 11.0004 31.901 10.9004 32.301C10.7004 32.501 10.4004 32.701 10.2004 32.701Z" fill="#062D4C"/>
<path d="M25.0009 24.8011C24.9009 24.8011 24.8009 24.8011 24.7009 24.7011C22.4009 23.6011 20.3009 22.8011 18.3009 22.3011C17.9009 22.2011 17.7009 21.9011 17.8009 21.5011C17.9009 21.1011 18.2009 20.9011 18.6009 21.0011C20.7009 21.5011 22.9009 22.3011 25.3009 23.5011C25.6009 23.7011 25.8009 24.1011 25.6009 24.4011C25.5009 24.6011 25.3009 24.8011 25.0009 24.8011ZM39.7009 61.1011H32.5009C32.4082 61.1038 32.3159 61.0876 32.2298 61.0534C32.1436 61.0192 32.0653 60.9678 31.9997 60.9022C31.9342 60.8366 31.8827 60.7584 31.8485 60.6722C31.8143 60.586 31.7981 60.4937 31.8009 60.4011V53.6011C31.8009 52.3011 32.9009 51.2011 34.2009 51.2011V43.5011C32.7009 39.7011 29.8009 32.9011 27.3009 28.3011C27.0009 27.8011 27.1009 27.1011 27.5009 26.6011C27.9009 26.1011 28.5009 25.9011 29.1009 26.1011C33.3009 27.4011 38.5009 27.4011 42.8009 26.1011C43.4009 25.9011 44.0009 26.1011 44.4009 26.6011C44.8009 27.1011 44.8009 27.8011 44.5009 28.3011C42.0009 32.6011 39.2009 39.5011 37.8009 43.3011V51.1011C39.1009 51.1011 40.2009 52.2011 40.2009 53.5011V60.3011C40.3009 60.8011 40.0009 61.1011 39.7009 61.1011ZM33.1009 59.8011H39.0009V53.6011C38.9983 53.3101 38.8815 53.0319 38.6758 52.8261C38.4701 52.6204 38.1918 52.5037 37.9009 52.5011H37.2009C37.1082 52.5038 37.0159 52.4876 36.9298 52.4534C36.8436 52.4192 36.7653 52.3678 36.6997 52.3022C36.6342 52.2366 36.5827 52.1584 36.5485 52.0722C36.5143 51.986 36.4981 51.8937 36.5009 51.8011V43.2011V43.0011C38.0009 39.2011 40.8009 32.1011 43.4009 27.7011C43.5009 27.6011 43.4009 27.5011 43.4009 27.5011C43.4009 27.5011 43.3009 27.4011 43.2009 27.4011C38.7009 28.8011 33.1009 28.8011 28.7009 27.4011C28.6009 27.4011 28.5009 27.4011 28.5009 27.5011C28.5009 27.5011 28.4009 27.6011 28.5009 27.7011C31.1009 32.4011 34.0009 39.4011 35.5009 43.2011V43.4011V51.9011C35.5036 51.9937 35.4874 52.086 35.4532 52.1722C35.419 52.2584 35.3676 52.3366 35.302 52.4022C35.2365 52.4678 35.1582 52.5192 35.072 52.5534C34.9858 52.5876 34.8936 52.6038 34.8009 52.6011H34.1009C33.8099 52.6037 33.5317 52.7204 33.3259 52.9261C33.1202 53.1319 33.0035 53.4101 33.0009 53.7011V59.8011H33.1009Z" fill="#062D4C"/>
<path d="M16.1992 24.0011C14.5992 24.0011 13.2992 22.7011 13.2992 21.1011C13.2992 19.5011 14.5992 18.2011 16.1992 18.2011C17.7992 18.2011 19.0992 19.5011 19.0992 21.1011C19.0992 22.7011 17.8992 24.0011 16.1992 24.0011ZM16.1992 19.5011C15.9883 19.4984 15.779 19.5379 15.5837 19.6174C15.3884 19.6969 15.2109 19.8146 15.0618 19.9637C14.9127 20.1128 14.7949 20.2903 14.7155 20.4856C14.636 20.681 14.5965 20.8902 14.5992 21.1011C14.5965 21.3119 14.636 21.5212 14.7155 21.7165C14.7949 21.9119 14.9127 22.0893 15.0618 22.2384C15.2109 22.3876 15.3884 22.5053 15.5837 22.5848C15.779 22.6642 15.9883 22.7038 16.1992 22.7011C16.41 22.7038 16.6193 22.6642 16.8146 22.5848C17.0099 22.5053 17.1874 22.3876 17.3365 22.2384C17.4856 22.0893 17.6034 21.9119 17.6828 21.7165C17.7623 21.5212 17.8018 21.3119 17.7992 21.1011C17.8992 20.2011 17.0992 19.5011 16.1992 19.5011ZM19.0992 17.7011C18.8992 17.7011 18.7992 17.6011 18.6992 17.5011C18.3992 17.3011 18.3992 16.8011 18.5992 16.6011L22.0992 12.4011C22.2992 12.1011 22.7992 12.1011 22.9992 12.3011C23.2992 12.5011 23.2992 13.0011 23.0992 13.2011L19.5992 17.5011C19.4992 17.6011 19.2992 17.7011 19.0992 17.7011ZM13.3992 17.7011C13.1992 17.7011 12.9992 17.6011 12.8992 17.5011L9.39915 13.3011C9.19915 13.0011 9.19915 12.6011 9.49915 12.4011C9.79915 12.2011 10.1992 12.2011 10.3992 12.5011L13.8992 16.7011C14.0992 17.0011 14.0992 17.4011 13.7992 17.6011C13.6992 17.7011 13.4992 17.7011 13.3992 17.7011ZM16.1992 16.8011C16.1065 16.8039 16.0142 16.7876 15.928 16.7534C15.8419 16.7192 15.7636 16.6678 15.698 16.6022C15.6325 16.5367 15.581 16.4584 15.5468 16.3722C15.5126 16.286 15.4964 16.1938 15.4992 16.1011V10.5011C15.4964 10.4084 15.5126 10.3161 15.5468 10.23C15.581 10.1438 15.6325 10.0655 15.698 9.99995C15.7636 9.93439 15.8419 9.88293 15.928 9.84873C16.0142 9.81453 16.1065 9.79832 16.1992 9.80108C16.2918 9.79832 16.3841 9.81453 16.4703 9.84873C16.5565 9.88293 16.6347 9.93439 16.7003 9.99995C16.7659 10.0655 16.8173 10.1438 16.8515 10.23C16.8857 10.3161 16.9019 10.4084 16.8992 10.5011V16.1011C16.9019 16.1938 16.8857 16.286 16.8515 16.3722C16.8173 16.4584 16.7659 16.5367 16.7003 16.6022C16.6347 16.6678 16.5565 16.7192 16.4703 16.7534C16.3841 16.7876 16.2918 16.8039 16.1992 16.8011Z" fill="#1EC8BB"/>
</svg>
