<svg width="71" height="72" viewBox="0 0 71 72" fill="none" xmlns="http://www.w3.org/2000/svg">
<rect width="70" height="70" transform="translate(0.416016 1)" fill="white"/>
<path d="M69.116 71H1.71602C1.01602 71 0.416016 70.4 0.416016 69.7V2.3C0.416016 1.6 1.01602 1 1.71602 1H69.116C69.816 1 70.416 1.6 70.416 2.3V69.7C70.416 70.4 69.816 71 69.116 71Z" stroke="#E8E6D9" stroke-width="0.5" stroke-miterlimit="10"/>
<path d="M33.8164 66.1004C33.3164 66.1004 32.9164 65.7004 32.9164 65.2004L32.8164 55.3004C32.8164 53.5004 32.5164 51.7004 32.1164 49.9004L32.0164 49.7004C31.2164 46.6004 31.0164 43.4004 31.4164 40.2004L31.5164 39.1004C31.8164 36.7004 31.8164 34.4004 31.3164 32.0004L31.0164 30.4004V30.3004C30.6164 27.9004 28.9164 25.8004 26.5164 25.1004C14.8164 21.4004 9.31641 15.6004 9.31641 6.80039C9.31641 6.30039 9.71641 5.90039 10.2164 5.90039C10.7164 5.90039 11.1164 6.30039 11.1164 6.80039C11.1164 14.7004 16.2164 20.0004 27.2164 23.4004C30.2164 24.3004 32.4164 26.9004 32.9164 30.0004V30.1004C33.0164 30.7004 33.1164 31.2004 33.2164 31.7004C33.7164 34.2004 33.7164 36.8004 33.4164 39.4004L33.3164 40.5004C32.9164 43.4004 33.1164 46.4004 33.8164 49.3004L33.9164 49.5004C34.4164 51.4004 34.7164 53.4004 34.7164 55.3004L34.8164 65.2004C34.7164 65.7004 34.3164 66.1004 33.8164 66.1004ZM37.1164 66.1004C36.6164 66.1004 36.2164 65.7004 36.2164 65.2004L36.1164 55.3004C36.1164 53.3004 36.3164 51.3004 36.8164 49.4004C37.5164 46.5004 37.6164 43.5004 37.2164 40.6004L37.1164 39.6004C36.7164 36.9004 36.7164 34.2004 37.2164 31.6004C37.3164 31.2004 37.4164 30.7004 37.4164 30.2004V30.1004C37.9164 27.0004 40.2164 24.5004 43.2164 23.6004C54.4164 20.3004 59.7164 14.9004 59.7164 6.80039C59.7164 6.30039 60.1164 5.90039 60.6164 5.90039C61.1164 5.90039 61.5164 6.30039 61.5164 6.80039C61.5164 15.7004 55.7164 21.8004 43.7164 25.2004C41.3164 25.9004 39.5164 27.9004 39.1164 30.3004V30.4004C39.0164 31.0004 38.9164 31.5004 38.9164 31.9004C38.5164 34.3004 38.4164 36.8004 38.8164 39.3004L38.9164 40.3004C39.4164 43.4004 39.2164 46.6004 38.5164 49.7004C38.1164 51.6004 37.8164 53.4004 37.9164 55.3004L38.0164 65.2004C38.0164 65.7004 37.6164 66.1004 37.1164 66.1004Z" fill="#062D4C"/>
<path d="M28.7165 54.7005C25.9165 54.7005 22.9165 53.4004 20.3165 51.0005C17.2165 48.2005 15.3165 44.3005 14.7165 40.2005C13.9165 34.0005 15.0165 28.5004 17.5165 25.5004C18.9165 23.9004 20.6165 23.0004 22.7165 22.8004C25.9165 22.6004 28.6165 23.6005 30.6165 25.7005C32.9165 28.1005 33.8165 31.8004 33.3165 36.0004C32.9165 39.4004 33.2165 42.5005 33.5165 45.2005C34.0165 49.9005 34.4165 53.9004 29.9165 54.5005C29.5165 54.7005 29.1165 54.7005 28.7165 54.7005ZM23.4165 24.6004H22.8165C21.3165 24.7004 20.0165 25.4004 18.9165 26.6004C16.7165 29.3004 15.8165 34.2005 16.5165 39.9005C17.0165 43.6005 18.8165 47.1004 21.5165 49.6004C24.0165 51.9004 27.0165 53.1004 29.6165 52.8004C32.2165 52.5005 32.2165 50.6005 31.7165 45.4005C31.4165 42.7005 31.1165 39.3004 31.5165 35.8004C31.9165 32.1004 31.1165 28.9004 29.2165 26.9004C27.8165 25.4004 25.8165 24.6004 23.4165 24.6004ZM41.5165 54.7005C41.1165 54.7005 40.8165 54.7004 40.4165 54.6004C35.9165 54.0004 36.3165 50.0005 36.8165 45.3004C37.1165 42.5005 37.4165 39.4004 37.0165 36.1004C36.5165 31.9004 37.5165 28.2004 39.7165 25.8004C41.7165 23.7004 44.4165 22.7004 47.6165 22.9004C49.6165 23.0004 51.4165 23.9004 52.8165 25.6004C55.3165 28.6004 56.4165 34.1004 55.6165 40.3004C55.0997 44.4538 53.1132 48.2849 50.0165 51.1004C47.3165 53.4004 44.3165 54.7005 41.5165 54.7005ZM46.8165 24.6004C44.4165 24.6004 42.4165 25.4004 40.9165 27.0004C39.0165 29.0004 38.2165 32.2005 38.6165 35.9005C39.0165 39.5005 38.7165 42.8004 38.4165 45.5005C37.9165 50.7005 37.9165 52.5005 40.5165 52.9005C43.1165 53.2005 46.1165 52.0005 48.6165 49.7005C51.4165 47.2005 53.1165 43.7005 53.6165 40.0005C54.3165 34.3005 53.4165 29.3005 51.2165 26.7005C50.2165 25.4005 48.8165 24.8005 47.3165 24.7005C47.2165 24.6005 47.0165 24.6004 46.8165 24.6004Z" fill="#1EC8BB"/>
</svg>
