<svg width="72" height="72" viewBox="0 0 72 72" fill="none" xmlns="http://www.w3.org/2000/svg">
<rect width="70" height="70" transform="translate(1.00195 1.00098)" fill="white"/>
<path d="M69.702 71.001H2.30195C1.60195 71.001 1.00195 70.401 1.00195 69.701V2.30098C1.00195 1.60098 1.60195 1.00098 2.30195 1.00098H69.702C70.402 1.00098 71.002 1.60098 71.002 2.30098V69.701C71.002 70.401 70.402 71.001 69.702 71.001Z" stroke="#E8E6D9" stroke-width="0.5" stroke-miterlimit="10"/>
<path d="M29.2027 60.0007C23.5027 58.2007 19.8027 54.7007 19.5027 54.4007C17.4027 52.4007 16.1027 50.7007 15.9027 50.4007C9.70273 43.1007 9.30273 17.6007 9.30273 17.3007C9.30273 15.5007 9.60273 13.6007 10.1027 11.7007C10.3027 11.0007 11.0027 10.7007 11.7027 10.9007C12.4027 11.1007 12.7027 11.8007 12.6027 12.5007C12.2027 14.2007 11.9027 15.8007 12.0027 17.4007C12.0027 21.4007 13.1027 43.1007 18.0027 48.9007V49.0007C18.0027 49.0007 19.2027 50.7007 21.4027 52.7007C21.4027 52.7007 24.8027 56.1007 30.1027 57.7007C32.1027 58.3007 34.0027 58.6007 36.0027 58.6007C41.0027 58.6007 45.9027 56.6007 50.7027 52.6007C51.7027 51.7007 52.7027 50.6007 53.7027 49.3007L54.0027 48.9007C57.1027 44.4007 60.2027 23.0007 60.2027 20.1007C60.2027 18.0007 60.0027 15.9007 59.6027 13.9007C59.5027 13.2007 59.9027 12.5007 60.6027 12.4007C61.3027 12.2007 62.0027 12.7007 62.1027 13.3007C62.5027 15.5007 62.7027 17.8007 62.7027 20.1007C62.7027 21.6007 61.9027 27.9007 60.7027 34.4007C59.2027 42.8007 57.6027 48.2007 56.0027 50.4007L55.9027 50.5007L55.6027 50.9007C54.5027 52.2007 53.5027 53.5007 52.3027 54.5007C48.3027 57.9007 44.0027 60.0007 39.7027 60.7007C38.4459 60.8999 37.1753 61.0002 35.9027 61.0007C33.7027 61.1007 31.4027 60.7007 29.2027 60.0007ZM42.6027 48.8007C36.7027 45.2007 31.3027 47.5007 29.1027 48.8007C28.5027 49.1007 27.7027 49.0007 27.3027 48.5007C26.9027 48.0007 27.0027 47.2007 27.6027 46.8007C28.6027 46.2007 30.2027 45.3007 32.3027 44.8007C35.2027 44.0007 39.6027 43.8007 44.2027 46.8007C44.8027 47.2007 44.9027 48.0007 44.5027 48.5007C44.0027 49.1007 43.2027 49.2007 42.6027 48.8007ZM31.1027 36.8007C30.6027 36.3007 30.8027 35.5007 31.3027 35.1007C31.9027 34.7007 32.6027 34.8007 33.1027 35.3007C34.0027 36.2007 34.9027 36.7007 35.7027 36.7007C36.7027 36.7007 37.7027 36.0007 38.4027 35.3007C38.9027 34.8007 39.7027 34.7007 40.3027 35.0007C40.9027 35.4007 41.0027 36.2007 40.6027 36.7007C39.7027 37.7007 38.0027 39.2007 35.8027 39.2007H35.7027C34.1027 39.3007 32.5027 38.5007 31.1027 36.8007Z" fill="#062D4C"/>
<path d="M21.1027 24.7011C20.5027 24.4011 20.3027 23.6011 20.6027 23.0011C21.0027 22.4011 21.7027 22.2011 22.4027 22.5011C24.3027 23.2011 26.1027 22.9011 27.3027 22.5011C28.0027 22.3011 28.7027 22.5011 29.1027 23.1011C29.5027 23.7011 29.3027 24.5011 28.6027 24.7011C27.7027 25.1011 26.3027 25.5011 24.7027 25.5011C23.6027 25.4011 22.4027 25.2011 21.1027 24.7011ZM43.1027 24.7011C42.5027 24.4011 42.3027 23.6011 42.6027 23.0011C43.0027 22.4011 43.7027 22.2011 44.4027 22.5011C46.3027 23.2011 48.1027 22.9011 49.3027 22.5011C50.0027 22.3011 50.7027 22.5011 51.1027 23.1011C51.5027 23.7011 51.3027 24.5011 50.6027 24.7011C49.7027 25.1011 48.3027 25.5011 46.7027 25.5011C45.6027 25.4011 44.4027 25.2011 43.1027 24.7011ZM48.7027 54.7011H51.2027V54.9011H48.7027V54.7011Z" fill="#062D4C"/>
<path d="M48.2014 32.4012L46.0014 35.3012C44.8014 36.9012 42.9014 36.6012 41.7014 34.6012L39.0014 29.8012C37.9014 27.8012 38.7014 26.6012 41.0014 27.2012L46.5014 28.5012C48.6014 29.0012 49.4014 30.8012 48.2014 32.4012ZM49.0014 15.6012L47.2014 12.8012C46.2014 11.3012 44.4014 11.5012 43.0014 13.3012L39.7014 17.7012C38.4014 19.5012 39.1014 20.6012 41.3014 20.2012L46.7014 19.1012C49.0014 18.7012 50.0014 17.1012 49.0014 15.6012ZM23.5014 32.4012L25.7014 35.3012C26.9014 36.9012 28.8014 36.6012 30.0014 34.6012L32.8014 29.7012C33.9014 27.7012 33.1014 26.5012 30.8014 27.1012L25.3014 28.4012C23.1014 29.0012 22.3014 30.8012 23.5014 32.4012ZM22.7014 15.6012L24.5014 12.8012C25.5014 11.3012 27.3014 11.5012 28.7014 13.3012L32.0014 17.7012C33.3014 19.5012 32.6014 20.6012 30.4014 20.2012L25.0014 19.1012C22.7014 18.7012 21.8014 17.1012 22.7014 15.6012Z" fill="#1EC8BB"/>
</svg>
