<svg width="72" height="72" viewBox="0 0 72 72" fill="none" xmlns="http://www.w3.org/2000/svg">
<path d="M66.4663 71.751H5.54245C2.62634 71.751 0.253906 69.3785 0.253906 66.4624V5.53854C0.253906 2.62243 2.62634 0.25 5.54245 0.25H66.4663C69.3825 0.25 71.7549 2.62243 71.7549 5.53854V66.4624C71.7549 69.3785 69.3825 71.751 66.4663 71.751Z" fill="white"/>
<path d="M5.54244 0.5C2.76418 0.5 0.503906 2.76028 0.503906 5.53854V66.4624C0.503906 69.2407 2.76418 71.501 5.54244 71.501H66.4663C69.2446 71.501 71.5049 69.2407 71.5049 66.4624V5.53854C71.5049 2.76028 69.2446 0.5 66.4663 0.5H5.54244ZM5.54244 0H66.4663C69.5252 0 72.0049 2.47969 72.0049 5.53854V66.4624C72.0049 69.5213 69.5252 72.001 66.4663 72.001H5.54244C2.4836 72.001 0.00390625 69.5213 0.00390625 66.4624V5.53854C0.00390625 2.47969 2.4836 0 5.54244 0Z" fill="#E7E8E8"/>
<path d="M22.5645 49.0606C23.2096 49.0606 23.7325 48.5377 23.7325 47.8926C23.7325 47.2475 23.2096 46.7246 22.5645 46.7246C21.9194 46.7246 21.3965 47.2475 21.3965 47.8926C21.3965 48.5377 21.9194 49.0606 22.5645 49.0606Z" fill="#1EC8BB"/>
<path d="M27.1186 53.5252C28.3706 53.5252 29.3856 52.5102 29.3856 51.2582C29.3856 50.0062 28.3706 48.9912 27.1186 48.9912C25.8665 48.9912 24.8516 50.0062 24.8516 51.2582C24.8516 52.5102 25.8665 53.5252 27.1186 53.5252Z" fill="#1EC8BB"/>
<path d="M27.8278 46.851C28.8568 46.851 29.6908 46.0169 29.6908 44.988C29.6908 43.9591 28.8568 43.125 27.8278 43.125C26.7989 43.125 25.9648 43.9591 25.9648 44.988C25.9648 46.0169 26.7989 46.851 27.8278 46.851Z" fill="#1EC8BB"/>
<path d="M45.9725 56.0561H44.3555V30.3611L52.9885 23.1221L54.0275 24.3611L45.9725 31.1151V56.0561Z" fill="#062D4C"/>
<path d="M26.7515 56.351H26.0515C24.3836 56.3511 22.7569 55.8331 21.3962 54.8685C20.0355 53.904 19.008 52.5406 18.4558 50.9667C17.9037 49.3929 17.8541 47.6863 18.3139 46.0831C18.7737 44.4798 19.7202 43.059 21.0225 42.017L31.9105 33.306C33.6331 31.9316 35.7708 31.1818 37.9745 31.179H39.4635V15H41.0805V32.8H37.9755C36.1388 32.8024 34.3572 33.4274 32.9215 34.573L22.0335 43.284C20.9925 44.1166 20.2359 45.2521 19.8684 46.5334C19.5008 47.8147 19.5404 49.1786 19.9817 50.4364C20.423 51.6943 21.2442 52.7839 22.3318 53.5547C23.4193 54.3255 24.7195 54.7393 26.0525 54.739H26.7525C28.4578 54.7372 30.0927 54.0589 31.2986 52.8531C32.5044 51.6472 33.1827 50.0123 33.1845 48.307V40.57C33.1845 39.1888 33.7332 37.8641 34.7099 36.8874C35.6866 35.9107 37.0113 35.362 38.3925 35.362H41.0825V56.051H39.4655V36.983H38.3915C37.44 36.9833 36.5275 37.3612 35.8543 38.0337C35.1812 38.7063 34.8026 39.6185 34.8015 40.57V48.298C34.8002 50.4329 33.9517 52.4799 32.4425 53.9898C30.9332 55.4997 28.8864 56.3489 26.7515 56.351Z" fill="#062D4C"/>
<path d="M43.7266 27.821V15H45.3436V24.5L50.2276 20.679L51.2276 21.952L43.7266 27.821Z" fill="#062D4C"/>
</svg>
