<svg width="72" height="72" viewBox="0 0 72 72" fill="none" xmlns="http://www.w3.org/2000/svg">
<path d="M66.4644 71.752H5.54049C2.62438 71.752 0.251953 69.3795 0.251953 66.4634V5.53952C0.251953 2.62341 2.62438 0.250977 5.54049 0.250977H66.4644C69.3805 0.250977 71.7529 2.62341 71.7529 5.53952V66.4634C71.7529 69.3795 69.3805 71.752 66.4644 71.752Z" fill="white"/>
<path d="M5.54049 0.500977C2.76223 0.500977 0.501953 2.76125 0.501953 5.53951V66.4634C0.501953 69.2417 2.76223 71.502 5.54049 71.502H66.4644C69.2427 71.502 71.5029 69.2417 71.5029 66.4634V5.53951C71.5029 2.76125 69.2427 0.500977 66.4644 0.500977H5.54049ZM5.54049 0.000976562H66.4644C69.5232 0.000976562 72.0029 2.48067 72.0029 5.53951V66.4634C72.0029 69.5223 69.5232 72.002 66.4644 72.002H5.54049C2.48164 72.002 0.00195312 69.5223 0.00195312 66.4634V5.53951C0.00195312 2.48067 2.48164 0.000976562 5.54049 0.000976562Z" fill="#E7E8E8"/>
<path d="M34.5253 36.38C34.0565 36.733 33.5417 37.0204 32.9952 37.234C32.9097 37.2684 32.8415 37.3353 32.8053 37.4201C32.7691 37.5048 32.768 37.6004 32.8024 37.6859C32.8367 37.7715 32.9036 37.8399 32.9884 37.8761C33.0732 37.9123 33.1687 37.9134 33.2543 37.8791C33.8591 37.6415 34.4288 37.3226 34.9474 36.9311C34.9836 36.9033 35.0141 36.8687 35.037 36.8292C35.0599 36.7898 35.0746 36.7463 35.0807 36.7011C35.0867 36.6559 35.0839 36.6099 35.0721 36.5658C35.0604 36.5217 35.04 36.4802 35.0123 36.444C34.9846 36.4077 34.95 36.3773 34.9105 36.3544C34.871 36.3315 34.8276 36.3167 34.7823 36.3107C34.7371 36.3047 34.6912 36.3075 34.6471 36.3192C34.603 36.331 34.5615 36.3523 34.5253 36.38Z" fill="#1EC8BB" stroke="#1EC8BB" stroke-width="0.3"/>
<path d="M27.75 37.6265C27.3097 37.5203 26.8868 37.352 26.494 37.1265C26.4546 37.1032 26.411 37.088 26.3657 37.0816C26.3204 37.0752 26.2744 37.0777 26.2301 37.0891C26.1858 37.1006 26.1442 37.1205 26.1077 37.148C26.0711 37.1755 26.0404 37.2099 26.0171 37.2493C25.9939 37.2887 25.9786 37.3324 25.9722 37.3777C25.9658 37.423 25.9683 37.4692 25.9798 37.5134C25.9912 37.5577 26.0112 37.5992 26.0387 37.6358C26.0662 37.6723 26.1006 37.7031 26.14 37.7263C26.59 37.984 27.0747 38.176 27.5791 38.2964C27.6069 38.3038 27.6354 38.3074 27.6641 38.3074C27.7491 38.308 27.8314 38.2773 27.8953 38.2212C27.9592 38.1651 28.0003 38.0876 28.0108 38.0032C28.0212 37.9188 28.0004 37.8335 27.9522 37.7634C27.9039 37.6934 27.8316 37.6436 27.749 37.6233L27.75 37.6265Z" fill="#1EC8BB" stroke="#1EC8BB" stroke-width="0.3"/>
<path d="M31.2834 37.7121C30.696 37.8137 30.1004 37.8592 29.5044 37.8481C29.4129 37.8485 29.325 37.8842 29.2591 37.9477C29.1932 38.0112 29.1543 38.0977 29.1504 38.1891C29.1488 38.2812 29.1838 38.3703 29.2477 38.4367C29.3117 38.503 29.3993 38.5413 29.4914 38.5431H29.6794C30.2565 38.543 30.8327 38.4935 31.4014 38.3952C31.4921 38.3795 31.573 38.3285 31.626 38.2533C31.6791 38.1781 31.7 38.0848 31.6844 37.994C31.6687 37.9033 31.6177 37.8228 31.5425 37.7697C31.4673 37.7166 31.3741 37.6964 31.2834 37.7121Z" fill="#1EC8BB" stroke="#1EC8BB" stroke-width="0.3"/>
<path d="M37.6049 36.931C38.1239 37.3225 38.6939 37.6414 39.299 37.879C39.3401 37.8953 39.3838 37.9037 39.4279 37.9039C39.509 37.9044 39.5877 37.8767 39.6504 37.8253C39.713 37.7739 39.7556 37.7022 39.771 37.6226C39.7863 37.5431 39.7732 37.4607 39.7341 37.3897C39.695 37.3188 39.6323 37.2636 39.5568 37.234C39.0103 37.0205 38.4954 36.7331 38.0268 36.38C37.9533 36.3282 37.8627 36.3068 37.7739 36.3204C37.685 36.334 37.6049 36.3814 37.5503 36.4527C37.4956 36.5241 37.4707 36.6139 37.4807 36.7032C37.4907 36.7925 37.5349 36.8745 37.604 36.932L37.6049 36.931Z" fill="#1EC8BB" stroke="#1EC8BB" stroke-width="0.3"/>
<path d="M41.1497 38.3978C41.7188 38.4959 42.2951 38.5454 42.8726 38.5457H43.0606C43.1061 38.5449 43.1511 38.5349 43.1929 38.5167C43.2347 38.4984 43.2724 38.4723 43.304 38.4395C43.3356 38.4067 43.3606 38.3679 43.3772 38.3255C43.3939 38.2831 43.402 38.2378 43.4011 38.1922C43.4003 38.1466 43.3903 38.1017 43.3721 38.0599C43.3539 38.0181 43.3278 37.9804 43.2949 37.9488C43.2621 37.9172 43.2234 37.8922 43.1809 37.8756C43.1385 37.8589 43.0932 37.8508 43.0476 37.8516C42.4516 37.8629 41.8558 37.817 41.2686 37.7147C41.1798 37.7034 41.0901 37.7269 41.0181 37.7801C40.9461 37.8333 40.8974 37.9121 40.8821 38.0003C40.8668 38.0885 40.886 38.1794 40.9358 38.2537C40.9856 38.3281 41.0623 38.3804 41.1497 38.3997V38.3978Z" fill="#1EC8BB" stroke="#1EC8BB" stroke-width="0.3"/>
<path d="M44.8864 38.3119C44.9151 38.3118 44.9436 38.3082 44.9714 38.3009C45.4758 38.1804 45.9603 37.9887 46.4104 37.7311C46.4899 37.6843 46.5476 37.6078 46.5708 37.5185C46.5939 37.4291 46.5807 37.3341 46.5339 37.2546C46.4871 37.175 46.4106 37.1173 46.3213 37.0942C46.2319 37.071 46.1369 37.0842 46.0573 37.131C45.6647 37.3569 45.2416 37.5252 44.8012 37.631C44.7187 37.6513 44.6466 37.7011 44.5984 37.7712C44.5501 37.8412 44.5293 37.9265 44.5398 38.0109C44.5502 38.0953 44.5913 38.1728 44.6552 38.2289C44.7191 38.285 44.8014 38.3157 44.8864 38.3151V38.3119Z" fill="#1EC8BB" stroke="#1EC8BB" stroke-width="0.3"/>
<path d="M28.5379 35.8643C28.4452 35.9194 28.3393 35.9486 28.2314 35.9486C28.1235 35.9486 28.0176 35.9194 27.9249 35.8643C27.8408 35.8267 27.7452 35.824 27.6591 35.8568C27.5731 35.8896 27.5036 35.9553 27.4659 36.0394C27.4282 36.1235 27.4255 36.2192 27.4583 36.3053C27.4912 36.3913 27.5569 36.4607 27.641 36.4984C27.828 36.5901 28.0327 36.6402 28.2409 36.6453C28.4468 36.6405 28.649 36.59 28.833 36.4974C28.9166 36.4587 28.9815 36.3884 29.0133 36.3018C29.0451 36.2153 29.0411 36.1196 29.0024 36.036C28.9637 35.9523 28.8933 35.8873 28.8067 35.8556C28.7202 35.8238 28.6247 35.8278 28.541 35.8665L28.5379 35.8643Z" fill="#1EC8BB" stroke="#1EC8BB" stroke-width="0.3"/>
<path d="M44.8914 35.8643C44.7987 35.9194 44.6928 35.9486 44.5849 35.9486C44.477 35.9486 44.3711 35.9194 44.2784 35.8643C44.1943 35.8267 44.0987 35.824 44.0127 35.8568C43.9266 35.8896 43.8571 35.9553 43.8194 36.0394C43.7818 36.1235 43.779 36.2192 43.8118 36.3053C43.8447 36.3913 43.9104 36.4607 43.9945 36.4984C44.1815 36.5901 44.3862 36.6402 44.5944 36.6453C44.8003 36.6405 45.0025 36.59 45.1865 36.4974C45.2702 36.4587 45.335 36.3884 45.3668 36.3018C45.3986 36.2153 45.3946 36.1196 45.3559 36.036C45.3172 35.9523 45.2468 35.8873 45.1602 35.8556C45.0737 35.8238 44.9782 35.8278 44.8945 35.8665L44.8914 35.8643Z" fill="#1EC8BB" stroke="#1EC8BB" stroke-width="0.3"/>
<path d="M27.2404 24.3356C27.1508 24.3143 27.0563 24.3293 26.9778 24.3776C26.8993 24.4259 26.8433 24.5034 26.8219 24.5931C26.8006 24.6827 26.8158 24.7772 26.8641 24.8557C26.9124 24.9341 26.9898 24.9902 27.0794 25.0115L34.2884 26.7366C34.3149 26.7429 34.3422 26.7458 34.3694 26.7456C34.4548 26.7462 34.5374 26.7153 34.6015 26.6588C34.6655 26.6023 34.7066 26.5242 34.7166 26.4394C34.7266 26.3546 34.705 26.2691 34.6559 26.1992C34.6068 26.1293 34.5337 26.0799 34.4505 26.0606L27.2404 24.3356Z" fill="#062D4C" stroke="#062D4C" stroke-width="0.2"/>
<path d="M37.653 26.7468C37.6803 26.7469 37.7075 26.7439 37.7341 26.7377L44.9431 25.0127C44.9879 25.0027 45.0303 24.9838 45.0678 24.9572C45.1053 24.9306 45.1372 24.8968 45.1616 24.8578C45.1859 24.8188 45.2023 24.7755 45.2097 24.7302C45.2171 24.6848 45.2155 24.6384 45.2048 24.5937C45.1941 24.549 45.1748 24.5068 45.1477 24.4697C45.1206 24.4325 45.0864 24.4011 45.0471 24.3772C45.0078 24.3534 44.9639 24.3378 44.9184 24.331C44.873 24.3242 44.8268 24.3264 44.7822 24.3377L37.5732 26.0628C37.49 26.0821 37.4167 26.1313 37.3676 26.2012C37.3185 26.2711 37.2971 26.3566 37.3071 26.4415C37.3171 26.5263 37.358 26.6044 37.4221 26.6609C37.4861 26.7174 37.5689 26.7484 37.6543 26.7477L37.653 26.7468Z" fill="#062D4C" stroke="#062D4C" stroke-width="0.2"/>
<path d="M16.8515 43.284C16.8405 43.178 16.8325 43.0771 16.8225 42.9721C16.4625 39.1181 16.9356 36.4041 17.6446 32.3551L17.7225 31.911C18.3165 28.124 19.1285 26.082 22.1355 24.721C22.5125 24.551 23.4905 24.0421 24.7295 23.3991C26.4545 22.4991 28.6025 21.388 29.9245 20.773C30.5075 20.5098 31.0192 20.1113 31.4171 19.6106C31.8151 19.1098 32.0878 18.5214 32.2126 17.8941C32.2326 17.7941 32.2495 17.6941 32.2605 17.5851C32.2657 17.5397 32.2618 17.4939 32.2492 17.45C32.2366 17.4062 32.2155 17.3653 32.1871 17.3296C32.1587 17.294 32.1236 17.2643 32.0837 17.2422C32.0437 17.2202 31.9999 17.2062 31.9546 17.2011C31.9379 17.1999 31.9212 17.1999 31.9045 17.2011C31.8877 17.2015 31.871 17.2031 31.8545 17.206H31.8395C31.8211 17.2102 31.803 17.2159 31.7856 17.2231H31.7755C31.7585 17.2307 31.7421 17.2397 31.7265 17.25L31.7165 17.257C31.7024 17.2671 31.6891 17.2781 31.6765 17.2901L31.6635 17.302C31.6535 17.3128 31.6441 17.3241 31.6355 17.336L31.6205 17.357C31.6139 17.3677 31.6079 17.3787 31.6025 17.39C31.5977 17.3998 31.5933 17.4099 31.5895 17.4201C31.5857 17.4302 31.5824 17.4406 31.5796 17.4511C31.5762 17.4633 31.5735 17.4756 31.5715 17.4881C31.5715 17.4881 31.5715 17.497 31.5715 17.502C31.5036 18.0714 31.2893 18.6134 30.9495 19.0752C30.6097 19.537 30.1559 19.9029 29.6325 20.1371C28.2965 20.7591 26.1425 21.877 24.4115 22.776C23.2305 23.389 22.2115 23.9191 21.8515 24.0821C18.5735 25.5661 17.6585 27.845 17.0395 31.792L16.9626 32.2301C16.2246 36.4451 15.7365 39.2301 16.1625 43.3501C16.1625 43.3501 16.1625 43.356 16.1625 43.359C16.1674 43.3962 16.1783 43.4323 16.1946 43.466L16.2025 43.481C16.2202 43.5131 16.2428 43.5421 16.2696 43.567L16.2815 43.5771C16.3113 43.6022 16.3452 43.6221 16.3816 43.6361H16.3915C16.4292 43.6503 16.4692 43.6578 16.5096 43.658H16.5456C16.6352 43.6477 16.7172 43.6029 16.7743 43.533C16.8314 43.4632 16.8591 43.3739 16.8515 43.284Z" fill="#062D4C" stroke="#062D4C" stroke-width="0.7"/>
<path d="M26.39 54.4377L26.413 54.0678L26.7481 48.7829C26.7481 48.7739 26.7481 48.7658 26.7481 48.7568C26.6861 42.8718 25.948 41.0029 25.022 38.6369C24.1181 36.4305 23.4429 34.1369 23.007 31.7927C22.9981 31.7479 22.9806 31.7054 22.9552 31.6674C22.9299 31.6295 22.8973 31.5969 22.8594 31.5715C22.8215 31.5461 22.7789 31.5284 22.7342 31.5195C22.6894 31.5106 22.6433 31.5104 22.5985 31.5193C22.5538 31.5281 22.5112 31.5457 22.4732 31.571C22.4352 31.5963 22.4026 31.629 22.3772 31.667C22.3518 31.7049 22.334 31.7474 22.3251 31.7922C22.3162 31.837 22.3161 31.8829 22.325 31.9277C22.6719 33.7818 23.1652 35.6056 23.8001 37.3818C23.7995 37.3908 23.7995 37.3999 23.8001 37.4089C23.7587 39.3205 23.3626 41.2078 22.632 42.9748C22.599 43.0498 22.568 43.1188 22.541 43.1748C22.5174 43.2277 22.5073 43.2857 22.5117 43.3435C22.5162 43.4013 22.5351 43.4571 22.5666 43.5058C22.598 43.5545 22.6411 43.5945 22.692 43.6223C22.7429 43.65 22.8001 43.6646 22.8581 43.6648C22.8878 43.6641 22.9174 43.6598 22.9461 43.6518L22.966 43.6457C22.99 43.6379 23.0132 43.6275 23.0351 43.6147L23.047 43.6079C23.0712 43.592 23.0935 43.573 23.1131 43.5517L23.126 43.5359C23.1433 43.515 23.1581 43.492 23.1701 43.4677V43.4599V43.4519C23.8142 41.9971 24.2172 40.4471 24.3631 38.8628L24.372 38.8857C25.272 41.1857 25.988 42.9998 26.049 48.7468L25.6911 54.3899C25.6911 54.3899 25.6911 54.3978 25.6911 54.4008C25.6903 54.4122 25.6903 54.4235 25.6911 54.4348C25.6904 54.4471 25.6904 54.4596 25.6911 54.4719C25.6932 54.4824 25.6958 54.4927 25.699 54.5029C25.699 54.5139 25.705 54.5258 25.709 54.5368C25.713 54.5478 25.718 54.5569 25.723 54.5669C25.728 54.5769 25.733 54.5869 25.739 54.5969C25.7449 54.6062 25.7512 54.6151 25.758 54.6237C25.7645 54.6325 25.7716 54.6409 25.7791 54.6489C25.7867 54.657 25.7946 54.6646 25.803 54.6718L25.829 54.6928L25.8581 54.7109L25.887 54.7268L25.919 54.7387L25.9511 54.7487C25.9626 54.7514 25.9742 54.7535 25.986 54.7548H26.0091H26.031C26.1201 54.7583 26.2071 54.7272 26.274 54.6682C26.3408 54.6092 26.3824 54.5266 26.39 54.4377Z" fill="#062D4C" stroke="#062D4C" stroke-width="0.7"/>
<path d="M54.5097 28.827C54.2633 27.7224 53.731 26.7018 52.9662 25.8677C52.2014 25.0335 51.2306 24.4149 50.1515 24.0739C47.514 22.9001 44.938 21.5928 42.4335 20.1569C41.9181 19.9049 41.4708 19.5329 41.129 19.0721C40.7873 18.6113 40.5612 18.0752 40.4696 17.5089C40.47 17.5042 40.47 17.4996 40.4696 17.4949C40.4696 17.4819 40.4696 17.4699 40.4616 17.4569L40.4515 17.4269C40.4515 17.4159 40.4426 17.405 40.4376 17.395L40.4215 17.366L40.4035 17.34C40.3955 17.33 40.3885 17.3209 40.3795 17.3119L40.3595 17.2929C40.3494 17.2836 40.3387 17.275 40.3275 17.267L40.3085 17.2549C40.2956 17.2468 40.2822 17.2394 40.2684 17.2329L40.2506 17.2259C40.2353 17.2198 40.2195 17.2148 40.2035 17.2109H40.1845C40.1688 17.2098 40.1532 17.2098 40.1376 17.2109C40.1209 17.2096 40.1042 17.2096 40.0875 17.2109C40.0422 17.2159 39.9984 17.2298 39.9584 17.2518C39.9184 17.2738 39.8831 17.3035 39.8546 17.3392C39.8262 17.3749 39.8052 17.4159 39.7926 17.4598C39.7801 17.5037 39.7763 17.5496 39.7816 17.5949C39.7926 17.6949 39.8107 17.8019 39.8317 17.9039C39.9774 18.5175 40.2552 19.0919 40.6459 19.5869C41.0366 20.0819 41.5307 20.4857 42.0936 20.77C44.6398 22.2311 47.2605 23.5579 49.9454 24.7449C50.9307 25.047 51.8154 25.6114 52.5045 26.3777C53.1936 27.144 53.6614 28.0832 53.8576 29.0949C54.4756 32.7519 54.2976 31.655 54.3156 31.895C54.3156 31.905 54.3156 31.916 54.3156 31.926L54.4855 32.926C55.1985 37.126 55.5645 39.2999 55.2155 42.9789C55.2055 43.0789 55.1977 43.1789 55.1867 43.2909C55.182 43.3363 55.1861 43.3822 55.1991 43.4259C55.2121 43.4696 55.2338 43.5103 55.2626 43.5457C55.2914 43.5811 55.3269 43.6105 55.3671 43.6321C55.4072 43.6538 55.4511 43.6673 55.4965 43.6719H55.5326C55.5729 43.6717 55.6128 43.6642 55.6505 43.65H55.6605C55.6969 43.636 55.7308 43.616 55.7606 43.5909L55.7716 43.5809C55.7984 43.556 55.8209 43.527 55.8385 43.4949L55.8466 43.4799C55.8631 43.4463 55.8739 43.4101 55.8785 43.3729C55.8788 43.3699 55.8788 43.3669 55.8785 43.3639C56.2885 39.3959 55.9155 37.1959 55.1715 32.8119L55.0045 31.8239C54.9825 31.5399 54.8566 30.4669 54.8536 30.4839C54.8448 29.9148 54.7281 29.3526 54.5097 28.827Z" fill="#062D4C" stroke="#062D4C" stroke-width="0.7"/>
<path d="M46.1124 54.455L46.0905 54.101L45.7695 49.047C45.7695 49.039 45.7695 49.0311 45.7695 49.0221C45.8295 43.3941 46.5314 41.6072 47.4194 39.3442C48.2839 37.2341 48.9296 35.0408 49.3464 32.799C49.3549 32.7562 49.3718 32.7157 49.396 32.6794C49.4202 32.643 49.4513 32.6118 49.4875 32.5876C49.5238 32.5633 49.5645 32.5463 49.6073 32.5378C49.6501 32.5292 49.6941 32.529 49.7369 32.5375C49.7797 32.546 49.8205 32.5629 49.8568 32.5871C49.8931 32.6113 49.9243 32.6424 49.9486 32.6786C49.9729 32.7149 49.9897 32.7557 49.9983 32.7985C50.0068 32.8413 50.007 32.8853 49.9985 32.9281C49.6668 34.7009 49.1953 36.4446 48.5885 38.143C48.5885 38.152 48.5885 38.1601 48.5885 38.1691C48.628 39.9973 49.0067 41.8022 49.7054 43.4921C49.7364 43.5631 49.7665 43.6301 49.7925 43.6921C49.8284 43.7723 49.831 43.8635 49.7999 43.9457C49.7688 44.028 49.7065 44.0946 49.6265 44.131C49.5835 44.1508 49.5368 44.161 49.4895 44.161C49.4611 44.1605 49.4329 44.1565 49.4055 44.1491L49.3865 44.143C49.3635 44.1354 49.3413 44.1255 49.3204 44.1132L49.3094 44.1071C49.2862 44.0923 49.265 44.0745 49.2465 44.0541L49.2335 44.038C49.217 44.0181 49.2029 43.9963 49.1915 43.9731C49.1915 43.9731 49.1915 43.973 49.1915 43.966V43.9591C48.5754 42.5681 48.1901 41.0861 48.0505 39.5712L48.0415 39.5932C47.1785 41.7932 46.4965 43.5271 46.4415 49.0231L46.7834 54.423C46.7834 54.423 46.7834 54.43 46.7834 54.434C46.7849 54.4563 46.7849 54.4788 46.7834 54.5011C46.7834 54.5111 46.7835 54.5211 46.7765 54.5321C46.7695 54.5431 46.7705 54.5531 46.7665 54.5641C46.7625 54.5751 46.7575 54.5832 46.7535 54.5932C46.7495 54.6032 46.7435 54.612 46.7385 54.621C46.7335 54.63 46.7265 54.6391 46.7195 54.6471C46.7133 54.6555 46.7066 54.6635 46.6995 54.6711C46.6925 54.6791 46.6845 54.686 46.6765 54.693L46.6525 54.7131L46.6255 54.7301L46.5975 54.745L46.5665 54.757L46.5365 54.767L46.5024 54.7731H46.4795H46.4585C46.4149 54.775 46.3713 54.7683 46.3303 54.7533C46.2893 54.7384 46.2516 54.7155 46.2195 54.686C46.1873 54.6564 46.1614 54.6208 46.1431 54.5812C46.1247 54.5416 46.1142 54.4986 46.1124 54.455Z" fill="#062D4C" stroke="#062D4C" stroke-width="0.7"/>
</svg>
