<svg width="72" height="72" viewBox="0 0 72 72" fill="none" xmlns="http://www.w3.org/2000/svg">
<path d="M66.4624 71.752H5.53854C2.62243 71.752 0.25 69.3795 0.25 66.4634V5.53952C0.25 2.62341 2.62243 0.250977 5.53854 0.250977H66.4624C69.3785 0.250977 71.751 2.62341 71.751 5.53952V66.4634C71.751 69.3795 69.3785 71.752 66.4624 71.752Z" fill="white"/>
<path d="M5.53854 0.500977C2.76028 0.500977 0.5 2.76125 0.5 5.53951V66.4634C0.5 69.2417 2.76028 71.502 5.53854 71.502H66.4624C69.2407 71.502 71.501 69.2417 71.501 66.4634V5.53951C71.501 2.76125 69.2407 0.500977 66.4624 0.500977H5.53854ZM5.53854 0.000976562H66.4624C69.5213 0.000976562 72.001 2.48067 72.001 5.53951V66.4634C72.001 69.5223 69.5213 72.002 66.4624 72.002H5.53854C2.47969 72.002 0 69.5223 0 66.4634V5.53951C0 2.48067 2.47969 0.000976562 5.53854 0.000976562Z" fill="#E7E8E8"/>
<path d="M35.0317 21.4785H32.1777V22.9505H35.0317V21.4785Z" fill="#062D4C"/>
<path d="M34.2945 34.0737C34.2945 33.9987 34.0715 26.5067 32.8945 22.4187L34.3095 22.0117C35.5365 26.2807 35.7565 33.7187 35.7645 34.0327L34.2945 34.0737Z" fill="#062D4C"/>
<path d="M50.1859 28.364C46.5779 27.642 42.5678 29.137 40.8428 29.9C40.42 25.515 39.5193 21.1893 38.1568 17L36.7688 17.492C38.4006 22.6086 39.3593 27.9159 39.6208 33.28L33.3698 32.995C32.9844 32.9774 32.5993 33.0382 32.238 33.1736C31.8767 33.309 31.5465 33.5162 31.2675 33.7828C30.9886 34.0494 30.7665 34.3697 30.6148 34.7245C30.4631 35.0793 30.3848 35.4611 30.3848 35.847V36.794C29.2144 36.5237 27.9859 36.6838 26.9238 37.245C26.4846 37.5383 26.1202 37.9304 25.8597 38.3899C25.5992 38.8494 25.4499 39.3635 25.4238 39.891V39.932V47.532C25.4434 48.9899 26.0363 50.3814 27.0741 51.4054C28.112 52.4294 29.5113 53.0035 30.9693 53.0035C32.4273 53.0035 33.8267 52.4294 34.8645 51.4054C35.9024 50.3814 36.4953 48.9899 36.5148 47.532V40.354C36.5143 40.2969 36.5301 40.2408 36.5604 40.1923C36.5907 40.1439 36.6342 40.1051 36.6858 40.0805C36.7373 40.0559 36.7949 40.0466 36.8516 40.0536C36.9083 40.0606 36.9618 40.0836 37.0058 40.12L37.0618 40.161C37.8986 40.6908 38.7788 41.1488 39.6928 41.53C40.0188 43.23 40.9618 49.905 36.9018 54.83L38.0378 55.767C42.0108 50.949 41.6888 44.841 41.2938 42.142C43.2256 42.8041 45.2518 43.1492 47.2938 43.164C47.9994 43.1646 48.7042 43.1192 49.4038 43.028C50.1773 42.8577 50.8998 42.5073 51.5124 42.0053C52.1251 41.5033 52.6107 40.8639 52.9298 40.139C53.7663 38.5477 54.2316 36.7877 54.2908 34.991C54.4048 31.379 52.8729 28.901 50.1859 28.364ZM52.8118 34.942C52.7018 38.234 51.0118 41.331 49.2058 41.568C45.2516 41.9337 41.2848 41.0161 37.8929 38.951C37.6308 38.7485 37.3172 38.6235 36.9878 38.5901C36.6583 38.5567 36.326 38.6162 36.0287 38.7619C35.7313 38.9076 35.4806 39.1337 35.3052 39.4146C35.1297 39.6955 35.0364 40.0198 35.0358 40.351V47.526C35.0358 48.6062 34.6067 49.6422 33.8429 50.4061C33.0791 51.1699 32.0431 51.599 30.9628 51.599C29.8826 51.599 28.8466 51.1699 28.0828 50.4061C27.319 49.6422 26.8898 48.6062 26.8898 47.526V40.011C26.8997 39.7112 26.9788 39.4177 27.1209 39.1535C27.263 38.8893 27.4642 38.6616 27.7088 38.488C28.5487 38.1039 29.4982 38.033 30.3858 38.288V45.854C29.9354 45.9448 29.4985 46.093 29.0858 46.295L29.7688 47.595C30.2491 47.3578 30.7771 47.233 31.3128 47.2299C31.8484 47.2268 32.3778 47.3455 32.8608 47.577L33.6068 46.308C33.0722 45.9942 32.4737 45.8049 31.8558 45.754V35.842C31.8559 35.6551 31.8938 35.4702 31.9674 35.2984C32.0409 35.1266 32.1485 34.9715 32.2837 34.8424C32.4188 34.7134 32.5787 34.613 32.7537 34.5474C32.9287 34.4819 33.1152 34.4525 33.3018 34.461L39.6718 34.752C39.6718 34.828 39.6718 34.904 39.6768 34.98C39.6864 35.433 39.8719 35.8645 40.1941 36.1831C40.5162 36.5017 40.9498 36.6824 41.4028 36.687L46.5758 36.787C46.7052 37.2741 46.7698 37.7761 46.7679 38.28H48.2398C48.2651 37.3053 48.0708 36.3374 47.6713 35.448C47.2718 34.5586 46.6773 33.7705 45.9318 33.142L45.0548 34.325C45.3917 34.6032 45.682 34.9333 45.9148 35.303L41.4238 35.219H41.4148C41.3458 35.219 41.2795 35.1916 41.2306 35.1429C41.1817 35.0942 41.1541 35.028 41.1538 34.959C41.1328 33.759 41.0738 32.586 40.9868 31.459C42.1528 30.908 46.3588 29.1 49.9008 29.809C52.7428 30.376 52.8479 33.881 52.8148 34.942H52.8118Z" fill="#062D4C"/>
<path d="M30.142 24.5283C29.8044 22.5299 29.3418 20.5547 28.757 18.6143L27.351 19.0523C27.9133 20.9274 28.3598 22.8353 28.688 24.7653C29.248 28.2173 29.036 30.5793 28.121 31.0843C27.5163 31.3697 26.8779 31.5774 26.221 31.7022C25.715 31.8242 25.17 31.9563 24.615 32.1483C23.9172 32.3826 23.1707 32.4333 22.4477 32.2952C21.7246 32.1572 21.0494 31.8352 20.487 31.3603C19.272 30.2203 18.579 28.0153 18.482 24.9843C18.4396 23.4971 18.5243 22.009 18.735 20.5363L17.29 20.3002C17.232 20.6572 15.909 29.0713 19.49 32.4323C20.1975 33.1017 21.0877 33.5461 22.048 33.7093C21.7445 34.0131 21.4712 34.3456 21.232 34.7022C19.662 37.0282 18.993 40.9732 19.188 46.7632L20.659 46.7143C20.476 41.2453 21.059 37.5863 22.452 35.5273C22.9403 34.8682 23.5582 34.316 24.2677 33.9044C24.9772 33.4929 25.7634 33.2308 26.578 33.1342C27.3625 32.9832 28.1233 32.7276 28.84 32.3743C30.427 31.4933 30.856 28.9233 30.142 24.5283Z" fill="#062D4C"/>
<path d="M23.4221 28.3158C22.8957 28.315 22.3697 28.2873 21.8462 28.2328L21.9232 26.7648H23.4182C23.2714 24.1171 22.5432 21.5342 21.2852 19.1998L22.5621 18.4668C23.9516 21.0103 24.7478 23.8351 24.8912 26.7298C25.4972 26.6298 25.9302 26.4798 26.0442 26.2848L27.3162 27.0268C27.0163 27.3945 26.6399 27.6923 26.2131 27.8996C25.7864 28.1068 25.3195 28.2185 24.8452 28.2268V28.2338H24.7932C24.3383 28.2894 23.8804 28.3168 23.4221 28.3158Z" fill="#062D4C"/>
<path d="M51.6453 33.2908C51.4269 32.5128 50.9597 31.8276 50.3152 31.3401C49.6708 30.8525 48.8844 30.5894 48.0763 30.5909C47.4353 30.5579 45.8023 30.9358 45.6553 31.7258C45.4333 32.9158 47.7973 33.0798 48.4663 33.4708C49.6223 34.1448 49.1083 35.8938 50.2493 36.4378C51.6343 37.0978 51.7993 34.5328 51.7203 33.7378C51.705 33.5874 51.68 33.438 51.6453 33.2908Z" fill="#1EC8BB"/>
</svg>
