<svg width="72" height="72" viewBox="0 0 72 72" fill="none" xmlns="http://www.w3.org/2000/svg">
<rect width="70" height="70" transform="translate(1.00195 1.00098)" fill="white"/>
<path d="M69.702 71.001H2.30195C1.60195 71.001 1.00195 70.401 1.00195 69.701V2.30098C1.00195 1.60098 1.60195 1.00098 2.30195 1.00098H69.702C70.402 1.00098 71.002 1.60098 71.002 2.30098V69.701C71.002 70.401 70.402 71.001 69.702 71.001Z" stroke="#E8E6D9" stroke-width="0.5" stroke-miterlimit="10"/>
<path d="M47.102 19.5008C44.602 14.6008 41.002 10.3008 36.602 6.90078C36.302 6.60078 35.802 6.60078 35.502 6.90078C31.102 10.2008 27.502 14.6008 25.002 19.5008C22.302 24.6008 21.002 30.2008 21.002 36.0008C21.002 41.8008 22.302 47.4008 24.902 52.5008C27.402 57.4008 31.002 61.7008 35.402 65.1008C35.702 65.4008 36.202 65.4008 36.502 65.1008C40.902 61.8008 44.502 57.4008 47.002 52.5008C49.702 47.4008 51.002 41.8008 51.002 36.0008C51.002 30.2008 49.702 24.6008 47.102 19.5008ZM36.002 63.1008C27.602 56.5008 22.802 46.7008 22.802 36.0008C22.802 25.3008 27.602 15.5008 36.002 8.90078C44.402 15.5008 49.202 25.4008 49.202 36.0008C49.202 46.6008 44.402 56.5008 36.002 63.1008Z" fill="#062D4C"/>
<path d="M43.6012 24.9014C41.9012 21.6014 39.5012 18.7014 36.5012 16.5014C36.2012 16.2014 35.7012 16.2014 35.4012 16.5014C32.5012 18.7014 30.0012 21.6014 28.3012 24.9014C26.5012 28.3014 25.7012 32.1014 25.7012 36.0014C25.7012 39.9014 26.6012 43.6014 28.3012 47.1014C30.0012 50.4014 32.4012 53.3014 35.4012 55.5014C35.7012 55.8014 36.2012 55.8014 36.5012 55.5014C39.4012 53.3014 41.9012 50.4014 43.6012 47.1014C45.4012 43.7014 46.2012 39.9014 46.2012 36.0014C46.2012 32.1014 45.4012 28.4014 43.6012 24.9014ZM36.0012 18.4014C37.2012 19.4014 38.3012 20.4014 39.2012 21.6014C38.8012 22.5014 38.0012 24.0014 36.2012 25.5014C36.1012 25.6014 35.9012 25.6014 35.8012 25.5014C34.0012 24.0014 33.1012 22.5014 32.8012 21.6014C33.7012 20.5014 34.8012 19.4014 36.0012 18.4014ZM36.0012 53.6014C30.7012 49.3014 27.6012 42.9014 27.6012 36.0014C27.6037 31.1801 29.1451 26.4856 32.0012 22.6014C32.5012 23.6014 33.4012 25.0014 35.1012 26.3014L35.2012 26.4014C35.7012 26.8014 36.3012 26.8014 36.8012 26.4014L36.9012 26.3014C38.6012 24.9014 39.5012 23.6014 40.0012 22.6014C42.9012 26.4014 44.4012 31.1014 44.4012 36.0014C44.4012 42.9014 41.3012 49.3014 36.0012 53.6014ZM39.2012 36.0014C38.4012 34.2014 37.3012 33.3014 36.0012 33.3014C34.7012 33.3014 33.6012 34.3014 32.8012 36.0014C32.1012 37.5014 31.8012 39.5014 31.8012 41.6014C31.8012 43.7014 32.2012 45.7014 32.8012 47.2014C33.6012 49.0014 34.7012 49.9014 36.0012 49.9014C37.3012 49.9014 38.4012 48.9014 39.2012 47.2014C39.9012 45.7014 40.2012 43.7014 40.2012 41.6014C40.2012 39.5014 39.8012 37.5014 39.2012 36.0014ZM36.0012 48.0014C35.0012 48.0014 33.7012 45.5014 33.7012 41.5014C33.7012 37.5014 35.1012 35.0014 36.0012 35.0014C37.0012 35.0014 38.3012 37.5014 38.3012 41.5014C38.3012 45.5014 37.0012 48.0014 36.0012 48.0014Z" fill="#1EC8BB"/>
</svg>
