<svg width="71" height="72" viewBox="0 0 71 72" fill="none" xmlns="http://www.w3.org/2000/svg">
<rect width="70" height="70" transform="translate(0.400391 1.00098)" fill="white"/>
<path d="M69.1004 71.001H1.70039C1.00039 71.001 0.400391 70.401 0.400391 69.701V2.30098C0.400391 1.60098 1.00039 1.00098 1.70039 1.00098H69.1004C69.8004 1.00098 70.4004 1.60098 70.4004 2.30098V69.701C70.4004 70.401 69.8004 71.001 69.1004 71.001Z" stroke="#E8E6D9" stroke-width="0.5" stroke-miterlimit="10"/>
<path d="M62.4003 28.3007H61.2003V26.5007H61.9003C64.9003 24.9007 65.6003 23.5007 64.9003 19.6007C64.5003 17.5007 61.4003 16.6007 55.5003 17.0007H55.2003C53.1003 17.1007 47.8003 17.1007 44.2003 14.1007C41.0003 11.4007 38.5003 10.6007 34.0003 10.7007C30.6003 10.8007 28.5003 12.4007 26.1003 14.1007C25.3003 14.7007 24.5003 15.3007 23.7003 15.8007C21.0003 17.5007 14.9003 17.1007 11.7003 16.9007C11.0003 16.9007 10.2003 16.8007 10.0003 16.8007C9.90029 16.8007 7.60029 17.1007 6.30029 18.7007C5.60029 19.5007 5.40029 20.6007 5.60029 22.0007C6.20029 26.1007 10.4003 25.9007 10.6003 25.9007L10.7003 27.7007C8.60029 27.8007 4.50029 26.9007 3.90029 22.3007C3.70029 20.5007 4.00029 18.9007 5.00029 17.7007C6.70029 15.6007 9.60029 15.2007 9.90029 15.2007C10.2003 15.2007 10.8003 15.2007 11.9003 15.3007C14.7003 15.5007 20.6003 15.9007 22.9003 14.5007C23.7003 14.0007 24.4003 13.5007 25.2003 12.9007C27.5003 11.2007 30.2003 9.30073 34.1003 9.20073C39.1003 9.10073 42.0003 10.0007 45.5003 13.0007C48.6003 15.6007 53.3003 15.6007 55.2003 15.4007H55.5003C58.1003 15.2007 66.0003 14.7007 66.7003 19.5007C67.4003 23.6007 66.9003 26.2007 62.5003 28.4007L62.4003 28.3007Z" fill="#062D4C"/>
<path d="M30.6 45.7008C29.8 45.7008 28.9 45.4008 28 44.9008L28.8 43.3008C29.9 43.9008 30.7 44.0008 31.3 43.7008C32.2 43.2008 32.6 41.9008 32.7 41.4008C32.7 40.6008 33 30.0008 32.2 23.4008C31.5 17.2008 22.1 16.6008 22 16.6008L22.1 14.8008C22.5 14.8008 33.1 15.5008 33.9 23.2008C34.7 30.2008 34.4 41.1008 34.4 41.5008V41.6008C34.4 41.7008 34 44.3008 32.1 45.3008C31.7 45.6008 31.1 45.7008 30.6 45.7008ZM40.9 45.7008C40.3 45.7008 39.8 45.6008 39.4 45.3008C37.5 44.3008 37.1 41.7008 37.1 41.6008V41.5008C37.1 41.0008 36.8 30.2008 37.6 23.2008C38.5 15.5008 49 14.8008 49.4 14.8008L49.5 16.6008C49.4 16.6008 40 17.2008 39.3 23.4008C38.5 30.0008 38.8 40.6008 38.8 41.4008C38.9 41.9008 39.3 43.3008 40.2 43.7008C40.8 44.0008 41.7 43.9008 42.7 43.3008L43.5 44.9008C42.7335 45.4229 41.8274 45.7017 40.9 45.7008Z" fill="#062D4C"/>
<path d="M33.7012 60.1006C33.5012 60.1006 33.3012 60.0006 33.1012 59.9006C31.6012 58.7006 28.2012 52.3006 27.8012 49.7006C27.3012 47.1006 27.5012 44.0006 27.8012 41.6006C28.0012 39.5006 26.2012 33.7006 24.4012 31.7006C22.3012 29.2006 22.2012 21.5006 22.2012 21.5006C22.2012 21.0006 22.6012 20.6006 23.1012 20.6006C23.6012 20.6006 24.0012 21.0006 24.0012 21.5006C24.0012 23.7006 24.4012 29.0006 25.8012 30.6006C27.7012 32.9006 29.8012 39.1006 29.6012 41.8006C29.4012 43.9006 29.2012 47.0006 29.6012 49.4006C30.0012 51.7006 33.2012 57.7006 34.3012 58.5006C34.7012 58.8006 34.7012 59.4006 34.4012 59.7006C34.2012 60.0006 33.9012 60.1006 33.7012 60.1006ZM37.8012 60.1006C37.5012 60.1006 37.3012 60.0006 37.1012 59.8006C36.8012 59.4006 36.9012 58.9006 37.2012 58.6006C38.3012 57.7006 41.5012 51.8006 41.9012 49.5006C42.3012 47.1006 42.1012 44.0006 41.9012 41.9006C41.6012 39.2006 43.7012 33.0006 45.7012 30.6006C47.0012 29.0006 47.5012 23.7006 47.5012 21.5006C47.5012 21.0006 47.9012 20.6006 48.4012 20.6006C48.9012 20.6006 49.3012 21.0006 49.3012 21.5006C49.3012 21.6006 49.3012 29.2006 47.1012 31.7006C45.3012 33.8006 43.5012 39.6006 43.7012 41.6006C43.9012 44.0006 44.1012 47.1006 43.7012 49.7006C43.2012 52.3006 39.9012 58.7006 38.4012 59.9006C38.2012 60.1006 38.0012 60.1006 37.8012 60.1006ZM57.6012 34.6006C54.8012 34.6006 52.4012 32.3006 52.4012 29.5006C52.4012 26.7006 54.7012 24.3006 57.6012 24.3006C60.5012 24.3006 62.8012 26.6006 62.8012 29.5006C62.7012 32.3006 60.4012 34.6006 57.6012 34.6006ZM57.6012 26.1006C57.1536 26.0966 56.7096 26.1818 56.2953 26.3512C55.881 26.5207 55.5046 26.771 55.1881 27.0875C54.8716 27.404 54.6213 27.7804 54.4518 28.1947C54.2824 28.6091 54.1972 29.053 54.2012 29.5006C54.2012 29.9471 54.2891 30.3892 54.46 30.8017C54.6308 31.2142 54.8813 31.589 55.197 31.9047C55.5127 32.2205 55.8875 32.4709 56.3 32.6418C56.7126 32.8126 57.1547 32.9006 57.6012 32.9006C58.0477 32.9006 58.4898 32.8126 58.9023 32.6418C59.3148 32.4709 59.6896 32.2205 60.0053 31.9047C60.3211 31.589 60.5715 31.2142 60.7424 30.8017C60.9132 30.3892 61.0012 29.9471 61.0012 29.5006C61.0052 29.053 60.92 28.6091 60.7505 28.1947C60.5811 27.7804 60.3308 27.404 60.0143 27.0875C59.6977 26.771 59.3213 26.5207 58.907 26.3512C58.4927 26.1818 58.0488 26.0966 57.6012 26.1006ZM14.4012 33.0006C11.6012 33.0006 9.20117 30.7006 9.20117 27.8006C9.20117 24.9006 11.5012 22.6006 14.4012 22.6006C17.3012 22.6006 19.6012 24.9006 19.6012 27.8006C19.6012 30.7006 17.3012 33.0006 14.4012 33.0006ZM14.4012 24.5006C13.9536 24.4966 13.5096 24.5818 13.0953 24.7512C12.681 24.9207 12.3046 25.171 11.9881 25.4875C11.6716 25.804 11.4213 26.1804 11.2518 26.5947C11.0824 27.0091 10.9972 27.453 11.0012 27.9006C10.9972 28.3482 11.0824 28.7921 11.2518 29.2064C11.4213 29.6207 11.6716 29.9971 11.9881 30.3137C12.3046 30.6302 12.681 30.8805 13.0953 31.0499C13.5096 31.2194 13.9536 31.3046 14.4012 31.3006C14.8488 31.3046 15.2927 31.2194 15.707 31.0499C16.1213 30.8805 16.4977 30.6302 16.8143 30.3137C17.1308 29.9971 17.3811 29.6207 17.5505 29.2064C17.72 28.7921 17.8052 28.3482 17.8012 27.9006C17.8052 27.453 17.72 27.0091 17.5505 26.5947C17.3811 26.1804 17.1308 25.804 16.8143 25.4875C16.4977 25.171 16.1213 24.9207 15.707 24.7512C15.2927 24.5818 14.8488 24.4966 14.4012 24.5006Z" fill="#062D4C"/>
<path d="M42.1 62.9012C45.1928 62.9012 47.7 60.394 47.7 57.3012C47.7 54.2084 45.1928 51.7012 42.1 51.7012C39.0072 51.7012 36.5 54.2084 36.5 57.3012C36.5 60.394 39.0072 62.9012 42.1 62.9012Z" fill="#1EC8BB"/>
<path d="M44.6 58.101H39.7C39.6 58.101 39.5 58.001 39.5 57.901V56.701C39.5 56.601 39.6 56.501 39.7 56.501H44.6C44.7 56.501 44.8 56.601 44.8 56.701V57.901C44.8 58.001 44.7 58.101 44.6 58.101Z" fill="white"/>
</svg>
