<svg width="71" height="72" viewBox="0 0 71 72" fill="none" xmlns="http://www.w3.org/2000/svg">
<rect width="70" height="70" transform="translate(0.400391 1.00098)" fill="white"/>
<path d="M69.1004 71.001H1.70039C1.00039 71.001 0.400391 70.401 0.400391 69.701V2.30098C0.400391 1.60098 1.00039 1.00098 1.70039 1.00098H69.1004C69.8004 1.00098 70.4004 1.60098 70.4004 2.30098V69.701C70.4004 70.401 69.8004 71.001 69.1004 71.001Z" stroke="#E8E6D9" stroke-width="0.5" stroke-miterlimit="10"/>
<path d="M11.9002 66.3006C11.6002 66.3006 11.4002 66.1006 11.4002 65.9006C9.20021 53.8006 9.00021 31.2006 11.0002 22.1006C11.4002 20.3006 12.0002 18.5006 12.6002 16.7006C13.6002 13.7006 14.6002 10.6006 14.6002 7.60063C14.5958 7.53383 14.6057 7.46685 14.6293 7.40419C14.6528 7.34152 14.6895 7.28461 14.7368 7.23727C14.7842 7.18993 14.8411 7.15325 14.9038 7.12968C14.9664 7.10612 15.0334 7.09622 15.1002 7.10063C15.167 7.09622 15.234 7.10612 15.2967 7.12968C15.3593 7.15325 15.4162 7.18993 15.4636 7.23727C15.5109 7.28461 15.5476 7.34152 15.5712 7.40419C15.5947 7.46685 15.6046 7.53383 15.6002 7.60063C15.6002 10.7006 14.5002 13.9006 13.5002 17.0006C12.9002 18.8006 12.3002 20.5006 12.0002 22.2006C10.0002 31.3006 10.3002 53.6006 12.5002 65.6006C12.5002 66.0006 12.3002 66.3006 11.9002 66.3006ZM57.2002 66.3006C57.1002 66.3006 57.1002 66.3006 57.2002 66.3006C56.8002 66.2006 56.6002 66.0006 56.7002 65.7006C58.9002 53.7006 59.1002 31.4006 57.2002 22.3006C56.8002 20.6006 56.3002 18.9006 55.7002 17.1006C54.7002 14.0006 53.6002 10.8006 53.6002 7.70063C53.5958 7.63383 53.6057 7.56685 53.6293 7.50419C53.6528 7.44152 53.6895 7.38461 53.7369 7.33727C53.7842 7.28993 53.8411 7.25325 53.9038 7.22968C53.9664 7.20612 54.0334 7.19621 54.1002 7.20063C54.167 7.19621 54.234 7.20612 54.2967 7.22968C54.3593 7.25325 54.4162 7.28993 54.4636 7.33727C54.5109 7.38461 54.5476 7.44152 54.5712 7.50419C54.5947 7.56685 54.6046 7.63383 54.6002 7.70063C54.6002 10.7006 55.6002 13.8006 56.6002 16.8006C57.2002 18.6006 57.8002 20.4006 58.2002 22.2006C60.2002 31.4006 59.9002 53.9006 57.8002 66.0006C57.6002 66.2006 57.4002 66.3006 57.2002 66.3006ZM34.6002 43.2006C34.5002 43.2006 34.5002 43.2006 34.6002 43.2006C29.9002 42.9006 29.8002 39.3006 29.8002 36.5006C29.8002 35.4006 29.8002 34.3006 29.6002 33.5006C29.1002 31.6006 26.7002 28.9006 24.8002 26.8006C24.7038 26.6897 24.6508 26.5476 24.6508 26.4006C24.6508 26.2536 24.7038 26.1116 24.8002 26.0006C24.9112 25.9043 25.0532 25.8512 25.2002 25.8512C25.3472 25.8512 25.4892 25.9043 25.6002 26.0006C27.6002 28.2006 30.0002 30.9006 30.6002 33.1006C30.9002 34.1006 30.9002 35.3006 30.9002 36.4006C30.9002 39.3006 30.9002 41.8006 34.6002 42.1006C34.9002 42.1006 35.1002 42.4006 35.1002 42.7006C35.1002 43.0006 34.8002 43.2006 34.6002 43.2006Z" fill="#062D4C"/>
<path d="M34.6001 43.201C34.5333 43.2054 34.4663 43.1955 34.4036 43.172C34.341 43.1484 34.2841 43.1117 34.2367 43.0644C34.1894 43.017 34.1527 42.9601 34.1291 42.8975C34.1056 42.8348 34.0957 42.7678 34.1001 42.701C34.1001 42.401 34.3001 42.201 34.6001 42.101C38.3001 41.901 38.3001 39.401 38.3001 36.401C38.3001 35.301 38.3001 34.101 38.6001 33.101C39.2001 30.901 41.7001 28.201 43.6001 26.001C43.8001 25.801 44.1001 25.801 44.4001 26.001C44.7001 26.201 44.6001 26.501 44.4001 26.801C42.5001 28.901 40.1001 31.501 39.6001 33.501C39.4001 34.401 39.4001 35.401 39.4001 36.501C39.3001 39.301 39.3001 42.901 34.6001 43.201ZM35.3001 11.501C34.5001 11.501 33.9001 11.101 33.5001 10.501C33.4001 10.201 33.4001 9.90102 33.7001 9.80102C34.0001 9.70102 34.3001 9.70102 34.4001 10.001C34.5001 10.301 34.9001 10.401 35.2001 10.401C35.6001 10.401 35.9001 10.301 36.0001 10.001C36.2001 9.80102 36.5001 9.70102 36.7001 9.90102C36.9001 10.101 37.0001 10.401 36.8001 10.601C36.7001 11.101 36.0001 11.501 35.3001 11.501ZM31.5001 66.301C31.1001 66.301 30.9001 66.001 31.0001 65.701L31.6001 60.901C32.3001 54.801 33.0001 49.601 32.7001 42.401C32.7001 42.101 32.9001 41.901 33.2001 41.801C33.5001 41.801 33.7001 42.001 33.8001 42.301C34.1001 49.601 33.4001 54.801 32.7001 61.001L32.1001 65.801C32.0001 66.101 31.8001 66.301 31.5001 66.301Z" fill="#062D4C"/>
<path d="M37.5994 66.3004C37.5326 66.3048 37.4657 66.2949 37.403 66.2713C37.3403 66.2478 37.2834 66.2111 37.2361 66.1638C37.1887 66.1164 37.1521 66.0595 37.1285 65.9968C37.1049 65.9342 37.095 65.8672 37.0994 65.8004L36.4994 61.0004C35.7994 55.0004 35.0994 49.7004 35.3994 42.4004C35.3994 42.1004 35.6994 41.9004 35.9994 41.9004C36.2994 41.9004 36.4994 42.2004 36.4994 42.5004C36.1994 49.7004 36.8994 54.9004 37.5994 61.0004L38.1994 65.8004C38.0994 66.0004 37.8994 66.3004 37.5994 66.3004Z" fill="#062D4C"/>
<path d="M43.1518 28.1471C45.1567 25.6489 45.5249 22.6149 43.9743 21.3705C42.4237 20.126 39.5414 21.1424 37.5365 23.6406C35.5316 26.1389 35.1633 29.1729 36.7139 30.4173C38.2645 31.6617 41.1468 30.6453 43.1518 28.1471Z" fill="white"/>
<path d="M38.3009 31.5008C37.6009 31.5008 36.9009 31.3008 36.3009 30.9008C35.4009 30.2008 35.0009 29.0008 35.2009 27.5008C35.4009 26.1008 36.0009 24.6008 37.1009 23.4008C39.3009 20.6008 42.5009 19.6008 44.3009 21.0008C45.2009 21.7008 45.6009 22.9008 45.4009 24.4008C45.2009 25.8008 44.6009 27.3008 43.5009 28.5008C42.0009 30.4008 40.0009 31.5008 38.3009 31.5008ZM42.4009 21.3008C41.0009 21.3008 39.3009 22.3008 38.0009 23.9008C37.1009 25.0008 36.5009 26.3008 36.4009 27.5008C36.3009 28.6008 36.5009 29.5008 37.1009 29.9008C38.4009 30.9008 41.0009 29.9008 42.8009 27.7008C43.7009 26.6008 44.3009 25.3008 44.4009 24.1008C44.5009 23.0008 44.3009 22.1008 43.7009 21.7008C43.3009 21.4008 42.8009 21.3008 42.4009 21.3008ZM43.6009 18.6008C43.5009 18.6008 43.4009 18.6008 43.4009 18.5008C43.2009 18.4008 43.1009 18.1008 43.1009 17.9008L44.4009 13.2008L42.1009 13.1008C41.9978 13.1026 41.8962 13.0755 41.8078 13.0225C41.7194 12.9694 41.6477 12.8926 41.6009 12.8008C41.5009 12.6008 41.5009 12.4008 41.7009 12.3008L46.6009 5.80075C46.8009 5.60075 47.0009 5.50075 47.3009 5.60075C47.5009 5.70075 47.6009 6.00075 47.6009 6.20075L46.2009 11.0008L48.5009 11.1008C48.6039 11.0989 48.7055 11.126 48.7939 11.179C48.8823 11.2321 48.954 11.3089 49.0009 11.4008C49.1009 11.6008 49.1009 11.8008 48.9009 11.9008L44.0009 18.4008C43.9009 18.6008 43.8009 18.6008 43.6009 18.6008ZM43.1009 12.2008L45.1009 12.3008C45.3009 12.3008 45.4009 12.4008 45.5009 12.5008C45.6009 12.6008 45.6009 12.8008 45.6009 13.0008L44.9009 15.6008L47.5009 12.2008L45.5009 12.1008C45.3009 12.1008 45.2009 12.0008 45.1009 11.9008C45.0009 11.8008 45.0009 11.6008 45.0009 11.4008L45.7009 8.80075L43.1009 12.2008Z" fill="#1EC8BB"/>
<path d="M55.3 15.7006L60.7 10.6006L50.5 14.7006L53.9 17.0006L48.5 22.1006L58.6 17.9006L55.3 15.7006Z" fill="white"/>
<path d="M48.5008 22.6008C48.3008 22.6008 48.2008 22.5008 48.1008 22.4008C48.0008 22.2008 48.0008 21.9008 48.2008 21.7008L53.1008 17.0008L50.3008 15.1008C50.1008 15.0008 50.0008 14.8008 50.1008 14.6008C50.1008 14.4008 50.2008 14.2008 50.4008 14.2008L60.4008 10.1008C60.6008 10.0008 60.9008 10.1008 61.0008 10.3008C61.1008 10.5008 61.1008 10.8008 60.9008 11.0008L56.0008 15.7008L58.8008 17.6008C59.0008 17.7008 59.1008 17.9008 59.0008 18.1008C59.0008 18.3008 58.9008 18.5008 58.7008 18.5008L48.6008 22.7008C48.6008 22.6008 48.6008 22.6008 48.5008 22.6008ZM51.6008 14.9008L54.1008 16.6008C54.2008 16.7008 54.3008 16.8008 54.3008 17.0008C54.3008 17.2008 54.3008 17.3008 54.1008 17.4008L50.8008 20.6008L57.4008 17.9008L54.9008 16.2008C54.8008 16.1008 54.7008 16.0008 54.7008 15.8008C54.7008 15.6008 54.7008 15.5008 54.9008 15.4008L58.2008 12.2008L51.6008 14.9008Z" fill="#1EC8BB"/>
</svg>
