<svg width="72" height="72" viewBox="0 0 72 72" fill="none" xmlns="http://www.w3.org/2000/svg">
<path d="M66.4683 71.751H5.5444C2.62829 71.751 0.255859 69.3785 0.255859 66.4624V5.53854C0.255859 2.62243 2.62829 0.25 5.5444 0.25H66.4683C69.3844 0.25 71.7568 2.62243 71.7568 5.53854V66.4624C71.7568 69.3785 69.3844 71.751 66.4683 71.751Z" fill="white"/>
<path d="M5.5444 0.5C2.76614 0.5 0.505859 2.76028 0.505859 5.53854V66.4624C0.505859 69.2407 2.76614 71.501 5.5444 71.501H66.4683C69.2466 71.501 71.5068 69.2407 71.5068 66.4624V5.53854C71.5068 2.76028 69.2466 0.5 66.4683 0.5H5.5444ZM5.5444 0H66.4683C69.5271 0 72.0068 2.47969 72.0068 5.53854V66.4624C72.0068 69.5213 69.5271 72.001 66.4683 72.001H5.5444C2.48555 72.001 0.00585938 69.5213 0.00585938 66.4624V5.53854C0.00585938 2.47969 2.48555 0 5.5444 0Z" fill="#E7E8E8"/>
<path d="M32.3232 22.0963L32.4181 22.0033C33.3626 21.0077 34.6485 20.4058 36.0181 20.3183C37.3902 20.4041 38.6789 21.0061 39.6252 22.0033M51.7872 17.8873C51.9537 17.6944 52.1691 17.5499 52.4107 17.469C52.6523 17.388 52.9113 17.3737 53.1604 17.4274C53.4096 17.4811 53.6395 17.6009 53.8263 17.7742C54.0132 17.9475 54.1499 18.1679 54.2221 18.4123C54.647 19.8985 54.6169 21.4779 54.1357 22.9468C53.6544 24.4157 52.7441 25.7067 51.5221 26.6533C50.4629 27.4365 49.1983 27.8942 47.8831 27.9703C46.2413 28.1121 44.5882 27.9013 43.0345 27.3522C41.4807 26.8031 40.0623 25.9283 38.8742 24.7863C38.7132 24.6413 38.5612 24.4863 38.4062 24.3363C37.7769 23.666 36.9283 23.2431 36.0142 23.1443C35.1012 23.244 34.2538 23.6668 33.6252 24.3363C33.4702 24.4873 33.3182 24.6363 33.1572 24.7863C31.9685 25.9284 30.5495 26.8032 28.9953 27.3523C27.4411 27.9014 25.7875 28.1121 24.1452 27.9703C22.8304 27.8936 21.5663 27.436 20.5071 26.6533C19.2859 25.7062 18.3766 24.4149 17.8964 22.9459C17.4162 21.477 17.3872 19.8979 17.8132 18.4123C17.8851 18.1681 18.0216 17.9478 18.2082 17.7746C18.3947 17.6014 18.6245 17.4817 18.8733 17.4279C19.1222 17.3742 19.3808 17.3885 19.6222 17.4693C19.8636 17.5502 20.0789 17.6945 20.2452 17.8873" stroke="#062D4C" stroke-width="1.5" stroke-miterlimit="10" stroke-linecap="round"/>
<path d="M25.3636 20.0777C26.5816 21.5327 26.6855 23.4486 25.6005 24.3576C24.5155 25.2666 22.6446 24.8237 21.4296 23.3697C20.2146 21.9157 20.1066 19.9986 21.1926 19.0896C22.2786 18.1806 24.1456 18.6227 25.3636 20.0777Z" stroke="#062D4C" stroke-width="1.5" stroke-miterlimit="10"/>
<path d="M27.6758 29.9336C27.6758 29.9336 29.9709 30.3336 30.4849 35.3446C30.5827 36.3679 30.8567 37.3666 31.2948 38.2966C31.5699 38.8739 31.9206 39.412 32.3378 39.8966C32.3378 39.8966 31.6378 44.3356 33.0098 46.1726L32.8348 46.3846C32.5553 46.7249 32.3644 47.1291 32.2791 47.5611C32.1937 47.9932 32.2167 48.4396 32.3458 48.8606L34.0918 54.5346H36.0219M44.3718 29.9346C44.3718 29.9346 42.0778 30.3346 41.5598 35.3456C41.4644 36.3692 41.1909 37.3681 40.7518 38.2976C40.4764 38.8752 40.1249 39.4133 39.7068 39.8976C39.7068 39.8976 40.4068 44.3366 39.0378 46.1736L39.2128 46.3856C39.4915 46.7263 39.6818 47.1306 39.7666 47.5626C39.8514 47.9946 39.8282 48.4408 39.6989 48.8616L37.9548 54.5356H36.0219" stroke="#062D4C" stroke-width="1.5" stroke-miterlimit="10" stroke-linecap="round"/>
<path d="M46.6812 20.0777C45.4662 21.5327 45.3582 23.4486 46.4462 24.3576C47.5342 25.2666 49.3992 24.8237 50.6172 23.3697C51.8352 21.9157 51.9402 19.9986 50.8522 19.0896C49.7642 18.1806 47.8992 18.6227 46.6812 20.0777Z" stroke="#062D4C" stroke-width="1.5" stroke-miterlimit="10"/>
<path d="M47.6943 21.5156C47.4194 21.8635 47.2506 22.2833 47.2083 22.7246C47.1928 22.8182 47.1972 22.9141 47.2212 23.0059C47.2451 23.0977 47.2881 23.1835 47.3473 23.2576C47.4292 23.3141 47.5281 23.3409 47.6273 23.3336C47.9176 23.3035 48.1983 23.2133 48.4519 23.0689C48.7055 22.9245 48.9263 22.7289 49.1003 22.4946C49.2849 22.2764 49.433 22.0299 49.5393 21.7646C49.2313 21.8527 48.9083 21.8761 48.5908 21.8334C48.2733 21.7908 47.9682 21.6829 47.6943 21.5167V21.5156Z" fill="#1EC8BB" stroke="black"/>
<path d="M24.35 21.5156C24.6255 21.8634 24.7952 22.2831 24.839 22.7246C24.8531 22.8182 24.848 22.9138 24.8241 23.0054C24.8002 23.097 24.758 23.1828 24.7 23.2576C24.6167 23.3146 24.5166 23.3414 24.416 23.3336C24.1262 23.3034 23.8457 23.2132 23.5927 23.0688C23.3396 22.9243 23.1193 22.7288 22.9459 22.4946C22.7606 22.2764 22.6113 22.03 22.5039 21.7646C22.8119 21.8528 23.1349 21.8762 23.4524 21.8336C23.7699 21.7909 24.0752 21.683 24.349 21.5167L24.35 21.5156Z" fill="#1EC8BB" stroke="black"/>
<path d="M32.2994 33.489C33.3396 32.4025 34.5892 31.5382 35.9728 30.9484C37.3564 30.3585 38.8453 30.0552 40.3494 30.0569H40.4294C40.6025 29.5297 40.8286 29.0214 41.1044 28.5399C39.8463 27.9286 38.686 27.134 37.6614 26.1819C37.5224 26.0549 37.3864 25.9209 37.2534 25.7819L37.1614 25.6899C36.863 25.3471 36.4646 25.1065 36.0223 25.002C35.5809 25.106 35.1835 25.3464 34.8864 25.689L34.8004 25.7739C34.6644 25.9099 34.5284 26.046 34.3864 26.174C33.3611 27.1256 32.201 27.9205 30.9434 28.533C31.6884 29.9225 32.1288 31.4549 32.2354 33.028C32.2524 33.182 32.2774 33.3279 32.2994 33.4799V33.489Z" fill="#1EC8BB" stroke="black"/>
</svg>
