<svg width="71" height="72" viewBox="0 0 71 72" fill="none" xmlns="http://www.w3.org/2000/svg">
<rect width="70" height="70" transform="translate(0.416016 1)" fill="white"/>
<path d="M69.116 71H1.71602C1.01602 71 0.416016 70.4 0.416016 69.7V2.3C0.416016 1.6 1.01602 1 1.71602 1H69.116C69.816 1 70.416 1.6 70.416 2.3V69.7C70.416 70.4 69.816 71 69.116 71Z" stroke="#E8E6D9" stroke-width="0.5" stroke-miterlimit="10"/>
<path d="M38.4168 40.1996C40.6168 40.6996 42.4168 41.0996 43.1168 45.7996C43.2168 46.2996 43.6168 46.5996 44.0168 46.5996H44.1168C44.6168 46.4996 45.0168 45.9996 44.9168 45.4996C44.0168 39.4996 41.1168 38.7996 38.8168 38.2996C38.7168 38.2996 38.6168 38.2996 38.6168 38.1996C41.4168 34.9996 43.0168 30.8996 43.0168 26.2996C43.0168 16.2996 34.8168 8.09961 24.8168 8.09961C14.8168 8.09961 6.7168 16.3996 6.7168 26.3996C6.7168 36.3996 14.9168 44.5996 24.9168 44.5996C29.4466 44.6131 33.8106 42.8961 37.1168 39.7996C37.5168 39.9996 38.0168 40.0996 38.4168 40.1996ZM35.2168 35.7996C36.7168 33.9996 36.9168 31.6996 35.0168 29.2996C35.3168 28.3996 35.4168 27.3996 35.4168 26.3996C35.4168 25.0207 35.1452 23.6554 34.6175 22.3814C34.0899 21.1075 33.3164 19.95 32.3414 18.975C31.3664 18 30.2089 17.2265 28.935 16.6989C27.6611 16.1712 26.2957 15.8996 24.9168 15.8996C23.5379 15.8996 22.1725 16.1712 20.8986 16.6989C19.6247 17.2265 18.4672 18 17.4922 18.975C16.5172 19.95 15.7437 21.1075 15.2161 22.3814C14.6884 23.6554 14.4168 25.0207 14.4168 26.3996C14.4168 32.1996 19.1168 36.9996 24.9168 36.9996C25.9168 36.9996 26.9168 36.8996 27.8168 36.5996C30.0168 38.2996 32.1168 38.2996 33.8168 37.1996C34.2168 37.9996 34.8168 38.5996 35.3168 38.9996C32.5168 41.2996 28.9168 42.7996 24.9168 42.7996C15.9168 42.7996 8.6168 35.4996 8.6168 26.4996C8.6168 17.4996 15.9168 10.1996 24.9168 10.1996C33.9168 10.1996 41.2168 17.4996 41.2168 26.4996C41.2168 30.7996 39.5168 34.7996 36.7168 37.6996C36.1168 37.2996 35.6168 36.6996 35.2168 35.7996ZM26.1168 34.8996C25.7168 34.9996 25.3168 34.9996 24.9168 34.9996C20.2168 34.9996 16.3168 31.0996 16.3168 26.3996C16.3168 21.6996 20.2168 17.7996 24.9168 17.7996C29.6168 17.7996 33.5168 21.6996 33.5168 26.3996C33.5168 26.7996 33.4168 27.1996 33.4168 27.5996C30.4168 25.1996 26.6168 24.7996 25.0168 26.3996C23.3168 28.0996 23.7168 31.8996 26.1168 34.8996ZM25.9168 30.2996C25.7168 29.0996 25.9168 28.1996 26.3168 27.8996C26.6168 27.5996 27.2168 27.4996 27.8168 27.4996C29.1168 27.4996 31.1168 28.0996 32.8168 29.7996C35.8168 32.7996 34.0168 34.4996 33.4168 35.0996C32.7168 35.7996 32.0168 36.0996 31.2168 36.0996C30.2168 36.0996 29.2168 35.4996 28.1168 34.3996C27.0168 33.1996 26.2168 31.6996 25.9168 30.2996Z" fill="#062D4C"/>
<path d="M41.5164 57.3C39.9164 57.1 38.8164 56.9 38.1164 55.9C39.5164 54.1 39.6164 51.6 37.1164 49.1C34.3164 46.3 30.3164 45.8 28.6164 47.4C27.0164 49 27.5164 53.1 30.3164 55.9C32.7164 58.3 34.9164 58.4 36.7164 57.2C37.9164 58.7 39.7164 59 41.2164 59.2C43.3164 59.5 45.0164 59.7 45.9164 63C46.0164 63.4 46.4164 63.7 46.8164 63.7H47.0164C47.5164 63.6 47.8164 63 47.7164 62.5C46.7164 58 43.8164 57.7 41.5164 57.3ZM36.3164 55.1C35.7164 55.7 35.1164 56 34.4164 56C33.6164 56 32.6164 55.5 31.7164 54.5C30.7164 53.5 30.0164 52.1 29.7164 50.8C29.5164 49.7 29.7164 49 30.0164 48.7C30.2164 48.5 30.6164 48.3 31.3164 48.3C32.5164 48.3 34.3164 48.8 35.8164 50.4C36.7164 51.3 37.3164 52.3 37.3164 53.1C37.3164 53.9 37.0164 54.5 36.3164 55.1ZM53.9164 39.1C55.1164 41.2 56.8164 41.6 58.2164 41.9C60.0164 42.3 61.4164 42.6 62.2164 46.5C62.3164 47 62.7164 47.3 63.1164 47.3H63.3164C63.8164 47.2 64.2164 46.7 64.1164 46.2C63.1164 41.1 60.6164 40.5 58.7164 40.1C57.3164 39.8 56.2164 39.5 55.4164 37.9C56.9164 36.1 57.0164 33.6 54.4164 31C51.6164 28.2 47.6164 27.7 45.9164 29.3C44.3164 30.9 44.8164 35 47.6164 37.8C49.9164 40.1 52.1164 40.2 53.9164 39.1ZM47.2164 30.6C47.4164 30.4 47.8164 30.2 48.5164 30.2C49.7164 30.2 51.5164 30.7 53.0164 32.3C53.9164 33.2 54.5164 34.2 54.5164 35C54.5164 35.7 54.2164 36.3 53.6164 36.9C53.0164 37.5 52.4164 37.8 51.7164 37.8C50.9164 37.8 49.9164 37.3 49.0164 36.3C48.0164 35.3 47.3164 33.9 47.0164 32.6C46.8164 31.6 47.0164 30.9 47.2164 30.6ZM64.1164 62.5C62.8164 59 60.7164 58.4 59.1164 57.9C57.8164 57.5 56.7164 57.2 55.9164 55.4C57.3164 53.7 57.4164 51.4 54.9164 48.9C52.2164 46.2 48.4164 45.7 46.9164 47.3C45.4164 48.8 45.8164 52.7 48.5164 55.3C50.7164 57.5 52.8164 57.6 54.4164 56.6C55.6164 58.8 57.3164 59.2 58.6164 59.6C60.1164 60 61.3164 60.4 62.3164 63C62.4164 63.4 62.8164 63.6 63.2164 63.6C63.3164 63.6 63.4164 63.6 63.5164 63.5C64.0164 63.5 64.2164 63 64.1164 62.5ZM54.0164 54.6C53.4164 55.2 52.9164 55.4 52.3164 55.4C51.3164 55.4 50.4164 54.7 49.8164 54C47.7164 51.9 47.6164 49.2 48.2164 48.7C48.4164 48.5 48.7164 48.4 49.4164 48.4C50.5164 48.4 52.2164 48.9 53.6164 50.3C55.6164 52.5 54.8164 53.8 54.0164 54.6Z" fill="#1EC8BB"/>
<path d="M23.9176 23.5002C24.9669 23.5002 25.8176 22.6495 25.8176 21.6002C25.8176 20.5509 24.9669 19.7002 23.9176 19.7002C22.8682 19.7002 22.0176 20.5509 22.0176 21.6002C22.0176 22.6495 22.8682 23.5002 23.9176 23.5002Z" fill="#062D4C"/>
<path d="M20.1168 27.4006C21.1661 27.4006 22.0168 26.5499 22.0168 25.5006C22.0168 24.4512 21.1661 23.6006 20.1168 23.6006C19.0675 23.6006 18.2168 24.4512 18.2168 25.5006C18.2168 26.5499 19.0675 27.4006 20.1168 27.4006Z" fill="#062D4C"/>
</svg>
