<svg width="71" height="72" viewBox="0 0 71 72" fill="none" xmlns="http://www.w3.org/2000/svg">
<rect width="70" height="70" transform="translate(0.400391 1.00098)" fill="white"/>
<path d="M69.1004 71.001H1.70039C1.00039 71.001 0.400391 70.401 0.400391 69.701V2.30098C0.400391 1.60098 1.00039 1.00098 1.70039 1.00098H69.1004C69.8004 1.00098 70.4004 1.60098 70.4004 2.30098V69.701C70.4004 70.401 69.8004 71.001 69.1004 71.001Z" stroke="#E8E6D9" stroke-width="0.5" stroke-miterlimit="10"/>
<path d="M39.2009 43.6006C39.2009 42.5006 38.9009 41.4006 38.6009 40.4006C38.1009 38.9006 37.3009 37.5006 36.5009 36.1006C36.4072 35.9169 36.2637 35.7632 36.0869 35.6572C35.9101 35.5511 35.707 35.4968 35.5009 35.5006C34.9009 35.5006 34.6009 35.8006 34.3009 36.2006C33.4009 37.7006 32.6009 39.2006 32.1009 40.8006C31.6009 42.4006 31.4009 44.0006 32.0009 45.6006C32.5009 47.1006 33.5009 48.4006 34.6009 49.5006C35.1009 50.1006 35.9009 50.0006 36.5009 49.4006L37.7009 48.0006C38.5009 46.7006 39.2009 45.3006 39.2009 43.6006ZM36.7009 30.9006C36.7009 30.2006 36.1009 29.6006 35.4009 29.6006C34.7009 29.6006 34.1009 30.2006 34.1009 30.8006C34.1009 31.5006 34.7009 32.1006 35.4009 32.1006C36.1009 32.2006 36.7009 31.6006 36.7009 30.9006Z" fill="white"/>
<path d="M39.2013 43.6012C39.2013 45.3012 38.5013 46.7012 37.6013 48.1012L36.4013 49.5012C35.9013 50.1012 35.1013 50.1012 34.5013 49.6012C33.4013 48.5012 32.5013 47.2012 31.9013 45.7012C31.3013 44.1012 31.5013 42.5012 32.0013 40.9012C32.5013 39.3012 33.3013 37.8012 34.2013 36.3012C34.5013 35.8012 34.8013 35.6012 35.4013 35.6012C35.6098 35.584 35.8184 35.6327 35.9978 35.7403C36.1772 35.8479 36.3183 36.0091 36.4013 36.2012C37.2013 37.6012 38.0013 39.0012 38.5013 40.5012C38.9013 41.4012 39.2013 42.5012 39.2013 43.6012ZM35.4013 39.3012C34.8013 40.4012 34.4013 41.5012 34.2013 42.7012C33.9013 44.1012 34.5013 45.3012 35.2013 46.5012C35.3013 46.6012 35.3013 46.8012 35.5013 46.6012C36.2013 45.5012 36.8013 44.4012 36.6013 43.0012C36.4013 41.7012 36.0013 40.6012 35.4013 39.3012ZM36.7013 30.9012C36.7013 31.6012 36.1013 32.2012 35.4013 32.2012C34.7013 32.2012 34.1013 31.6012 34.1013 30.9012C34.1013 30.2012 34.7013 29.7012 35.4013 29.7012C36.1013 29.7012 36.7013 30.2012 36.7013 30.9012Z" fill="#1EC8BB"/>
<path d="M35.3 64.9006C35.2 64.9006 35.1 64.9006 35 64.8006C33.3 64.2006 28.8 62.6006 24.8 59.2006C19.6 54.8006 17 49.2006 17 42.4006C17 35.9006 20 28.0006 25.8 19.2006C30.1 12.7006 34.4 8.10059 34.6 7.90059L35.4 7.10059L36.2 7.90059C36.4 8.10059 40.5 12.7006 44.8 19.2006C50.6 28.1006 53.6 35.8006 53.8 42.4006C54.1 51.3006 48.8 57.1006 44.3 60.4006C42.1 62.0006 39.9 63.2006 38.4 63.8006C36.4 64.7006 35.7 64.9006 35.3 64.9006ZM35.4 10.2006C32 14.0006 19.1 29.6006 19.1 42.4006C19.1 54.2006 27.9 60.0006 35.4 62.8006C37.6 62.0006 52.2 56.3006 51.7 42.5006C51.5 36.5006 48.5 28.8006 43 20.4006C39.9 15.6006 36.8 11.8006 35.4 10.2006Z" fill="#062D4C"/>
<path d="M35.5012 58.7006C35.1012 58.7006 33.9012 58.2006 33.5012 57.9006L34.4012 56.2006C34.9012 56.5006 35.3012 56.6006 35.5012 56.7006L37.6012 55.7006L38.6012 57.3006C37.9012 57.7006 37.3012 58.0006 36.6012 58.3006V58.6006L35.5012 58.7006ZM32.6012 57.4006C31.2012 56.6006 29.9012 55.7006 28.8012 54.6006L30.1012 53.2006C31.1012 54.2006 32.3012 55.0006 33.6012 55.7006L32.6012 57.4006ZM39.4012 56.8006L38.4012 55.2006C39.6012 54.4006 40.7012 53.5006 41.7012 52.4006L43.1012 53.7006C41.9607 54.8399 40.7226 55.8772 39.4012 56.8006ZM28.1012 53.9006C27.0012 52.7006 26.0012 51.4006 25.3012 50.0006L27.0012 49.1006C27.6012 50.3006 28.4012 51.5006 29.4012 52.5006L28.1012 53.9006ZM43.7012 52.9006L42.2012 51.7006C43.1012 50.6006 43.8012 49.4006 44.3012 48.1006L46.1012 48.8006C45.4751 50.2619 44.6689 51.6392 43.7012 52.9006ZM24.9012 49.0006C24.3012 47.5006 23.9012 46.0006 23.8012 44.3006L25.7012 44.1006C25.8012 45.5006 26.1012 46.9006 26.7012 48.2006L24.9012 49.0006ZM46.4012 47.8006L44.6012 47.2006C45.0012 45.9006 45.2012 44.5006 45.2012 43.0006V42.1006L47.1012 42.0006V43.0006C47.1012 44.7006 46.9012 46.3006 46.4012 47.8006ZM23.7012 43.3006V43.0006C23.7012 41.6006 23.9012 40.1006 24.2012 38.6006L26.1012 39.0006C25.8012 40.4006 25.6012 41.7006 25.6012 43.0006V43.2006L23.7012 43.3006ZM45.1012 41.2006C45.0012 39.9006 44.6012 38.4006 44.2012 37.0006L46.0012 36.4006C46.5012 38.0006 46.8012 39.5006 47.0012 41.0006L45.1012 41.2006ZM26.3012 38.2006L24.4012 37.7006C24.8012 36.3006 25.3012 34.8006 26.0012 33.3006L27.7012 34.1006C27.1012 35.4006 26.6012 36.8006 26.3012 38.2006ZM43.9012 36.1006C43.4012 34.8006 42.8012 33.4006 42.1012 32.1006L43.8012 31.2006L45.7012 35.5006L43.9012 36.1006ZM28.2012 33.2006L26.4012 32.4006C27.0012 31.1006 27.8012 29.7006 28.6012 28.3006L30.2012 29.3006L28.2012 33.2006ZM41.7012 31.3006L39.4012 27.5006L41.0012 26.4006C41.9012 27.7006 42.7012 29.0006 43.4012 30.3006L41.7012 31.3006ZM30.8012 28.5006L29.2012 27.5006C30.0012 26.2006 30.9012 25.0006 31.9012 23.7006L33.4012 24.9006C32.4012 26.1006 31.6012 27.3006 30.8012 28.5006ZM38.8012 26.7006L36.1012 23.2006L37.6012 22.0006L40.4012 25.6006L38.8012 26.7006ZM33.9012 24.1006L32.4012 22.9006L34.4012 20.6006V18.6006L36.0012 20.3006C36.2555 20.6113 36.5224 20.9115 36.8012 21.2006L35.4012 22.5006C35.4012 22.5006 35.4012 22.4006 35.3012 22.4006L33.9012 24.1006Z" fill="#062D4C"/>
</svg>
