<svg width="72" height="72" viewBox="0 0 72 72" fill="none" xmlns="http://www.w3.org/2000/svg">
<rect width="70" height="70" transform="translate(1.00195 1.00098)" fill="white"/>
<path d="M69.702 71.001H2.30195C1.60195 71.001 1.00195 70.401 1.00195 69.701V2.30098C1.00195 1.60098 1.60195 1.00098 2.30195 1.00098H69.702C70.402 1.00098 71.002 1.60098 71.002 2.30098V69.701C71.002 70.401 70.402 71.001 69.702 71.001Z" stroke="#E8E6D9" stroke-width="0.5" stroke-miterlimit="10"/>
<path d="M29.4023 41.601H27.0023V26.501H23.9023C18.9023 26.501 14.9023 22.501 14.9023 17.501C14.9023 12.501 18.9023 8.50098 23.9023 8.50098H48.4023V10.901H23.9023C20.2023 10.901 17.3023 13.901 17.3023 17.501C17.3023 21.201 20.3023 24.101 23.9023 24.101H29.4023V41.601Z" fill="#062D4C"/>
<path d="M42.702 44.1011L42.602 24.1011H48.102C51.802 24.1011 54.702 21.1011 54.702 17.5011C54.702 13.8011 51.702 10.9011 48.102 10.9011V8.50107C49.2853 8.49577 50.458 8.72495 51.5524 9.17537C52.6467 9.62578 53.6409 10.2885 54.4777 11.1253C55.3145 11.9621 55.9772 12.9563 56.4277 14.0507C56.8781 15.145 57.1072 16.3177 57.102 17.5011C57.1072 18.6844 56.8781 19.8572 56.4277 20.9515C55.9772 22.0458 55.3145 23.04 54.4777 23.8768C53.6409 24.7136 52.6467 25.3764 51.5524 25.8268C50.458 26.2772 49.2853 26.5064 48.102 26.5011H45.002V44.1011H42.702ZM29.402 44.1011H27.002V40.4011H29.402V41.6011V44.1011Z" fill="#062D4C"/>
<path d="M26.9023 45.8012H27.8023V48.2012H26.9023V45.8012ZM43.2023 48.1012H41.3023V45.7012H43.2023V48.1012ZM40.1023 48.1012H38.2023V45.7012H40.1023V48.1012ZM37.0023 48.1012H35.1023V45.7012H37.0023V48.1012ZM34.0023 48.1012H32.0023V45.7012H34.0023V48.1012ZM30.9023 48.1012H29.0023V45.7012H30.9023V48.1012ZM44.3023 45.8012H45.2023V48.2012H44.3023V45.8012Z" fill="#1EC8BB"/>
<path d="M36.302 63.501C31.202 63.501 27.002 59.301 27.002 54.201V50.001H29.402V54.201C29.402 58.001 32.502 61.101 36.302 61.101C40.102 61.101 43.202 58.001 43.202 54.201V50.001H45.602V54.201C45.502 59.401 41.402 63.501 36.302 63.501Z" fill="#062D4C" fill-opacity="0.54"/>
<path d="M37.3023 59.801H34.9023V58.001H37.3023V59.801ZM37.3023 56.901H34.9023V55.001H37.3023V56.901ZM37.3023 53.901H34.9023V52.001H37.3023V53.901ZM37.3023 50.901H34.9023V49.001H37.3023V50.901ZM37.3023 47.901H34.9023V46.001H37.3023V47.901Z" fill="#1EC8BB"/>
</svg>
