<svg width="72" height="72" viewBox="0 0 72 72" fill="none" xmlns="http://www.w3.org/2000/svg">
<path d="M66.4624 71.752H5.53854C2.62243 71.752 0.25 69.3795 0.25 66.4634V5.53952C0.25 2.62341 2.62243 0.250977 5.53854 0.250977H66.4624C69.3785 0.250977 71.751 2.62341 71.751 5.53952V66.4634C71.751 69.3795 69.3785 71.752 66.4624 71.752Z" fill="white"/>
<path d="M5.53854 0.500977C2.76028 0.500977 0.5 2.76125 0.5 5.53951V66.4634C0.5 69.2417 2.76028 71.502 5.53854 71.502H66.4624C69.2407 71.502 71.501 69.2417 71.501 66.4634V5.53951C71.501 2.76125 69.2407 0.500977 66.4624 0.500977H5.53854ZM5.53854 0.000976562H66.4624C69.5213 0.000976562 72.001 2.48067 72.001 5.53951V66.4634C72.001 69.5223 69.5213 72.002 66.4624 72.002H5.53854C2.47969 72.002 0 69.5223 0 66.4634V5.53951C0 2.48067 2.47969 0.000976562 5.53854 0.000976562Z" fill="#E7E8E8"/>
<path d="M36.0796 30.6035C37.1549 30.6035 38.2061 30.9224 39.1002 31.5198C39.9943 32.1172 40.6912 32.9664 41.1027 33.9599C41.5142 34.9533 41.6219 36.0465 41.4121 37.1012C41.2023 38.1559 40.6845 39.1247 39.9241 39.8851C39.1637 40.6454 38.195 41.1633 37.1403 41.373C36.0856 41.5828 34.9924 41.4752 33.9989 41.0636C33.0054 40.6521 32.1563 39.9553 31.5589 39.0612C30.9615 38.167 30.6426 37.1159 30.6426 36.0405C30.6426 34.5985 31.2154 33.2156 32.235 32.196C33.2547 31.1763 34.6376 30.6035 36.0796 30.6035Z" fill="#FFDEBC"/>
<path d="M57.8818 35.353C57.4818 34.932 48.0108 25.001 36.0768 25.001C24.1428 25.001 14.6698 34.931 14.2738 35.353C14.098 35.5387 14 35.7847 14 36.0405C14 36.2962 14.098 36.5423 14.2738 36.728C14.6738 37.149 24.1438 47.084 36.0738 47.084C48.0038 47.084 57.4868 37.149 57.8818 36.728C58.0576 36.5423 58.1556 36.2962 58.1556 36.0405C58.1556 35.7847 58.0576 35.5387 57.8818 35.353ZM36.0818 44.446C34.4194 44.4456 32.7944 43.9523 31.4123 43.0284C30.0303 42.1045 28.9532 40.7916 28.3172 39.2557C27.6813 37.7197 27.515 36.0296 27.8395 34.3992C28.164 32.7687 28.9647 31.2711 30.1402 30.0957C31.3158 28.9202 32.8135 28.1198 34.444 27.7955C36.0745 27.4712 37.7645 27.6376 39.3004 28.2738C40.8363 28.9099 42.1491 29.9871 43.0728 31.3693C43.9965 32.7515 44.4896 34.3766 44.4898 36.039C44.4901 37.1432 44.2728 38.2366 43.8503 39.2567C43.4279 40.2769 42.8085 41.2038 42.0277 41.9846C41.2469 42.7653 40.3199 43.3845 39.2997 43.8069C38.2794 44.2292 37.186 44.4464 36.0818 44.446ZM29.4148 28.105C28.2431 29.069 27.2994 30.2805 26.6515 31.6526C26.0035 33.0246 25.6675 34.5231 25.6675 36.0405C25.6675 37.5578 26.0035 39.0563 26.6515 40.4284C27.2994 41.8004 28.2431 43.012 29.4148 43.976C24.5784 42.2719 20.1553 39.5678 16.4338 36.04C20.1559 32.5131 24.5788 29.8095 29.4148 28.105ZM42.7448 43.973C43.9169 43.0098 44.861 41.7989 45.5092 40.4273C46.1574 39.0557 46.4936 37.5575 46.4936 36.0405C46.4936 34.5234 46.1574 33.0252 45.5092 31.6536C44.861 30.282 43.9169 29.0711 42.7448 28.108C47.5798 29.8113 52.0018 32.514 55.7228 36.04C52.0004 39.5652 47.5785 42.2683 42.7438 43.974L42.7448 43.973Z" fill="#062D4C" stroke="white" stroke-width="0.4"/>
<path d="M37.131 33.6924C37.6266 33.6924 38.1111 33.8394 38.5233 34.1147C38.9354 34.3901 39.2566 34.7815 39.4462 35.2394C39.6359 35.6973 39.6855 36.2012 39.5888 36.6873C39.4922 37.1734 39.2535 37.6199 38.903 37.9704C38.5525 38.3209 38.106 38.5595 37.6199 38.6562C37.1338 38.7529 36.6299 38.7033 36.172 38.5136C35.7141 38.324 35.3227 38.0028 35.0473 37.5906C34.772 37.1785 34.625 36.694 34.625 36.1984C34.625 35.5338 34.889 34.8963 35.359 34.4264C35.829 33.9564 36.4664 33.6924 37.131 33.6924Z" fill="#1EC8BB"/>
<path d="M35.5238 34.4555L53.2823 50.669L51.1253 52.754L35.5238 34.4555Z" fill="#1EC8BB"/>
</svg>
