<svg width="72" height="72" viewBox="0 0 72 72" fill="none" xmlns="http://www.w3.org/2000/svg">
<rect width="70" height="70" transform="translate(1 1.00098)" fill="white"/>
<path d="M51.5005 48.8006C50.8005 46.9006 49.4005 44.5006 49.8005 42.2006C49.9005 41.7006 49.9005 41.2006 50.0005 40.8006C50.2005 39.0006 50.1005 37.4006 49.7005 36.1006L49.0005 35.1006C48.4005 34.6006 47.6005 34.2006 46.7005 33.9006C46.7005 33.9006 39.8005 32.3006 36.2005 39.0006C34.8005 41.7006 35.2005 45.2006 37.1005 48.3006C38.7005 48.5006 40.3005 48.3006 41.9005 48.7006C44.7005 49.3006 48.1005 54.1006 51.1005 52.0006C52.1005 51.2006 52.0005 50.1006 51.5005 48.8006C51.3005 48.8006 51.2005 48.8006 51.5005 48.8006Z" fill="#1EC8BB"/>
<path d="M46.1003 69.301C42.9003 69.301 38.9003 67.401 34.7003 64.101C29.5003 59.901 24.6003 53.701 21.4003 47.101C16.9003 38.101 16.8003 32.501 17.1003 27.101C17.4003 22.101 18.9003 17.401 21.6003 13.201C23.9003 9.60098 27.5003 7.10098 31.6003 6.20098C32.3003 6.10098 33.0003 6.00098 33.7003 6.00098C37.6003 6.00098 41.8003 7.90098 44.0003 10.701C48.4003 16.301 51.1003 18.101 52.6003 18.601L52.9003 18.701L52.4003 19.701L52.1003 19.601C49.7003 18.801 46.7003 16.001 43.1003 11.401C41.1003 8.90098 37.2003 7.10098 33.6003 7.10098C32.9003 7.10098 32.3003 7.20098 31.7003 7.30098C27.9003 8.10098 24.5003 10.501 22.3003 13.801C19.7003 17.901 18.3003 22.401 18.0003 27.201C17.7003 32.501 17.8003 37.901 22.2003 46.701C28.7003 59.601 39.8003 68.301 46.1003 68.301C46.7003 68.301 47.2003 68.201 47.7003 68.101C51.5003 66.901 53.1003 63.901 52.4003 59.001V58.701L53.4003 58.601V58.901C54.2003 64.301 52.4003 67.701 48.0003 69.101C47.5003 69.201 46.8003 69.301 46.1003 69.301Z" fill="#062D4C"/>
<path d="M49.4009 53.0008C47.8009 53.0008 46.3009 51.9008 44.8009 50.9008C43.7009 50.1008 42.6009 49.4008 41.7009 49.2008C40.8009 49.0008 39.8009 49.0008 38.8009 48.9008C37.6009 48.9008 36.3009 48.8008 35.1009 48.4008C34.4009 48.2008 33.8009 47.8008 33.3009 47.4008C31.1009 45.7008 27.1009 42.5008 30.6009 37.7008C30.8009 37.5008 30.9009 37.3008 31.1009 37.0008C31.1009 37.0008 31.6009 36.4008 31.7009 36.3008L32.3009 35.7008L33.0009 35.0008L33.7009 34.3008L34.5009 33.6008L35.3009 32.9008L35.7009 32.5008C37.5009 31.0008 40.3009 28.9008 43.4009 27.6008C43.4009 26.6008 43.4009 25.7008 43.4009 24.8008C42.7009 25.1008 41.5009 25.5008 40.6009 25.9008C39.3009 26.5008 37.8009 26.9008 36.7009 26.9008C35.8009 26.9008 35.1009 26.7008 34.5009 26.4008C33.5009 25.8008 33.0009 24.7008 33.0009 23.1008C33.0009 20.0008 35.4009 16.9008 36.8009 15.6008C36.9009 15.5008 37.0009 15.5008 37.1009 15.5008C37.2009 15.5008 37.4009 15.6008 37.5009 15.7008C37.7009 15.9008 37.7009 16.2008 37.5009 16.4008C35.8009 18.0008 34.0009 20.7008 34.0009 23.1008C34.0009 24.3008 34.4009 25.1008 35.0009 25.6008C35.4009 25.9008 36.0009 26.0008 36.6009 26.0008C37.6009 26.0008 38.9009 25.7008 40.1009 25.1008C41.2009 24.6008 42.6009 24.1008 43.2009 23.8008C42.9009 20.3008 42.0009 17.4008 40.7009 15.6008L40.6009 15.5008C40.2009 15.0008 39.7009 14.5008 39.3009 14.2008C37.8009 13.2008 36.3009 12.6008 34.6009 12.6008C31.8009 12.6008 28.7009 14.2008 26.4009 17.0008C27.4009 18.2008 28.1009 19.4008 28.3009 20.9008C29.0009 24.5008 28.7009 28.3008 27.6009 31.7008C27.5009 31.9008 27.5009 32.1008 27.4009 32.2008C27.4009 32.3008 27.3009 32.4008 27.2009 32.4008C27.1009 32.5008 27.0009 32.5008 27.0009 32.5008H26.9009H26.8009C26.7009 32.5008 26.6009 32.4008 26.5009 32.2008C26.4009 32.1008 26.4009 31.9008 26.5009 31.8008C26.7009 31.2008 26.9009 30.5008 27.1009 29.9008L27.3009 29.2008C27.9009 26.5008 27.9009 23.7008 27.4009 21.0008C27.4009 20.8008 27.3009 20.7008 27.3009 20.5008V20.4008C27.2009 20.2008 27.2009 20.1008 27.2009 20.0008C27.2009 20.0008 27.0009 19.6008 27.0009 19.5008C27.0009 19.5008 26.8009 19.1008 26.8009 19.0008L26.5009 18.6008L26.4009 18.5008L26.6009 18.2008L26.3009 18.3008L26.2009 18.1008L25.8009 17.7008V17.6008C24.5009 19.3008 23.6009 21.2008 23.3009 23.0008C21.4009 33.6008 23.1009 43.2008 28.2009 50.1008C28.4009 50.3008 28.3009 50.6008 28.1009 50.8008C28.0009 50.9008 27.9009 50.9008 27.8009 50.9008C27.6009 50.9008 27.5009 50.8008 27.4009 50.7008C22.1009 43.6008 20.3009 33.7008 22.3009 22.8008C22.7009 20.7008 23.8009 18.4008 25.4009 16.4008C28.0009 13.2008 31.5009 11.3008 34.7009 11.3008C36.5009 11.3008 38.3009 11.9008 39.9009 13.1008C40.5009 13.5008 41.0009 14.1008 41.5009 14.7008C43.4009 17.3008 44.0009 21.1008 44.2009 23.8008C44.3009 25.0008 44.3009 26.3008 44.3009 27.7008C44.3009 27.8008 44.0009 33.7008 38.6009 40.0008C38.5009 40.1008 38.4009 40.2008 38.2009 40.2008C38.1009 40.2008 38.0009 40.2008 37.9009 40.1008C37.7009 39.9008 37.7009 39.6008 37.8009 39.4008C41.8009 34.7008 42.8009 30.3008 43.1009 28.5008L42.7009 28.7008C42.5009 28.8008 42.4009 28.9008 42.2009 28.9008C42.2009 28.9008 41.8009 29.1008 41.7009 29.2008C41.6009 29.3008 40.7009 29.8008 40.7009 29.8008C40.5009 29.9008 39.7009 30.4008 39.7009 30.4008C39.5009 30.5008 38.8009 31.0008 38.8009 31.0008L37.9009 31.7008L37.0009 32.4008L36.3009 33.1008C34.3009 34.7008 32.5009 36.7008 31.3009 38.3008C28.9009 41.6008 30.4009 43.8008 33.8009 46.6008C34.3009 47.0008 34.8009 47.2008 35.3009 47.4008C36.4009 47.8008 37.5009 47.8008 38.7009 47.8008C39.7009 47.8008 40.8009 47.8008 41.8009 48.1008C42.9009 48.3008 44.0009 49.1008 45.2009 50.0008C46.6009 51.0008 48.0009 52.0008 49.2009 52.0008C49.7009 52.0008 50.1009 51.9008 50.5009 51.6008C51.1009 51.2008 51.3009 50.6008 50.8009 49.1008V49.0008C50.6009 48.5008 50.4009 48.0008 50.2009 47.5008C49.5009 45.9008 48.7009 44.1008 49.0009 42.2008C49.1009 41.7008 49.1009 41.2008 49.2009 40.8008C49.4009 38.9008 49.3009 37.4008 48.9009 36.3008C48.7009 35.8008 48.4009 35.5008 47.9009 35.5008C47.8009 35.5008 47.7009 35.5008 47.6009 35.5008C47.0009 35.5008 46.3009 35.8008 45.9009 36.3008C45.8009 36.4008 45.7009 36.5008 45.5009 36.5008C45.4009 36.5008 45.3009 36.5008 45.2009 36.4008C45.0009 36.2008 45.0009 35.9008 45.1009 35.7008C45.7009 35.0008 46.6009 34.6008 47.5009 34.6008C47.7009 34.6008 47.8009 34.6008 48.0009 34.6008C48.8009 34.8008 49.5009 35.3008 49.8009 36.1008C50.2009 37.3008 50.4009 39.0008 50.2009 41.0008C50.2009 41.5008 50.1009 42.0008 50.0009 42.5008C49.7009 44.1008 50.5009 45.8008 51.1009 47.3008C51.3009 47.9008 51.6009 48.4008 51.7009 48.9008C52.1009 50.1008 52.4009 51.6008 51.0009 52.6008C50.7009 52.8008 50.0009 53.0008 49.4009 53.0008Z" fill="#062D4C"/>
<path d="M69.714 71.001H2.286C1.576 71.001 1 70.425 1 69.715V2.28698C1 1.57698 1.576 1.00098 2.286 1.00098H69.713C70.424 1.00098 71 1.57698 71 2.28698V69.714C71 70.425 70.424 71.001 69.714 71.001Z" stroke="#E8E6D9" stroke-width="0.5" stroke-miterlimit="10"/>
</svg>
