<svg width="72" height="72" viewBox="0 0 72 72" fill="none" xmlns="http://www.w3.org/2000/svg">
<path d="M66.4624 71.751H5.53854C2.62243 71.751 0.25 69.3785 0.25 66.4624V5.53854C0.25 2.62243 2.62243 0.25 5.53854 0.25H66.4624C69.3785 0.25 71.751 2.62243 71.751 5.53854V66.4624C71.751 69.3785 69.3785 71.751 66.4624 71.751Z" fill="white"/>
<path d="M5.53854 0.5C2.76028 0.5 0.5 2.76028 0.5 5.53854V66.4624C0.5 69.2407 2.76028 71.501 5.53854 71.501H66.4624C69.2407 71.501 71.501 69.2407 71.501 66.4624V5.53854C71.501 2.76028 69.2407 0.5 66.4624 0.5H5.53854ZM5.53854 0H66.4624C69.5213 0 72.001 2.47969 72.001 5.53854V66.4624C72.001 69.5213 69.5213 72.001 66.4624 72.001H5.53854C2.47969 72.001 0 69.5213 0 66.4624V5.53854C0 2.47969 2.47969 0 5.53854 0Z" fill="#E7E8E8"/>
<path d="M50.804 24.773C49.9778 24.773 49.1702 24.528 48.4833 24.069C47.7964 23.61 47.2611 22.9577 46.9449 22.1944C46.6288 21.4312 46.546 20.5913 46.7072 19.7811C46.8684 18.9708 47.2662 18.2265 47.8504 17.6424C48.4345 17.0582 49.1788 16.6604 49.9891 16.4992C50.7993 16.338 51.6392 16.4207 52.4024 16.7369C53.1657 17.053 53.818 17.5884 54.277 18.2753C54.736 18.9622 54.981 19.7698 54.981 20.596C54.9796 21.7034 54.5391 22.765 53.7561 23.5481C52.973 24.3311 51.9114 24.7716 50.804 24.773ZM50.804 17.7919C50.2502 17.7919 49.7088 17.9562 49.2484 18.2638C48.7879 18.5715 48.429 19.0088 48.2171 19.5204C48.0052 20.0321 47.9497 20.5951 48.0577 21.1382C48.1658 21.6813 48.4325 22.1803 48.8241 22.5718C49.2157 22.9634 49.7145 23.2301 50.2577 23.3381C50.8008 23.4462 51.3638 23.3907 51.8755 23.1788C52.3871 22.9669 52.8244 22.608 53.1321 22.1475C53.4397 21.6871 53.6039 21.1457 53.6039 20.592C53.601 19.8506 53.305 19.1405 52.7804 18.6167C52.2558 18.0928 51.5453 17.7978 50.804 17.7959V17.7919Z" fill="#062D4C"/>
<path d="M32.8582 39.7559L32.9093 39.8419C33.0149 40.0223 33.1297 40.1972 33.2533 40.3658C33.3533 40.5128 33.4703 40.6658 33.5793 40.8098V40.8148C34.0429 41.3051 34.3655 41.9115 34.5132 42.5699C34.5119 43.0097 34.3366 43.4312 34.0256 43.7422C33.7146 44.0532 33.2931 44.2285 32.8533 44.2299C32.6733 44.2299 32.4945 44.2001 32.3243 44.1418C31.9954 44.0307 31.7097 43.819 31.5075 43.5368C31.3053 43.2546 31.1968 42.916 31.1973 42.5688C31.3456 41.9084 31.6697 41.3002 32.1353 40.8088C32.378 40.4989 32.6024 40.175 32.8073 39.8388L32.8582 39.7559Z" fill="#1EC8BB"/>
<path d="M27.0487 31.0751L26.3496 32.2568L29.4833 34.1106L30.1824 32.9289L27.0487 31.0751Z" fill="#1EC8BB"/>
<path d="M29.1856 34.755L26.1914 35.5244L26.5333 36.8549L29.5275 36.0854L29.1856 34.755Z" fill="#1EC8BB"/>
<path d="M30.1664 36.5371L28.3945 39.5322L29.5762 40.2313L31.3481 37.2361L30.1664 36.5371Z" fill="#1EC8BB"/>
<path d="M26.0856 55.9706H18.0176V41.8086H22.4806V45.0706H30.7206V48.0706C30.719 49.3626 30.2481 50.61 29.3954 51.5807C28.5428 52.5514 27.3666 53.1793 26.0856 53.3476V55.9706ZM19.3906 54.5976H24.7116V52.0256H25.3986C26.4452 52.0243 27.4487 51.6079 28.1888 50.8678C28.9289 50.1277 29.3453 49.1242 29.3466 48.0776V46.4466H21.1066V43.1846H19.3896L19.3906 54.5976Z" fill="#062D4C"/>
<path d="M48.5585 40.2792L42.7365 34.4952L47.0805 30.1511C47.6582 29.5756 48.0519 28.8415 48.2118 28.0419C48.3716 27.2423 48.2903 26.4132 47.9782 25.6599C47.6662 24.9065 47.1374 24.2629 46.4589 23.8105C45.7804 23.3582 44.9829 23.1175 44.1675 23.1191H31.5215V34.0481C31.5215 34.601 31.6953 35.1398 32.0183 35.5884C32.3413 36.0371 32.7972 36.3728 33.3215 36.5481C33.5057 36.8721 33.7331 37.1695 33.9975 37.4321L41.5355 44.9212V51.9611C41.5355 53.0538 41.9696 54.1018 42.7422 54.8744C43.5149 55.6471 44.5628 56.0812 45.6555 56.0812C46.7482 56.0812 47.7961 55.6471 48.5688 54.8744C49.3414 54.1018 49.7755 53.0538 49.7755 51.9611V43.2062C49.7734 42.1078 49.3357 41.0552 48.5585 40.2792ZM48.4015 51.9562C48.4085 52.3212 48.3426 52.684 48.2077 53.0234C48.0728 53.3627 47.8716 53.6717 47.6158 53.9324C47.3601 54.193 47.055 54.4 46.7183 54.5414C46.3816 54.6827 46.0202 54.7556 45.655 54.7556C45.2898 54.7556 44.9283 54.6827 44.5916 54.5414C44.255 54.4 43.9498 54.193 43.6941 53.9324C43.4384 53.6717 43.2372 53.3627 43.1023 53.0234C42.9674 52.684 42.9015 52.3212 42.9085 51.9562V44.6301C42.9088 44.5398 42.8913 44.4503 42.857 44.3667C42.8227 44.2832 42.7722 44.2072 42.7085 44.1431L35.0405 36.5252C35.5516 36.3421 35.9938 36.0058 36.3066 35.5621C36.6195 35.1185 36.7877 34.589 36.7885 34.0462V30.7341L39.1985 28.3241H42.0525V26.9511H35.4155V30.4511V34.0512C35.4155 34.3851 35.2828 34.7053 35.0467 34.9414C34.8106 35.1775 34.4904 35.3101 34.1565 35.3101C33.8226 35.3101 33.5023 35.1775 33.2662 34.9414C33.0301 34.7053 32.8975 34.3851 32.8975 34.0512V24.4952H43.8975C43.9368 24.4985 43.9762 24.4985 44.0155 24.4952C44.1702 24.4865 44.3255 24.4909 44.4795 24.5082C45.0982 24.5755 45.6751 24.8533 46.1135 25.2951C46.6279 25.8105 46.9168 26.5089 46.9168 27.2371C46.9168 27.9653 46.6279 28.6638 46.1135 29.1791L41.2825 34.0101C41.2185 34.074 41.1677 34.1498 41.133 34.2333C41.0984 34.3167 41.0805 34.4063 41.0805 34.4967C41.0805 34.587 41.0984 34.6765 41.133 34.76C41.1677 34.8435 41.2185 34.9193 41.2825 34.9831L47.5935 41.2532C48.1108 41.7697 48.4024 42.4701 48.4045 43.2011L48.4015 51.9562ZM36.7855 28.7922V28.3241H37.2535L36.7855 28.7922Z" fill="#062D4C"/>
</svg>
