<svg width="72" height="72" viewBox="0 0 72 72" fill="none" xmlns="http://www.w3.org/2000/svg">
<rect width="70" height="70" transform="translate(1 1.00098)" fill="white"/>
<path d="M69.7 71.001H2.3C1.6 71.001 1 70.401 1 69.701V2.30098C1 1.60098 1.6 1.00098 2.3 1.00098H69.7C70.4 1.00098 71 1.60098 71 2.30098V69.701C71 70.401 70.4 71.001 69.7 71.001Z" stroke="#E8E6D9" stroke-width="0.5" stroke-miterlimit="10"/>
<path d="M15.9994 59.401C15.6994 59.401 15.4994 59.201 15.3994 58.901C14.2994 54.901 15.1994 50.901 17.8994 47.301C19.4994 45.101 21.3994 43.701 22.0994 43.301C22.2994 41.701 23.3994 33.401 25.3994 25.301C26.6994 20.001 27.9994 15.701 29.3994 12.601C30.9994 8.50103 32.9994 6.50103 35.0994 6.40103C37.1994 6.30103 39.1994 8.30103 41.0994 12.401C42.4994 15.501 43.8994 19.801 45.1994 25.201C47.1994 33.401 48.2994 41.701 48.5994 43.401C49.3994 43.801 51.3994 45.001 53.0994 47.001C55.9994 50.301 56.8994 54.301 55.5994 58.501C55.4994 58.801 55.0994 59.001 54.7994 58.901C54.4994 58.801 54.2994 58.401 54.3994 58.101C55.5994 54.301 54.7994 50.901 52.1994 47.901C50.1994 45.601 47.7994 44.501 47.7994 44.501C47.5994 44.401 47.4994 44.201 47.3994 44.001C46.5677 37.8158 45.433 31.6751 43.9994 25.601C40.2994 10.201 36.9994 7.90103 35.2994 7.90103H35.1994C33.4994 8.00103 30.0994 10.401 26.4994 25.901C24.3994 34.901 23.1994 44.001 23.1994 44.101C23.2013 44.2041 23.1742 44.3057 23.1211 44.3941C23.0681 44.4825 22.9912 44.5542 22.8994 44.601C22.8994 44.601 20.6994 46.001 18.7994 48.501C16.2994 51.801 15.5994 55.301 16.5994 58.901C16.6994 59.201 16.4994 59.601 16.0994 59.701C16.0994 59.401 15.9994 59.401 15.9994 59.401ZM35.0994 65.601C30.0994 65.601 28.7994 62.601 27.9994 60.601C27.6994 59.901 27.3994 59.201 26.9994 58.901C25.5994 58.001 23.7994 59.201 23.7994 59.201C23.4994 59.401 23.0994 59.301 22.8994 59.001C22.6994 58.701 22.7994 58.301 23.0994 58.101C23.1994 58.001 25.5994 56.401 27.6994 57.701C28.3994 58.101 28.7994 59.001 29.1994 60.001C29.9994 62.001 30.9994 64.201 35.0994 64.201C35.4994 64.201 35.6994 64.501 35.6994 64.801C35.7994 65.401 35.4994 65.601 35.0994 65.601Z" fill="#062D4C"/>
<path d="M36.1 65.6012C35.7 65.6012 35.5 65.3012 35.5 65.0012C35.5 64.6012 35.8 64.4012 36.1 64.4012C40.3 64.4012 41.2 62.2012 42 60.2012C42.4 59.2012 42.8 58.4012 43.5 57.9012C45.6 56.6012 48 58.2012 48.1 58.3012C48.4 58.5012 48.5 58.9012 48.3 59.2012C48.1 59.5012 47.7 59.6012 47.4 59.4012C47.4 59.4012 45.6 58.2012 44.2 59.1012C43.8 59.3012 43.5 60.0012 43.2 60.8012C42.5 62.6012 41.2 65.6012 36.1 65.6012Z" fill="#062D4C"/>
<path d="M35.4008 52.3008H35.1008C34.7008 52.3008 34.5008 51.9008 34.5008 51.6008C34.5008 51.2008 34.9008 51.0008 35.2008 51.0008H35.3008C35.6008 51.0008 36.0008 50.8008 36.4008 50.5008C36.7008 50.2008 37.1008 50.3008 37.3008 50.5008C37.6008 50.8008 37.5008 51.2008 37.3008 51.4008C36.8008 52.0008 36.1008 52.3008 35.4008 52.3008ZM33.6008 51.3008C33.4008 51.3008 33.2008 51.2008 33.1008 51.1008C32.7008 50.6008 32.3008 50.0008 32.0008 49.3008C31.8008 49.0008 32.0008 48.6008 32.3008 48.4008C32.6008 48.2008 33.0008 48.4008 33.2008 48.7008C33.5008 49.3008 33.8008 49.8008 34.1008 50.2008C34.3008 50.5008 34.3008 50.9008 34.0008 51.1008C33.9008 51.2008 33.8008 51.3008 33.6008 51.3008ZM38.1008 50.0008C38.0008 50.0008 37.9008 50.0008 37.8008 49.9008C37.5008 49.7008 37.4008 49.3008 37.5008 49.0008C37.8008 48.5008 38.0008 47.9008 38.2008 47.3008C38.3008 47.0008 38.7008 46.8008 39.0008 46.9008C39.3008 47.0008 39.5008 47.4008 39.4008 47.7008C39.2008 48.4008 38.9008 49.0008 38.6008 49.6008C38.5008 49.9008 38.3008 50.0008 38.1008 50.0008ZM31.9008 47.8008C31.6008 47.8008 31.4008 47.6008 31.3008 47.4008C31.1008 46.8008 30.9008 46.2008 30.8008 45.5008C30.7008 45.2008 30.9008 44.8008 31.3008 44.7008C31.6008 44.6008 32.0008 44.8008 32.1008 45.2008C32.3008 45.8008 32.4008 46.5008 32.6008 47.0008C32.7008 47.3008 32.5008 47.7008 32.2008 47.8008H31.9008ZM39.4008 46.4008H39.2008C38.9008 46.3008 38.6008 46.0008 38.7008 45.6008L39.1008 43.7008C39.2008 43.3008 39.5008 43.1008 39.9008 43.2008C40.3008 43.3008 40.5008 43.6008 40.4008 44.0008C40.3008 44.7008 40.1008 45.3008 40.0008 45.9008C39.9008 46.2008 39.7008 46.4008 39.4008 46.4008ZM31.0008 44.0008C30.7008 44.0008 30.4008 43.8008 30.4008 43.5008L30.1008 41.5008C30.1008 41.1008 30.3008 40.8008 30.7008 40.8008C31.1008 40.8008 31.4008 41.0008 31.4008 41.4008L31.7008 43.3008C31.8008 43.7008 31.5008 44.0008 31.2008 44.0008H31.0008ZM40.1008 42.5008C39.7008 42.4008 39.4008 42.1008 39.5008 41.8008C39.6008 41.2008 39.6008 40.5008 39.7008 39.9008C39.7008 39.5008 40.0008 39.3008 40.4008 39.3008C40.8008 39.3008 41.0008 39.6008 41.0008 40.0008L40.8008 42.0008C40.7008 42.3008 40.4008 42.5008 40.1008 42.5008ZM30.5008 40.2008C30.3455 40.1892 30.1995 40.1223 30.0894 40.0122C29.9793 39.9021 29.9123 39.7561 29.9008 39.6008C29.9008 39.0008 29.8008 38.3008 29.8008 37.6008C29.8008 37.2008 30.1008 36.9008 30.4008 36.9008C30.8008 36.9008 31.1008 37.2008 31.1008 37.5008C31.1008 38.1008 31.2008 38.8008 31.2008 39.4008C31.2008 39.8008 30.9008 40.2008 30.5008 40.2008ZM40.4008 38.7008C40.0008 38.7008 39.7008 38.4008 39.8008 38.0008V36.1008C39.7989 35.9977 39.826 35.8962 39.8791 35.8078C39.9321 35.7193 40.0089 35.6476 40.1008 35.6008C40.0089 35.5539 39.9321 35.4822 39.8791 35.3938C39.826 35.3054 39.7989 35.2039 39.8008 35.1008C39.8008 34.5008 39.8008 33.8008 39.7008 33.2008C39.7008 32.8008 39.9008 32.5008 40.3008 32.5008C40.7008 32.5008 41.0008 32.7008 41.0008 33.1008C41.0008 33.7008 41.1008 34.4008 41.1008 35.1008C41.1008 35.3008 41.0008 35.5008 40.8008 35.7008C40.8926 35.7476 40.9694 35.8193 41.0225 35.9078C41.0755 35.9962 41.1027 36.0977 41.1008 36.2008V38.2008C41.0008 38.4008 40.8008 38.7008 40.4008 38.7008ZM30.4008 36.3008C30.0008 36.3008 29.7008 36.0008 29.8008 35.6008C29.8008 34.9008 29.8008 34.3008 29.9008 33.6008C29.9008 33.2008 30.2008 33.0008 30.6008 33.0008C31.0008 33.0008 31.2008 33.3008 31.2008 33.7008C31.2008 34.3008 31.2008 35.0008 31.1008 35.6008C31.1035 35.6935 31.0873 35.7857 31.0531 35.8719C31.0189 35.9581 30.9675 36.0364 30.9019 36.1019C30.8364 36.1675 30.7581 36.2189 30.6719 36.2531C30.5857 36.2873 30.4935 36.3035 30.4008 36.3008ZM30.6008 32.4008C30.2008 32.4008 29.9008 32.0008 30.0008 31.7008L30.2008 29.7008C30.2008 29.3008 30.6008 29.1008 30.9008 29.1008C31.3008 29.1008 31.5008 29.5008 31.5008 29.8008C31.4008 30.4008 31.3008 31.1008 31.3008 31.7008C31.2008 32.2008 30.9008 32.4008 30.6008 32.4008ZM40.2008 31.8008C39.9008 31.8008 39.6008 31.6008 39.6008 31.2008L39.3008 29.3008C39.2008 28.9008 39.5008 28.6008 39.8008 28.6008C40.2008 28.5008 40.5008 28.8008 40.5008 29.1008L40.8008 31.1008C40.9008 31.4008 40.6008 31.7008 40.2008 31.8008ZM31.1008 28.6008H31.0008C30.6008 28.5008 30.4008 28.2008 30.5008 27.8008C30.6008 27.1008 30.8008 26.5008 31.0008 25.9008C31.1008 25.6008 31.4008 25.4008 31.8008 25.4008C32.1008 25.5008 32.3008 25.8008 32.3008 26.2008C32.1008 26.8008 32.0008 27.4008 31.9008 28.0008C31.7008 28.4008 31.5008 28.6008 31.1008 28.6008ZM39.6008 27.9008C39.3008 27.9008 39.0008 27.7008 39.0008 27.4008C38.9008 26.8008 38.7008 26.1008 38.5008 25.6008C38.4008 25.3008 38.6008 24.9008 38.9008 24.8008C39.2008 24.7008 39.6008 24.9008 39.7008 25.2008C39.9008 25.8008 40.1008 26.4008 40.2008 27.1008C40.3008 27.4008 40.1008 27.8008 39.7008 27.9008H39.6008ZM32.2008 24.8008H32.0008C31.7008 24.7008 31.5008 24.3008 31.6008 24.0008L32.5008 22.1008C32.7008 21.8008 33.1008 21.7008 33.4008 21.9008C33.7008 22.1008 33.8008 22.5008 33.6008 22.8008C33.3008 23.3008 33.1008 23.8008 32.8008 24.5008C32.7008 24.7008 32.4008 24.8008 32.2008 24.8008ZM38.4008 24.2008C38.1008 24.2008 37.9008 24.1008 37.8008 23.8008L36.9008 22.2008C36.7008 21.9008 36.8008 21.5008 37.1008 21.3008C37.4008 21.1008 37.8008 21.2008 38.0008 21.5008C38.4008 22.0008 38.7008 22.6008 39.0008 23.3008C39.1008 23.6008 39.0008 24.0008 38.7008 24.2008H38.4008ZM34.2008 21.6008C34.0977 21.6027 33.9962 21.5755 33.9078 21.5225C33.8193 21.4695 33.7476 21.3926 33.7008 21.3008C33.5008 21.0008 33.5008 20.6008 33.8008 20.4008C34.3008 20.0008 34.8008 19.8008 35.4008 19.8008C35.7008 19.8008 36.0008 19.9008 36.3008 20.0008C36.6008 20.1008 36.8008 20.5008 36.7008 20.8008C36.6008 21.1008 36.2008 21.3008 35.9008 21.2008C35.8008 21.1008 35.6008 21.1008 35.5008 21.1008C35.2008 21.1008 35.0008 21.2008 34.7008 21.4008C34.5008 21.6008 34.4008 21.6008 34.2008 21.6008ZM11.3008 60.3008C11.0008 60.3008 10.7008 60.1008 10.7008 59.8008C10.7008 59.6008 10.6008 59.4008 10.6008 59.2008C10.5008 58.8008 10.8008 58.5008 11.1008 58.5008C11.5008 58.4008 11.8008 58.7008 11.8008 59.0008C11.8008 59.2008 11.9008 59.4008 11.9008 59.6008C12.0008 60.0008 11.7008 60.3008 11.4008 60.3008H11.3008ZM11.0008 57.8008C10.8455 57.7892 10.6995 57.7223 10.5894 57.6122C10.4793 57.5021 10.4123 57.3561 10.4008 57.2008C10.4008 56.7008 10.3008 56.1008 10.3008 55.6008V55.2008C10.3008 54.8008 10.6008 54.6008 10.9008 54.6008C11.3008 54.6008 11.5008 54.9008 11.5008 55.3008V55.7008C11.5008 56.2008 11.5008 56.7008 11.6008 57.2008C11.7008 57.4008 11.4008 57.7008 11.0008 57.8008ZM11.1008 53.9008C10.7008 53.8008 10.4008 53.5008 10.5008 53.2008C10.6008 52.5008 10.7008 51.9008 10.9008 51.2008C11.0008 50.9008 11.3008 50.6008 11.7008 50.7008C12.0008 50.8008 12.3008 51.1008 12.2008 51.5008C12.1008 52.1008 11.9008 52.7008 11.9008 53.3008C11.7008 53.7008 11.4008 53.9008 11.1008 53.9008ZM12.1008 50.1008H11.9008C11.6008 50.0008 11.4008 49.6008 11.5008 49.3008L12.4008 47.5008C12.6008 47.2008 13.0008 47.1008 13.3008 47.3008C13.6008 47.5008 13.7008 47.9008 13.5008 48.2008C13.2008 48.7008 12.9008 49.3008 12.7008 49.9008C12.6008 50.0008 12.3008 50.1008 12.1008 50.1008ZM14.0008 46.8008C13.9008 46.8008 13.7008 46.8008 13.6008 46.7008C13.3008 46.5008 13.3008 46.1008 13.5008 45.8008C13.9008 45.3008 14.4008 44.8008 14.9008 44.3008C15.2008 44.1008 15.6008 44.1008 15.8008 44.3008C16.0008 44.6008 16.0008 45.0008 15.8008 45.2008C15.3008 45.6008 14.9008 46.1008 14.5008 46.5008C14.4539 46.5926 14.3822 46.6695 14.2938 46.7225C14.2054 46.7755 14.1039 46.8027 14.0008 46.8008ZM16.9008 44.2008C16.7977 44.2027 16.6962 44.1755 16.6078 44.1225C16.5193 44.0694 16.4476 43.9926 16.4008 43.9008C16.2008 43.6008 16.3008 43.2008 16.6008 43.0008C17.6008 42.3008 18.4008 42.0008 18.4008 42.0008C18.7008 41.9008 19.1008 42.0008 19.2008 42.4008C19.3008 42.7008 19.2008 43.1008 18.8008 43.2008C18.8008 43.2008 18.1008 43.5008 17.2008 44.1008C17.1008 44.2008 17.0008 44.2008 16.9008 44.2008ZM60.7008 60.3008H60.6008C60.2008 60.2008 60.0008 59.9008 60.1008 59.6008C60.1008 59.4008 60.2008 59.2008 60.2008 59.0008C60.3008 58.6008 60.6008 58.4008 60.9008 58.5008C61.3008 58.6008 61.5008 58.9008 61.4008 59.2008C61.4008 59.4008 61.3008 59.6008 61.3008 59.8008C61.3008 60.1008 61.0008 60.3008 60.7008 60.3008ZM61.0008 57.8008C60.6008 57.8008 60.3008 57.5008 60.4008 57.1008C60.4008 56.6008 60.5008 56.1008 60.5008 55.6008V55.2008C60.5008 54.8008 60.8008 54.5008 61.1008 54.5008C61.5008 54.5008 61.7008 54.8008 61.7008 55.1008V55.5008C61.7008 56.0008 61.7008 56.5008 61.6008 57.1008C61.6008 57.5008 61.3008 57.8008 61.0008 57.8008ZM60.9008 53.9008C60.6008 53.9008 60.3008 53.7008 60.3008 53.3008L60.0008 51.5008C59.9008 51.2008 60.1008 50.8008 60.5008 50.7008C60.8008 50.6008 61.2008 50.8008 61.3008 51.2008C61.5008 51.8008 61.6008 52.5008 61.7008 53.2008C61.6008 53.5008 61.3008 53.8008 60.9008 53.9008ZM59.9008 50.1008C59.6008 50.1008 59.4008 49.9008 59.3008 49.7008C59.1008 49.1008 58.8008 48.6008 58.5008 48.0008C58.3008 47.7008 58.4008 47.3008 58.7008 47.1008C59.0008 46.9008 59.4008 47.0008 59.6008 47.3008L60.5008 49.1008C60.6008 49.4008 60.5008 49.8008 60.1008 49.9008C60.1008 50.1008 60.0008 50.1008 59.9008 50.1008ZM58.0008 46.8008C57.8008 46.8008 57.6008 46.7008 57.5008 46.6008C57.1008 46.1008 56.7008 45.7008 56.2008 45.3008C55.9008 45.1008 55.9008 44.6008 56.2008 44.4008C56.4008 44.1008 56.9008 44.1008 57.1008 44.4008L58.5008 45.9008C58.7008 46.2008 58.7008 46.6008 58.4008 46.8008H58.0008ZM55.1008 44.2008C55.0008 44.2008 54.9008 44.2008 54.7008 44.1008C53.8008 43.5008 53.1008 43.2008 53.1008 43.2008C52.8008 43.1008 52.6008 42.7008 52.7008 42.4008C52.8008 42.1008 53.2008 41.9008 53.5008 42.0008C53.5008 42.0008 54.3008 42.3008 55.3008 43.0008C55.6008 43.2008 55.7008 43.6008 55.5008 43.9008C55.5008 44.1008 55.3008 44.2008 55.1008 44.2008Z" fill="#1EC8BB"/>
</svg>
