<svg width="72" height="72" viewBox="0 0 72 72" fill="none" xmlns="http://www.w3.org/2000/svg">
<rect width="70" height="70" transform="translate(1 1.00098)" fill="white"/>
<path d="M69.7 71.001H2.3C1.6 71.001 1 70.401 1 69.701V2.30098C1 1.60098 1.6 1.00098 2.3 1.00098H69.7C70.4 1.00098 71 1.60098 71 2.30098V69.701C71 70.401 70.4 71.001 69.7 71.001Z" stroke="#E8E6D9" stroke-width="0.5" stroke-miterlimit="10"/>
<path d="M67.1991 23.0006L49.9991 21.4006L44.8991 20.9006C44.5991 20.9006 44.2991 21.0006 44.4991 21.2006C47.8991 26.4006 48.7991 33.4006 43.0991 37.4006C39.9991 39.6006 35.7991 39.9006 32.3991 38.2006C28.2991 36.2006 26.1991 32.1006 25.8991 27.7006C25.7991 26.0006 26.1991 23.8006 25.9991 22.3006C25.8991 20.8006 24.9991 20.8006 24.5991 20.9006L13.7991 22.9006L4.99909 24.6006C4.99909 24.0006 4.39909 22.1006 4.99909 22.0006C12.5991 20.1006 18.9991 19.1006 25.2991 17.3006C25.7991 17.2006 28.3991 16.9006 28.6991 22.0006C28.9991 23.7006 28.4991 25.8006 28.6991 27.6006C28.8991 31.0006 30.3991 34.3006 33.5991 35.8006C36.0991 37.1006 39.1991 36.9006 41.5991 35.2006C43.2991 34.0006 44.2991 32.1006 44.4991 30.0006C44.6991 27.4006 43.6991 24.8006 42.2991 22.7006C41.7991 22.0006 41.0991 21.3006 40.5991 20.6006L39.2991 19.0006C38.0991 16.9006 40.6991 17.4006 41.3991 17.5006L67.0991 20.8006C67.4991 20.8006 67.0991 22.6006 67.1991 23.0006Z" fill="#062D4C"/>
<path d="M17.3004 29.6008C18.9004 29.6008 20.2004 28.3008 20.2004 26.7008C20.2004 25.1008 18.9004 23.8008 17.3004 23.8008C15.7004 23.8008 14.4004 25.1008 14.4004 26.7008C14.4004 28.3008 15.7004 29.6008 17.3004 29.6008Z" fill="#1EC8BB"/>
<path d="M23.0996 35.1006C24.1996 35.1006 25.0996 34.2006 25.0996 33.1006C25.0996 32.0006 24.1996 31.1006 23.0996 31.1006C21.9996 31.1006 21.0996 32.0006 21.0996 33.1006C21.0996 34.2006 21.9996 35.1006 23.0996 35.1006Z" fill="#1EC8BB"/>
<path d="M12.5992 39.4006C14.1992 39.4006 15.4992 38.1006 15.4992 36.5006C15.4992 34.9006 14.1992 33.6006 12.5992 33.6006C10.9992 33.6006 9.69922 34.9006 9.69922 36.5006C9.69922 38.1006 10.9992 39.4006 12.5992 39.4006Z" fill="#1EC8BB"/>
<path d="M25.1988 44.4006C26.7988 44.4006 28.0988 43.1006 28.0988 41.5006C28.0988 39.9006 26.7988 38.6006 25.1988 38.6006C23.5988 38.6006 22.2988 39.9006 22.2988 41.5006C22.2988 43.1006 23.5988 44.4006 25.1988 44.4006Z" fill="#1EC8BB"/>
<path fill-rule="evenodd" clip-rule="evenodd" d="M53.4996 29.801C55.0996 29.801 56.3996 28.501 56.3996 26.901C56.3996 25.301 55.0996 24.001 53.4996 24.001C51.8996 24.001 50.5996 25.301 50.5996 26.901C50.5996 28.501 51.8996 29.801 53.4996 29.801Z" fill="#1EC8BB"/>
<path d="M62.9 36.6008C64.5 36.6008 65.8 35.3008 65.8 33.7008C65.8 32.1008 64.5 30.8008 62.9 30.8008C61.3 30.8008 60 32.1008 60 33.7008C60 35.3008 61.3 36.6008 62.9 36.6008Z" fill="#1EC8BB"/>
<path d="M49.8004 41.6008C51.4004 41.6008 52.7004 40.3008 52.7004 38.7008C52.7004 37.1008 51.4004 35.8008 49.8004 35.8008C48.2004 35.8008 46.9004 37.1008 46.9004 38.7008C46.9004 40.3008 48.2004 41.6008 49.8004 41.6008Z" fill="#1EC8BB"/>
<path d="M8.09961 30.4004C9.19961 30.4004 10.0996 29.5004 10.0996 28.4004C10.0996 27.3004 9.19961 26.4004 8.09961 26.4004C6.99961 26.4004 6.09961 27.3004 6.09961 28.4004C6.09961 29.5004 6.99961 30.4004 8.09961 30.4004Z" fill="#1EC8BB"/>
<path d="M61.6992 28.501C62.7992 28.501 63.6992 27.601 63.6992 26.501C63.6992 25.401 62.7992 24.501 61.6992 24.501C60.5992 24.501 59.6992 25.401 59.6992 26.501C59.6992 27.601 60.5992 28.501 61.6992 28.501Z" fill="#1EC8BB"/>
<path d="M55.7988 36.8008C56.8988 36.8008 57.7988 35.9008 57.7988 34.8008C57.7988 33.7008 56.8988 32.8008 55.7988 32.8008C54.6988 32.8008 53.7988 33.7008 53.7988 34.8008C53.7988 35.9008 54.6988 36.8008 55.7988 36.8008Z" fill="#1EC8BB"/>
<path d="M38.5 45.9004C39.6 45.9004 40.5 45.0004 40.5 43.9004C40.5 42.8004 39.6 41.9004 38.5 41.9004C37.4 41.9004 36.5 42.8004 36.5 43.9004C36.5 45.0004 37.4 45.9004 38.5 45.9004Z" fill="#1EC8BB"/>
<path d="M15.9004 46.501C17.0004 46.501 17.9004 45.601 17.9004 44.501C17.9004 43.401 17.0004 42.501 15.9004 42.501C14.8004 42.501 13.9004 43.401 13.9004 44.501C13.9004 45.601 14.8004 46.501 15.9004 46.501Z" fill="#1EC8BB"/>
<path fill-rule="evenodd" clip-rule="evenodd" d="M55.699 48.501C56.799 48.501 57.699 47.601 57.699 46.501C57.699 45.401 56.799 44.501 55.699 44.501C54.599 44.501 53.699 45.401 53.699 46.501C53.599 47.601 54.499 48.501 55.699 48.501Z" fill="#1EC8BB"/>
<path d="M30.9996 53.5012C32.5996 53.5012 33.8996 52.2012 33.8996 50.6012C33.8996 49.0012 32.5996 47.7012 30.9996 47.7012C29.3996 47.7012 28.0996 49.0012 28.0996 50.6012C28.0996 52.2012 29.3996 53.5012 30.9996 53.5012Z" fill="#1EC8BB"/>
<path fill-rule="evenodd" clip-rule="evenodd" d="M46.3004 53.101C47.9004 53.101 49.2004 51.801 49.2004 50.201C49.2004 48.601 47.9004 47.301 46.3004 47.301C44.7004 47.301 43.4004 48.601 43.4004 50.201C43.4004 51.901 44.7004 53.101 46.3004 53.101ZM59.5004 42.001C60.1004 42.001 60.5004 41.501 60.5004 41.001C60.5004 40.501 60.1004 40.001 59.5004 40.001C59.0004 40.001 58.5004 40.401 58.5004 41.001C58.519 41.2601 58.6303 41.5038 58.8139 41.6874C58.9976 41.8711 59.2413 41.9824 59.5004 42.001ZM46.4004 44.801C46.534 44.8098 46.668 44.79 46.7933 44.7429C46.9186 44.6957 47.0324 44.6224 47.1271 44.5277C47.2218 44.433 47.2952 44.3192 47.3423 44.1939C47.3894 44.0685 47.4092 43.9346 47.4004 43.801C47.4004 43.301 47.0004 42.801 46.4004 42.801C45.9004 42.801 45.4004 43.201 45.4004 43.801C45.4004 44.401 45.9004 44.801 46.4004 44.801Z" fill="#1EC8BB"/>
<path d="M38.5 54.7012C39.6 54.7012 40.5 53.8012 40.5 52.7012C40.5 51.6012 39.6 50.7012 38.5 50.7012C37.4 50.7012 36.5 51.6012 36.5 52.7012C36.5 53.8012 37.4 54.7012 38.5 54.7012Z" fill="#1EC8BB"/>
<path fill-rule="evenodd" clip-rule="evenodd" d="M22.8996 50.8007C23.4996 50.8007 23.8996 50.3007 23.8996 49.8007C23.8996 49.3007 23.4996 48.8007 22.8996 48.8007C22.6405 48.8193 22.3968 48.9306 22.2132 49.1142C22.0295 49.2979 21.9182 49.5416 21.8996 49.8007C21.9182 50.0598 22.0295 50.3035 22.2132 50.4871C22.3968 50.6708 22.6405 50.7821 22.8996 50.8007ZM20.0996 38.9007C20.5996 38.9007 21.0996 38.5007 21.0996 37.9007C21.0996 37.3007 20.5996 36.9007 20.0996 36.9007C19.5996 36.9007 19.0996 37.3007 19.0996 37.9007C19.1182 38.1598 19.2295 38.4035 19.4132 38.5871C19.5968 38.7708 19.8405 38.8821 20.0996 38.9007ZM22.8996 26.6007C23.3996 26.6007 23.8996 26.2007 23.8996 25.6007C23.8996 25.1007 23.4996 24.6007 22.8996 24.6007C22.766 24.5918 22.632 24.6117 22.5067 24.6588C22.3814 24.7059 22.2676 24.7793 22.1729 24.874C22.0782 24.9686 22.0048 25.0825 21.9577 25.2078C21.9106 25.3331 21.8908 25.4671 21.8996 25.6007C21.8996 26.1007 22.2996 26.6007 22.8996 26.6007ZM51.2996 33.1007C51.4332 33.1095 51.5672 33.0897 51.6925 33.0426C51.8178 32.9955 51.9317 32.9221 52.0263 32.8274C52.121 32.7327 52.1944 32.6189 52.2415 32.4936C52.2886 32.3682 52.3084 32.2343 52.2996 32.1007C52.2996 31.6007 51.8996 31.1007 51.2996 31.1007C50.7996 31.1007 50.2996 31.5007 50.2996 32.1007C50.2996 32.6007 50.6996 33.1007 51.2996 33.1007ZM31.6996 42.6007C32.1996 42.6007 32.6996 42.2007 32.6996 41.6007C32.6996 41.1007 32.2996 40.6007 31.6996 40.6007C31.566 40.5918 31.432 40.6117 31.3067 40.6588C31.1814 40.7059 31.0676 40.7793 30.9729 40.874C30.8782 40.9686 30.8048 41.0825 30.7577 41.2078C30.7106 41.3331 30.6908 41.4671 30.6996 41.6007C30.6908 41.7343 30.7106 41.8682 30.7577 41.9936C30.8048 42.1189 30.8782 42.2327 30.9729 42.3274C31.0676 42.4221 31.1814 42.4955 31.3067 42.5426C31.432 42.5897 31.566 42.6095 31.6996 42.6007Z" fill="#1EC8BB"/>
<path d="M36.5 31.8008C34.3 31.8008 32.5 30.0008 32.5 27.8008C32.5 25.6008 34.3 23.8008 36.5 23.8008C38.7 23.8008 40.5 25.6008 40.5 27.8008C40.5 30.0008 38.7 31.8008 36.5 31.8008Z" fill="#062D4C" stroke="#062D4C" stroke-width="4" stroke-miterlimit="10"/>
</svg>
