<svg width="71" height="72" viewBox="0 0 71 72" fill="none" xmlns="http://www.w3.org/2000/svg">
<rect width="70" height="70" transform="translate(0.416016 1)" fill="white"/>
<path d="M69.116 71H1.71602C1.01602 71 0.416016 70.4 0.416016 69.7V2.3C0.416016 1.6 1.01602 1 1.71602 1H69.116C69.816 1 70.416 1.6 70.416 2.3V69.7C70.416 70.4 69.816 71 69.116 71Z" stroke="#E8E6D9" stroke-width="0.5" stroke-miterlimit="10"/>
<path d="M35.4168 63.7996C32.9168 63.7996 31.0168 62.9996 29.4168 61.1996L29.2168 60.9996L27.7168 61.2996L23.9168 62.0996C23.2168 62.1996 22.6168 62.1996 22.1168 62.1996C15.6168 62.1996 11.7168 58.4996 11.7168 52.1996C11.7168 50.1996 12.3168 48.4996 13.4168 46.8996V46.7996C15.8168 43.2996 16.8168 41.1996 17.4168 39.0996C21.2168 27.1996 22.2168 9.09961 22.2168 8.89961C22.2168 8.49961 22.6168 8.19961 23.0168 8.19961C23.2168 8.19961 23.4168 8.29961 23.6168 8.49961C23.7168 8.69961 23.8168 8.89961 23.8168 9.09961C23.8168 9.89961 22.7168 27.5996 18.9168 39.6996C18.5441 40.8226 18.1102 41.9242 17.6168 42.9996L17.1168 43.9996L18.2168 43.4996C18.5689 43.3736 18.9047 43.2057 19.2168 42.9996C19.3168 42.8996 19.5168 42.8996 19.6168 42.8996C19.9168 42.8996 20.1168 43.0996 20.3168 43.2996C20.5168 43.6996 20.4168 44.1996 20.0168 44.3996C18.6168 45.1996 17.4168 45.5996 16.9168 45.6996H16.8168L16.7168 45.7996C14.2168 47.6996 13.1168 49.6996 13.1168 52.2996C13.1168 57.6996 16.3168 60.6996 22.0168 60.6996C22.5168 60.6996 23.1168 60.6996 23.7168 60.5996C24.0168 60.5996 25.7168 60.1996 27.3168 59.8996L27.9168 59.7996L27.6168 59.1996L27.2168 58.5996C25.5168 56.0996 23.9168 53.6996 19.8168 53.6996C19.4168 53.6996 19.0168 53.3996 19.0168 52.8996C19.0168 52.4996 19.3168 52.0996 19.8168 52.0996C24.7168 52.0996 26.6168 54.9996 28.5168 57.6996L29.7168 59.4996V59.5996H29.8168L30.1168 59.8996V59.9996C31.5168 61.5996 33.0168 62.3996 35.1168 62.3996C38.8168 62.3996 40.2168 60.1996 41.9168 57.7996C43.8168 54.9996 45.7168 52.1996 50.6168 52.1996C51.0168 52.1996 51.4168 52.4996 51.4168 52.9996C51.4168 53.3996 51.1168 53.7996 50.6168 53.7996C46.5168 53.7996 44.9168 56.1996 43.2168 58.6996L42.4168 59.7996L43.2168 59.9996C44.9168 60.3996 46.6168 60.6996 46.9168 60.6996C47.5168 60.7996 48.0168 60.7996 48.4168 60.7996C54.1168 60.7996 57.3168 57.7996 57.3168 52.3996C57.3168 50.8996 56.9168 49.4996 56.1168 48.2996C56.0168 48.0996 55.7168 47.6996 55.7168 47.6996C55.2168 46.9996 54.5168 46.3996 53.8168 45.7996L53.7168 45.6996H53.6168C53.1168 45.5996 51.9168 45.1996 50.5168 44.3996C50.1168 44.1996 50.0168 43.6996 50.2168 43.2996C50.3168 43.0996 50.6168 42.8996 50.9168 42.8996C51.0168 42.8996 51.2168 42.8996 51.3168 42.9996C51.6289 43.2057 51.9646 43.3736 52.3168 43.4996L53.4168 43.9996L52.9168 42.8996C52.4168 41.8996 52.0168 40.7996 51.6168 39.5996C47.8168 27.4996 46.6168 9.79961 46.6168 8.99961C46.6168 8.79961 46.7168 8.59961 46.8168 8.39961C46.9168 8.19961 47.1168 8.19961 47.3168 8.09961C47.8168 8.09961 48.1168 8.39961 48.1168 8.79961C48.1168 8.99961 49.3168 27.0996 53.1168 38.9996C53.8168 41.0996 54.7168 43.4996 57.0168 46.5996C58.3168 48.1996 58.9168 49.9996 58.9168 52.0996C58.9168 58.3996 55.0168 62.0996 48.5168 62.0996C48.0168 62.0996 47.5168 62.0996 46.8168 61.9996C46.5168 61.9996 45.2168 61.6996 42.9168 61.1996L41.5168 60.9996L41.4168 61.1996C39.7168 62.9996 37.8168 63.7996 35.4168 63.7996Z" fill="#062D4C"/>
<path d="M43.1154 23.1998C42.7154 23.1998 42.4154 22.8998 42.3154 22.4998L41.9154 19.0998C41.9154 18.8998 41.9154 18.6998 42.1154 18.4998C42.1622 18.408 42.2339 18.3311 42.3223 18.2781C42.4107 18.225 42.5123 18.1979 42.6154 18.1998C43.1154 18.1998 43.4154 18.4998 43.5154 18.8998L43.9154 22.1998C43.9154 22.6998 43.6154 23.0998 43.1154 23.1998ZM44.4154 32.0998C44.0154 32.0998 43.7154 31.7998 43.6154 31.4998L43.0154 28.0998C43.0154 27.8998 43.0154 27.6998 43.1154 27.4998C43.1622 27.408 43.2339 27.3311 43.3223 27.2781C43.4107 27.225 43.5123 27.1979 43.6154 27.1998H43.7154C44.1154 27.1998 44.4154 27.4998 44.5154 27.8998L45.1154 31.1998C45.1154 31.3998 45.1154 31.5998 45.0154 31.7998C44.9685 31.8916 44.8968 31.9685 44.8084 32.0215C44.72 32.0746 44.6184 32.1017 44.5154 32.0998H44.4154ZM42.1154 14.1998C41.7154 14.1998 41.4154 13.8998 41.3154 13.4998L41.0154 10.0998C41.0154 9.6998 41.3154 9.2998 41.7154 9.2998C42.2154 9.2998 42.5154 9.5998 42.5154 9.9998L42.8154 13.3998C42.9154 13.7998 42.6154 14.1998 42.1154 14.1998ZM47.0154 40.6998C46.7154 40.6998 46.5154 40.5998 46.4154 40.3998C45.7154 39.3998 45.2154 38.2998 44.9154 37.0998C44.8154 36.8998 44.9154 36.6998 45.0154 36.4998C45.1154 36.2998 45.3154 36.1998 45.5154 36.0998H45.7154C46.1154 36.0998 46.4154 36.2998 46.5154 36.6998C46.8154 37.6998 47.2154 38.6998 47.8154 39.4998C47.9154 39.6998 48.0154 39.8998 47.9154 40.0998C47.9154 40.2998 47.7154 40.4998 47.6154 40.5998C47.3154 40.5998 47.2154 40.6998 47.0154 40.6998ZM27.9154 23.1998C27.5154 23.0998 27.2154 22.7998 27.2154 22.2998L27.6154 18.9998C27.6154 18.5998 28.0154 18.2998 28.4154 18.2998C28.7154 18.2998 28.9154 18.3998 29.0154 18.5998C29.1154 18.7998 29.2154 18.9998 29.2154 19.1998L28.8154 22.5998C28.7154 22.8998 28.4154 23.1998 27.9154 23.1998ZM28.8154 14.1998C28.4154 14.1998 28.1154 13.7998 28.1154 13.3998L28.3154 9.9998C28.3154 9.5998 28.7154 9.2998 29.1154 9.2998C29.6154 9.2998 29.9154 9.6998 29.9154 10.0998C29.9154 10.9998 29.8154 12.1998 29.7154 13.4998C29.6154 13.8998 29.2154 14.1998 28.8154 14.1998ZM23.8154 40.5998C23.6154 40.5998 23.5154 40.5998 23.4154 40.4998C23.0154 40.2998 23.0154 39.7998 23.2154 39.3998C23.8154 38.4998 24.3154 37.5998 24.6154 36.5998C24.7154 36.2998 25.0154 36.0998 25.3154 36.0998H25.5154C25.7154 36.1998 25.9154 36.2998 26.0154 36.4998C26.1154 36.6998 26.1154 36.8998 26.1154 37.0998C25.7451 38.2405 25.2057 39.3192 24.5154 40.2998C24.3262 40.4815 24.0774 40.5881 23.8154 40.5998ZM26.6154 32.0998H26.4154C26.0154 31.9998 25.7154 31.5998 25.8154 31.1998L26.4154 27.8998C26.5154 27.4998 26.8154 27.1998 27.2154 27.1998H27.3154C27.4184 27.1979 27.52 27.225 27.6084 27.2781C27.6968 27.3311 27.7685 27.408 27.8154 27.4998C27.9154 27.6998 28.0154 27.8998 27.9154 28.0998L27.3154 31.4998C27.3154 31.8998 27.0154 32.0998 26.6154 32.0998Z" fill="#1EC8BB"/>
</svg>
