<svg width="72" height="72" viewBox="0 0 72 72" fill="none" xmlns="http://www.w3.org/2000/svg">
<rect width="70" height="70" transform="translate(1 1.00098)" fill="white"/>
<path d="M59.2008 64.401C58.4008 64.401 57.6008 64.201 56.9008 63.801L47.2008 57.901C42.8008 54.801 40.3008 48.701 40.2008 48.401L34.4008 31.301C34.3008 31.101 33.7008 29.701 31.9008 29.701H30.3008V27.801H31.9008C35.1008 27.801 36.1008 30.401 36.2008 30.701L42.0008 47.701C42.2008 48.101 44.5008 53.601 48.3008 56.301L57.9008 62.201C58.5008 62.601 59.2008 62.701 59.9008 62.501C60.6008 62.301 61.1008 61.801 61.4008 61.201C62.5008 58.901 63.6008 56.301 63.8008 55.901C64.9008 50.701 64.5008 33.201 64.5008 33.001V32.901L65.3008 23.201V18.901C65.3008 16.301 64.8008 13.701 63.7008 11.301L62.9008 9.50098C62.3008 8.00098 60.8008 7.00098 59.1008 7.00098C57.3008 7.00098 55.7008 7.90098 55.2008 8.50098L46.5008 16.401L45.3008 15.001L54.0008 7.10098C55.0008 6.10098 57.0008 5.00098 59.3008 5.00098C61.7008 5.00098 63.8008 6.40098 64.8008 8.60098L65.6008 10.401C66.7008 13.001 67.3008 15.801 67.3008 18.701V23.101L66.5008 32.801C66.5008 34.101 66.9008 50.901 65.8008 56.101C65.7008 56.601 64.0008 60.301 63.3008 61.701C62.8008 62.801 61.8008 63.701 60.6008 64.001C60.0008 64.401 59.6008 64.401 59.2008 64.401Z" fill="#062D4C"/>
<path d="M22.5004 29.7006L21.9004 28.2006C24.8004 27.1006 26.6004 24.3006 26.6004 21.2006C26.6004 17.1006 23.2004 13.7006 19.1004 13.7006C18.2004 13.7006 17.3004 13.9006 16.5004 14.2006L15.9004 12.7006C16.9004 12.3006 18.0004 12.1006 19.0004 12.1006C24.0004 12.1006 28.1004 16.2006 28.1004 21.2006C28.2004 24.9006 26.0004 28.3006 22.5004 29.7006Z" fill="#1EC8BB"/>
<path d="M17.6004 50.701H13.7004V25.601L11.9004 20.101V19.301L14.3004 14.501L15.8004 15.201L13.5004 19.601V19.801L15.4004 25.301V49.101H16.1004L18.3004 30.901V29.001L21.5004 27.901L22.1004 29.501L20.0004 30.201V31.001V31.101L17.6004 50.701Z" fill="#1EC8BB"/>
<path d="M19.8 64.201H18V63.201L22.1 30.201L13.9 14.901C11.5 16.301 9.9 18.801 10 21.601C10 22.401 10.1 22.901 10.3 23.301C10.8 24.501 11.3 26.001 11.6 27.701L12.5 33.301V45.801L11.1 60.601V64.201H9.3V60.501L10.5 45.701V33.401L9.6 28.001C9.4 26.501 8.8 25.101 8.4 24.001C8.1 23.301 8 22.601 8 21.601C8 17.801 10.3 14.301 13.8 12.801L14.6 12.501L23.8 29.901L22.6 39.501L19.7 63.301V64.201H19.8Z" fill="#062D4C"/>
<path d="M32.0996 30.5006H26.5996V12.1006H32.0996V30.5006ZM28.3996 28.7006H30.1996V13.9006H28.3996V28.7006Z" fill="#1EC8BB"/>
<path d="M36.1992 25.5006H31.1992V23.6006H35.3992L36.6992 22.3006V21.2006L35.3992 19.9006H31.1992V18.1006H36.1992L38.4992 20.5006V23.1006L36.1992 25.5006Z" fill="#1EC8BB"/>
<path d="M40.9008 19.7014L39.7008 18.3014L41.7008 16.6014C41.9008 16.5014 42.0008 16.3014 42.0008 16.1014C42.0008 15.7014 41.7008 15.3014 41.2008 15.3014H39.0008C37.3008 15.3014 35.8008 13.9014 35.8008 12.1014C35.8008 10.4014 37.2008 8.90137 39.0008 8.90137H44.9008C45.6008 8.90137 46.2008 9.00137 46.7008 9.30137C47.8008 9.90137 48.5008 10.9014 48.7008 12.1014C48.9008 13.3014 48.5008 14.4014 47.6008 15.3014L46.5008 16.4014L45.2008 15.1014L46.3008 14.0014C46.7008 13.6014 46.9008 13.0014 46.8008 12.4014C46.7008 11.8014 46.4008 11.3014 45.8008 11.0014C45.6008 10.9014 45.3008 10.8014 44.9008 10.8014H39.0008C38.3008 10.8014 37.7008 11.4014 37.7008 12.1014C37.7008 12.8014 38.3008 13.4014 39.0008 13.4014H41.2008C42.6008 13.4014 43.8008 14.6014 43.8008 16.0014C43.8008 16.8014 43.5008 17.5014 42.9008 18.0014L40.9008 19.7014Z" fill="#062D4C"/>
<path d="M39.5004 13.501H31.4004V15.301H39.5004V13.501Z" fill="#062D4C"/>
<path d="M69.7 71.001H2.3C1.6 71.001 1 70.401 1 69.701V2.30098C1 1.60098 1.6 1.00098 2.3 1.00098H69.7C70.4 1.00098 71 1.60098 71 2.30098V69.701C71 70.401 70.4 71.001 69.7 71.001Z" stroke="#E8E6D9" stroke-width="0.5" stroke-miterlimit="10"/>
</svg>
