<svg width="71" height="71" viewBox="0 0 71 71" fill="none" xmlns="http://www.w3.org/2000/svg">
<rect width="70.4095" height="70.5" transform="translate(0.0078125)" fill="white"/>
<path d="M68.9078 70.5H1.50781C0.707812 70.5 0.0078125 69.8 0.0078125 69V1.5C0.0078125 0.7 0.707812 0 1.50781 0H68.9078C69.7078 0 70.4078 0.7 70.4078 1.5V68.9C70.5078 69.8 69.8078 70.5 68.9078 70.5ZM1.50781 0.5C0.907812 0.5 0.507812 1 0.507812 1.5V68.9C0.507812 69.5 1.00781 69.9 1.50781 69.9H68.9078C69.5078 69.9 69.9078 69.4 69.9078 68.9V1.5C69.9078 0.9 69.4078 0.5 68.9078 0.5H1.50781Z" fill="white"/>
<path d="M34.5077 28.3025C34.952 28.3025 35.3122 27.9419 35.3122 27.497C35.3122 27.0521 34.952 26.6914 34.5077 26.6914C34.0633 26.6914 33.7031 27.0521 33.7031 27.497C33.7031 27.9419 34.0633 28.3025 34.5077 28.3025Z" fill="#062D4C"/>
<path d="M33.7049 31.7263C34.1493 31.7263 34.5095 31.3657 34.5095 30.9208C34.5095 30.4759 34.1493 30.1152 33.7049 30.1152C33.2606 30.1152 32.9004 30.4759 32.9004 30.9208C32.9004 31.3657 33.2606 31.7263 33.7049 31.7263Z" fill="#062D4C"/>
<path d="M32.7977 35.8549C33.4086 35.8549 33.9039 35.359 33.9039 34.7473C33.9039 34.1356 33.4086 33.6396 32.7977 33.6396C32.1867 33.6396 31.6914 34.1356 31.6914 34.7473C31.6914 35.359 32.1867 35.8549 32.7977 35.8549Z" fill="#062D4C"/>
<path d="M35.4129 40.5868C36.1349 40.5868 36.7203 40.0007 36.7203 39.2778C36.7203 38.5548 36.1349 37.9688 35.4129 37.9688C34.6908 37.9688 34.1055 38.5548 34.1055 39.2778C34.1055 40.0007 34.6908 40.5868 35.4129 40.5868Z" fill="#1EC8BB"/>
<path d="M37.1238 46.0253C37.8459 46.0253 38.4312 45.4392 38.4312 44.7163C38.4312 43.9933 37.8459 43.4072 37.1238 43.4072C36.4017 43.4072 35.8164 43.9933 35.8164 44.7163C35.8164 45.4392 36.4017 46.0253 37.1238 46.0253Z" fill="#1EC8BB"/>
<path d="M36.2176 54.7856C36.8286 54.7856 37.3238 54.2897 37.3238 53.6779C37.3238 53.0662 36.8286 52.5703 36.2176 52.5703C35.6066 52.5703 35.1113 53.0662 35.1113 53.6779C35.1113 54.2897 35.6066 54.7856 36.2176 54.7856Z" fill="#062D4C"/>
<path d="M37.1238 50.2543C37.7348 50.2543 38.2301 49.7584 38.2301 49.1467C38.2301 48.535 37.7348 48.0391 37.1238 48.0391C36.5129 48.0391 36.0176 48.535 36.0176 49.1467C36.0176 49.7584 36.5129 50.2543 37.1238 50.2543Z" fill="#1EC8BB"/>
<path d="M34.5077 59.0144C34.952 59.0144 35.3122 58.6538 35.3122 58.2089C35.3122 57.764 34.952 57.4033 34.5077 57.4033C34.0633 57.4033 33.7031 57.764 33.7031 58.2089C33.7031 58.6538 34.0633 59.0144 34.5077 59.0144Z" fill="#062D4C"/>
<path d="M37.926 27.1949C37.7248 27.1949 37.6243 27.0942 37.4231 26.9935C37.222 26.6914 37.222 26.2886 37.4231 26.0872C38.9317 24.7782 39.7362 22.4622 39.7362 20.0456C39.7362 16.0178 37.3226 12.6949 34.4061 12.6949C31.4896 12.6949 29.0759 16.0178 29.0759 20.0456C29.0759 22.4622 29.9811 24.7782 31.389 26.0872C31.6907 26.2886 31.6907 26.7921 31.389 26.9935C31.1879 27.2956 30.685 27.2956 30.4839 26.9935C28.7742 25.3824 27.668 22.7643 27.668 19.9449C27.668 15.2122 30.685 11.2852 34.3055 11.2852C37.926 11.2852 40.943 15.1115 40.943 19.9449C40.943 22.7643 39.9374 25.3824 38.1271 26.9935C38.2277 27.1949 38.1271 27.1949 37.926 27.1949Z" fill="#062D4C"/>
<path d="M50.2976 58.9142C50.197 58.9142 50.197 58.9142 50.2976 58.9142C49.8953 58.9142 49.5936 58.5114 49.6942 58.2093C50.4987 50.5565 49.6942 35.0496 48.2862 32.7336C47.8839 32.0288 46.0737 31.8274 44.364 31.5253C41.2464 31.0218 37.3242 30.5183 37.3242 26.6919V25.8864C37.3242 25.4836 37.6259 25.2822 37.9276 25.2822C38.2293 25.2822 38.531 25.5843 38.531 25.8864V26.6919C38.531 29.2093 41.0453 29.7128 44.4646 30.2163C46.6771 30.5183 48.4874 30.8204 49.2919 32.0288C51.1021 35.0496 51.7056 51.3621 50.901 58.31C50.901 58.6121 50.5993 58.9142 50.2976 58.9142Z" fill="#062D4C"/>
<path d="M21.3336 58.9142C20.9314 58.9142 20.7302 58.6121 20.7302 58.31C20.7302 56.2961 20.4285 53.376 20.0262 50.2544C19.2217 43.5079 18.8194 38.876 19.8251 37.1642C20.4285 36.1572 21.8365 35.251 23.7473 34.1433C26.7643 32.2301 30.586 29.8135 30.586 26.6919V25.8864C30.586 25.4836 30.8877 25.2822 31.1894 25.2822C31.4911 25.2822 31.7928 25.5843 31.7928 25.8864V26.6919C31.7928 30.5183 27.6695 33.1364 24.2501 35.251C22.641 36.2579 21.2331 37.1642 20.8308 37.869C19.9257 39.3794 20.6296 45.3204 21.2331 50.1538C21.6353 53.2753 21.937 56.2961 21.937 58.31C22.0376 58.6121 21.7359 58.9142 21.3336 58.9142Z" fill="#062D4C"/>
<path d="M44.7658 58.9135H44.6652C44.2629 58.8128 44.0618 58.5107 44.1623 58.108C46.576 46.3267 45.168 40.9899 44.8663 39.983C44.7658 39.8823 44.6652 39.7816 44.6652 39.5802C44.5646 39.1774 44.8663 38.8753 44.9669 38.8753C45.168 38.7746 45.4697 38.7746 45.6709 38.8753C46.3749 39.3788 48.0845 45.5212 45.4697 58.41C45.3692 58.6114 45.0675 58.9135 44.7658 58.9135Z" fill="#062D4C"/>
<path d="M27.6684 58.9144C27.1656 58.8137 26.9644 58.5116 27.065 58.2095C27.8696 53.1748 26.7633 50.0533 25.7576 47.0324C25.1542 45.4213 24.6514 43.8102 24.5508 42.0984C24.5508 41.6956 24.7519 41.3936 25.1542 41.3936C25.5565 41.3936 25.8582 41.5949 25.8582 41.9977C26.0593 43.6088 26.5622 45.0186 27.065 46.6297C28.0707 49.6505 29.2775 53.0741 28.473 58.4109C28.2718 58.6123 27.9701 58.9144 27.6684 58.9144Z" fill="#062D4C"/>
</svg>
