<svg width="72" height="72" viewBox="0 0 72 72" fill="none" xmlns="http://www.w3.org/2000/svg">
<rect width="70" height="70" transform="translate(1.00391 1.00098)" fill="white"/>
<path d="M20.4089 66.301C18.6089 66.301 17.4089 65.801 16.7089 64.701C16.5089 64.501 16.4089 64.201 16.3089 64.001C16.1089 63.701 16.0089 63.401 15.8089 63.201C15.6089 63.101 15.3089 63.001 15.0089 63.001C14.8089 63.001 14.5089 63.001 14.3089 63.001C14.0089 63.001 13.7089 63.001 13.5089 63.001H13.3089C10.5089 62.901 8.7089 60.101 8.1089 57.301C8.0089 56.701 7.9089 56.001 7.8089 55.401C7.5089 53.601 7.3089 51.801 6.3089 50.501C6.2089 50.301 6.0089 50.201 5.9089 50.001C5.6089 49.601 5.2089 49.101 4.9089 48.501C4.4089 47.301 4.7089 46.101 5.0089 45.101C5.2089 44.401 5.4089 43.701 5.3089 43.001C5.2089 42.101 4.7089 41.301 4.2089 40.401C3.6089 39.401 3.0089 38.401 2.9089 37.201C2.8089 35.601 3.6089 34.101 4.3089 32.701C5.1089 31.201 5.9089 29.801 5.2089 28.601C5.0089 28.301 4.8089 28.001 4.5089 27.701C4.1089 27.501 3.9089 27.201 3.7089 26.801C2.4089 24.801 3.2089 22.301 4.2089 20.701C4.8089 19.801 5.5089 19.001 6.3089 18.201C6.9089 17.601 7.4089 17.001 7.9089 16.301C8.3089 15.801 8.6089 15.201 8.9089 14.601C9.5089 13.701 10.0089 12.801 10.8089 11.901C11.9089 10.701 13.4089 10.001 14.7089 10.001C15.2089 10.001 15.7089 10.101 16.2089 10.301C17.9089 11.101 18.6089 12.901 19.2089 14.501C19.4089 14.901 19.5089 15.301 19.7089 15.701C20.4089 17.401 21.6089 18.801 22.8089 20.201C24.1089 21.701 25.4089 23.301 26.2089 25.101C26.7089 26.201 27.0089 27.501 27.2089 28.601C27.4089 29.401 27.6089 30.201 27.8089 31.001C29.0089 34.801 32.1089 38.001 35.9089 39.401C39.7089 38.001 42.8089 34.801 44.0089 31.001C44.2089 30.201 44.4089 29.401 44.6089 28.601C44.9089 27.401 45.1089 26.201 45.6089 25.101C46.4089 23.201 47.7089 21.701 49.0089 20.201C50.2089 18.801 51.4089 17.301 52.1089 15.701C52.3089 15.301 52.4089 14.901 52.6089 14.501C53.2089 12.901 53.8089 11.101 55.6089 10.301C56.1089 10.101 56.6089 10.001 57.1089 10.001C58.4089 10.001 59.9089 10.701 61.0089 11.901C61.8089 12.701 62.3089 13.601 62.9089 14.601C63.2089 15.201 63.6089 15.701 64.0089 16.301C64.5089 17.001 65.1089 17.601 65.6089 18.201C66.3089 19.001 67.1089 19.801 67.7089 20.701C68.7089 22.301 69.5089 24.801 68.2089 26.801C68.0089 27.101 67.7089 27.401 67.5089 27.701C67.2089 28.001 67.0089 28.301 66.8089 28.601C66.2089 29.801 66.9089 31.201 67.7089 32.701C68.4089 34.001 69.1089 35.301 69.1089 36.701L69.0089 37.701C68.8089 38.701 68.3089 39.601 67.7089 40.401C67.2089 41.301 66.7089 42.101 66.6089 43.001C66.5089 43.701 66.7089 44.401 66.9089 45.101C67.2089 46.201 67.5089 47.401 67.0089 48.501C66.8089 49.101 66.4089 49.601 66.1089 50.001C66.0089 50.201 65.8089 50.301 65.7089 50.501C64.7089 51.901 64.4089 53.701 64.2089 55.401C64.1089 56.101 64.0089 56.701 63.9089 57.401C63.3089 60.201 61.5089 63.001 58.7089 63.101H58.5089C58.2089 63.101 57.9089 63.101 57.6089 63.101C57.4089 63.101 57.1089 63.101 56.9089 63.101C56.5089 63.101 56.2089 63.201 56.1089 63.301C55.9089 63.501 55.7089 63.801 55.6089 64.101C55.5089 64.401 55.3089 64.601 55.2089 64.801C54.5089 65.801 53.2089 66.401 51.5089 66.401C50.9089 66.401 50.3089 66.301 49.5089 66.201L42.7089 65.201C40.9089 64.901 38.8089 64.601 37.2089 63.401C36.8089 63.101 36.4089 62.701 36.0089 62.301C35.6089 62.701 35.3089 63.101 34.8089 63.401C33.1089 64.601 31.1089 64.901 29.3089 65.201L22.5089 66.201C21.6089 66.201 21.0089 66.301 20.4089 66.301ZM36.5089 60.701C36.9089 61.401 37.4089 61.901 37.9089 62.201C39.3089 63.201 41.2089 63.501 42.8089 63.701L49.6089 64.701C50.3089 64.801 50.9089 64.901 51.4089 64.901C52.7089 64.901 53.5089 64.601 54.0089 63.901C54.1089 63.701 54.2089 63.501 54.3089 63.301C54.5089 62.901 54.8089 62.401 55.2089 62.001C55.8089 61.601 56.4089 61.501 56.9089 61.501C57.2089 61.501 57.5089 61.501 57.7089 61.501C58.0089 61.501 58.2089 61.501 58.4089 61.501H58.5089C60.5089 61.401 61.9089 59.101 62.4089 56.901C62.5089 56.301 62.6089 55.601 62.7089 55.001C63.0089 53.101 63.3089 51.101 64.5089 49.501C64.6089 49.301 64.8089 49.101 64.9089 48.901C65.2089 48.501 65.5089 48.201 65.6089 47.801C65.9089 47.001 65.7089 46.201 65.4089 45.201C65.2089 44.401 65.0089 43.501 65.1089 42.601C65.2089 41.401 65.8089 40.401 66.4089 39.401C66.9089 38.501 67.4089 37.701 67.5089 36.801C67.6089 35.601 66.9089 34.301 66.2089 33.101C65.3089 31.501 64.3089 29.601 65.2089 27.701C65.4089 27.201 65.8089 26.801 66.1089 26.501C66.3089 26.201 66.5089 26.001 66.7089 25.801C67.6089 24.401 67.0089 22.401 66.2089 21.201C65.7089 20.401 65.0089 19.601 64.3089 18.901C63.7089 18.301 63.1089 17.601 62.6089 16.901C62.2089 16.301 61.8089 15.701 61.5089 15.101C61.0089 14.301 60.5089 13.401 59.8089 12.701C59.0089 11.801 57.9089 11.301 56.9089 11.301C56.6089 11.301 56.3089 11.401 56.0089 11.501C54.8089 12.001 54.3089 13.501 53.8089 14.901C53.6089 15.301 53.5089 15.801 53.3089 16.201C52.5089 18.001 51.2089 19.601 50.0089 21.101C48.9089 22.701 47.6089 24.201 46.9089 25.801C46.5089 26.801 46.2089 28.001 46.0089 29.101C45.8089 29.901 45.6089 30.801 45.4089 31.601C44.0089 35.901 40.5089 39.501 36.2089 41.001L36.0089 41.101H35.8089C31.4089 39.601 27.9089 36.001 26.5089 31.701C26.2089 30.901 26.1089 30.001 25.9089 29.201C25.7089 28.101 25.4089 27.001 25.0089 25.901C24.2089 24.201 22.9089 22.701 21.7089 21.201C20.4089 19.701 19.2089 18.201 18.4089 16.301C18.2089 15.901 18.1089 15.501 17.9089 15.001C17.4089 13.601 16.8089 12.101 15.7089 11.601C15.4089 11.501 15.1089 11.401 14.8089 11.401C13.8089 11.401 12.7089 12.001 11.9089 12.801C11.2089 13.501 10.7089 14.401 10.2089 15.201C9.8089 15.801 9.5089 16.401 9.1089 17.001C8.6089 17.701 8.0089 18.401 7.4089 19.001C6.7089 19.701 6.0089 20.501 5.5089 21.301C4.7089 22.501 4.1089 24.501 5.0089 25.901C5.2089 26.101 5.4089 26.401 5.6089 26.601C5.9089 26.901 6.2089 27.301 6.5089 27.801C7.5089 29.701 6.4089 31.501 5.5089 33.201C4.8089 34.401 4.1089 35.701 4.2089 36.901C4.3089 37.801 4.8089 38.601 5.3089 39.501C5.9089 40.501 6.5089 41.501 6.6089 42.701C6.7089 43.601 6.5089 44.401 6.3089 45.301C6.1089 46.301 5.9089 47.101 6.1089 47.901C6.2089 48.301 6.5089 48.601 6.8089 49.001C6.9089 49.201 7.1089 49.401 7.2089 49.601C8.4089 51.201 8.7089 53.201 9.0089 55.101C9.1089 55.701 9.2089 56.401 9.3089 57.001C9.8089 59.301 11.2089 61.601 13.2089 61.601H13.3089C13.5089 61.601 13.8089 61.601 14.0089 61.601C14.3089 61.601 14.6089 61.601 14.9089 61.601C15.3089 61.601 16.0089 61.701 16.6089 62.101C17.1089 62.501 17.3089 62.901 17.5089 63.401C17.6089 63.601 17.7089 63.801 17.8089 64.001C18.3089 64.701 19.1089 65.001 20.4089 65.001C20.9089 65.001 21.5089 65.001 22.2089 64.801L29.0089 63.801C30.7089 63.601 32.5089 63.301 33.9089 62.301C34.4089 61.901 34.9089 61.401 35.3089 60.801L35.9089 59.901L36.5089 60.701Z" fill="#062D4C"/>
<path d="M15.9043 49.9663C14.5043 49.9663 13.4043 48.8601 13.4043 47.4524C13.4043 46.0446 14.5043 44.9385 15.9043 44.9385C17.3043 44.9385 18.3043 46.0446 18.3043 47.4524C18.3043 48.8601 17.2043 49.9663 15.9043 49.9663ZM15.9043 45.4413C14.8043 45.4413 13.8043 46.3463 13.8043 47.5529C13.8043 48.659 14.7043 49.6646 15.9043 49.6646C17.0043 49.6646 18.0043 48.7596 18.0043 47.5529C18.0043 46.3463 17.0043 45.4413 15.9043 45.4413Z" fill="#062D4C"/>
<path d="M23.4039 56.9048C22.0039 56.9048 21.0039 55.7986 21.0039 54.3909C21.0039 52.9831 22.1039 51.9775 23.4039 51.9775C24.8039 51.9775 25.9039 53.0836 25.9039 54.3909C25.9039 55.7986 24.8039 56.9048 23.4039 56.9048ZM23.4039 52.3798C22.3039 52.3798 21.3039 53.2848 21.3039 54.4914C21.3039 55.5975 22.2039 56.6031 23.4039 56.6031C24.5039 56.6031 25.5039 55.6981 25.5039 54.4914C25.5039 53.2848 24.6039 52.3798 23.4039 52.3798Z" fill="#062D4C"/>
<path d="M15.9043 59.2172C14.5043 59.2172 13.4043 58.1111 13.4043 56.7033C13.4043 55.2956 14.5043 54.1895 15.9043 54.1895C17.3043 54.1895 18.3043 55.2956 18.3043 56.7033C18.3043 58.1111 17.2043 59.2172 15.9043 59.2172ZM15.9043 54.5917C14.8043 54.5917 13.8043 55.4967 13.8043 56.7033C13.8043 57.8095 14.7043 58.815 15.9043 58.815C17.0043 58.815 18.0043 57.91 18.0043 56.7033C18.0043 55.5972 17.0043 54.5917 15.9043 54.5917Z" fill="#062D4C"/>
<path d="M37.6035 59.2172C36.2035 59.2172 35.1035 58.1111 35.1035 56.7033C35.1035 55.2956 36.2035 54.1895 37.6035 54.1895C39.0035 54.1895 40.0035 55.2956 40.0035 56.7033C40.1035 58.1111 39.0035 59.2172 37.6035 59.2172ZM37.6035 54.5917C36.5035 54.5917 35.5035 55.4967 35.5035 56.7033C35.5035 57.8095 36.4035 58.815 37.6035 58.815C38.7035 58.815 39.7035 57.91 39.7035 56.7033C39.7035 55.5972 38.8035 54.5917 37.6035 54.5917Z" fill="#062D4C"/>
<path d="M45.6031 62.0327C44.2031 62.0327 43.2031 60.9266 43.2031 59.6194C43.2031 58.2116 44.3031 57.2061 45.6031 57.2061C47.0031 57.2061 48.1031 58.3122 48.1031 59.6194C48.0031 60.9266 46.9031 62.0327 45.6031 62.0327ZM45.6031 57.4072C44.5031 57.4072 43.5031 58.3122 43.5031 59.5188C43.5031 60.6249 44.4031 61.6305 45.6031 61.6305C46.7031 61.6305 47.7031 60.7255 47.7031 59.5188C47.7031 58.4127 46.7031 57.4072 45.6031 57.4072Z" fill="#062D4C"/>
<path d="M52.6031 60.2222C51.2031 60.2222 50.2031 59.1161 50.2031 57.8088C50.2031 56.4011 51.3031 55.3955 52.6031 55.3955C54.0031 55.3955 55.1031 56.5016 55.1031 57.8088C55.0031 59.1161 53.9031 60.2222 52.6031 60.2222ZM52.6031 55.6972C51.5031 55.6972 50.5031 56.6022 50.5031 57.8088C50.5031 58.915 51.4031 59.9205 52.6031 59.9205C53.7031 59.9205 54.7031 59.0155 54.7031 57.8088C54.7031 56.6022 53.7031 55.6972 52.6031 55.6972Z" fill="#062D4C"/>
<path d="M21.2047 44.7368C19.8047 44.7368 18.8047 43.6307 18.8047 42.2229C18.8047 40.8151 19.9047 39.8096 21.2047 39.8096C22.6047 39.8096 23.6047 40.9157 23.6047 42.2229C23.6047 43.6307 22.5047 44.7368 21.2047 44.7368ZM21.2047 40.2118C20.1047 40.2118 19.1047 41.1168 19.1047 42.3235C19.1047 43.4296 20.0047 44.4351 21.2047 44.4351C22.3047 44.4351 23.3047 43.5301 23.3047 42.3235C23.2047 41.1168 22.3047 40.2118 21.2047 40.2118Z" fill="#062D4C"/>
<path d="M30.6031 49.9663C29.2031 49.9663 28.2031 48.8601 28.2031 47.4524C28.2031 46.0446 29.3031 44.9385 30.6031 44.9385C32.0031 44.9385 33.1031 46.0446 33.1031 47.4524C33.1031 48.8601 32.0031 49.9663 30.6031 49.9663ZM30.6031 45.4413C29.5031 45.4413 28.5031 46.3463 28.5031 47.5529C28.5031 48.659 29.4031 49.6646 30.6031 49.6646C31.7031 49.6646 32.7031 48.7596 32.7031 47.5529C32.7031 46.3463 31.8031 45.4413 30.6031 45.4413Z" fill="#062D4C"/>
<path d="M39.9039 51.1723C38.5039 51.1723 37.5039 50.0662 37.5039 48.759C37.5039 47.3512 38.6039 46.2451 39.9039 46.2451C41.3039 46.2451 42.3039 47.3512 42.3039 48.759C42.3039 50.0662 41.2039 51.1723 39.9039 51.1723ZM39.9039 46.6473C38.8039 46.6473 37.8039 47.5523 37.8039 48.759C37.8039 49.8651 38.7039 50.8707 39.9039 50.8707C41.0039 50.8707 42.0039 49.9657 42.0039 48.759C42.0039 47.5523 41.0039 46.6473 39.9039 46.6473Z" fill="#062D4C"/>
<path d="M46.6031 44.7368C45.2031 44.7368 44.2031 43.6307 44.2031 42.2229C44.2031 40.8151 45.3031 39.8096 46.6031 39.8096C48.0031 39.8096 49.1031 40.9157 49.1031 42.2229C49.0031 43.6307 47.9031 44.7368 46.6031 44.7368ZM46.6031 40.2118C45.5031 40.2118 44.5031 41.1168 44.5031 42.3235C44.5031 43.4296 45.4031 44.4351 46.6031 44.4351C47.7031 44.4351 48.7031 43.5301 48.7031 42.3235C48.6031 41.1168 47.7031 40.2118 46.6031 40.2118Z" fill="#062D4C"/>
<path d="M61.6035 42.5249C60.2035 42.5249 59.1035 41.4188 59.1035 40.1115C59.1035 38.7038 60.2035 37.5977 61.6035 37.5977C63.0035 37.5977 64.1035 38.7038 64.1035 40.1115C64.1035 41.4188 63.0035 42.5249 61.6035 42.5249ZM61.6035 37.9999C60.5035 37.9999 59.5035 38.9049 59.5035 40.1115C59.5035 41.2177 60.4035 42.2232 61.6035 42.2232C62.7035 42.2232 63.7035 41.3182 63.7035 40.1115C63.7035 38.9049 62.8035 37.9999 61.6035 37.9999Z" fill="#062D4C"/>
<path d="M48.8047 53.3852C47.4047 53.3852 46.3047 52.2791 46.3047 50.8713C46.3047 49.4636 47.4047 48.458 48.8047 48.458C50.2047 48.458 51.3047 49.5641 51.3047 50.8713C51.3047 52.2791 50.2047 53.3852 48.8047 53.3852ZM48.8047 48.8602C47.7047 48.8602 46.7047 49.7652 46.7047 50.9719C46.7047 52.078 47.6047 53.0836 48.8047 53.0836C49.9047 53.0836 50.9047 52.1786 50.9047 50.9719C50.9047 49.8658 50.0047 48.8602 48.8047 48.8602Z" fill="#062D4C"/>
<path d="M59.4039 49.3628C58.0039 49.3628 57.0039 48.2567 57.0039 46.9495C57.0039 45.5417 58.1039 44.5361 59.4039 44.5361C60.8039 44.5361 61.9039 45.6422 61.9039 46.9495C61.8039 48.2567 60.7039 49.3628 59.4039 49.3628ZM59.4039 44.7372C58.3039 44.7372 57.3039 45.6422 57.3039 46.8489C57.3039 47.955 58.2039 48.9606 59.4039 48.9606C60.5039 48.9606 61.5039 48.0556 61.5039 46.8489C61.4039 45.7428 60.5039 44.7372 59.4039 44.7372Z" fill="#062D4C"/>
<path d="M57.1035 55.6977C55.7035 55.6977 54.6035 54.5916 54.6035 53.1838C54.6035 51.776 55.7035 50.6699 57.1035 50.6699C58.5035 50.6699 59.5035 51.776 59.5035 53.1838C59.6035 54.5916 58.5035 55.6977 57.1035 55.6977ZM57.1035 51.1727C56.0035 51.1727 55.0035 52.0777 55.0035 53.2844C55.0035 54.3905 55.9035 55.396 57.1035 55.396C58.2035 55.396 59.2035 54.491 59.2035 53.2844C59.2035 52.0777 58.3035 51.1727 57.1035 51.1727Z" fill="#062D4C"/>
<path d="M57.1035 22.5141C55.7035 22.5141 54.6035 21.408 54.6035 20.1008C54.6035 18.693 55.7035 17.5869 57.1035 17.5869C58.5035 17.5869 59.5035 18.693 59.5035 20.1008C59.6035 21.408 58.5035 22.5141 57.1035 22.5141ZM57.1035 17.8886C56.0035 17.8886 55.0035 18.7936 55.0035 20.0002C55.0035 21.1064 56.0035 22.1119 57.1035 22.1119C58.2035 22.1119 59.2035 21.2069 59.2035 20.0002C59.2035 18.8941 58.3035 17.8886 57.1035 17.8886Z" fill="#062D4C"/>
<path d="M61.6035 29.2514C60.2035 29.2514 59.1035 28.1453 59.1035 26.8381C59.1035 25.4303 60.2035 24.3242 61.6035 24.3242C63.0035 24.3242 64.1035 25.4303 64.1035 26.8381C64.1035 28.1453 63.0035 29.2514 61.6035 29.2514ZM61.6035 24.7264C60.5035 24.7264 59.5035 25.6314 59.5035 26.8381C59.5035 27.9442 60.4035 28.9498 61.6035 28.9498C62.7035 28.9498 63.7035 28.0448 63.7035 26.8381C63.7035 25.6314 62.8035 24.7264 61.6035 24.7264Z" fill="#062D4C"/>
<path d="M52.6031 28.145C51.2031 28.145 50.2031 27.0389 50.2031 25.6311C50.2031 24.2233 51.3031 23.1172 52.6031 23.1172C54.0031 23.1172 55.1031 24.2233 55.1031 25.6311C55.0031 27.0389 53.9031 28.145 52.6031 28.145ZM52.6031 23.5194C51.5031 23.5194 50.5031 24.4244 50.5031 25.6311C50.5031 26.7372 51.4031 27.7427 52.6031 27.7427C53.7031 27.7427 54.7031 26.8377 54.7031 25.6311C54.7031 24.525 53.7031 23.5194 52.6031 23.5194Z" fill="#062D4C"/>
<path d="M57.1035 35.2846C55.7035 35.2846 54.6035 34.1785 54.6035 32.7707C54.6035 31.3629 55.7035 30.2568 57.1035 30.2568C58.5035 30.2568 59.5035 31.3629 59.5035 32.7707C59.6035 34.1785 58.5035 35.2846 57.1035 35.2846ZM57.1035 30.6591C56.0035 30.6591 55.0035 31.5641 55.0035 32.7707C55.0035 33.8768 55.9035 34.8824 57.1035 34.8824C58.2035 34.8824 59.2035 33.9774 59.2035 32.7707C59.2035 31.6646 58.3035 30.6591 57.1035 30.6591Z" fill="#062D4C"/>
<path d="M54.9043 44.7368C53.5043 44.7368 52.4043 43.6307 52.4043 42.2229C52.4043 40.8151 53.5043 39.8096 54.9043 39.8096C56.3043 39.8096 57.4043 40.9157 57.4043 42.2229C57.3043 43.6307 56.2043 44.7368 54.9043 44.7368ZM54.9043 40.2118C53.8043 40.2118 52.8043 41.1168 52.8043 42.3235C52.8043 43.4296 53.7043 44.4351 54.9043 44.4351C56.0043 44.4351 57.0043 43.5301 57.0043 42.3235C56.9043 41.1168 56.0043 40.2118 54.9043 40.2118Z" fill="#062D4C"/>
<path d="M52.6039 35.0843C52.6039 36.2909 51.6039 37.397 50.3039 37.397C49.1039 37.397 48.0039 36.3915 48.0039 35.0843C48.0039 33.8776 49.0039 32.7715 50.3039 32.7715C51.6039 32.7715 52.6039 33.777 52.6039 35.0843Z" fill="#1EC8BB"/>
<path d="M50.3043 37.4975C48.9043 37.4975 47.9043 36.3914 47.9043 35.0842C47.9043 33.6764 49.0043 32.5703 50.3043 32.5703C51.7043 32.5703 52.7043 33.6764 52.7043 35.0842C52.8043 36.3914 51.7043 37.4975 50.3043 37.4975ZM50.3043 32.9725C49.2043 32.9725 48.2043 33.8775 48.2043 35.0842C48.2043 36.1903 49.1043 37.1959 50.3043 37.1959C51.4043 37.1959 52.4043 36.2909 52.4043 35.0842C52.4043 33.8775 51.5043 32.9725 50.3043 32.9725Z" fill="#1EC8BB"/>
<path d="M29.6035 61.4292C28.2035 61.4292 27.1035 60.3231 27.1035 59.0158C27.1035 57.6081 28.2035 56.502 29.6035 56.502C31.0035 56.502 32.0035 57.6081 32.0035 59.0158C32.0035 60.3231 30.9035 61.4292 29.6035 61.4292ZM29.6035 56.9042C28.5035 56.9042 27.5035 57.8092 27.5035 59.0158C27.5035 60.122 28.4035 61.1275 29.6035 61.1275C30.7035 61.1275 31.7035 60.2225 31.7035 59.0158C31.6035 57.8092 30.7035 56.9042 29.6035 56.9042Z" fill="#062D4C"/>
<path d="M13.6035 38.4018C12.2035 38.4018 11.1035 37.2957 11.1035 35.8879C11.1035 34.4802 12.2035 33.4746 13.6035 33.4746C15.0035 33.4746 16.1035 34.5807 16.1035 35.8879C16.1035 37.2957 15.0035 38.4018 13.6035 38.4018ZM13.6035 33.8768C12.5035 33.8768 11.5035 34.7818 11.5035 35.9885C11.5035 37.0946 12.4035 38.1002 13.6035 38.1002C14.7035 38.1002 15.7035 37.1952 15.7035 35.9885C15.7035 34.7818 14.8035 33.8768 13.6035 33.8768Z" fill="#062D4C"/>
<path d="M15.9043 29.2514C14.5043 29.2514 13.4043 28.1453 13.4043 26.8381C13.4043 25.4303 14.5043 24.3242 15.9043 24.3242C17.3043 24.3242 18.3043 25.4303 18.3043 26.8381C18.3043 28.1453 17.2043 29.2514 15.9043 29.2514ZM15.9043 24.7264C14.8043 24.7264 13.8043 25.6314 13.8043 26.8381C13.8043 27.9442 14.7043 28.9498 15.9043 28.9498C17.0043 28.9498 18.0043 28.0448 18.0043 26.8381C18.0043 25.6314 17.0043 24.7264 15.9043 24.7264Z" fill="#062D4C"/>
<path d="M21.2047 36.0894C19.8047 36.0894 18.8047 34.9832 18.8047 33.676C18.8047 32.2683 19.9047 31.2627 21.2047 31.2627C22.6047 31.2627 23.6047 32.3688 23.6047 33.676C23.6047 34.9832 22.5047 36.0894 21.2047 36.0894ZM21.2047 31.5644C20.1047 31.5644 19.1047 32.4694 19.1047 33.676C19.1047 34.7821 20.0047 35.7877 21.2047 35.7877C22.3047 35.7877 23.3047 34.8827 23.3047 33.676C23.2047 32.4694 22.3047 31.5644 21.2047 31.5644Z" fill="#062D4C"/>
<path d="M15.9043 21.3081C14.5043 21.3081 13.4043 20.2019 13.4043 18.7942C13.4043 17.3864 14.5043 16.2803 15.9043 16.2803C17.3043 16.2803 18.3043 17.3864 18.3043 18.7942C18.3043 20.2019 17.2043 21.3081 15.9043 21.3081ZM15.9043 16.6825C14.8043 16.6825 13.8043 17.5875 13.8043 18.7942C13.8043 19.9003 14.7043 20.9058 15.9043 20.9058C17.0043 20.9058 18.0043 20.0008 18.0043 18.7942C18.0043 17.6881 17.0043 16.6825 15.9043 16.6825Z" fill="#062D4C"/>
<path d="M9.10352 25.8325C7.70352 25.8325 6.60352 24.7264 6.60352 23.3186C6.60352 21.9108 7.70352 20.9053 9.10352 20.9053C10.5035 20.9053 11.5035 22.0114 11.5035 23.3186C11.5035 24.7264 10.4035 25.8325 9.10352 25.8325ZM9.10352 21.3075C8.00352 21.3075 7.00352 22.2125 7.00352 23.3186C7.00352 24.4247 7.90352 25.4303 9.10352 25.4303C10.2035 25.4303 11.2035 24.5253 11.2035 23.3186C11.2035 22.2125 10.2035 21.3075 9.10352 21.3075Z" fill="#062D4C"/>
<path d="M69.7039 71.001H2.30391C1.60391 71.001 1.00391 70.401 1.00391 69.701V2.30098C1.00391 1.60098 1.60391 1.00098 2.30391 1.00098H69.7039C70.4039 1.00098 71.0039 1.60098 71.0039 2.30098V69.701C71.0039 70.401 70.4039 71.001 69.7039 71.001Z" stroke="#E8E6D9" stroke-width="0.5" stroke-miterlimit="10"/>
</svg>
