<svg width="72" height="72" viewBox="0 0 72 72" fill="none" xmlns="http://www.w3.org/2000/svg">
<rect width="70" height="70" transform="translate(1.00781 1)" fill="white"/>
<path d="M69.7078 71H2.30781C1.60781 71 1.00781 70.4 1.00781 69.7V2.3C1.00781 1.6 1.60781 1 2.30781 1H69.7078C70.4078 1 71.0078 1.6 71.0078 2.3V69.7C71.0078 70.4 70.4078 71 69.7078 71Z" stroke="#E8E6D9" stroke-width="0.5" stroke-miterlimit="10"/>
<path d="M10.4074 27.5002C10.5074 32.0002 12.3074 36.8002 15.9074 40.9002C17.4074 42.6002 19.0074 44.2002 20.6074 45.7002C24.1074 49.1002 26.9074 52.9002 28.6074 57.5002C29.1074 58.8002 29.9074 60.0002 31.0074 60.9002C33.3074 62.9002 36.6074 63.4002 39.2074 62.0002C40.8074 61.1002 41.9074 59.7002 42.6074 58.1002C43.0074 57.0002 43.3074 55.9002 43.5074 54.8002C43.6074 54.0002 44.3074 53.6002 44.9074 53.9002C45.3074 54.1002 45.6074 54.5002 45.5074 54.9002C45.1074 57.4002 44.4074 59.7002 42.7074 61.6002C40.6074 64.0002 38.0074 65.0002 34.8074 64.6002C30.7074 64.1002 28.0074 61.7002 26.5074 58.0002C24.9074 53.8002 22.4074 50.2002 19.1074 47.1002C17.3074 45.4002 15.5074 43.7002 14.0074 41.8002C11.1074 38.3002 9.30743 34.4002 8.60743 29.9002C7.80743 24.4002 8.70743 19.3002 11.7074 14.6002C14.0074 11.0002 17.3074 8.80022 21.4074 7.80022C23.2074 7.30022 25.1074 7.00021 27.0074 7.10021C31.8074 7.10021 35.7074 9.00022 38.9074 12.6002C40.7074 14.6002 42.0074 16.9002 42.9074 19.5002C43.0074 19.7002 43.1074 20.0002 43.0074 20.2002C42.9074 20.7002 42.6074 21.1002 42.1074 21.1002C41.6074 21.1002 41.2074 20.9002 41.0074 20.4002C40.6074 19.1002 40.0074 17.8002 39.3074 16.7002C37.7074 14.1002 35.7074 11.9002 33.0074 10.5002C30.6074 9.30022 28.1074 9.00021 25.5074 9.20021C23.4074 9.40021 21.4074 9.80021 19.5074 10.7002C16.1074 12.2002 13.8074 14.7002 12.3074 18.0002C11.0074 20.7002 10.4074 23.6002 10.4074 27.5002Z" fill="#062D4C"/>
<path d="M34.7076 23.3004C34.4076 22.1004 33.8076 21.1004 33.0076 20.3004C31.9076 19.2004 30.5076 18.7004 29.0076 18.3004C27.4076 17.9004 25.8076 17.8004 24.2076 18.3004C22.2076 18.9004 20.8076 20.3004 19.7076 22.0004C18.8076 23.5004 18.3076 25.1004 17.9076 26.9004C17.8076 27.6004 17.3076 28.0004 16.7076 27.9004C16.1076 27.8004 15.8076 27.3004 15.9076 26.6004C16.2076 24.9004 16.7076 23.2004 17.5076 21.7004C18.5076 19.8004 19.8076 18.2004 21.7076 17.2004C23.3076 16.3004 25.0076 16.0004 26.8076 16.1004C28.6076 16.2004 30.3076 16.6004 32.0076 17.4004C34.7076 18.7004 36.3076 20.9004 36.8076 23.9004C37.3076 26.8004 36.8076 29.6004 35.9076 32.4004L35.6076 33.2004C35.4076 33.7004 34.8076 33.9004 34.3076 33.7004C33.8076 33.5004 33.5076 32.9004 33.7076 32.4004C34.3054 30.9256 34.7088 29.3793 34.9076 27.8004C34.9523 27.6132 34.9575 27.4188 34.9231 27.2294C34.8887 27.0401 34.8153 26.8599 34.7076 26.7004C33.4076 24.5004 31.4076 23.6004 28.7076 24.1004C27.2076 24.4004 25.8076 24.9004 24.6076 25.9004C23.2076 27.1004 22.5076 28.6004 22.3076 30.3004C22.1076 32.6004 22.2076 34.8004 23.1076 37.0004C23.9076 39.0004 25.3076 40.2004 27.4076 40.7004C30.8076 41.4004 32.8076 43.6004 33.9076 46.8004C34.3076 48.1004 35.2076 49.0004 36.5076 49.5004C36.8076 49.6004 37.1076 49.7004 37.5076 49.7004C38.1076 49.7004 38.4076 49.5004 38.7076 49.0004C38.9076 48.5004 39.0076 48.0004 39.0076 47.5004L38.9076 45.2004C38.8076 44.6004 39.2076 44.1004 39.8076 44.0004C40.4076 43.9004 40.9076 44.3004 41.0076 44.9004C41.2076 46.3004 41.3076 47.7004 40.9076 49.1004C40.5076 50.7004 39.4076 51.6004 37.9076 51.7004C36.7076 51.8004 35.5076 51.4004 34.5076 50.7004C33.3076 49.9004 32.5076 48.8004 32.0076 47.4004C31.6076 46.2004 31.0076 45.2004 30.1076 44.3004C29.2762 43.4436 28.1877 42.8818 27.0076 42.7004C24.1076 42.1004 22.2076 40.3004 21.1076 37.6004C20.6076 36.3004 20.3076 35.0004 20.3076 33.6004C20.3076 33.0004 20.1076 32.3004 20.1076 31.7004C20.1076 28.6004 21.1076 25.9004 23.7076 24.0004C25.9076 22.4004 28.3076 21.7004 31.0076 21.9004C32.2076 22.0004 33.3076 22.4004 34.2076 23.1004C34.5076 23.1004 34.6076 23.2004 34.7076 23.3004Z" fill="#062D4C"/>
<path d="M42.9086 41.8C40.6086 41.8 38.8086 39.9 38.8086 37.6C38.8086 35.3 40.7086 33.5 43.0086 33.5C45.3086 33.5 47.1086 35.4 47.1086 37.7C47.0086 40 45.2086 41.8 42.9086 41.8ZM44.3086 30.9L44.9086 29.8L47.5086 25.2C47.7086 24.9 47.7086 24.9 47.3086 24.8L44.6086 24.4C44.5086 24.4 44.4086 24.4 44.3086 24.3L52.1086 17L50.6086 19.8L48.9086 22.9C48.8086 23.2 48.8086 23.2 49.1086 23.2C50.2086 23.2 51.3086 23.3 52.5086 23.4C49.9086 26.1 47.1086 28.5 44.3086 30.9ZM63.7086 26.8L59.2086 29.8L58.2086 30.5C58.0086 30.6 58.0086 30.7 58.2086 30.9L60.8086 32.6C60.9086 32.6 60.9086 32.7 61.0086 32.8L50.3086 35.1V35L54.1086 32.6L55.9086 31.5C56.2086 31.3 56.1086 31.3 55.9086 31.1L53.5086 29.2L63.7086 26.8ZM46.2086 43H47.5086H52.5086C52.8086 43 52.8086 42.9 52.7086 42.6L51.6086 39.6L61.4086 42.9V43L58.6086 43.1L55.0086 43.2C54.7086 43.2 54.7086 43.3 54.8086 43.5L56.1086 46.3C56.1086 46.4 56.2086 46.5 56.2086 46.7C52.9086 45.6 49.6086 44.4 46.2086 43C46.2086 43.1 46.2086 43.1 46.2086 43Z" fill="#1EC8BB"/>
</svg>
