<svg width="72" height="72" viewBox="0 0 72 72" fill="none" xmlns="http://www.w3.org/2000/svg">
<path d="M66.4663 71.751H5.54245C2.62634 71.751 0.253906 69.3785 0.253906 66.4624V5.53854C0.253906 2.62243 2.62634 0.25 5.54245 0.25H66.4663C69.3825 0.25 71.7549 2.62243 71.7549 5.53854V66.4624C71.7549 69.3785 69.3825 71.751 66.4663 71.751Z" fill="white"/>
<path d="M5.54244 0.5C2.76418 0.5 0.503906 2.76028 0.503906 5.53854V66.4624C0.503906 69.2407 2.76418 71.501 5.54244 71.501H66.4663C69.2446 71.501 71.5049 69.2407 71.5049 66.4624V5.53854C71.5049 2.76028 69.2446 0.5 66.4663 0.5H5.54244ZM5.54244 0H66.4663C69.5252 0 72.0049 2.47969 72.0049 5.53854V66.4624C72.0049 69.5213 69.5252 72.001 66.4663 72.001H5.54244C2.4836 72.001 0.00390625 69.5213 0.00390625 66.4624V5.53854C0.00390625 2.47969 2.4836 0 5.54244 0Z" fill="#E7E8E8"/>
<path d="M28.2029 26.5829L28.1729 25.6379L28.1879 26.1099L28.1699 25.6379C29.1756 25.5135 30.1164 25.0746 30.8579 24.3839C32.6579 22.7899 33.6719 19.9059 33.7779 16.0449L34.7229 16.0709C34.6069 20.3019 33.4989 23.3539 31.4229 25.1429C30.5315 25.9554 29.4028 26.4602 28.2029 26.5829Z" fill="#1EC8BB"/>
<path d="M39.7004 53.1667C34.2274 52.5437 33.6104 48.8377 33.5864 48.6797L33.1184 48.7477L32.6504 48.8137C32.8264 49.6992 33.2156 50.5285 33.7844 51.2297C34.0232 51.5346 34.289 51.8174 34.5784 52.0747C34.4588 52.7813 34.1722 53.4492 33.7424 54.0227L34.1164 54.3117L34.4894 54.6017C34.911 54.0335 35.2257 53.3935 35.4184 52.7127C36.6857 53.4883 38.1133 53.9647 39.5924 54.1057L39.7004 53.1667Z" fill="#1EC8BB"/>
<path d="M30.9781 36.899C28.0441 29.718 28.4351 24.317 29.2781 21.051C29.7336 19.0816 30.6058 17.2328 31.8361 15.629L31.4831 15.315L31.1301 15.001C29.804 16.6951 28.865 18.6591 28.3791 20.755C27.4516 24.5906 27.499 28.5974 28.5171 32.41C27.0296 31.4866 25.9407 30.0407 25.4641 28.356C24.7964 26.1539 24.818 23.8004 25.5261 21.611C27.0541 16.877 25.5841 15.222 25.4111 15.049L24.7351 15.71C24.7481 15.724 25.9791 17.132 24.6271 21.321C23.8599 23.6981 23.838 26.253 24.5641 28.643C24.8659 29.7363 25.4055 30.7494 26.1444 31.61C26.8832 32.4705 27.8031 33.1572 28.8381 33.621C29.1924 34.8551 29.6141 36.0689 30.1011 37.257C31.7011 41.18 33.4011 46.645 32.3601 50.399C32.2633 50.9613 32.0468 51.4963 31.7252 51.9677C31.4036 52.439 30.9844 52.8357 30.4961 53.131L30.8511 54.007C31.8372 53.4856 32.5898 52.6108 32.9581 51.558C34.6421 47.563 32.8101 41.383 30.9781 36.899Z" fill="#1EC8BB"/>
<path d="M47.9525 57.4886H28.1285C26.6285 57.4886 25.6455 57.0985 25.1175 56.2975C24.2755 55.0205 25.0245 53.2726 25.5715 51.9976C25.6715 51.7646 25.7655 51.5436 25.8365 51.3586C25.8995 51.1936 25.9795 51.0106 26.0715 50.7996C26.9535 48.7856 29.0185 44.0676 24.0325 35.1996C18.2215 24.8646 20.3775 19.1716 20.4725 18.9346L21.9795 19.5345L21.2265 19.2346L21.9815 19.5345C21.6297 20.7617 21.5233 22.0463 21.6685 23.3146C22.1376 27.2362 23.4247 31.0157 25.4465 34.4086C27.7395 38.4866 28.8915 42.2696 28.8715 45.6526C28.8584 47.6582 28.4101 49.6371 27.5574 51.4526C27.4734 51.6436 27.4015 51.8086 27.3575 51.9366C27.2755 52.1536 27.1745 52.3886 27.0675 52.6366C26.7115 53.4676 26.1155 54.8586 26.4765 55.4066C26.6765 55.7066 27.2615 55.8686 28.1335 55.8686H47.9574C48.3988 55.8754 48.8268 55.717 49.1575 55.4246C49.2035 55.3826 49.4304 55.1676 49.3974 55.0446C49.3644 54.9216 48.8845 53.7566 42.7975 52.4396C30.9795 49.8826 34.2424 30.9746 35.9974 20.8166C36.0975 20.2166 36.1974 19.6406 36.2904 19.1026L37.8905 19.3716C37.7995 19.9116 37.7004 20.4866 37.5954 21.0926C36.7224 26.1516 35.5265 33.0796 35.8955 39.1076C36.3235 46.0496 38.6954 49.8915 43.1394 50.8535C48.1394 51.9355 50.5545 53.0976 50.9655 54.6216C51.0535 54.9881 51.033 55.3722 50.9066 55.7273C50.7802 56.0824 50.5533 56.3931 50.2535 56.6216C49.6221 57.1885 48.801 57.4979 47.9525 57.4886Z" fill="#062D4C"/>
</svg>
