<svg width="72" height="71" viewBox="0 0 72 71" fill="none" xmlns="http://www.w3.org/2000/svg">
<rect width="70" height="70" transform="translate(1 0.500977)" fill="white"/>
<path d="M69.7 70.501H2.3C1.6 70.501 1 69.901 1 69.201V1.80098C1 1.10098 1.6 0.500977 2.3 0.500977H69.7C70.4 0.500977 71 1.10098 71 1.80098V69.201C71 69.901 70.4 70.501 69.7 70.501Z" stroke="#E8E6D9" stroke-width="0.5" stroke-miterlimit="10"/>
<path d="M16.8006 19.3012C15.3006 14.1012 16.8006 7.20117 16.8006 7.10117C16.9006 6.60117 16.6006 6.10117 16.1006 6.00117C15.6006 5.90117 15.1006 6.20117 15.0006 6.70117C14.9006 7.00117 13.3006 14.2012 15.0006 19.8012C15.3006 20.9012 15.7006 21.9012 16.2006 23.1012C18.1006 28.1012 20.3006 33.7012 15.7006 41.1012C11.2006 48.3012 9.30057 54.5012 12.9006 64.5012C13.0006 64.9012 13.4006 65.1012 13.8006 65.1012C13.9006 65.1012 14.0006 65.1012 14.1006 65.0012C14.6006 64.8012 14.8006 64.3012 14.7006 63.8012C11.3006 54.5012 13.0006 49.0012 17.3006 42.1012C22.4006 33.9012 19.9006 27.6012 18.0006 22.4012C17.5006 21.3012 17.1006 20.2012 16.8006 19.3012ZM37.4006 23.0012C39.6006 23.0012 41.1006 22.5012 41.9006 22.2012C44.6006 24.5012 46.7006 26.9012 48.2006 29.3012L50.0006 28.7012C48.5006 26.1012 46.3006 23.5012 43.5006 21.0012C44.5006 20.0012 45.9006 18.1012 46.2006 15.4012C46.5006 12.4012 45.2006 9.20117 42.2006 6.00117C41.9006 5.60117 41.3006 5.60117 40.9006 6.00117C40.5006 6.30117 40.5006 6.90117 40.9006 7.30117C43.5006 10.1012 44.6006 12.7012 44.4006 15.2012C44.1006 18.3012 41.6006 20.2012 41.6006 20.2012C41.2006 20.4012 39.9006 20.9012 37.6006 20.9012C37.1006 20.9012 36.7006 21.3012 36.7006 21.8012C36.7006 22.3012 36.8006 23.0012 37.4006 23.0012Z" fill="#062D4C"/>
<path d="M52.1008 30.3008C47.2008 30.3008 43.3008 34.3008 43.3008 39.1008C43.3008 43.9008 47.3008 47.9008 52.1008 47.9008C56.9008 47.9008 60.9008 43.9008 60.9008 39.1008C60.9008 34.3008 57.0008 30.3008 52.1008 30.3008ZM52.1008 46.2008C48.2008 46.2008 45.1008 43.1008 45.1008 39.2008C45.1008 35.3008 48.2008 32.2008 52.1008 32.2008C56.0008 32.2008 59.1008 35.3008 59.1008 39.2008C59.1008 43.1008 56.0008 46.2008 52.1008 46.2008ZM55.0008 36.3008C54.921 36.2061 54.8215 36.13 54.7092 36.0778C54.5969 36.0256 54.4746 35.9985 54.3508 35.9985C54.227 35.9985 54.1046 36.0256 53.9924 36.0778C53.8801 36.13 53.7806 36.2061 53.7008 36.3008L52.1008 37.9008L50.5008 36.3008C50.421 36.2061 50.3215 36.13 50.2092 36.0778C50.0969 36.0256 49.9746 35.9985 49.8508 35.9985C49.727 35.9985 49.6046 36.0256 49.4924 36.0778C49.3801 36.13 49.2806 36.2061 49.2008 36.3008C49.1061 36.3806 49.03 36.4801 48.9778 36.5924C48.9256 36.7046 48.8985 36.827 48.8985 36.9508C48.8985 37.0746 48.9256 37.1969 48.9778 37.3092C49.03 37.4215 49.1061 37.521 49.2008 37.6008L50.8008 39.2008L49.2008 40.8008C49.1061 40.8806 49.03 40.9801 48.9778 41.0924C48.9256 41.2046 48.8985 41.327 48.8985 41.4508C48.8985 41.5746 48.9256 41.6969 48.9778 41.8092C49.03 41.9215 49.1061 42.021 49.2008 42.1008C49.4008 42.3008 49.6008 42.4008 49.9008 42.4008C50.2008 42.4008 50.4008 42.3008 50.6008 42.1008L52.2008 40.5008L53.8008 42.1008C54.0008 42.3008 54.2008 42.4008 54.5008 42.4008C54.8008 42.4008 55.0008 42.3008 55.2008 42.1008C55.2955 42.021 55.3716 41.9215 55.4238 41.8092C55.476 41.6969 55.5031 41.5746 55.5031 41.4508C55.5031 41.327 55.476 41.2046 55.4238 41.0924C55.3716 40.9801 55.2955 40.8806 55.2008 40.8008L53.6008 39.2008L55.2008 37.6008C55.4008 37.3008 55.4008 36.7008 55.0008 36.3008Z" fill="#1EC8BB"/>
<path d="M43.7005 51.4012C43.6005 51.4012 43.6005 51.5012 43.5005 51.5012C43.1005 51.8012 42.0005 52.6012 40.3005 53.2012L38.1005 53.8012C36.9005 54.0012 35.6005 54.1012 34.1005 54.0012C33.6005 54.0012 33.1005 54.3012 33.1005 54.8012C33.1005 55.3012 33.4005 55.8012 33.9005 55.8012C34.4005 55.8012 34.9005 55.9012 35.4005 55.9012C37.4005 55.9012 39.1005 55.5012 40.5005 55.1012C39.7005 56.7012 39.3005 58.6012 39.5005 60.5012C39.7005 62.9012 40.4005 64.5012 40.4005 64.6012C40.5005 65.0012 40.9005 65.2012 41.3005 65.2012C41.4005 65.2012 41.5005 65.2012 41.6005 65.1012C41.7156 65.0598 41.8208 64.9949 41.9095 64.9106C41.9981 64.8263 42.0682 64.7244 42.1152 64.6115C42.1623 64.4986 42.1852 64.3771 42.1827 64.2548C42.1802 64.1325 42.1522 64.012 42.1005 63.9012C42.1005 63.9012 41.5005 62.4012 41.3005 60.4012C41.0005 57.6012 42.2005 54.9012 44.3005 53.2012C44.4005 53.1012 44.5005 53.0012 44.6005 53.0012C45.6005 52.3012 47.0005 51.0012 48.2005 49.3012C47.6005 49.1012 47.0005 48.8012 46.5005 48.5012C45.2005 50.3012 43.8005 51.4012 43.7005 51.4012ZM43.3005 28.3012C42.9005 28.7012 43.0005 29.3012 43.3005 29.6012C43.8584 30.1505 44.3608 30.7534 44.8005 31.4012C45.2005 31.0012 45.7005 30.6012 46.3005 30.3012C45.7884 29.5899 45.2199 28.9211 44.6005 28.3012C44.3005 28.0012 43.7005 28.0012 43.3005 28.3012ZM35.3005 51.9012C39.0005 51.8012 42.4005 50.3012 44.9005 47.7012C45.0005 47.6012 45.1005 47.4012 45.2005 47.3012C44.7005 46.9012 44.3005 46.5012 43.9005 46.0012C43.8005 46.1012 43.7005 46.3012 43.5005 46.4012L42.7005 47.2012C42.7005 47.1012 42.6005 47.0012 42.5005 46.9012L41.7005 46.0012C40.4005 44.4012 38.4005 44.4012 36.6005 44.4012C36.5005 44.2012 36.5005 44.0012 36.4005 43.7012C36.9005 43.6012 37.3005 43.3012 37.7005 43.0012C38.2005 42.5012 38.5005 41.8012 38.5005 41.0012C38.5005 40.3012 38.2005 39.5012 37.7005 39.0012C37.2005 38.5012 36.5005 38.2012 35.7005 38.2012L33.5005 38.3012C32.9005 37.3012 32.0005 36.5012 31.0005 35.9012C32.1005 35.1012 32.8005 33.7012 32.8005 32.3012C32.8005 29.8012 30.7005 27.7012 28.2005 27.7012C25.7005 27.7012 23.6005 29.8012 23.6005 32.3012C23.6005 32.7012 23.7005 33.1012 23.8005 33.5012C21.9005 35.8012 21.2005 38.7012 21.9005 41.6012C22.5005 44.0012 23.8005 46.2012 25.7005 48.1012C28.3005 50.6012 31.6005 52.0012 35.2005 52.0012C35.2005 51.9012 35.3005 51.9012 35.3005 51.9012ZM28.1005 29.5012C29.6005 29.5012 30.9005 30.7012 30.9005 32.3012C30.9005 33.8012 29.7005 35.1012 28.1005 35.1012C26.6005 35.1012 25.3005 33.9012 25.3005 32.3012C25.4005 30.7012 26.6005 29.5012 28.1005 29.5012ZM23.5005 41.1012C23.0005 39.1012 23.4005 37.0012 24.6005 35.3012C25.4005 36.3012 26.7005 36.9012 28.1005 36.9012H28.2005C29.3005 37.0012 30.3005 37.6012 31.2005 38.4012L28.7005 38.5012C28.2005 38.5012 27.8005 38.9012 27.8005 39.5012C27.8005 40.0012 28.3005 40.4012 28.8005 40.4012L35.9005 40.2012C36.1625 40.2129 36.4113 40.3195 36.6005 40.5012C36.8005 40.7012 36.9005 40.9012 36.9005 41.2012C36.9005 41.7012 36.5005 42.2012 35.9005 42.2012L28.8005 42.4012C28.3005 42.4012 27.9005 42.8012 27.9005 43.4012C27.9005 43.9012 28.3005 44.3012 28.8005 44.3012L34.6005 44.1012C35.0005 45.1012 35.2005 45.8012 35.2005 45.8012C35.3005 46.2012 35.7005 46.5012 36.1005 46.5012H36.8005C38.3005 46.5012 39.8005 46.5012 40.6005 47.5012L41.4005 48.4012C41.4005 48.5012 41.5005 48.5012 41.5005 48.5012C39.7005 49.6012 37.6005 50.3012 35.4005 50.3012C32.2005 50.4012 29.2005 49.2012 27.0005 47.0012C25.2005 45.1012 24.0005 43.2012 23.5005 41.1012Z" fill="#062D4C"/>
</svg>
