<svg width="72" height="71" viewBox="0 0 72 71" fill="none" xmlns="http://www.w3.org/2000/svg">
<rect width="70" height="70" transform="translate(1 0.500977)" fill="white"/>
<path d="M35.2 67.001C12.7 67.001 10.1 36.701 10 35.401C12.4 15.201 25.1 7.70098 29.8 6.60098C30.1 6.50098 30.5 6.50098 30.8 6.50098C32.9 6.50098 34.5 8.20098 35.3 9.10098L35.6 9.40098L35.8 9.10098C36.6 8.10098 38.3 6.50098 40.3 6.50098C40.6 6.50098 41 6.50098 41.3 6.60098C46 7.80098 58.8 15.201 61.1 35.301C61 36.701 58.5 67.001 36 67.001M36 65.901C57.5 65.901 60 36.601 60.1 35.301L60 34.701C57.2 12.101 41.3 7.60098 41.1 7.50098C40.9 7.40098 40.6 7.40098 40.4 7.40098C38.1 7.40098 36.4 9.90098 36 10.401C35.9 10.501 35.9 10.601 35.8 10.601H35.7C35.6 10.601 35.6 10.601 35.5 10.601C35.4 10.601 35.4 10.601 35.4 10.601C35.2 10.501 35.1 10.501 35.1 10.401C34.9 10.001 33.1 7.30098 30.7 7.30098C30.5 7.30098 30.2 7.30098 30 7.40098C29.8 7.40098 14.1 12.001 11.1 34.401L11 35.201C11.1 36.501 13.7 65.801 35.1 65.801" fill="#062D4C"/>
<path d="M35.5491 59.9106C29.1303 59.9106 23.8966 57.3932 19.9466 52.4592C14.5153 45.7127 13.2316 36.7509 13.1328 35.0391C13.1328 34.9384 13.1328 34.8377 13.1328 34.8377C13.3303 34.0321 15.5028 26.5807 20.6378 20.6398C23.4028 17.5182 26.4641 15.4036 29.8216 14.296C31.5991 13.5911 33.5741 13.2891 35.5491 13.2891C37.5241 13.2891 39.4991 13.5911 41.2766 14.1953C44.6341 15.303 47.6953 17.4175 50.3616 20.5391L50.4603 20.6398C55.5953 26.5807 57.6691 34.0321 57.9653 34.8377V34.9384C57.9653 35.4418 56.8791 45.1085 51.1516 52.3585C47.2016 57.3932 41.9678 59.9106 35.5491 59.9106ZM35.5491 40.3759C32.9816 40.3759 30.7103 40.8793 28.7353 41.8863C26.1678 43.0946 24.1928 45.1085 22.7116 47.7266C21.5266 49.9418 21.2303 51.855 21.2303 51.855C21.2303 51.855 21.2303 51.9557 21.1316 52.0564L21.0328 52.2578L21.2303 52.4592C24.8841 56.6884 29.7228 58.9036 35.5491 58.9036C41.3753 58.9036 46.2141 56.6884 49.8678 52.3585L50.0653 52.1571L49.9666 51.9557C49.9666 51.855 49.8678 51.855 49.8678 51.7543C49.8678 51.7543 49.5716 49.9418 48.3866 47.6259C47.0041 45.0078 45.0291 42.9939 42.4616 41.7856H42.3628C40.3878 40.8793 38.1166 40.3759 35.5491 40.3759ZM35.9441 39.3689C38.1166 39.4696 40.0916 39.7717 41.7703 40.4766C42.1653 40.5773 42.4616 40.7786 42.7578 40.8793C42.9553 40.98 43.0541 41.0807 43.2516 41.1814C45.4241 42.2891 47.2016 44.0009 48.5841 46.2161C48.7816 46.5182 48.9791 46.8203 49.1766 47.2231C49.2753 47.4245 49.3741 47.7266 49.4728 47.928C49.8678 48.8342 50.2628 49.7405 50.5591 50.7474L50.7566 51.3516L51.1516 50.8481C55.7928 44.303 56.8791 36.046 56.9778 35.1398V35.0391V34.9384C56.7803 34.1328 54.7066 27.0842 49.9666 21.4453L49.8678 21.3446H49.7691C46.9053 20.7405 43.9428 20.3377 41.0791 20.1363C39.2028 19.9349 37.3266 19.9349 35.5491 19.8342C35.2528 19.8342 34.9566 19.8342 34.6603 19.8342C33.0803 19.8342 31.5003 19.9349 30.0191 20.0356C25.0816 20.3377 21.9216 21.1432 21.3291 21.3446H21.2303L21.1316 21.4453C16.4903 26.8828 14.4166 33.6293 14.1203 34.9384V35.0391V35.1398C14.2191 36.046 15.3053 44.303 19.9466 50.8481L20.3416 51.3516L20.5391 50.7474C20.7366 50.1432 21.0328 49.0356 21.5266 47.928C21.6253 47.7266 21.7241 47.5252 21.8228 47.2231C22.0203 46.921 22.2178 46.5182 22.4153 46.2161C23.7978 44.0009 25.5753 42.3898 27.7478 41.1814C27.9453 41.0807 28.0441 40.98 28.2416 40.8793C28.5378 40.678 28.9328 40.5773 29.2291 40.4766C31.0066 39.7717 32.9816 39.3689 35.1541 39.3689H35.2528M41.6716 19.23H41.9678C43.9428 19.4314 45.9178 19.6328 47.7941 20.0356L48.7816 20.237L48.0903 19.5321C46.2141 17.8203 44.2391 16.5113 42.0666 15.605L41.6716 15.4036V19.23ZM29.0316 15.605C26.9578 16.4106 24.9828 17.7196 23.2053 19.4314L22.4153 20.1363L23.4028 19.9349C25.1803 19.6328 27.1553 19.3307 29.1303 19.23H29.4266V15.5043L29.0316 15.605ZM36.0428 18.928H36.3391C37.6228 18.928 38.9066 19.0286 40.2891 19.1293H40.5853V15.1016L40.3878 15.0009C39.1041 14.5981 37.7216 14.3967 36.3391 14.296H36.0428V18.928ZM34.7591 14.3967C33.3766 14.4974 31.9941 14.6988 30.7103 15.1016L30.5128 15.2023V19.1293H30.8091C32.0928 19.0286 33.4753 19.0286 34.7591 19.0286H35.0553V14.4974L34.7591 14.3967Z" fill="#062D4C"/>
<path d="M52.0416 30.911C51.1528 28.9978 49.7703 27.4874 47.7953 26.4804C45.8203 25.2721 41.0803 23.9631 37.8216 27.3867C37.7228 27.4874 35.9453 29.4006 36.9328 31.4145C37.1303 31.9179 37.2291 32.3207 37.0316 32.6228C36.8341 33.0256 36.3403 33.227 35.5503 33.227C34.8591 33.227 34.3653 32.9249 34.0691 32.6228C33.8716 32.3207 33.8716 31.8173 34.1678 31.4145C35.1553 29.4006 33.3778 27.4874 33.2791 27.3867C29.9216 23.9631 25.2803 25.2721 23.3053 26.4804C21.4291 27.5881 19.9478 28.9978 19.1578 30.911C19.1578 30.911 19.1578 30.911 19.1578 31.0117C15.8991 37.9596 21.1328 47.9284 21.3303 48.3311C21.4291 48.1298 21.5278 47.8277 21.7253 47.6263C21.9228 47.3242 22.1203 46.9214 22.3178 46.6193C23.7003 44.4041 25.5766 42.6923 27.7491 41.4839C27.9466 41.3832 28.1441 41.2825 28.2428 41.1818C28.5391 40.9805 28.9341 40.8798 29.2303 40.7791C28.3416 33.4284 22.8116 31.3138 20.9353 30.7096C21.6266 29.5013 22.7128 28.595 23.9966 27.7895C23.9966 27.7895 28.7366 25.0707 32.0941 28.3936C32.0941 28.3936 33.1803 29.602 32.6866 30.5082C32.1928 31.5152 32.1928 32.5221 32.6866 33.3277C33.1803 34.1332 33.9703 34.6367 35.1553 34.7374C35.2541 34.7374 35.2541 34.7374 35.3528 34.7374C35.4516 34.7374 35.4516 34.7374 35.5503 34.7374C35.6491 34.7374 35.6491 34.7374 35.7478 34.7374C35.8466 34.7374 35.9453 34.7374 35.9453 34.7374C37.0316 34.6367 37.9203 34.1332 38.4141 33.3277C38.9078 32.5221 38.9078 31.5152 38.4141 30.5082C37.9203 29.5013 39.0066 28.3936 39.0066 28.3936C42.2653 25.0707 46.9066 27.6888 47.1041 27.7895C48.3878 28.4943 49.4741 29.5013 50.1653 30.6089C48.3878 31.1124 42.8578 33.3277 41.8703 40.6784C42.2653 40.7791 42.5616 40.9804 42.8578 41.0811C43.0553 41.1818 43.2528 41.2825 43.3516 41.3832C45.5241 42.5916 47.4003 44.3034 48.7828 46.5186C48.9803 46.8207 49.1778 47.2235 49.3753 47.5256C49.4741 47.727 49.6716 48.0291 49.7703 48.2304C50.0666 47.8277 55.3003 37.9596 52.0416 30.911ZM22.9103 34.9388C22.9103 35.4423 22.5153 35.9457 21.9228 35.9457C21.3303 35.9457 20.9353 35.5429 20.9353 34.9388C20.9353 34.4353 21.3303 33.9318 21.9228 33.9318C22.5153 33.9318 22.9103 34.3346 22.9103 34.9388ZM21.9228 42.2895C20.9353 42.2895 20.1453 41.4839 20.1453 40.477C20.1453 39.47 20.9353 38.6645 21.9228 38.6645C22.9103 38.6645 23.7003 39.47 23.7003 40.477C23.7003 41.4839 22.9103 42.2895 21.9228 42.2895ZM27.1566 37.1541C27.1566 37.8589 26.5641 38.4631 25.8728 38.4631C25.1816 38.4631 24.5891 37.8589 24.5891 37.1541C24.5891 36.4492 25.1816 35.845 25.8728 35.845C26.5641 35.845 27.1566 36.4492 27.1566 37.1541ZM50.1653 34.9388C50.1653 35.4423 49.7703 35.9457 49.1778 35.9457C48.5853 35.9457 48.1903 35.5429 48.1903 34.9388C48.1903 34.4353 48.5853 33.9318 49.1778 33.9318C49.7703 33.9318 50.1653 34.3346 50.1653 34.9388ZM45.2278 38.4631C44.5366 38.4631 43.9441 37.8589 43.9441 37.1541C43.9441 36.4492 44.5366 35.845 45.2278 35.845C45.9191 35.845 46.5116 36.4492 46.5116 37.1541C46.5116 37.8589 46.0178 38.4631 45.2278 38.4631ZM49.1778 42.2895C48.1903 42.2895 47.4003 41.4839 47.4003 40.477C47.4003 39.47 48.1903 38.6645 49.1778 38.6645C50.1653 38.6645 50.9553 39.47 50.9553 40.477C51.0541 41.4839 50.1653 42.2895 49.1778 42.2895Z" fill="#1EC8BB"/>
<path d="M21.922 42.2891C22.9037 42.2891 23.6995 41.4776 23.6995 40.4766C23.6995 39.4755 22.9037 38.6641 21.922 38.6641C20.9403 38.6641 20.1445 39.4755 20.1445 40.4766C20.1445 41.4776 20.9403 42.2891 21.922 42.2891Z" fill="white"/>
<path d="M25.8716 38.4638C26.5806 38.4638 27.1554 37.8777 27.1554 37.1547C27.1554 36.4318 26.5806 35.8457 25.8716 35.8457C25.1626 35.8457 24.5879 36.4318 24.5879 37.1547C24.5879 37.8777 25.1626 38.4638 25.8716 38.4638Z" fill="white"/>
<path d="M21.923 35.9455C22.4684 35.9455 22.9105 35.4947 22.9105 34.9386C22.9105 34.3825 22.4684 33.9316 21.923 33.9316C21.3777 33.9316 20.9355 34.3825 20.9355 34.9386C20.9355 35.4947 21.3777 35.9455 21.923 35.9455Z" fill="white"/>
<path d="M49.1759 42.2891C50.1576 42.2891 50.9534 41.4776 50.9534 40.4766C50.9534 39.4755 50.1576 38.6641 49.1759 38.6641C48.1943 38.6641 47.3984 39.4755 47.3984 40.4766C47.3984 41.4776 48.1943 42.2891 49.1759 42.2891Z" fill="white"/>
<path d="M45.2271 38.4638C45.9361 38.4638 46.5109 37.8777 46.5109 37.1547C46.5109 36.4318 45.9361 35.8457 45.2271 35.8457C44.5181 35.8457 43.9434 36.4318 43.9434 37.1547C43.9434 37.8777 44.5181 38.4638 45.2271 38.4638Z" fill="white"/>
<path d="M49.177 35.9455C49.7223 35.9455 50.1645 35.4947 50.1645 34.9386C50.1645 34.3825 49.7223 33.9316 49.177 33.9316C48.6316 33.9316 48.1895 34.3825 48.1895 34.9386C48.1895 35.4947 48.6316 35.9455 49.177 35.9455Z" fill="white"/>
<path d="M69.7 70.501H2.3C1.6 70.501 1 69.901 1 69.201V1.80098C1 1.10098 1.6 0.500977 2.3 0.500977H69.7C70.4 0.500977 71 1.10098 71 1.80098V69.201C71 69.901 70.4 70.501 69.7 70.501Z" stroke="#E8E6D9" stroke-width="0.5" stroke-miterlimit="10"/>
</svg>
