<svg width="72" height="72" viewBox="0 0 72 72" fill="none" xmlns="http://www.w3.org/2000/svg">
<path d="M66.4644 71.751H5.54049C2.62438 71.751 0.251953 69.3785 0.251953 66.4624V5.53854C0.251953 2.62243 2.62438 0.25 5.54049 0.25H66.4644C69.3805 0.25 71.7529 2.62243 71.7529 5.53854V66.4624C71.7529 69.3785 69.3805 71.751 66.4644 71.751Z" fill="white"/>
<path d="M5.54049 0.5C2.76223 0.5 0.501953 2.76028 0.501953 5.53854V66.4624C0.501953 69.2407 2.76223 71.501 5.54049 71.501H66.4644C69.2427 71.501 71.5029 69.2407 71.5029 66.4624V5.53854C71.5029 2.76028 69.2427 0.5 66.4644 0.5H5.54049ZM5.54049 0H66.4644C69.5232 0 72.0029 2.47969 72.0029 5.53854V66.4624C72.0029 69.5213 69.5232 72.001 66.4644 72.001H5.54049C2.48164 72.001 0.00195312 69.5213 0.00195312 66.4624V5.53854C0.00195312 2.47969 2.48164 0 5.54049 0Z" fill="#E7E8E8"/>
<path d="M25.6258 24.9293C24.6962 24.9293 23.7875 24.6536 23.0146 24.1372C22.2417 23.6208 21.6393 22.8867 21.2835 22.0279C20.9278 21.1691 20.8347 20.2241 21.0161 19.3124C21.1974 18.4007 21.6451 17.5632 22.3024 16.9059C22.9597 16.2486 23.7971 15.801 24.7088 15.6196C25.6206 15.4383 26.5656 15.5313 27.4244 15.8871C28.2832 16.2428 29.0173 16.8452 29.5337 17.6181C30.0501 18.391 30.3258 19.2997 30.3258 20.2293C30.3234 21.4751 29.8274 22.6692 28.9465 23.5501C28.0656 24.431 26.8716 24.9269 25.6258 24.9293ZM25.6258 17.0673C25.0012 17.0673 24.3906 17.2525 23.8713 17.5995C23.352 17.9465 22.9472 18.4397 22.7082 19.0168C22.4691 19.5938 22.4066 20.2288 22.5285 20.8414C22.6503 21.454 22.9511 22.0167 23.3927 22.4583C23.8344 22.9 24.3971 23.2008 25.0097 23.3226C25.6223 23.4445 26.2573 23.3819 26.8343 23.1429C27.4113 22.9039 27.9046 22.4991 28.2516 21.9798C28.5986 21.4605 28.7838 20.8499 28.7838 20.2253C28.7827 19.3882 28.4496 18.5856 27.8576 17.9938C27.2655 17.4019 26.4629 17.0681 25.6258 17.0673Z" fill="#062D4C"/>
<path d="M45.5672 46.7958L44.5801 48.2178L48.9674 51.2637L49.9546 49.8417L45.5672 46.7958Z" fill="#1EC8BB"/>
<path d="M46.236 42.2153L46.1875 43.9463L50.7505 44.0741L50.799 42.3431L46.236 42.2153Z" fill="#1EC8BB"/>
<path d="M48.3112 35.7232L44.584 38.3555L45.5831 39.7702L49.3103 37.1379L48.3112 35.7232Z" fill="#1EC8BB"/>
<path d="M27.3433 40.9715L33.0243 35.3276L28.7852 31.0885C28.2217 30.527 27.8375 29.8108 27.6816 29.0306C27.5257 28.2505 27.605 27.4416 27.9094 26.7066C28.2139 25.9716 28.7298 25.3436 29.3917 24.9023C30.0536 24.4609 30.8317 24.2261 31.6273 24.2275H43.9662V34.8915C43.9657 35.4302 43.796 35.9551 43.4811 36.3922C43.1662 36.8293 42.722 37.1564 42.2112 37.3276C42.0314 37.6438 41.8094 37.9341 41.5512 38.1905L34.1963 45.4975V52.3666C34.1963 53.4327 33.7727 54.4552 33.0188 55.2091C32.2649 55.963 31.2424 56.3865 30.1762 56.3865C29.1101 56.3865 28.0876 55.963 27.3337 55.2091C26.5798 54.4552 26.1562 53.4327 26.1562 52.3666V43.8245C26.1589 42.7539 26.5857 41.728 27.3433 40.9715ZM27.4962 52.3655C27.4962 53.0763 27.7786 53.758 28.2812 54.2606C28.7838 54.7632 29.4655 55.0455 30.1762 55.0455C30.887 55.0455 31.5687 54.7632 32.0713 54.2606C32.5739 53.758 32.8563 53.0763 32.8563 52.3655V45.2165C32.8566 45.1281 32.8744 45.0406 32.9088 44.9591C32.9431 44.8775 32.9932 44.8036 33.0562 44.7416L40.5382 37.3085C40.0394 37.1301 39.6077 36.802 39.3024 36.3691C38.997 35.9361 38.8328 35.4194 38.8322 34.8895V31.6585L36.4803 29.3065H33.6953V27.9665H40.1713V31.3765V34.8855C40.1713 35.2114 40.3007 35.5238 40.5311 35.7542C40.7615 35.9846 41.0739 36.1141 41.3997 36.1141C41.7256 36.1141 42.038 35.9846 42.2684 35.7542C42.4988 35.5238 42.6282 35.2114 42.6282 34.8855V25.5665H31.8943C31.856 25.5698 31.8175 25.5698 31.7792 25.5665C31.6281 25.5582 31.4766 25.5626 31.3263 25.5795C30.7226 25.6454 30.1599 25.9165 29.7322 26.3475C29.2304 26.8505 28.9486 27.532 28.9486 28.2425C28.9486 28.953 29.2304 29.6346 29.7322 30.1375L34.4463 34.8515C34.5087 34.9138 34.5582 34.9877 34.592 35.0692C34.6258 35.1506 34.6432 35.2379 34.6432 35.326C34.6432 35.4142 34.6258 35.5015 34.592 35.5829C34.5582 35.6643 34.5087 35.7383 34.4463 35.8005L28.2882 41.9185C27.7841 42.4226 27.4997 43.1056 27.4973 43.8186L27.4962 52.3655ZM38.8303 29.7655V29.3085H38.3733L38.8303 29.7655Z" fill="#062D4C"/>
</svg>
