<svg width="72" height="71" viewBox="0 0 72 71" fill="none" xmlns="http://www.w3.org/2000/svg">
<rect width="70" height="70" transform="translate(1 0.500977)" fill="white"/>
<path d="M24.6562 37.001C24.6562 37.001 26.0563 38.301 26.5563 40.101C26.9563 42.101 27.0563 47.501 26.7563 48.201C26.1563 48.801 24.4563 50.101 23.2563 46.401C23.0563 44.401 23.1563 42.801 22.9563 42.201C22.6563 41.601 21.1562 39.701 21.1562 39.701L24.6562 37.001Z" fill="#1EC8BB"/>
<path d="M25.3578 48.501C24.5578 48.501 23.9578 47.301 23.6578 46.301C23.5578 45.501 23.5578 44.701 23.5578 44.001C23.5578 43.101 23.5578 42.501 23.3578 42.101C23.1578 41.601 22.2578 40.401 21.7578 39.801L24.6578 37.501C25.0578 37.901 25.8578 38.901 26.2578 40.101C26.6578 42.101 26.6578 47.101 26.4578 47.901C26.1578 48.201 25.7578 48.501 25.3578 48.501Z" fill="#1EC8BB"/>
<path d="M34.5572 67.301C32.8572 67.301 31.7572 64.801 30.8572 59.301C30.3572 56.101 30.1572 53.001 30.0572 51.801C29.2572 48.101 29.6572 45.201 31.3572 43.201C33.4572 40.701 36.9572 40.301 38.3572 40.301H38.5572L38.6572 40.201C39.3572 39.401 40.4572 38.901 41.9572 38.901C43.4572 38.901 45.0572 39.301 46.1572 39.601L46.5572 39.701L46.6572 39.301C46.8572 38.201 47.5572 37.001 48.0572 36.401L48.1572 36.201L48.0572 36.001C47.2572 34.401 48.0572 32.001 48.6572 30.701L48.7572 30.401L48.5572 30.201C48.2572 29.901 47.9572 29.501 47.8572 29.101C47.2572 27.301 48.2572 25.101 48.5572 24.401V24.301V24.201C48.5572 23.901 48.5572 23.801 48.5572 23.701V23.601L48.4572 23.501C48.4572 23.501 48.3572 23.401 48.1572 23.401C47.9572 23.301 47.6572 23.301 47.4572 23.301C46.0572 23.301 44.2572 23.901 43.5572 24.101H43.4572L43.3572 24.401C42.7572 25.101 41.9572 25.501 40.9572 25.501C39.7572 25.501 38.4572 24.901 37.8572 24.601L37.6572 24.501L37.4572 24.601C36.9572 24.801 36.3572 24.901 35.7572 24.901C33.5572 24.901 31.5572 23.501 30.8572 22.901L30.7572 22.801H30.6572C28.4572 22.801 26.4572 21.701 25.1572 20.901L24.6572 20.601L24.5572 21.201C24.3572 22.201 23.8572 22.901 23.4572 23.401L23.2572 23.601L23.3572 23.901C24.5572 25.401 24.1572 28.801 23.9572 30.201V30.401L24.0572 30.501C24.5572 31.101 25.4572 32.301 25.4572 33.901C25.4572 34.701 25.2572 35.401 24.9572 36.201L24.8572 36.401L26.0572 37.701C27.0572 38.701 27.5572 40.101 27.5572 41.501V48.001C27.5572 48.601 27.1572 49.201 26.5572 49.501C26.3572 49.601 26.1572 49.601 25.9572 49.601C25.4572 49.601 25.0572 49.401 24.7572 49.101L23.8572 48.201C22.9572 47.301 22.5572 46.001 22.5572 44.801V43.601C22.5572 42.601 22.1572 41.601 21.3572 40.801L21.1572 40.601L20.8572 40.801C19.1572 41.901 17.4572 42.501 15.6572 42.501C11.4572 42.501 8.55717 39.301 8.15717 38.901C6.35717 36.601 5.65717 34.501 6.15717 32.701C6.45717 31.601 7.05717 30.701 7.55717 30.301L7.85717 30.001L7.65717 29.701C7.25717 29.201 7.05717 28.601 6.95717 28.001C6.75717 26.501 7.45717 24.901 7.95717 24.201V23.901L7.75717 23.701C7.05717 22.701 6.75717 21.701 6.85717 20.701C7.05717 19.501 7.75717 18.501 8.35717 18.001L8.55717 17.801L8.35717 17.501C8.25717 17.301 8.15717 17.101 8.05717 16.901C7.55717 15.101 9.35717 12.301 10.1572 11.201L10.2572 11.001V10.801C9.55717 8.10098 14.4572 4.60098 15.4572 3.90098C16.3572 3.00098 17.4572 2.50098 18.5572 2.50098C20.6572 2.50098 22.5572 4.20098 23.2572 4.90098L23.3572 5.00098H23.5572C26.6572 5.00098 28.0572 6.20098 28.6572 7.20098L28.7572 7.40098H28.9572C29.1572 7.40098 29.4572 7.40098 29.6572 7.40098C31.7572 7.40098 33.0572 8.40098 33.8572 9.20098L33.9572 9.40098H34.1572C34.2572 9.40098 34.4572 9.40098 34.6572 9.40098C35.6572 9.40098 36.8572 9.80098 37.6572 10.201L37.9572 10.301L38.3572 9.90098C38.6572 9.50098 39.2572 9.30098 40.0572 9.30098C40.6572 9.30098 41.3572 9.40098 41.7572 9.50098L42.0572 9.60098L42.2572 9.40098C43.3572 7.90098 46.8572 7.00098 48.8572 6.60098H49.0572L49.1572 6.40098C49.8572 4.70098 51.3572 3.80098 53.4572 3.80098C55.0572 3.80098 56.6572 4.40098 57.2572 4.60098H57.3572H57.4572C57.7572 4.60098 58.1572 4.60098 58.4572 4.60098C60.3572 4.60098 61.7572 5.20098 62.7572 6.30098C63.9572 7.70098 64.0572 9.70098 63.9572 10.701V10.901L64.0572 11.001C64.6572 11.701 64.9572 12.501 64.8572 13.401C64.8572 15.301 63.3572 17.101 62.4572 18.001L62.2572 18.201L62.3572 18.501C63.2572 20.301 63.4572 21.901 62.9572 23.201C62.7572 23.801 62.4572 24.301 61.9572 24.701L61.7572 24.901L61.9572 25.201C63.1572 27.201 62.3572 29.401 61.7572 30.601L61.6572 30.801L61.8572 31.001C62.9572 32.401 62.4572 34.701 61.9572 35.901L61.8572 36.201L62.1572 36.401C62.9572 36.901 63.4572 37.601 63.6572 38.501C64.4572 41.301 62.1572 44.901 61.6572 45.601V45.701V45.801C60.2572 51.601 56.2572 52.901 55.0572 53.101H54.9572H54.8572C53.3572 53.901 51.9572 54.301 50.5572 54.301C49.4572 54.301 48.4572 54.101 47.5572 53.601L47.2572 53.401L47.0572 53.701C46.3572 54.701 45.2572 55.301 43.9572 55.301C43.5572 55.301 43.0572 55.201 42.5572 55.101C42.1572 55.001 41.7572 54.901 41.3572 54.701L40.9572 54.501L40.5572 54.901C37.7572 65.901 35.8572 67.301 34.5572 67.301ZM38.5572 41.601C37.5572 41.601 34.3572 41.801 32.4572 44.001C31.0572 45.701 30.7572 48.201 31.4572 51.601C31.4572 51.701 31.6572 55.001 32.1572 58.601C32.9572 64.301 33.9572 65.601 34.3572 65.901L34.5572 66.101L34.7572 65.901C35.3572 65.501 36.9572 63.601 39.5572 53.301C39.5572 53.101 39.7572 52.901 39.9572 52.901C40.0572 52.901 40.1572 52.801 40.2572 52.801C40.3572 52.801 40.4572 52.801 40.5572 52.901C40.9572 53.101 42.3572 53.801 43.6572 53.801C44.2572 53.801 44.7572 53.701 45.1572 53.401C45.5572 53.101 45.8572 52.701 46.0572 52.101C46.1572 51.901 46.3572 51.701 46.5572 51.701C46.6572 51.701 46.6572 51.701 46.7572 51.701C46.9572 51.701 47.0572 51.801 47.2572 51.901C47.2572 51.901 48.3572 52.901 50.3572 52.901C51.5572 52.901 52.8572 52.501 54.1572 51.801C54.2572 51.801 54.3572 51.701 54.3572 51.701C54.8572 51.601 58.7572 50.901 60.1572 45.201C60.1572 45.101 60.2572 45.001 60.2572 45.001C60.2572 45.001 62.8572 41.201 62.1572 38.801C61.9572 38.001 61.3572 37.501 60.5572 37.101C60.3572 37.001 60.2572 36.901 60.1572 36.701C60.0572 36.501 60.0572 36.401 60.1572 36.201C60.6572 35.201 61.5572 32.301 60.1572 31.401C59.8572 31.201 59.7572 30.801 59.9572 30.501C60.7572 29.301 61.7572 26.801 60.0572 25.101C59.8572 24.901 59.8572 24.701 59.8572 24.501C59.8572 24.301 60.0572 24.101 60.2572 24.001C60.2572 24.001 61.1572 23.601 61.4572 22.601C61.8572 21.501 61.4572 20.001 60.5572 18.301C60.3572 18.001 60.4572 17.701 60.6572 17.501C60.6572 17.501 63.1572 15.301 63.1572 13.301C63.1572 12.601 62.9572 12.001 62.3572 11.501C62.3572 11.301 62.3572 11.101 62.3572 10.901C62.3572 10.601 62.7572 8.40098 61.4572 7.00098C60.7572 6.20098 59.6572 5.80098 58.2572 5.80098C57.9572 5.80098 57.5572 5.80098 57.1572 5.90098C57.1572 5.90098 57.1572 5.90098 57.0572 5.90098C56.8572 5.90098 56.8572 5.90098 56.7572 5.80098C56.4572 5.70098 54.8572 5.00098 53.3572 5.00098C51.6572 5.00098 50.6572 5.70098 50.1572 7.30098C50.0572 7.50098 49.8572 7.70098 49.6572 7.80098C47.3572 8.20098 43.7572 9.30098 43.2572 10.201V10.301V10.401C43.2572 10.601 43.1572 10.801 43.0572 10.901C42.9572 11.001 42.7572 11.001 42.6572 11.001C42.5572 11.001 42.5572 11.001 42.4572 11.001C42.0572 10.901 40.9572 10.601 40.1572 10.601C40.0572 10.601 39.9572 10.601 39.8572 10.601H39.4572L39.5572 11.001C39.6572 11.201 39.5572 11.501 39.3572 11.601C39.2572 11.701 39.0572 11.701 38.9572 11.701C38.8572 11.701 38.7572 11.701 38.6572 11.601C38.0572 11.301 36.1572 10.401 35.0572 10.401C34.9572 10.401 34.8572 10.401 34.7572 10.401H34.6572L34.5572 10.501C34.4572 10.601 34.2572 10.701 34.0572 10.701H33.9572C33.7572 10.701 33.5572 10.501 33.4572 10.301C33.4572 10.201 32.4572 8.50098 29.9572 8.50098C29.5572 8.50098 29.1572 8.50098 28.7572 8.60098H28.6572C28.3572 8.60098 28.0572 8.40098 27.9572 8.10098C27.8572 7.90098 27.1572 6.10098 23.8572 6.10098C23.7572 6.10098 23.3572 6.10098 23.3572 6.10098C23.1572 6.10098 22.9572 6.00098 22.8572 5.90098C22.8572 5.90098 20.8572 3.60098 18.8572 3.60098C18.0572 3.60098 17.3572 3.90098 16.7572 4.60098L16.6572 4.70098C14.4572 6.20098 11.1572 9.10098 12.0572 10.501C12.1572 10.701 12.1572 11.001 12.0572 11.201C11.3572 12.101 9.45717 14.901 9.85717 16.301C9.95717 16.601 10.0572 16.801 10.3572 16.901C10.5572 17.001 10.7572 17.201 10.7572 17.401C10.7572 17.601 10.6572 17.901 10.4572 18.001C10.2572 18.101 8.75717 19.201 8.65717 20.601C8.55717 21.501 8.85717 22.301 9.65717 23.201C9.85717 23.401 9.85717 23.801 9.65717 24.001C9.65717 24.001 8.25717 25.901 8.45717 27.601C8.55717 28.301 8.95717 28.901 9.55717 29.301C9.75717 29.401 9.85717 29.601 9.85717 29.901C9.85717 30.101 9.65717 30.301 9.45717 30.401C9.45717 30.401 8.05717 31.101 7.65717 32.801C7.35717 34.301 7.95717 36.001 9.45717 37.901C9.55717 38.001 12.2572 41.001 15.8572 41.001C17.5572 41.001 19.2572 40.401 20.8572 39.101L20.9572 39.001C23.1572 37.201 24.2572 35.501 24.3572 33.801C24.3572 32.101 23.1572 31.001 23.0572 30.901C22.8572 30.701 22.7572 30.501 22.8572 30.301C23.0572 29.101 23.4572 25.601 22.6572 24.501C22.5572 24.301 22.3572 24.301 22.2572 24.201C21.9572 24.201 21.7572 24.001 21.6572 23.701C21.5572 23.401 21.6572 23.201 21.8572 23.001C22.8572 22.301 24.2572 20.601 23.1572 18.701C22.9572 18.401 23.0572 18.101 23.3572 17.901C23.4572 17.801 23.6572 17.801 23.7572 17.801C23.9572 17.801 24.1572 17.901 24.2572 18.001C24.2572 18.001 27.4572 21.301 30.9572 21.301C31.0572 21.301 31.2572 21.301 31.2572 21.301C31.4572 21.301 31.6572 21.401 31.7572 21.501C31.7572 21.501 33.7572 23.401 36.0572 23.401C36.6572 23.401 37.2572 23.301 37.7572 23.001C37.8572 23.001 37.9572 22.901 38.0572 22.901C38.1572 22.901 38.3572 22.901 38.4572 23.001C38.9572 23.301 40.2572 24.001 41.3572 24.001C42.0572 24.001 42.4572 23.801 42.7572 23.201C42.8572 23.101 42.9572 23.001 43.0572 22.901C43.0572 22.901 45.7572 21.901 47.7572 21.901C48.7572 21.901 49.5572 22.201 49.9572 22.701C50.2572 23.001 50.4572 23.601 50.2572 24.501C50.2572 24.601 50.2572 24.601 50.1572 24.701C49.8572 25.301 49.0572 27.301 49.4572 28.501C49.5572 28.901 49.8572 29.201 50.2572 29.401C50.4572 29.501 50.5572 29.601 50.6572 29.801C50.7572 30.001 50.6572 30.101 50.6572 30.301C50.1572 31.301 48.8572 34.501 49.9572 35.501C50.1572 35.701 50.2572 36.101 49.9572 36.401C49.3572 37.101 47.8572 39.201 48.5572 40.201C48.7572 40.401 48.6572 40.701 48.4572 41.001C48.3572 41.101 48.1572 41.201 47.9572 41.201C47.8572 41.201 47.7572 41.201 47.6572 41.101C47.1572 40.901 44.5572 39.901 42.3572 39.901C41.0572 39.901 40.2572 40.301 39.8572 41.001C39.7572 41.201 39.5572 41.401 39.2572 41.401C38.8572 41.601 38.7572 41.601 38.5572 41.601ZM23.7572 38.001C23.3572 38.501 22.9572 38.901 22.4572 39.401L22.1572 39.701L22.4572 40.001C23.3572 41.001 23.8572 42.201 23.8572 43.501V44.701C23.8572 45.701 24.2572 46.601 24.8572 47.301L26.1572 48.701V41.501C26.1572 40.401 25.7572 39.401 25.0572 38.601L24.1572 37.601L23.7572 38.001Z" fill="#062D4C"/>
<path d="M69.7 70.501H2.3C1.6 70.501 1 69.901 1 69.201V1.80098C1 1.10098 1.6 0.500977 2.3 0.500977H69.7C70.4 0.500977 71 1.10098 71 1.80098V69.201C71 69.901 70.4 70.501 69.7 70.501Z" stroke="#E8E6D9" stroke-width="0.5" stroke-miterlimit="10"/>
</svg>
