<svg width="72" height="72" viewBox="0 0 72 72" fill="none" xmlns="http://www.w3.org/2000/svg">
<rect width="70" height="70" transform="translate(1.00195 1.00098)" fill="white"/>
<path d="M69.702 71.001H2.30195C1.60195 71.001 1.00195 70.401 1.00195 69.701V2.30098C1.00195 1.60098 1.60195 1.00098 2.30195 1.00098H69.702C70.402 1.00098 71.002 1.60098 71.002 2.30098V69.701C71.002 70.401 70.402 71.001 69.702 71.001Z" stroke="#E8E6D9" stroke-width="0.5" stroke-miterlimit="10"/>
<path d="M27.102 8.20059V10.5006V10.6006V24.5006V24.6006V24.7006V24.8006V24.9006V25.0006V25.1006V25.2006V25.3006V25.4006V25.5006V25.6006V25.7006V25.8006V25.9006C27.002 26.3006 26.802 26.7006 26.602 27.2006C26.602 27.2006 26.602 27.3006 26.502 27.3006L25.902 28.5006C25.902 28.6006 25.802 28.7006 25.802 28.8006C25.702 29.0006 25.602 29.1006 25.602 29.3006C25.502 29.4006 25.502 29.5006 25.402 29.7006C24.502 31.5006 23.502 33.6006 23.502 36.0006V36.1006V36.2006C23.602 38.6006 24.502 40.5006 25.502 42.3006C25.502 42.3006 25.502 42.4006 25.602 42.4006C25.702 42.5006 25.702 42.6006 25.802 42.7006C26.202 43.4006 26.502 44.1006 26.802 44.8006C26.802 44.8006 26.802 44.9006 26.902 44.9006C26.902 44.9006 26.902 45.0006 27.002 45.0006V45.1006V45.2006V45.3006V45.4006V45.5006V45.6006V45.7006V45.8006V45.9006V46.0006V46.1006V46.2006V46.3006V46.4006V46.5006V46.6006V46.7006V46.8006V46.9006V47.0006V47.1006V47.2006V63.5006C27.0135 63.6559 27.0804 63.8019 27.1905 63.912C27.3007 64.0221 27.4467 64.089 27.602 64.1006C27.7573 64.089 27.9032 64.0221 28.0134 63.912C28.1235 63.8019 28.1904 63.6559 28.202 63.5006V47.5006C28.102 45.4006 27.202 43.6006 26.302 41.9006C25.502 40.5006 24.702 39.0006 24.502 37.2006V37.0006V36.8006V36.6006V36.4006V36.2006V36.0006C24.502 33.9006 25.302 32.1006 26.202 30.4006C26.302 30.2006 26.402 30.0006 26.502 29.9006C26.602 29.6006 26.802 29.3006 26.902 29.1006C27.102 28.6006 27.402 28.2006 27.502 27.7006L28.502 25.7006C29.702 23.5006 31.002 21.0006 31.002 18.4006C31.002 15.8006 29.902 13.6006 28.902 11.7006L28.302 10.5006V8.20059C28.2904 8.04529 28.2235 7.89929 28.1134 7.78918C28.0032 7.67906 27.8573 7.61214 27.702 7.60059C27.402 7.60059 27.102 7.80059 27.102 8.20059ZM29.802 18.3006C29.802 20.1006 29.002 22.0006 28.202 23.7006V12.9006C29.102 14.5006 29.802 16.3006 29.802 18.3006ZM24.902 63.8006V47.5006C24.802 45.3006 23.402 43.5006 22.002 41.8006C20.602 40.0006 19.102 38.2006 19.102 36.0006C19.102 33.7006 20.702 31.8006 22.102 29.9006C23.502 28.1006 24.902 26.4006 24.902 24.5006V8.20059C24.8904 8.04529 24.8235 7.89929 24.7134 7.78918C24.6032 7.67906 24.4573 7.61214 24.302 7.60059C24.1467 7.61214 24.0007 7.67906 23.8905 7.78918C23.7804 7.89929 23.7135 8.04529 23.702 8.20059V24.5006C23.702 26.1006 22.502 27.6006 21.202 29.2006C20.402 30.2006 19.602 31.2006 19.002 32.3006C18.302 33.6006 18.002 34.8006 18.002 36.0006C18.002 37.2006 18.302 38.4006 19.002 39.6006C19.602 40.7006 20.402 41.6006 21.102 42.5006C22.402 44.1006 23.702 45.7006 23.802 47.5006V63.8006C23.8135 63.9559 23.8804 64.1019 23.9905 64.212C24.1007 64.3221 24.2467 64.389 24.402 64.4006C24.702 64.4006 24.902 64.2006 24.902 63.8006ZM47.002 8.20059V24.5006C47.002 26.5006 48.402 28.1006 49.802 29.9006C51.302 31.8006 52.902 33.7006 52.902 36.0006C52.902 38.2006 51.402 40.0006 49.902 41.8006C48.502 43.5006 47.002 45.3006 46.902 47.5006V63.8006C46.9135 63.9559 46.9804 64.1019 47.0905 64.212C47.2007 64.3221 47.3467 64.389 47.502 64.4006C47.6573 64.389 47.8032 64.3221 47.9134 64.212C48.0235 64.1019 48.0904 63.9559 48.102 63.8006V47.5006C48.102 45.7006 49.402 44.2006 50.802 42.5006C51.602 41.6006 52.402 40.6006 53.002 39.6006C53.702 38.4006 54.002 37.2006 54.002 36.0006C54.002 34.8006 53.602 33.6006 52.902 32.3006C52.302 31.2006 51.502 30.2006 50.702 29.2006C49.402 27.6006 48.102 26.0006 48.102 24.5006V8.20059C48.0904 8.04529 48.0235 7.89929 47.9134 7.78918C47.8032 7.67906 47.6573 7.61214 47.502 7.60059C47.202 7.60059 47.002 7.80059 47.002 8.20059ZM43.702 8.20059V10.4006L43.102 11.6006C42.102 13.5006 41.002 15.7006 41.002 18.3006C41.002 20.9006 42.302 23.4006 43.402 25.6006L44.502 27.9006C44.502 28.0006 44.602 28.0006 44.602 28.1006C44.902 28.8006 45.302 29.5006 45.602 30.1006C46.502 31.9006 47.502 33.7006 47.502 36.0006C47.502 38.3006 46.502 40.3006 45.502 42.2006C44.602 44.0006 43.702 45.6006 43.702 47.5006V63.8006C43.7135 63.9559 43.7804 64.1019 43.8905 64.212C44.0007 64.3221 44.1467 64.389 44.302 64.4006C44.4573 64.389 44.6032 64.3221 44.7134 64.212C44.8235 64.1019 44.8904 63.9559 44.902 63.8006V47.5006C44.902 45.9006 45.702 44.3006 46.602 42.7006C47.602 40.8006 48.702 38.6006 48.702 36.0006C48.702 33.4006 47.702 31.5006 46.602 29.6006C45.702 27.9006 44.902 26.4006 44.802 24.5006V10.5006V8.20059C44.7904 8.04529 44.7235 7.89929 44.6134 7.78918C44.5032 7.67906 44.3573 7.61214 44.202 7.60059C43.902 7.60059 43.702 7.80059 43.702 8.20059ZM42.102 18.3006C42.102 16.3006 42.902 14.5006 43.702 12.9006V23.8006C42.802 22.0006 42.102 20.1006 42.102 18.3006Z" fill="#062D4C"/>
<path d="M41.0012 38.6006C40.9048 38.7116 40.8517 38.8536 40.8517 39.0006C40.8517 39.1476 40.9048 39.2897 41.0012 39.4006C41.1121 39.497 41.2542 39.5501 41.4012 39.5501C41.5482 39.5501 41.6902 39.497 41.8012 39.4006L45.0012 36.4006C45.1064 36.2904 45.1761 36.151 45.2012 36.0006C45.1761 35.8503 45.1064 35.7109 45.0012 35.6006L41.8012 32.6006C41.6902 32.5042 41.5482 32.4512 41.4012 32.4512C41.2542 32.4512 41.1121 32.5042 41.0012 32.6006C40.9048 32.7116 40.8517 32.8536 40.8517 33.0006C40.8517 33.1476 40.9048 33.2897 41.0012 33.4006L43.2012 35.4006H28.7012L30.9012 33.4006C30.9976 33.2897 31.0506 33.1476 31.0506 33.0006C31.0506 32.8536 30.9976 32.7116 30.9012 32.6006C30.7902 32.5042 30.6482 32.4512 30.5012 32.4512C30.3542 32.4512 30.2121 32.5042 30.1012 32.6006L26.9012 35.6006C26.7959 35.7109 26.7262 35.8503 26.7012 36.0006C26.7262 36.151 26.7959 36.2904 26.9012 36.4006L30.1012 39.4006C30.2121 39.497 30.3542 39.5501 30.5012 39.5501C30.6482 39.5501 30.7902 39.497 30.9012 39.4006C31.0064 39.2904 31.0761 39.151 31.1012 39.0006C31.1012 38.8006 31.0012 38.7006 30.9012 38.6006L28.7012 36.6006H43.2012L41.0012 38.6006Z" fill="#062D4C"/>
<path d="M38.1016 58.501C36.9016 58.501 36.0016 59.501 36.0016 60.601C36.0016 61.801 37.0016 62.701 38.1016 62.701C39.2016 62.701 40.2016 61.701 40.2016 60.601C40.3016 59.401 39.3016 58.501 38.1016 58.501ZM38.1016 61.601C37.968 61.6098 37.834 61.59 37.7087 61.5429C37.5833 61.4958 37.4695 61.4224 37.3748 61.3277C37.2801 61.233 37.2068 61.1192 37.1597 60.9939C37.1125 60.8685 37.0927 60.7346 37.1016 60.601C37.0927 60.4674 37.1125 60.3334 37.1597 60.2081C37.2068 60.0827 37.2801 59.9689 37.3748 59.8742C37.4695 59.7796 37.5833 59.7062 37.7087 59.6591C37.834 59.6119 37.968 59.5921 38.1016 59.601C38.2352 59.5921 38.3691 59.6119 38.4945 59.6591C38.6198 59.7062 38.7336 59.7796 38.8283 59.8742C38.923 59.9689 38.9963 60.0827 39.0435 60.2081C39.0906 60.3334 39.1104 60.4674 39.1016 60.601C39.1104 60.7346 39.0906 60.8685 39.0435 60.9939C38.9963 61.1192 38.923 61.233 38.8283 61.3277C38.7336 61.4224 38.6198 61.4958 38.4945 61.5429C38.3691 61.59 38.2352 61.6098 38.1016 61.601ZM39.4016 52.201C40.6016 52.201 41.5016 51.201 41.5016 50.101C41.5016 48.901 40.5016 48.001 39.4016 48.001C38.2016 48.001 37.3016 49.001 37.3016 50.101C37.3016 51.201 38.2016 52.201 39.4016 52.201ZM39.4016 49.101C39.5352 49.0921 39.6691 49.1119 39.7945 49.1591C39.9198 49.2062 40.0336 49.2796 40.1283 49.3742C40.223 49.4689 40.2963 49.5827 40.3435 49.7081C40.3906 49.8334 40.4104 49.9674 40.4016 50.101C40.4104 50.2346 40.3906 50.3685 40.3435 50.4939C40.2963 50.6192 40.223 50.733 40.1283 50.8277C40.0336 50.9224 39.9198 50.9958 39.7945 51.0429C39.6691 51.09 39.5352 51.1098 39.4016 51.101C39.268 51.1098 39.134 51.09 39.0087 51.0429C38.8833 50.9958 38.7695 50.9224 38.6748 50.8277C38.5802 50.733 38.5068 50.6192 38.4597 50.4939C38.4125 50.3685 38.3927 50.2346 38.4016 50.101C38.4016 49.501 38.9016 49.101 39.4016 49.101ZM33.1016 54.101C32.2016 54.101 31.4016 54.901 31.4016 55.801C31.4016 56.701 32.2016 57.501 33.1016 57.501C34.0016 57.501 34.8016 56.701 34.8016 55.801C34.8016 54.801 34.0016 54.101 33.1016 54.101ZM33.1016 56.301C33.0348 56.3054 32.9678 56.2955 32.9051 56.2719C32.8424 56.2484 32.7855 56.2117 32.7382 56.1643C32.6909 56.117 32.6542 56.0601 32.6306 55.9974C32.607 55.9348 32.5971 55.8678 32.6016 55.801C32.5971 55.7342 32.607 55.6672 32.6306 55.6045C32.6542 55.5419 32.6909 55.485 32.7382 55.4376C32.7855 55.3903 32.8424 55.3536 32.9051 55.33C32.9678 55.3065 33.0348 55.2966 33.1016 55.301C33.1684 55.2966 33.2353 55.3065 33.298 55.33C33.3607 55.3536 33.4176 55.3903 33.4649 55.4376C33.5123 55.485 33.5489 55.5419 33.5725 55.6045C33.5961 55.6672 33.606 55.7342 33.6016 55.801C33.6016 56.001 33.4016 56.301 33.1016 56.301ZM34.3016 46.901C34.3016 45.701 33.3016 44.801 32.2016 44.801C31.0016 44.801 30.1016 45.801 30.1016 46.901C30.1016 48.101 31.1016 49.001 32.2016 49.001C33.3016 49.101 34.3016 48.101 34.3016 46.901ZM31.2016 46.901C31.1927 46.7674 31.2125 46.6334 31.2597 46.5081C31.3068 46.3827 31.3801 46.2689 31.4748 46.1742C31.5695 46.0796 31.6833 46.0062 31.8087 45.9591C31.934 45.9119 32.068 45.8921 32.2016 45.901C32.3352 45.8921 32.4691 45.9119 32.5945 45.9591C32.7198 46.0062 32.8336 46.0796 32.9283 46.1742C33.023 46.2689 33.0963 46.3827 33.1435 46.5081C33.1906 46.6334 33.2104 46.7674 33.2016 46.901C33.2104 47.0346 33.1906 47.1685 33.1435 47.2939C33.0963 47.4192 33.023 47.533 32.9283 47.6277C32.8336 47.7224 32.7198 47.7958 32.5945 47.8429C32.4691 47.89 32.3352 47.9098 32.2016 47.901C32.068 47.9098 31.934 47.89 31.8087 47.8429C31.6833 47.7958 31.5695 47.7224 31.4748 47.6277C31.3801 47.533 31.3068 47.4192 31.2597 47.2939C31.2125 47.1685 31.1927 47.0346 31.2016 46.901ZM36.3016 39.601C35.9069 39.6111 35.5313 39.7724 35.2521 40.0515C34.973 40.3307 34.8117 40.7063 34.8016 41.101C34.8117 41.4956 34.973 41.8713 35.2521 42.1504C35.5313 42.4296 35.9069 42.5909 36.3016 42.601C36.6962 42.5909 37.0719 42.4296 37.351 42.1504C37.6302 41.8713 37.7914 41.4956 37.8016 41.101C37.7914 40.7063 37.6302 40.3307 37.351 40.0515C37.0719 39.7724 36.6962 39.6111 36.3016 39.601ZM36.3016 41.501C36.1016 41.501 35.9016 41.301 35.9016 41.101C35.9016 40.901 36.1016 40.701 36.3016 40.701C36.5016 40.701 36.7016 40.901 36.7016 41.101C36.7016 41.301 36.5016 41.501 36.3016 41.501ZM38.4016 30.401C38.4016 29.201 37.4016 28.301 36.3016 28.301C35.1016 28.301 34.2016 29.301 34.2016 30.401C34.2016 31.601 35.2016 32.501 36.3016 32.501C37.5016 32.601 38.4016 31.601 38.4016 30.401ZM35.3016 30.401C35.2927 30.2674 35.3125 30.1334 35.3597 30.0081C35.4068 29.8827 35.4801 29.7689 35.5748 29.6742C35.6695 29.5796 35.7833 29.5062 35.9087 29.4591C36.034 29.4119 36.168 29.3921 36.3016 29.401C36.4352 29.3921 36.5691 29.4119 36.6945 29.4591C36.8198 29.5062 36.9336 29.5796 37.0283 29.6742C37.123 29.7689 37.1963 29.8827 37.2435 30.0081C37.2906 30.1334 37.3104 30.2674 37.3016 30.401C37.3104 30.5346 37.2906 30.6685 37.2435 30.7939C37.1963 30.9192 37.123 31.033 37.0283 31.1277C36.9336 31.2224 36.8198 31.2957 36.6945 31.3429C36.5691 31.39 36.4352 31.4098 36.3016 31.401C36.168 31.4098 36.034 31.39 35.9087 31.3429C35.7833 31.2957 35.6695 31.2224 35.5748 31.1277C35.4801 31.033 35.4068 30.9192 35.3597 30.7939C35.3125 30.6685 35.2927 30.5346 35.3016 30.401ZM34.8016 24.501C34.8042 24.2901 34.7647 24.0809 34.6852 23.8855C34.6058 23.6902 34.488 23.5127 34.3389 23.3636C34.1898 23.2145 34.0124 23.0968 33.817 23.0173C33.6217 22.9378 33.4124 22.8983 33.2016 22.901C32.9907 22.8983 32.7814 22.9378 32.5861 23.0173C32.3908 23.0968 32.2133 23.2145 32.0642 23.3636C31.9151 23.5127 31.7973 23.6902 31.7179 23.8855C31.6384 24.0809 31.5989 24.2901 31.6016 24.501C31.5989 24.7118 31.6384 24.9211 31.7179 25.1164C31.7973 25.3118 31.9151 25.4892 32.0642 25.6383C32.2133 25.7874 32.3908 25.9052 32.5861 25.9847C32.7814 26.0641 32.9907 26.1037 33.2016 26.101C33.4124 26.1037 33.6217 26.0641 33.817 25.9847C34.0124 25.9052 34.1898 25.7874 34.3389 25.6383C34.488 25.4892 34.6058 25.3118 34.6852 25.1164C34.7647 24.9211 34.8042 24.7118 34.8016 24.501ZM32.7016 24.501C32.6971 24.4342 32.707 24.3672 32.7306 24.3045C32.7542 24.2419 32.7909 24.185 32.8382 24.1376C32.8855 24.0903 32.9424 24.0536 33.0051 24.03C33.0678 24.0065 33.1348 23.9966 33.2016 24.001C33.2684 23.9966 33.3353 24.0065 33.398 24.03C33.4607 24.0536 33.5176 24.0903 33.5649 24.1376C33.6123 24.185 33.6489 24.2419 33.6725 24.3045C33.6961 24.3672 33.706 24.4342 33.7016 24.501C33.706 24.5678 33.6961 24.6348 33.6725 24.6974C33.6489 24.7601 33.6123 24.817 33.5649 24.8643C33.5176 24.9117 33.4607 24.9484 33.398 24.9719C33.3353 24.9955 33.2684 25.0054 33.2016 25.001C32.9016 25.001 32.7016 24.701 32.7016 24.501ZM37.5016 17.001C36.3016 17.001 35.4016 18.001 35.4016 19.101C35.4016 20.301 36.4016 21.201 37.5016 21.201C38.6016 21.201 39.6016 20.201 39.6016 19.101C39.7016 17.901 38.7016 17.001 37.5016 17.001ZM37.5016 20.101C37.368 20.1098 37.234 20.09 37.1087 20.0429C36.9833 19.9958 36.8695 19.9224 36.7748 19.8277C36.6801 19.733 36.6068 19.6192 36.5597 19.4939C36.5125 19.3685 36.4927 19.2346 36.5016 19.101C36.4927 18.9674 36.5125 18.8334 36.5597 18.7081C36.6068 18.5827 36.6801 18.4689 36.7748 18.3742C36.8695 18.2796 36.9833 18.2062 37.1087 18.1591C37.234 18.1119 37.368 18.0921 37.5016 18.101C37.6352 18.0921 37.7691 18.1119 37.8945 18.1591C38.0198 18.2062 38.1336 18.2796 38.2283 18.3742C38.323 18.4689 38.3963 18.5827 38.4435 18.7081C38.4906 18.8334 38.5104 18.9674 38.5016 19.101C38.5016 19.601 38.1016 20.101 37.5016 20.101ZM31.4016 12.501C31.4016 13.701 32.4016 14.601 33.5016 14.601C34.7016 14.601 35.6016 13.601 35.6016 12.501C35.6016 11.301 34.6016 10.401 33.5016 10.401C32.3016 10.301 31.4016 11.301 31.4016 12.501ZM34.5016 12.501C34.5104 12.6346 34.4906 12.7685 34.4435 12.8939C34.3963 13.0192 34.323 13.133 34.2283 13.2277C34.1336 13.3224 34.0198 13.3958 33.8945 13.4429C33.7691 13.49 33.6352 13.5098 33.5016 13.501C33.368 13.5098 33.234 13.49 33.1087 13.4429C32.9833 13.3958 32.8695 13.3224 32.7748 13.2277C32.6801 13.133 32.6068 13.0192 32.5597 12.8939C32.5125 12.7685 32.4927 12.6346 32.5016 12.501C32.4927 12.3674 32.5125 12.2334 32.5597 12.1081C32.6068 11.9827 32.6801 11.8689 32.7748 11.7742C32.8695 11.6796 32.9833 11.6062 33.1087 11.5591C33.234 11.5119 33.368 11.4921 33.5016 11.501C34.0016 11.501 34.5016 11.901 34.5016 12.501ZM39.0016 11.901C39.8016 11.901 40.4016 11.301 40.4016 10.501C40.4016 9.70098 39.7016 9.00098 39.0016 9.00098C38.3016 9.00098 37.6016 9.60098 37.6016 10.401C37.5016 11.201 38.2016 11.901 39.0016 11.901ZM38.7016 10.401C38.7016 10.301 38.8016 10.101 39.0016 10.101C39.2016 10.101 39.3016 10.201 39.3016 10.401C39.3016 10.501 39.2016 10.701 39.0016 10.701C38.8016 10.701 38.7016 10.601 38.7016 10.401Z" fill="#1EC8BB"/>
</svg>
