<svg width="72" height="72" viewBox="0 0 72 72" fill="none" xmlns="http://www.w3.org/2000/svg">
<rect width="70" height="70" transform="translate(1.00195 1.00098)" fill="white"/>
<path d="M69.702 71.001H2.30195C1.60195 71.001 1.00195 70.401 1.00195 69.701V2.30098C1.00195 1.60098 1.60195 1.00098 2.30195 1.00098H69.702C70.402 1.00098 71.002 1.60098 71.002 2.30098V69.701C71.002 70.401 70.402 71.001 69.702 71.001Z" stroke="#E8E6D9" stroke-width="0.5" stroke-miterlimit="10"/>
<path d="M55.2029 59.5014C48.6029 65.1014 41.0029 58.3014 35.8029 52.7014C33.5029 50.2014 31.1029 48.2014 28.6029 46.1014C25.2029 43.3014 21.8029 40.4014 18.1029 36.0014L17.7029 35.5014C16.7696 34.3399 15.8026 33.2061 14.8029 32.1014C13.9029 31.0014 13.4029 29.7014 13.5029 28.6014C13.6029 27.3014 14.4029 26.4014 15.4029 26.3014C14.5029 24.8014 14.9029 23.2014 15.8029 22.4014C16.2029 22.1014 16.6029 21.9014 17.1029 21.8014C17.0029 21.4014 16.9029 21.1014 16.9029 20.7014C17.0029 19.3014 18.1029 17.9014 19.7029 17.9014C19.5029 16.9014 19.9029 15.8014 20.6029 15.2014C21.2029 14.7014 22.1029 14.5014 22.8029 14.7014C22.5029 13.4014 22.7029 12.0014 23.4029 11.3014C24.2029 10.5014 25.4029 10.1014 26.4029 10.4014C28.5029 10.9014 32.1029 12.6014 33.1029 18.0014C33.4029 19.3014 34.0029 20.5014 34.9029 21.4014L35.1029 21.6014C36.3029 22.7014 38.9029 25.3014 43.2029 36.2014C45.1029 41.1014 48.1029 42.8014 50.8029 44.4014C51.8029 45.0014 52.8029 45.5014 53.6029 46.2014C56.8029 48.7014 58.3029 51.1014 58.4029 53.4014C58.5029 55.3014 57.6029 57.1014 55.6029 59.0014C55.6029 59.2014 55.4029 59.4014 55.2029 59.5014ZM15.2029 27.7014C14.9527 27.9752 14.8106 28.3306 14.8029 28.7014C14.7029 29.5014 15.1029 30.5014 15.8029 31.3014C16.7029 32.4014 17.9029 33.7014 18.7029 34.7014L19.1029 35.2014C22.7029 39.5014 26.1029 42.3014 29.4029 45.1014C32.0029 47.2014 34.4029 49.2014 36.7029 51.8014C44.4029 60.1014 50.0029 62.2014 54.4029 58.5014C54.6029 58.4014 54.7029 58.2014 54.9029 58.1014C56.6029 56.5014 57.4029 55.0014 57.3029 53.5014C57.2029 51.6014 55.8029 49.6014 52.9029 47.2014C52.2029 46.6014 51.3029 46.1014 50.3029 45.5014C47.6029 43.9014 44.1029 42.0014 42.1029 36.7014C38.0029 26.1014 35.4029 23.6014 34.4029 22.6014C34.3029 22.5014 34.2029 22.4014 34.1029 22.4014C33.0029 21.3014 32.3029 19.9014 32.0029 18.4014C31.1029 13.6014 28.0029 12.2014 26.2029 11.7014C25.6029 11.5014 24.9029 11.7014 24.4029 12.2014C23.8029 12.8014 23.9029 14.8014 24.8029 16.0014C25.8029 17.3014 27.7029 19.3014 27.7029 19.3014C27.9029 19.6014 27.9029 20.0014 27.7029 20.2014C27.4029 20.4014 27.0029 20.4014 26.8029 20.2014L23.0029 16.3014C22.6029 15.9014 21.9029 15.8014 21.4029 16.2014C20.9029 16.6014 20.7029 17.5014 21.0029 17.9014L24.8029 22.6014C25.0029 22.9014 25.0029 23.3014 24.7029 23.5014C24.4029 23.7014 24.0029 23.7014 23.8029 23.4014L20.8029 19.7014C19.8029 18.8014 19.1029 19.2014 18.8029 19.5014C18.4029 19.8014 18.2029 20.3014 18.2029 20.7014C18.2029 20.9014 18.2029 21.3014 18.5029 21.6014L22.1029 25.8014C22.3029 26.1014 22.3029 26.5014 22.0029 26.7014C21.7029 26.9014 21.3029 26.9014 21.1029 26.6014L18.5029 23.7014C18.1029 23.3014 17.8029 23.0014 17.4029 23.0014C17.0029 23.0014 16.8029 23.1014 16.6029 23.3014C16.0029 23.9014 15.8029 25.0014 16.7029 26.0014L19.8029 29.6014C20.0029 29.9014 20.0029 30.3014 19.7029 30.5014C19.4029 30.7014 19.0029 30.7014 18.8029 30.5014L16.5029 28.0014C16.1029 27.7014 15.6029 27.4014 15.2029 27.7014Z" fill="#062D4C"/>
<path d="M26.8029 37.7008C26.3029 38.2008 25.7029 38.3008 25.1029 38.2008C24.4029 38.0008 23.8029 37.2008 23.4029 36.0008C23.0029 34.9008 22.0029 31.0008 24.0029 29.3008C24.2029 29.1008 24.5029 29.0008 24.7029 28.8008C25.0029 28.7008 25.8029 28.4008 26.4029 28.8008C27.0029 29.3008 27.0029 30.2008 27.0029 31.1008V32.6008L27.3029 33.9008C27.6029 35.2008 28.0029 36.7008 26.8029 37.7008ZM24.8029 30.2008C23.7029 31.1008 24.0029 33.7008 24.6029 35.5008C25.0029 36.7008 25.4029 36.9008 25.5029 36.9008C25.7029 37.0008 25.9029 36.8008 26.0029 36.7008C26.5029 36.2008 26.3029 35.4008 26.0029 34.2008L25.7029 32.8008C25.6029 32.2008 25.6029 31.6008 25.7029 31.1008V29.9008C25.6029 29.9008 25.5029 29.9008 25.2029 30.0008C25.0029 30.0008 24.9029 30.1008 24.8029 30.2008ZM54.2029 53.1008C54.1029 53.1008 54.1029 53.2008 54.0029 53.2008C52.1029 54.6008 49.3029 53.5008 47.7029 51.7008C46.2029 50.0008 46.1029 48.1008 47.3029 46.8008L47.5029 46.6008C49.2029 45.1008 51.1029 47.0008 52.5029 48.3008C53.8029 49.6008 54.8029 50.6008 54.8029 51.8008C54.8029 52.2008 54.7029 52.7008 54.2029 53.1008ZM48.4029 47.6008L48.3029 47.7008C47.1029 48.9008 48.3029 50.5008 48.7029 50.9008C49.9029 52.2008 52.0029 53.1008 53.3029 52.2008L53.4029 52.1008C53.6029 51.9008 53.6029 51.8008 53.6029 51.7008C53.6029 51.0008 52.5029 49.9008 51.7029 49.2008C50.0029 47.7008 49.1029 47.0008 48.4029 47.6008Z" fill="#1EC8BB"/>
</svg>
