<svg width="72" height="71" viewBox="0 0 72 71" fill="none" xmlns="http://www.w3.org/2000/svg">
<rect width="70" height="70" transform="translate(1 0.500977)" fill="white"/>
<path d="M69.7 70.501H2.3C1.6 70.501 1 69.901 1 69.201V1.80098C1 1.10098 1.6 0.500977 2.3 0.500977H69.7C70.4 0.500977 71 1.10098 71 1.80098V69.201C71 69.901 70.4 70.501 69.7 70.501Z" stroke="#E8E6D9" stroke-width="0.5" stroke-miterlimit="10"/>
<path d="M28.2988 48.7009C27.9988 48.7009 27.6988 48.5009 27.5988 48.1009L26.8988 43.4009C24.4988 40.5009 23.2988 36.8009 23.2988 32.8009C23.2988 24.4009 28.9988 17.6009 35.9988 17.6009C37.2985 17.5903 38.5883 17.8279 39.7988 18.3009C40.0988 18.4009 40.2988 18.8009 40.1988 19.2009C39.9988 19.5009 39.5988 19.6009 39.2988 19.5009C38.2426 19.1088 37.1255 18.9057 35.9988 18.9009C29.6988 18.9009 24.5988 25.1009 24.5988 32.7009C24.5988 36.5009 25.7988 40.0009 28.0988 42.6009C28.1988 42.7009 28.1988 42.8009 28.2988 42.9009L28.9988 47.8009C28.9988 48.3009 28.6988 48.6009 28.2988 48.7009ZM39.8988 62.9009H32.1988C30.8988 62.9009 29.6988 61.9009 29.4988 60.6009L28.4988 53.7009C28.3988 53.3009 28.6988 53.0009 29.0988 52.9009C29.4988 52.9009 29.7988 53.1009 29.8988 53.5009L30.8988 60.4009C30.9988 61.1009 31.5988 61.6009 32.1988 61.6009H39.8988C40.5988 61.6009 41.0988 61.1009 41.1988 60.4009L43.7988 43.0009C43.7988 42.9009 43.8988 42.8009 43.9988 42.7009C46.1988 40.1009 47.4988 36.6009 47.4988 32.8009C47.4988 29.0009 46.1988 25.2009 43.7988 22.6009C43.5988 22.3009 43.5988 21.9009 43.8988 21.7009C44.1988 21.5009 44.5988 21.5009 44.7988 21.8009C47.3988 24.7009 48.7988 28.7009 48.7988 32.9009C48.7988 36.9009 47.4988 40.7009 45.1988 43.5009L42.5988 60.7009C42.2988 61.9009 41.1988 62.9009 39.8988 62.9009Z" fill="#062D4C"/>
<path d="M56.1998 35.9012C54.9998 35.9012 53.8998 35.8012 52.6998 35.5012C51.6998 35.3012 48.4998 34.3012 47.4998 32.8012C47.2998 32.5012 47.3998 32.1012 47.6998 31.9012C47.9998 31.7012 48.3997 31.8012 48.5998 32.1012C49.0998 33.0012 51.4998 33.9012 52.8998 34.2012C55.6998 34.8012 58.7998 34.6012 60.7998 33.6012C62.4998 32.8012 64.1997 30.9012 63.5998 28.0012C63.2998 26.6012 62.3998 25.4012 60.9998 24.7012C59.1998 23.8012 54.9998 22.9012 46.9998 26.8012C46.6998 27.0012 46.2998 26.8012 46.0998 26.5012C45.8997 26.2012 46.0998 25.8012 46.3998 25.6012C52.6998 22.5012 58.0998 21.7012 61.5998 23.5012C63.3997 24.4012 64.4998 25.9012 64.8998 27.7012C65.5998 31.4012 63.3997 33.8012 61.2998 34.8012C59.9998 35.5012 58.1998 35.9012 56.1998 35.9012ZM15.7998 35.9012C13.8998 35.9012 11.9998 35.6012 10.5998 34.9012C8.49975 33.9012 6.29975 31.5012 6.99975 27.8012C7.29975 26.0012 8.49975 24.5012 10.2998 23.6012C13.7998 21.8012 19.1998 22.6012 25.4998 25.7012C25.7998 25.9012 25.9998 26.3012 25.7998 26.6012C25.5998 26.9012 25.1998 27.1012 24.8998 26.9012C16.8998 23.0012 12.6998 23.9012 10.8998 24.8012C9.49975 25.5012 8.59975 26.6012 8.29975 28.1012C7.79975 31.0012 9.39975 32.9012 11.0998 33.7012C13.0998 34.6012 16.1998 34.9012 18.9998 34.3012C20.3998 34.0012 22.7998 33.0012 23.2998 32.2012C23.4998 31.9012 23.8998 31.8012 24.1998 32.0012C24.4998 32.2012 24.5998 32.6012 24.3998 32.9012C23.3998 34.4012 20.2998 35.4012 19.1998 35.6012C18.0773 35.8002 16.9397 35.9006 15.7998 35.9012ZM39.5998 62.9012H32.4998C32.4071 62.9039 32.3148 62.8877 32.2286 62.8535C32.1425 62.8193 32.0642 62.7679 31.9986 62.7023C31.9331 62.6367 31.8816 62.5585 31.8474 62.4723C31.8132 62.3861 31.797 62.2938 31.7998 62.2012V55.5012C31.7998 54.2012 32.8998 53.1012 34.1998 53.1012V45.5012C32.6998 41.8012 29.8998 35.0012 27.3998 30.5012C27.0998 30.0012 27.1998 29.3012 27.5998 28.8012C27.9998 28.3012 28.5998 28.1012 29.1998 28.3012C33.2998 29.6012 38.4998 29.6012 42.7998 28.3012C43.3997 28.1012 43.9998 28.3012 44.3998 28.8012C44.7998 29.3012 44.7998 30.0012 44.4998 30.5012C43.6998 31.8012 42.8998 33.5012 41.9998 35.5012C41.7998 35.8012 41.4998 36.0012 41.0998 35.8012C40.7998 35.6012 40.5998 35.3012 40.7998 34.9012C41.6998 32.9012 42.5998 31.2012 43.3998 29.8012C43.4998 29.7012 43.3998 29.6012 43.3998 29.6012C43.3998 29.6012 43.2998 29.5012 43.1998 29.5012C38.6998 30.9012 33.1998 30.9012 28.8998 29.5012C28.7998 29.5012 28.6998 29.5012 28.6998 29.6012C28.6998 29.6012 28.5998 29.7012 28.6998 29.8012C31.1998 34.4012 34.0998 41.4012 35.5998 45.1012V45.3012V53.7012C35.6025 53.7938 35.5863 53.8861 35.5521 53.9723C35.5179 54.0585 35.4664 54.1367 35.4009 54.2023C35.3353 54.2679 35.2571 54.3193 35.1709 54.3535C35.0847 54.3877 34.9924 54.4039 34.8998 54.4012H34.1998C33.9088 54.4038 33.6305 54.5205 33.4248 54.7262C33.2191 54.9319 33.1024 55.2102 33.0998 55.5012V61.6012H38.8998V55.5012C38.8971 55.2102 38.7804 54.9319 38.5747 54.7262C38.369 54.5205 38.0907 54.4038 37.7998 54.4012H37.0998C37.0071 54.4039 36.9148 54.3877 36.8286 54.3535C36.7425 54.3193 36.6642 54.2679 36.5986 54.2023C36.5331 54.1367 36.4816 54.0585 36.4474 53.9723C36.4132 53.8861 36.397 53.7938 36.3998 53.7012V45.2012V45.0012C36.9998 43.3012 37.6998 41.7012 38.2998 40.1012C38.3998 39.8012 38.7998 39.6012 39.1998 39.7012C39.4998 39.8012 39.6997 40.2012 39.5998 40.6012L37.6998 45.3012V53.0012C38.9998 53.0012 40.0998 54.1012 40.0998 55.4012V62.2012C40.1997 62.6012 39.8997 62.9012 39.5998 62.9012Z" fill="#062D4C"/>
<path d="M47.9993 18.9006C47.6993 18.9006 47.3993 18.6006 47.2993 18.3006C47.2993 17.9006 47.4993 17.6006 47.8993 17.6006L53.2993 17.1006C53.6993 17.1006 53.9993 17.3006 53.9993 17.7006C53.9993 18.1006 53.7993 18.4006 53.3993 18.4006L47.9993 18.9006ZM43.8993 14.8006C43.4993 14.8006 43.1993 14.4006 43.1993 14.1006L43.6993 8.70059C43.6993 8.30059 44.0993 8.10059 44.3993 8.10059C44.7993 8.10059 44.9993 8.50059 44.9993 8.80059L44.4993 14.2006C44.5993 14.6006 44.2993 14.8006 43.8993 14.8006ZM46.5993 16.3006C46.3993 16.3006 46.2993 16.2006 46.0993 16.1006C45.7993 15.8006 45.7993 15.4006 46.0993 15.2006L49.9993 11.3006C50.2993 11.0006 50.6993 11.0006 50.8993 11.3006C51.1993 11.6006 51.1993 12.0006 50.8993 12.2006L46.9993 16.1006C46.889 16.2059 46.7497 16.2755 46.5993 16.3006ZM20.1993 60.2006C19.9993 60.2006 19.8993 60.1006 19.7993 60.0006C19.4993 59.8006 19.4993 59.3006 19.6993 59.1006L23.1993 54.9006C23.3993 54.6006 23.8993 54.6006 24.0993 54.8006C24.3993 55.0006 24.3993 55.5006 24.1993 55.7006L20.6993 59.9006C20.5993 60.2006 20.3993 60.2006 20.1993 60.2006ZM22.6993 50.4006C22.5993 50.4006 22.4993 50.4006 22.3993 50.3006L17.6993 47.6006C17.3993 47.4006 17.2993 47.0006 17.4993 46.7006C17.6993 46.4006 18.0993 46.3006 18.3993 46.5006L23.0993 49.2006C23.3993 49.4006 23.4993 49.8006 23.2993 50.1006C23.1993 50.3006 22.9993 50.4006 22.6993 50.4006ZM16.8993 54.4006C16.5993 54.4006 16.2993 54.2006 16.1993 53.9006C16.0993 53.5006 16.3993 53.2006 16.6993 53.1006L22.1993 52.1006C22.5993 52.0006 22.8993 52.3006 22.9993 52.6006C23.0993 53.0006 22.7993 53.3006 22.4993 53.4006L16.9993 54.4006H16.8993ZM28.6993 54.3006C26.7993 54.3006 25.1993 52.7006 25.1993 50.8006C25.1993 48.9006 26.7993 47.3006 28.6993 47.3006C30.5993 47.3006 32.1993 48.9006 32.1993 50.8006C32.1993 52.7006 30.5993 54.3006 28.6993 54.3006ZM28.6993 48.7006C28.1174 48.7058 27.5609 48.9393 27.1494 49.3507C26.738 49.7622 26.5045 50.3187 26.4993 50.9006C26.5045 51.4824 26.738 52.039 27.1494 52.4505C27.5609 52.8619 28.1174 53.0954 28.6993 53.1006C29.2812 53.0954 29.8377 52.8619 30.2492 52.4505C30.6606 52.039 30.8941 51.4824 30.8993 50.9006C30.8941 50.3187 30.6606 49.7622 30.2492 49.3507C29.8377 48.9393 29.2812 48.7058 28.6993 48.7006ZM39.6993 41.0006C37.7993 41.0006 36.1993 39.4006 36.1993 37.5006C36.1993 35.6006 37.7993 34.0006 39.6993 34.0006C41.5993 34.0006 43.1993 35.6006 43.1993 37.5006C43.1993 39.5006 41.5993 41.0006 39.6993 41.0006ZM39.6993 35.4006C39.1174 35.4058 38.5609 35.6393 38.1494 36.0507C37.738 36.4622 37.5045 37.0187 37.4993 37.6006C37.5045 38.1824 37.738 38.739 38.1494 39.1505C38.5609 39.5619 39.1174 39.7954 39.6993 39.8006C40.2812 39.7954 40.8377 39.5619 41.2492 39.1505C41.6606 38.739 41.8941 38.1824 41.8993 37.6006C41.7993 36.4006 40.8993 35.4006 39.6993 35.4006ZM41.7993 24.2006C39.8993 24.2006 38.2993 22.6006 38.2993 20.7006C38.2993 18.8006 39.8993 17.2006 41.7993 17.2006C43.6993 17.2006 45.2993 18.8006 45.2993 20.7006C45.2993 22.6006 43.6993 24.2006 41.7993 24.2006ZM41.7993 18.5006C41.2174 18.5058 40.6609 18.7393 40.2494 19.1507C39.838 19.5622 39.6045 20.1187 39.5993 20.7006C39.6045 21.2824 39.838 21.839 40.2494 22.2505C40.6609 22.6619 41.2174 22.8954 41.7993 22.9006C42.3812 22.8954 42.9377 22.6619 43.3492 22.2505C43.7606 21.839 43.9941 21.2824 43.9993 20.7006C43.8993 19.5006 42.9993 18.5006 41.7993 18.5006Z" fill="#1EC8BB"/>
</svg>
