<svg width="72" height="71" viewBox="0 0 72 71" fill="none" xmlns="http://www.w3.org/2000/svg">
<rect width="70" height="70" transform="translate(1 0.500977)" fill="white"/>
<path d="M63.6488 66.6012C63.4488 66.5012 63.4488 66.4012 63.3488 66.4012C63.1488 66.3012 62.8488 66.1012 62.6488 65.9012C62.0488 65.2012 61.9488 64.2012 62.6488 63.5012C62.7488 63.4012 62.8488 63.3012 62.9488 63.2012L60.9488 61.2012C60.9488 61.2012 60.4488 61.7012 60.2488 61.9012C59.7488 62.4012 59.2488 62.9012 58.7488 63.3012C58.4488 63.6012 57.9488 63.8012 57.5488 63.8012C57.1488 63.8012 56.7488 63.7012 56.4488 63.4012C55.6488 62.8012 55.4488 61.8012 55.9488 61.0012C56.0488 60.9012 56.0488 60.8012 56.1488 60.7012C56.1488 60.7012 56.0488 60.7012 56.0488 60.6012C52.9488 57.5012 49.7488 54.3012 46.6488 51.2012C45.9488 50.5012 45.8488 49.6012 46.3488 48.9012C46.4488 48.8012 46.4488 48.7012 46.5488 48.6012C46.6488 48.5012 46.7488 48.4012 46.8488 48.3012C46.8488 48.3012 46.8488 48.3012 46.7488 48.2012L43.2488 44.7012C43.0488 44.5012 42.9488 44.4012 42.9488 44.1012C42.9488 43.9012 43.0488 43.7012 43.2488 43.5012C43.4488 43.3012 43.6488 43.1012 43.8488 42.9012L43.9488 42.8012L42.9488 41.8012C42.0488 40.9012 41.2488 40.1012 40.3488 39.2012C40.2488 39.1012 40.2488 39.1012 40.1488 39.0012C40.0488 38.9012 40.0488 38.7012 40.0488 38.5012C40.0488 38.4012 40.1488 38.3012 40.2488 38.2012C40.6488 38.5012 40.7488 38.5012 40.9488 38.5012C41.0488 38.5012 41.0488 38.5012 41.1488 38.5012C41.2488 38.5012 41.3488 38.6012 41.4488 38.7012C42.6488 39.9012 43.7488 41.0012 44.9488 42.2012C44.9488 42.2012 44.9488 42.2012 45.0488 42.3012L45.1488 42.2012C45.3488 42.0012 45.5488 41.8012 45.7488 41.6012C45.8488 41.5012 46.0488 41.3012 46.3488 41.3012C46.5488 41.3012 46.7488 41.4012 46.8488 41.6012C48.0488 42.8012 49.1488 43.9012 50.3488 45.1012C50.3488 45.1012 50.3488 45.2012 50.4488 45.2012C50.5488 45.1012 50.5488 45.0012 50.6488 45.0012C51.1488 44.5012 51.5488 44.3012 52.0488 44.3012C52.5488 44.3012 52.9488 44.5012 53.4488 45.0012L53.6488 45.2012C56.7488 48.3012 59.7488 51.3012 62.8488 54.4012C62.8488 54.4012 62.8488 54.4012 62.9488 54.5012C63.3488 54.2012 63.6488 54.0012 64.1488 54.0012H64.2488C65.0488 54.1012 65.5488 54.5012 65.8488 55.2012C66.1488 55.9012 65.9488 56.5012 65.4488 57.1012C64.9488 57.6012 64.4488 58.1012 63.9488 58.6012C63.7488 58.8012 63.2488 59.3012 63.2488 59.3012L65.2488 61.2012L65.3488 61.1012C65.7488 60.7012 66.1488 60.5012 66.6488 60.5012C67.4488 60.5012 68.1488 61.0012 68.4488 61.8012C68.4488 61.8012 68.4488 61.9012 68.5488 61.9012V62.0012V62.7012C68.3488 63.2012 68.0488 63.6012 67.6488 63.9012C66.9488 64.6012 66.3488 65.2012 65.6488 65.9012C65.2488 66.3012 64.9488 66.6012 64.4488 66.8012H63.6488V66.6012ZM66.5488 61.5012C66.4488 61.5012 66.2488 61.6012 66.1488 61.7012L65.2488 62.6012C64.6488 63.2012 64.0488 63.8012 63.5488 64.3012C63.2488 64.6012 63.2488 64.8012 63.5488 65.1012C63.6488 65.3012 63.8488 65.3012 64.0488 65.3012C64.1488 65.3012 64.3488 65.2012 64.4488 65.1012C65.4488 64.1012 66.3488 63.2012 67.1488 62.4012C67.2488 62.3012 67.2488 62.2012 67.3488 62.1012C67.3488 62.1012 67.3488 62.0012 67.4488 62.0012C67.3488 61.7012 67.1488 61.5012 66.9488 61.4012C66.7488 61.5012 66.6488 61.5012 66.5488 61.5012ZM63.9488 55.0012C63.8488 55.0012 63.6488 55.1012 63.5488 55.2012C62.3488 56.4012 61.1488 57.6012 59.9488 58.8012C58.9488 59.8012 58.0488 60.7012 57.0488 61.7012C56.7488 62.0012 56.7488 62.3012 57.0488 62.6012C57.1488 62.7012 57.3488 62.8012 57.4488 62.8012C57.5488 62.8012 57.7488 62.7012 57.9488 62.6012C58.3488 62.2012 58.8488 61.7012 59.2488 61.3012L60.7488 59.8012C61.9488 58.6012 63.1488 57.4012 64.3488 56.2012C64.4488 56.1012 64.5488 56.0012 64.5488 55.9012C64.5488 55.9012 64.5488 55.9012 64.5488 55.8012C64.5488 55.5012 64.3488 55.3012 64.0488 55.1012C64.1488 55.0012 64.0488 55.0012 63.9488 55.0012ZM63.7488 62.3012L64.1488 61.9012L62.2488 60.0012L61.8488 60.4012L63.7488 62.3012ZM57.0488 60.0012L61.9488 55.1012C59.4488 52.6012 56.8488 50.0012 54.3488 47.5012L52.5488 45.7012C52.3488 45.5012 52.2488 45.4012 52.0488 45.4012C51.9488 45.4012 51.7488 45.5012 51.5488 45.7012C50.3488 46.9012 47.7488 49.5012 47.7488 49.5012C47.6488 49.6012 47.5488 49.7012 47.4488 49.8012C47.3488 50.0012 47.2488 50.2012 47.3488 50.3012C47.5488 50.5012 47.7488 50.7012 48.0488 50.9012C48.1488 50.9012 48.1488 51.0012 48.2488 51.0012L48.4488 50.8012C48.7488 50.5012 49.1488 50.1012 49.4488 49.8012C49.5488 49.7012 49.7488 49.6012 49.9488 49.6012C50.1488 49.6012 50.2488 49.7012 50.3488 49.8012C50.5488 50.1012 50.5488 50.4012 50.3488 50.7012C50.0488 51.0012 49.7488 51.3012 49.4488 51.6012C49.3488 51.7012 49.1488 51.8012 49.0488 51.9012L49.9488 52.8012C50.1488 52.6012 50.2488 52.5012 50.4488 52.3012C50.6488 52.1012 50.8488 52.0012 50.9488 52.0012C51.0488 52.0012 51.2488 52.1012 51.3488 52.2012C51.4488 52.3012 51.5488 52.5012 51.5488 52.6012C51.5488 52.7012 51.5488 52.9012 51.2488 53.2012C51.0488 53.4012 50.9488 53.5012 50.7488 53.7012L50.6488 53.8012L51.5488 54.7012L51.7488 54.5012C52.0488 54.1012 52.4488 53.8012 52.8488 53.4012C52.9488 53.3012 53.1488 53.2012 53.3488 53.2012C53.4488 53.2012 53.4488 53.2012 53.5488 53.2012C53.7488 53.3012 53.9488 53.5012 53.9488 53.7012C53.9488 53.9012 53.8488 54.1012 53.7488 54.2012C53.4488 54.5012 53.0488 54.9012 52.7488 55.2012L52.5488 55.5012L53.4488 56.4012L53.5488 56.3012C53.7488 56.1012 53.8488 56.0012 54.0488 55.8012C54.2488 55.6012 54.4488 55.5012 54.5488 55.5012C54.7488 55.5012 54.8488 55.6012 54.9488 55.7012C55.0488 55.8012 55.1488 56.0012 55.1488 56.2012C55.1488 56.4012 55.0488 56.5012 54.9488 56.7012C54.7488 56.9012 54.5488 57.1012 54.4488 57.2012L55.3488 58.1012L55.5488 57.9012C55.8488 57.6012 56.1488 57.3012 56.5488 56.9012C56.7488 56.7012 56.8488 56.7012 57.0488 56.7012C57.1488 56.7012 57.3488 56.8012 57.4488 56.9012C57.7488 57.2012 57.6488 57.5012 57.4488 57.8012C57.3488 57.9012 57.2488 58.0012 57.1488 58.2012L55.9488 59.0012L57.0488 60.0012ZM47.8488 47.6012L49.5488 45.9012L46.4488 42.8012L44.6488 44.5012L47.8488 47.6012Z" fill="#062D4C"/>
<path fill-rule="evenodd" clip-rule="evenodd" d="M16.9496 20.2012C20.8496 20.2012 24.0496 25.5012 24.0496 32.1012C24.0496 38.6012 20.8496 44.0012 16.9496 44.0012C13.0496 44.0012 9.84961 38.7012 9.84961 32.1012C9.84961 25.5012 13.0496 20.2012 16.9496 20.2012ZM10.9496 33.6012C10.9496 33.1012 10.8496 32.6012 10.8496 32.0012C10.8496 29.9012 11.1496 27.6012 12.0496 25.7012C12.6496 24.3012 13.4496 22.9012 14.7496 22.0012C14.8496 22.0012 14.8496 21.9012 14.9496 22.0012C15.0496 22.0012 15.0496 22.1012 15.0496 22.2012V22.4012C15.0496 22.5012 15.0496 22.6012 14.9496 22.6012C13.7496 23.4012 12.9496 24.8012 12.5496 26.1012C11.8496 28.0012 11.5496 30.0012 11.5496 32.0012C11.5496 32.5012 11.5496 33.0012 11.6496 33.5012C11.6496 33.6012 11.5496 33.7012 11.4496 33.8012H11.2496C11.1496 33.8012 11.1496 33.8012 11.0496 33.7012C10.9496 33.7012 10.9496 33.7012 10.9496 33.6012Z" fill="#1EC8BB"/>
<path fill-rule="evenodd" clip-rule="evenodd" d="M16.6492 47.701C14.7492 47.701 13.0492 47.201 11.6492 46.201C10.0492 45.001 8.64922 43.201 7.54922 40.801C6.44922 38.401 5.94922 35.901 5.74922 34.201C5.54922 32.801 5.44922 31.401 5.44922 30.001C5.54922 25.401 6.94922 22.101 8.34922 18.901C9.84922 15.401 11.3492 12.101 11.0492 7.30098C11.0492 6.90098 11.3492 6.50098 11.7492 6.50098C12.1492 6.50098 12.5492 6.80098 12.5492 7.20098C12.7492 12.401 11.2492 16.001 9.64922 19.601C7.94922 23.501 6.24922 27.601 7.04922 33.601C7.44922 36.701 8.74922 42.301 12.1492 44.801C13.3492 45.701 14.8492 46.201 16.4492 46.201C16.7492 46.201 17.0492 46.201 17.4492 46.201C19.5492 46.001 21.2492 45.301 22.3492 44.001C22.5492 43.701 22.8492 43.401 23.0492 43.101C23.6492 42.201 24.3492 41.301 25.4492 41.301C25.8492 41.301 26.2492 41.701 26.2492 42.101C26.2492 42.501 25.8492 42.901 25.4492 42.901C25.1492 42.901 24.6492 43.501 23.8492 44.601C23.6492 44.901 23.4492 45.201 23.2492 45.301C22.1492 46.401 20.7492 47.201 19.1492 47.501C18.3492 47.601 17.4492 47.701 16.6492 47.701Z" fill="#062D4C"/>
<path fill-rule="evenodd" clip-rule="evenodd" d="M34.2484 20.2012C30.3484 20.2012 27.1484 25.5012 27.1484 32.1012C27.1484 38.6012 30.3484 44.0012 34.2484 44.0012C38.1484 44.0012 41.3484 38.7012 41.3484 32.1012C41.3484 25.5012 38.1484 20.2012 34.2484 20.2012ZM40.2484 33.6012C40.2484 33.1012 40.3484 32.6012 40.3484 32.0012C40.3484 29.9012 40.0484 27.6012 39.1484 25.7012C38.5484 24.3012 37.7484 22.9012 36.4484 22.0012C36.3484 22.0012 36.3484 21.9012 36.2484 22.0012C36.1484 22.0012 36.1484 22.1012 36.1484 22.2012V22.4012C36.1484 22.5012 36.1484 22.6012 36.2484 22.6012C37.4484 23.4012 38.2484 24.8012 38.6484 26.1012C39.3484 28.0012 39.6484 30.0012 39.6484 32.0012C39.6484 32.5012 39.6484 33.0012 39.5484 33.5012C39.5484 33.6012 39.6484 33.7012 39.7484 33.8012H39.9484C40.0484 33.8012 40.0484 33.8012 40.1484 33.7012C40.2484 33.7012 40.2484 33.7012 40.2484 33.6012Z" fill="#1EC8BB"/>
<path fill-rule="evenodd" clip-rule="evenodd" d="M34.5496 47.701C33.7496 47.701 32.8496 47.601 31.9496 47.401C30.3496 47.001 28.8496 46.201 27.8496 45.201C27.7496 45.101 27.5496 44.801 27.2496 44.501C26.4496 43.401 25.9496 42.801 25.6496 42.801C25.2496 42.801 24.8496 42.501 24.8496 42.001C24.8496 41.801 24.9496 41.601 25.0496 41.501C25.1496 41.401 25.3496 41.301 25.5496 41.301C26.7496 41.301 27.3496 42.201 27.9496 43.101C28.1496 43.401 28.3496 43.701 28.6496 44.001C29.7496 45.201 31.4496 46.001 33.5496 46.201C33.8496 46.201 34.1496 46.201 34.5496 46.201C36.1496 46.201 37.6496 45.701 38.8496 44.801C40.3496 43.701 42.9496 40.801 43.9496 33.601C44.7496 27.501 43.0496 23.501 41.3496 19.601C39.8496 16.101 38.2496 12.401 38.4496 7.20098C38.4496 6.80098 38.8496 6.50098 39.2496 6.50098C39.6496 6.50098 40.0496 6.90098 39.9496 7.30098C39.7496 12.101 41.1496 15.401 42.6496 18.901C44.0496 22.101 45.4496 25.401 45.5496 30.001C45.5496 31.401 45.4496 32.801 45.2496 34.201C44.9496 35.901 44.4496 38.401 43.4496 40.801C42.3496 43.201 41.0496 45.101 39.3496 46.201C38.1496 47.201 36.4496 47.701 34.5496 47.701Z" fill="#062D4C"/>
<path d="M69.7 70.501H2.3C1.6 70.501 1 69.901 1 69.201V1.80098C1 1.10098 1.6 0.500977 2.3 0.500977H69.7C70.4 0.500977 71 1.10098 71 1.80098V69.201C71 69.901 70.4 70.501 69.7 70.501Z" stroke="#E8E6D9" stroke-width="0.5" stroke-miterlimit="10"/>
</svg>
