<svg width="72" height="72" viewBox="0 0 72 72" fill="none" xmlns="http://www.w3.org/2000/svg">
<path d="M66.4663 71.751H5.54245C2.62634 71.751 0.253906 69.3785 0.253906 66.4624V5.53854C0.253906 2.62243 2.62634 0.25 5.54245 0.25H66.4663C69.3825 0.25 71.7549 2.62243 71.7549 5.53854V66.4624C71.7549 69.3785 69.3825 71.751 66.4663 71.751Z" fill="white"/>
<path d="M5.54244 0.5C2.76418 0.5 0.503906 2.76028 0.503906 5.53854V66.4624C0.503906 69.2407 2.76418 71.501 5.54244 71.501H66.4663C69.2446 71.501 71.5049 69.2407 71.5049 66.4624V5.53854C71.5049 2.76028 69.2446 0.5 66.4663 0.5H5.54244ZM5.54244 0H66.4663C69.5252 0 72.0049 2.47969 72.0049 5.53854V66.4624C72.0049 69.5213 69.5252 72.001 66.4663 72.001H5.54244C2.4836 72.001 0.00390625 69.5213 0.00390625 66.4624V5.53854C0.00390625 2.47969 2.4836 0 5.54244 0Z" fill="#E7E8E8"/>
<path d="M26.3959 34.2133C25.7588 34.2134 25.1285 34.0827 24.5439 33.8293L24.4819 33.7993C20.5459 31.7303 20.0039 28.3993 20.0039 25.1053C20.0039 21.8113 20.5389 18.4843 24.4219 16.4393L24.4729 16.4144C25.3154 16.0341 26.2517 15.9125 27.1634 16.0649C28.075 16.2173 28.9209 16.6368 29.5939 17.2703C30.1307 17.774 30.5022 18.4285 30.6595 19.1476C30.8168 19.8667 30.7524 20.6166 30.4749 21.2983L28.7999 20.6103C28.9388 20.2689 28.9709 19.8933 28.892 19.5332C28.8131 19.1731 28.6269 18.8454 28.3579 18.5933C27.9485 18.2073 27.4345 17.9503 26.8799 17.8547C26.3254 17.759 25.755 17.8288 25.2399 18.0553C22.3889 19.5683 21.8149 21.8763 21.8149 25.1053C21.8149 29.4523 23.1449 31.0423 25.2929 32.1803C25.8019 32.3939 26.362 32.4547 26.905 32.3554C27.448 32.2562 27.9503 32.0011 28.3509 31.6214C28.6186 31.3721 28.8052 31.0481 28.8865 30.6915C28.9678 30.3349 28.9401 29.962 28.8069 29.6214L30.4889 28.9523C30.756 29.6315 30.813 30.3752 30.6525 31.0871C30.492 31.7991 30.1215 32.4464 29.5889 32.9453C28.7259 33.7608 27.5832 34.2146 26.3959 34.2133Z" fill="#1EC8BB"/>
<path d="M45.2117 34.2117C44.0219 34.2119 42.877 33.7572 42.0117 32.9406C41.4798 32.449 41.1087 31.8083 40.9467 31.1023C40.7847 30.3964 40.8394 29.658 41.1037 28.9837L42.7927 29.6376C42.6604 29.9752 42.6332 30.3448 42.7146 30.6981C42.7959 31.0514 42.9821 31.3719 43.2487 31.6176C43.6572 32.0048 44.171 32.2626 44.7256 32.3586C45.2801 32.4547 45.8507 32.3848 46.3657 32.1576C49.2167 30.6446 49.7907 28.3367 49.7907 25.1077C49.7907 20.7607 48.4607 19.1706 46.3137 18.0336C45.8042 17.8204 45.2438 17.7596 44.7004 17.8586C44.1571 17.9577 43.6541 18.2123 43.2527 18.5916C42.9822 18.8438 42.7946 19.1721 42.7148 19.5332C42.635 19.8942 42.6667 20.271 42.8057 20.6136L41.1307 21.3017C40.853 20.6192 40.7888 19.8685 40.9466 19.1488C41.1045 18.4292 41.4769 17.7743 42.0147 17.2706C42.6773 16.6459 43.5084 16.229 44.4053 16.0713C45.3023 15.9137 46.2258 16.0223 47.0617 16.3837L47.1247 16.4137C51.0597 18.4827 51.6027 21.8137 51.6027 25.1077C51.6027 28.4017 51.0677 31.7286 47.1847 33.7736L47.1347 33.7977C46.5303 34.0704 45.8748 34.2115 45.2117 34.2117Z" fill="#1EC8BB"/>
<path d="M38.1977 41.2214H36.3867V31.0644C36.3867 27.5844 37.2517 25.1964 38.9557 23.9644C40.3887 22.9294 42.2557 22.7864 44.5167 23.5394L43.9437 25.2574C42.2717 24.6994 40.9497 24.7574 40.0157 25.4334C38.8087 26.3034 38.1977 28.1964 38.1977 31.0624V41.2214Z" fill="#062D4C"/>
<path d="M33.4074 41.3503V31.0643C33.4074 28.1993 32.7964 26.3053 31.5904 25.4363C30.6574 24.7633 29.3424 24.7023 27.6794 25.2543L27.1094 23.5353C29.3554 22.7903 31.2184 22.9353 32.6494 23.9673C34.3494 25.1963 35.2184 27.5833 35.2184 31.0673V41.3533L33.4074 41.3503Z" fill="#062D4C"/>
<path d="M35.7514 55.0323C34.78 55.002 33.8282 54.7509 32.9681 54.2982C32.1081 53.8454 31.3623 53.2029 30.7874 52.4193C29.5838 50.9269 28.9061 49.079 28.8594 47.1623C28.8596 46.1763 29.0716 45.2018 29.4808 44.3048C29.89 43.4077 30.487 42.6089 31.2314 41.9623C32.0877 41.2379 33.0991 40.7199 34.1874 40.4483C34.9909 40.2593 35.8219 40.2173 36.6404 40.3243H36.6714C36.7824 40.3393 36.8984 40.3583 37.0364 40.3853H37.0534L37.1184 40.3973C37.2534 40.4243 37.3804 40.4543 37.5044 40.4863C38.1544 40.6511 38.7744 40.9174 39.3414 41.2753L39.4214 41.3263L39.4394 41.3383C40.0024 41.6975 40.5112 42.1352 40.9504 42.6383L40.9794 42.6733C41.0634 42.7733 41.1484 42.8733 41.2314 42.9833C42.1498 44.1798 42.646 45.6469 42.6424 47.1553C42.5955 49.0722 41.9174 50.92 40.7134 52.4123C40.1396 53.1972 39.3946 53.8411 38.5348 54.2951C37.675 54.7491 36.7232 55.0012 35.7514 55.0323ZM35.7514 42.0803C35.3652 42.0812 34.9804 42.1262 34.6044 42.2143C33.7972 42.4171 33.047 42.8019 32.4114 43.3393C31.8649 43.8152 31.4266 44.4026 31.1261 45.062C30.8256 45.7215 30.6699 46.4376 30.6694 47.1623C30.6694 49.9063 32.9364 53.2213 35.7504 53.2213C38.5644 53.2213 40.8324 49.9063 40.8324 47.1623C40.835 46.0516 40.4697 44.9714 39.7934 44.0903C39.7314 44.0093 39.6664 43.9303 39.6024 43.8563L39.5774 43.8263C39.2535 43.4581 38.8791 43.1376 38.4654 42.8743L38.3934 42.8283C37.9942 42.5754 37.5589 42.3846 37.1024 42.2623L37.0574 42.2513C36.9624 42.2263 36.8634 42.2033 36.7574 42.1813L36.6964 42.1703C36.6094 42.1533 36.5194 42.1383 36.4284 42.1253H36.4074C36.1899 42.0962 35.9708 42.0812 35.7514 42.0803Z" fill="#062D4C"/>
</svg>
