<svg width="72" height="74" viewBox="0 0 72 74" fill="none" xmlns="http://www.w3.org/2000/svg">
<g clip-path="url(#clip0_2638_4229)">
<rect width="72" height="74" fill="white"/>
<path d="M17.7553 16.0254C18.8575 19.9199 19.4699 23.8879 19.9352 27.856C20.3516 31.7995 20.5721 35.841 20.4251 39.76C20.2047 43.679 19.2249 47.5736 17.8043 51.2966C16.3591 55.0197 14.5221 58.6203 12.2441 62.0005C15.012 58.9633 17.2409 55.4606 18.9555 51.7375C20.6456 48.0145 21.7723 43.973 22.0417 39.858C22.2377 35.743 21.9192 31.7015 21.2579 27.6845C20.5721 23.6675 19.4943 19.6995 17.7553 16.0254Z" fill="#062D4C"/>
<path d="M54.0065 51.2722C52.5859 47.5492 51.6306 43.6791 51.3857 39.7356C51.2387 35.8166 51.4591 31.7751 51.8755 27.8315C52.3409 23.8635 52.9533 19.8955 54.0555 16.001C52.3164 19.6751 51.2387 23.6431 50.5774 27.6601C49.916 31.6771 49.5976 35.7186 49.7936 39.8336C50.063 43.9486 51.1897 47.9656 52.8798 51.7131C54.5699 55.4362 56.7988 58.9388 59.5911 61.9761C57.2642 58.6204 55.4517 54.9953 54.0065 51.2722Z" fill="#062D4C"/>
<path d="M35.9048 42.6748C35.6354 42.6748 35.4395 43.1647 35.4395 43.8015C35.4395 44.4139 35.6599 44.9282 35.9048 44.9282C36.1498 44.9282 36.3702 44.4384 36.3702 43.8015C36.3702 43.1892 36.1743 42.6748 35.9048 42.6748Z" fill="#062D4C"/>
<path d="M64.8068 41.6705C64.8068 39.0496 60.5693 36.7227 53.9805 35.2041C53.9805 35.3266 53.9805 35.4245 53.9805 35.5225C59.9815 36.8697 63.8025 38.9027 63.8025 41.1561C63.8025 42.3808 62.6758 43.4341 60.7163 44.3648L60.0305 42.9687C59.859 42.6013 59.5161 42.5768 59.2712 42.9197L56.8952 46.4958C56.6748 46.8387 56.8218 47.1326 57.2137 47.1571L61.5001 47.4266C61.9165 47.4511 62.088 47.1816 61.9165 46.8142L61.2552 45.4671C63.5086 44.3893 64.8068 43.1156 64.8068 41.6705Z" fill="#1EC8BB"/>
<path d="M7.00195 41.6705C7.00195 39.0496 11.2394 36.7227 17.8283 35.2041C17.8283 35.3266 17.8283 35.4245 17.8283 35.5225C11.8273 36.8697 8.0062 38.9027 8.0062 41.1561C8.0062 42.3808 9.13293 43.4341 11.0924 44.3648L11.7783 42.9687C11.9497 42.6013 12.2926 42.5768 12.5376 42.9197L14.9135 46.4713C15.1339 46.8142 14.987 47.1082 14.5951 47.1326L10.3331 47.4021C9.91673 47.4266 9.74527 47.1571 9.91673 46.7897L10.5781 45.4426C8.30013 44.3893 7.00195 43.1156 7.00195 41.6705Z" fill="#1EC8BB"/>
<path d="M70.6814 74H2.31857C1.60857 74 1 73.3657 1 72.6257V1.37429C1 0.634286 1.60857 0 2.31857 0H70.6814C71.3914 0 72 0.634286 72 1.37429V72.6257C72 73.3657 71.3914 74 70.6814 74Z" stroke="#E8E6D9" stroke-width="0.5" stroke-miterlimit="10"/>
</g>
<defs>
<clipPath id="clip0_2638_4229">
<rect width="72" height="74" fill="white"/>
</clipPath>
</defs>
</svg>
