<svg width="72" height="72" viewBox="0 0 72 72" fill="none" xmlns="http://www.w3.org/2000/svg">
<rect width="70" height="70" transform="translate(1 1.00098)" fill="white"/>
<path d="M21.3 68.801C21 68.801 20.8 68.701 20.6 68.601C20.4 68.501 20.2 68.301 20.1 68.001C20 67.801 20 67.701 20 67.501C20 67.401 20 67.301 20 67.201C20.9 63.301 22.2 59.401 23.9 55.501C25.4 52.001 27 48.901 28.1 46.901L28.3 46.601C29 45.201 29.7 44.001 30.1 43.001C30.4 42.401 30.6 41.801 30.7 41.401C30.8 41.201 30.8 41.001 30.8 40.801C30.8 40.601 30.8 40.501 30.8 40.401C30.8 40.301 30.7 40.201 30.6 40.101C30.5 39.901 30.2 39.701 29.9 39.401C29.7 39.301 29.5 39.101 29.2 39.001C28.9 38.801 28.4 38.701 28 38.501C27.5 38.301 26.8 38.101 26.2 37.901C25.4 37.701 24.6 37.501 23.7 37.401C22.7 37.201 21.7 37.101 21.1 37.001C20.9 37.001 20.6 36.901 20.5 36.701C20.3 36.601 20.2 36.401 20.1 36.101C20 36.001 20 35.801 20 35.601V4.30098C20 4.10098 20 3.90098 20.1 3.80098C20.2 3.60098 20.3 3.50098 20.4 3.40098C20.6 3.20098 21 3.00098 21.3 3.00098C21.5 3.00098 21.6 3.00098 21.7 3.10098C21.8 3.20098 22 3.20098 22.1 3.30098L43.4 22.201C44 22.601 44.7 22.901 45.3 23.201C50.2 25.201 53.1 27.901 54.6 29.701C56.3 31.801 56.9 33.401 57 33.801V33.901C57.3 35.101 57.4 36.301 57.4 37.501C57.4 38.901 57.2 40.301 56.9 41.701C56.6 42.901 56.1 44.201 55.5 45.401C54.6 47.401 53.3 49.301 51.6 51.401C50.9 52.301 50.2 53.101 49.6 53.801L49.2 54.301C48.8 54.701 48.5 55.101 48.3 55.401C48.2 55.601 48.1 55.701 48 55.801C48 55.901 47.9 56.001 47.8 56.201C47.7 56.301 47.7 56.501 47.6 56.701C47.4 57.101 47.3 57.601 47.1 58.101C46.7 59.201 46.2 60.401 45.8 61.701C44.9 64.301 44 67.001 43.7 68.101C43.6 68.401 43.4 68.601 43.2 68.801C43 69.001 42.7 69.001 42.4 69.001H38.1L21.3 68.801ZM43.4 25.701C43.8 25.701 44.2 25.801 44.6 25.901C44.9 26.001 45.3 26.201 45.6 26.401C46.3 26.801 46.8 27.401 47.2 27.901C47.4 28.101 47.8 28.501 47.8 28.501H48C48.1 28.501 48.2 28.501 48.3 28.501C48.4 28.501 48.5 28.601 48.6 28.601C48.8 28.701 49 28.801 49.2 29.001C49.6 29.301 50.1 29.701 50.6 30.301C50.9 30.601 51.2 31.001 51.5 31.401C51.9 31.901 52.3 32.401 52.7 33.001C53.2 33.701 53.6 34.401 54 35.001C54.2 35.401 54.3 35.701 54.4 36.001C54.5 36.401 54.6 36.801 54.6 37.201C54.6 37.601 54.5 38.101 54.4 38.601C54.3 39.001 54.1 39.501 53.9 40.001C53.5 40.801 53.1 41.701 52.5 42.501C52.2 43.001 51.8 43.401 51.5 43.801C51.3 44.001 51.2 44.201 51 44.301C50.9 44.401 50.9 44.501 50.8 44.501C50.7 44.601 50.6 44.601 50.5 44.601H50.1V45.001C50.1 45.101 50.1 45.301 50.1 45.401C50.1 45.801 50.1 46.301 50 46.701C49.9 47.101 49.8 47.501 49.6 47.901C49.5 48.201 49.3 48.401 49.2 48.601C49 48.801 48.8 49.001 48.6 49.201C48.4 49.401 48.1 49.601 47.8 49.701C47.4 49.901 47 50.201 46.6 50.401L46.1 50.701C45.7 50.901 45.4 51.101 45 51.401C44.5 51.701 44.1 52.101 43.9 52.401C43.7 52.601 43.6 52.801 43.5 53.001C43.5 53.101 43.4 53.201 43.3 53.301C43.2 53.401 43.2 53.601 43.1 53.801C42.9 54.201 42.7 54.701 42.5 55.201C42.1 56.301 41.5 57.701 41 59.101C39.9 61.901 38.8 65.101 38 67.201L37.8 67.701H42.6L42.7 67.401C43.2 66.001 44.3 62.401 45.4 59.401C45.8 58.401 46.1 57.401 46.4 56.701C46.6 56.301 46.7 55.901 46.9 55.601C47 55.401 47 55.301 47.1 55.201C47.2 55.101 47.3 55.001 47.3 54.801C47.4 54.701 47.5 54.501 47.6 54.401C47.8 54.101 48.1 53.801 48.4 53.401L48.7 53.001C49.2 52.401 49.9 51.701 50.5 50.801C52.6 48.201 54 45.801 55 43.501C55.8 41.401 56.2 39.401 56.2 37.401C56.2 36.301 56.1 35.201 55.8 34.101C55.7 33.901 55.4 33.001 54.6 31.701C53.5 30.101 52 28.601 50.2 27.201C48.6 26.001 46.7 25.001 44.7 24.101C44 23.801 43.3 23.501 42.7 23.101C42.6 23.101 42.6 23.001 42.5 22.901L20.9 3.80098V14.701L21.1 14.801C23.2 16.301 30.3 21.401 36.3 25.401C38.6 26.901 40.4 28.101 41.8 28.901C42.7 29.401 43.4 29.801 43.9 30.101C44.2 30.201 44.4 30.301 44.6 30.401C45.5 30.701 46.4 31.101 47.1 31.501C47.9 31.901 48.5 32.401 49 33.001C49.4 33.401 49.6 33.801 49.8 34.301C50.1 34.901 50.2 35.601 50.2 36.301C50.2 36.401 50.2 36.501 50.2 36.601C50.2 36.901 50.1 37.201 50 37.501C49.9 37.801 49.7 38.001 49.5 38.301C49.1 38.801 48.6 39.201 48 39.701C47.6 40.001 47.2 40.201 46.7 40.401C46.1 40.701 45.4 41.001 44.8 41.101C43.9 41.301 43 41.501 42.2 41.501C41.8 41.501 41.4 41.501 41 41.401C40.6 41.301 40.2 41.201 39.9 41.001C39.7 40.901 39.5 40.701 39.3 40.501C38.8 39.901 38.4 39.401 38 38.701C37.7 38.201 37.5 37.701 37.3 37.201L37.2 37.101C37.1 36.801 36.9 36.501 36.8 36.201C36.6 35.801 36.4 35.501 36.1 35.201C35.9 35.001 35.7 34.901 35.5 34.701C35.3 34.601 35 34.401 34.5 34.101C34.1 33.801 33.6 33.501 33 33.201C31.8 32.501 30.4 31.601 28.9 30.701C26.1 29.001 23.1 27.201 21.4 26.201L20.9 25.801V35.901H21.3C22.2 36.001 23 36.101 23.8 36.301C25.1 36.501 26.3 36.801 27.3 37.101C28.2 37.401 28.9 37.601 29.5 37.901C29.9 38.101 30.2 38.301 30.5 38.501C30.9 38.801 31.2 39.101 31.4 39.401C31.5 39.601 31.6 39.801 31.7 40.001C31.8 40.201 31.8 40.501 31.8 40.701C31.8 40.801 31.8 40.801 31.8 40.901C31.8 41.101 31.7 41.401 31.7 41.701C31.6 42.001 31.5 42.301 31.4 42.601C31.2 43.201 30.9 43.801 30.4 44.701C30 45.401 29.6 46.301 29.1 47.201C28.6 48.201 28 49.201 27.5 50.301C25.6 54.101 22.8 60.001 21.1 67.301L21 67.801H28.8L28.9 67.501C30.2 64.101 32.6 57.801 34.3 52.801C34.9 51.101 35.4 49.601 35.7 48.501C35.9 47.801 36.1 47.301 36.2 46.801C36.3 46.601 36.3 46.401 36.3 46.301C36.3 46.201 36.3 46.201 36.3 46.101C36.3 45.801 36.4 45.501 36.5 45.201C36.6 44.901 36.8 44.701 36.9 44.501C37 44.401 37.2 44.301 37.3 44.201C37.5 44.101 37.7 44.001 37.9 43.901C38.2 43.801 38.5 43.701 38.8 43.601C39.2 43.501 39.6 43.501 40 43.501C40.4 43.501 40.8 43.501 41.2 43.601C41.5 43.701 41.8 43.701 42.1 43.701C42.8 43.701 43.5 43.601 44.4 43.401C45.2 43.201 46.2 42.901 47.2 42.501C47.5 42.401 47.8 42.301 48 42.301C48.2 42.301 48.5 42.301 48.7 42.401C48.9 42.501 49.1 42.601 49.2 42.801C49.3 42.901 49.4 43.001 49.5 43.101C49.6 43.201 49.6 43.301 49.7 43.401L49.9 43.901L50.3 43.501C50.4 43.401 50.5 43.401 50.5 43.301C50.7 43.101 50.9 42.901 51.1 42.601C51.4 42.201 51.9 41.501 52.4 40.701C52.7 40.201 52.9 39.701 53.1 39.201C53.4 38.501 53.5 37.801 53.5 37.301C53.5 37.001 53.5 36.701 53.4 36.501C53.3 36.201 53.2 35.901 52.9 35.501C52.7 35.101 52.4 34.701 52.1 34.201C51.5 33.301 50.7 32.301 50.1 31.501C49.6 31.001 49.1 30.501 48.8 30.201C48.6 30.001 48.4 29.901 48.2 29.801L48.1 29.701H47.9H47.8H47.7H47.6H47.5L47.4 29.601L47 29.201C46.8 29.001 46.6 28.801 46.4 28.601C46 28.201 45.7 27.901 45.3 27.601C45 27.401 44.8 27.201 44.5 27.101C44.1 26.901 43.7 26.801 43.4 26.801C43.3 26.801 43.2 26.801 43.2 26.801C43.1 26.801 43 26.801 43 26.801C42.9 26.801 42.9 26.801 42.8 26.801C42.7 26.801 42.6 26.701 42.5 26.701C42.3 26.601 42 26.501 41.7 26.301C41.1 26.001 40.3 25.501 39.4 24.901C37.8 23.901 35.6 22.401 33 20.601C28.4 17.401 23.6 13.901 22.2 12.901C22 12.701 21.9 12.401 22.1 12.201C22.2 12.101 22.4 12.001 22.5 12.001C22.6 12.001 22.7 12.001 22.8 12.101C24.6 13.401 30.7 17.801 35.9 21.301C37.8 22.601 39.4 23.601 40.6 24.401C41.4 24.901 42 25.201 42.5 25.501C42.8 25.601 43 25.701 43.1 25.801L43.3 25.901L43.4 25.701ZM40.1 44.501C39.8 44.501 39.5 44.501 39.2 44.601C38.9 44.601 38.6 44.701 38.4 44.801C38.2 44.901 38.1 44.901 38 45.001C37.8 45.101 37.7 45.201 37.6 45.401C37.5 45.501 37.5 45.601 37.5 45.701C37.5 45.801 37.4 45.901 37.4 46.101C37.4 46.201 37.4 46.301 37.4 46.401C37.4 46.501 37.4 46.601 37.4 46.701C37.4 46.901 37.3 47.201 37.2 47.401C37 48.001 36.8 48.701 36.6 49.501C36.1 51.001 35.4 53.001 34.5 55.501C33 59.601 31.3 64.201 30.2 67.301L29.9 67.701H36.8V67.301C36.8 67.201 36.8 67.101 36.9 67.001C38 64.101 39.5 59.901 40.7 56.801C41.1 55.701 41.5 54.701 41.8 53.901C42 53.501 42.1 53.101 42.3 52.801C42.4 52.701 42.4 52.501 42.5 52.401C42.6 52.101 42.8 51.901 43.1 51.601C43.3 51.401 43.5 51.201 43.8 50.901C44.3 50.501 44.9 50.101 45.5 49.801L46.6 49.101C47.2 48.801 47.6 48.501 47.9 48.301C48.1 48.101 48.3 48.001 48.4 47.801C48.5 47.701 48.6 47.501 48.7 47.401C48.8 47.201 48.9 47.001 48.9 46.801C49 46.401 49.1 45.901 49.1 45.401C49.1 45.001 49.1 44.701 49 44.401C48.9 44.101 48.8 43.901 48.7 43.701C48.6 43.601 48.5 43.501 48.5 43.401H48.4C48.3 43.401 48.3 43.401 48.2 43.401C48.1 43.401 47.9 43.401 47.8 43.501C46.8 43.901 45.8 44.201 44.9 44.401C44 44.601 43.1 44.701 42.4 44.701C42 44.701 41.6 44.701 41.3 44.601C40.8 44.601 40.5 44.501 40.1 44.501ZM20.9 24.901H21.3C21.5 24.901 21.7 25.001 21.8 25.101C23.2 26.001 25.8 27.501 28.5 29.101C31.1 30.701 33.7 32.201 35.2 33.201C35.6 33.501 36 33.701 36.2 33.801C36.7 34.101 37 34.501 37.4 34.901C37.7 35.301 37.9 35.801 38.1 36.101C38.2 36.301 38.3 36.501 38.4 36.701L38.5 37.001C38.7 37.401 38.8 37.801 39 38.201C39.3 38.801 39.7 39.301 40.2 39.801C40.3 39.901 40.4 40.001 40.6 40.101C40.7 40.201 40.9 40.301 41.1 40.301C41.4 40.401 41.9 40.501 42.3 40.501C42.7 40.501 43.2 40.501 43.6 40.401C44.1 40.301 44.5 40.201 45 40.001C45.9 39.701 46.8 39.301 47.6 38.801C48.1 38.501 48.5 38.101 48.8 37.801C49 37.601 49.1 37.401 49.2 37.201C49.3 37.001 49.4 36.801 49.4 36.601C49.4 36.501 49.4 36.401 49.4 36.401C49.4 35.801 49.3 35.201 49 34.601C48.7 34.101 48.3 33.601 47.8 33.201C47.4 32.901 47 32.701 46.6 32.401C46 32.101 45.3 31.801 44.5 31.501C44.3 31.401 44 31.301 43.7 31.201C43.4 31.001 43 30.901 42.6 30.601C41.8 30.201 40.9 29.601 39.7 28.901C37.8 27.701 35.3 26.001 32.3 24.001C28 21.101 23.8 18.101 21.7 16.601L20.9 16.001V24.901Z" fill="#062D4C"/>
<path d="M50.8 44.001C50.8 44.001 54.2 40.501 54.2 36.401C53 34.201 52.3 33.301 49.7 30.101C48.9 29.001 47.9 29.301 47.6 29.101C46.3 28.301 46.3 26.801 43.2 26.301C39.1 24.801 22.5 12.501 22.5 12.501" stroke="#1EC8BB" stroke-width="1.5" stroke-miterlimit="10" stroke-linecap="round" stroke-linejoin="round"/>
<path d="M69.7 71.001H2.3C1.6 71.001 1 70.401 1 69.701V2.30098C1 1.60098 1.6 1.00098 2.3 1.00098H69.7C70.4 1.00098 71 1.60098 71 2.30098V69.701C71 70.401 70.4 71.001 69.7 71.001Z" stroke="#E8E6D9" stroke-width="0.5" stroke-miterlimit="10"/>
</svg>
