<svg width="71" height="71" viewBox="0 0 71 71" fill="none" xmlns="http://www.w3.org/2000/svg">
<rect width="70.4" height="70.5" transform="translate(0 0.000976562)" fill="white"/>
<path d="M68.9 70.501H1.5C1.10537 70.4909 0.729689 70.3296 0.450549 70.0504C0.171409 69.7713 0.0101238 69.3956 0 69.001V1.50098C0.0101238 1.10634 0.171409 0.730666 0.450549 0.451526C0.729689 0.172385 1.10537 0.0111003 1.5 0.000976562H68.9C69.2946 0.0111003 69.6703 0.172385 69.9494 0.451526C70.2286 0.730666 70.3899 1.10634 70.4 1.50098V68.901C70.4 69.801 69.8 70.501 68.9 70.501ZM1.5 0.500977C0.9 0.500977 0.5 1.00098 0.5 1.50098V68.901C0.5 69.501 1 69.901 1.5 69.901H68.9C69.5 69.901 69.9 69.401 69.9 68.901V1.50098C69.9 0.900977 69.4 0.500977 68.9 0.500977H1.5Z" fill="#E8E6D9"/>
<path d="M36.7082 26.2898C36.0043 26.2898 34.5965 25.7863 32.8871 22.6648C31.6804 20.4495 30.876 17.63 30.6749 15.3141C30.6704 15.2468 30.6804 15.1794 30.7041 15.1163C30.7278 15.0532 30.7646 14.9959 30.8123 14.9482C30.8599 14.9005 30.9171 14.8636 30.9801 14.8399C31.0431 14.8161 31.1105 14.8062 31.1776 14.8106C31.2448 14.8062 31.3122 14.8161 31.3752 14.8399C31.4382 14.8636 31.4954 14.9005 31.543 14.9482C31.5906 14.9959 31.6275 15.0532 31.6512 15.1163C31.6749 15.1794 31.6849 15.2468 31.6804 15.3141C31.8815 17.5294 32.686 20.1474 33.7921 22.3627C34.9987 24.7794 36.2054 25.5849 36.7082 25.4842C37.6132 25.3835 38.4176 24.6787 39.021 23.3696C39.5237 22.262 39.926 20.8523 40.1271 19.2412C40.1271 18.9391 40.4287 18.7377 40.7304 18.8384C41.0321 18.8384 41.2332 19.1405 41.1326 19.4425C40.831 21.4564 39.8254 26.2898 36.8087 26.5919C36.8087 26.2898 36.7082 26.2898 36.7082 26.2898Z" fill="#062D4C"/>
<path d="M50.8872 37.6675C50.7866 37.6675 50.6861 37.6675 50.6861 37.5668C50.485 37.4661 50.3844 37.164 50.485 36.862C50.8872 36.1571 51.0883 33.6397 50.7866 29.914C50.5855 27.5981 49.9822 23.0668 48.3733 18.6363C47.5688 16.421 46.5633 14.6085 45.4572 13.1988C44.2505 11.5877 42.8427 10.48 41.435 9.87585C38.3177 8.66752 35.9044 8.76821 34.4966 8.9696C32.8877 9.27169 31.48 10.0772 30.7761 10.9835C30.2733 11.6884 30.0722 12.4939 30.2733 13.1988C30.3738 13.7022 30.7761 14.4071 31.6811 14.8099C32.385 15.112 33.4911 15.414 34.6977 15.7161C37.0105 16.2196 39.4238 16.8238 40.4294 18.0321C41.1333 18.8377 43.0438 21.0529 43.8483 22.9661C43.9488 23.2682 43.8483 23.4696 43.6472 23.671C43.3455 23.7717 43.1444 23.671 42.9433 23.4696C42.1388 21.6571 40.3288 19.5425 39.625 18.737C38.8205 17.73 36.4072 17.2265 34.3961 16.7231C33.1894 16.421 31.9827 16.1189 31.1783 15.8168C30.1727 15.3134 29.4688 14.5078 29.1672 13.5009C28.8655 12.4939 29.1672 11.3863 29.7705 10.3793C30.6755 9.17099 32.1838 8.36544 34.0944 7.96266C36.4072 7.55988 38.9211 7.86196 41.6361 8.86891C43.245 9.47308 44.8538 10.7821 46.1611 12.4939C47.4462 14.2462 48.4629 16.1807 49.1777 18.2335C50.8872 22.7647 51.4905 27.3967 51.6916 29.8134C51.9933 33.3377 51.7922 36.2578 51.2894 37.3654C51.2894 37.5668 51.0883 37.6675 50.8872 37.6675ZM34.9994 38.4731C34.4966 38.4731 33.8933 38.3724 33.4911 38.2717C32.4855 37.8689 31.6811 37.2647 31.2788 36.2578C30.5749 34.6467 32.6866 32.7335 34.8988 30.7196C36.1055 29.612 37.4127 28.5043 37.8149 27.6988C38.1166 26.9939 38.0161 26.6918 37.8149 25.8863C37.8149 25.6849 37.7144 25.5842 37.7144 25.3828C37.6138 25.0807 37.815 24.8793 38.1166 24.7786C38.4183 24.6779 38.6194 24.8793 38.72 25.1814C38.72 25.3828 38.8205 25.4835 38.8205 25.6849C39.0216 26.4904 39.2227 27.1953 38.72 28.2022C38.2172 29.2092 36.91 30.3168 35.6027 31.5252C33.9938 32.9349 31.7816 34.9488 32.2844 35.855C32.5861 36.5599 33.1894 37.0634 33.8933 37.3654C34.9994 37.7682 36.4072 37.5668 37.7144 36.862C37.9155 36.7613 38.2172 36.862 38.4183 37.0634C38.5188 37.2647 38.4183 37.5668 38.2172 37.7682C37.0105 38.171 36.005 38.4731 34.9994 38.4731Z" fill="#062D4C"/>
<path d="M33.59 62.6391H33.4894C33.2883 62.6391 32.685 62.5384 29.6683 60.7259L26.8528 59.0141C26.6516 58.8127 26.5511 58.5106 26.7522 58.3093C26.9533 58.1079 27.255 58.0072 27.4561 58.2086C29.97 59.8197 32.9866 61.6322 33.59 61.6322C33.6905 61.6322 34.2939 61.5315 37.1094 60.0211L40.0255 58.3093L45.7572 52.9724L51.7905 46.7294C51.8911 46.2259 51.4889 43.2051 50.5839 38.5731C49.6789 33.8405 48.8744 30.8197 48.5728 30.3162C47.8689 29.3093 47.4666 29.0072 46.7628 28.6044L45.2544 27.4968C44.0478 26.4898 43.7461 25.4829 43.4444 24.5766C43.3439 24.1738 43.2433 23.8718 43.0422 23.469C42.9416 23.2676 43.0422 22.9655 43.2433 22.7641C43.4444 22.6634 43.7461 22.7641 43.9472 22.9655C44.1483 23.3683 44.2489 23.7711 44.3494 24.1738C44.6511 25.0801 44.8522 25.7849 45.8578 26.5905C46.3605 27.094 46.8633 27.2954 47.2655 27.5974C47.9694 28.0002 48.5728 28.403 49.3772 29.6113C50.0811 30.719 51.3883 37.0627 51.5894 38.3717L52.4944 43.8092C52.8966 46.4273 52.6955 46.8301 52.6955 47.0315C52.595 47.2329 52.3939 47.837 46.4611 53.5766L40.6289 59.0141L40.5283 59.1148C40.5283 59.1148 39.1205 60.0211 37.5116 60.8266C34.5955 62.5384 33.8916 62.6391 33.59 62.6391ZM30.5733 58.8127C30.4697 58.8146 30.3676 58.7873 30.2787 58.7339C30.1898 58.6805 30.1176 58.6031 30.0705 58.5106C29.97 58.2086 30.0705 58.0072 30.3722 57.9065C31.4783 57.5037 32.9866 57.3023 34.8972 57.2016L37.1094 57.3023L46.1594 45.5211C46.0589 44.7155 44.5505 39.6808 43.2433 35.2502C43.1428 34.9481 43.3439 34.7468 43.545 34.6461C43.8466 34.5454 44.0478 34.7468 44.1483 34.9481C44.6243 36.6343 45.1271 38.3128 45.6566 39.9829C47.165 45.1183 47.165 45.5211 47.165 45.7224C47.165 45.9238 47.0644 46.3266 42.3383 52.3683L37.7128 58.2086C37.6019 58.3146 37.4617 58.3847 37.3105 58.4099C37.3105 58.4099 33.0872 58.0072 30.7744 58.9134C30.6739 58.712 30.6739 58.8127 30.5733 58.8127Z" fill="#062D4C"/>
<path d="M27.1551 59.1155C27.0545 59.1155 26.954 59.1154 26.8534 59.0148L25.6467 57.8064C25.4456 57.605 25.5462 57.303 25.7473 57.1016C25.9484 56.9002 26.2501 57.0009 26.4512 57.2023C26.7679 57.6201 27.14 57.9928 27.5573 58.3099C27.7584 58.5113 27.7584 58.8134 27.5573 59.0148C27.4567 59.0148 27.2556 59.1155 27.1551 59.1155ZM27.9595 42.5009C27.7584 42.5009 27.6578 42.4002 27.5573 42.2995C27.3562 42.0981 27.4567 41.796 27.6578 41.5946C28.8645 40.6884 30.1717 40.0842 31.6801 39.7821C32.9873 39.48 33.7917 38.3724 33.7917 37.8689C33.7873 37.8017 33.7972 37.7342 33.8209 37.6711C33.8446 37.608 33.8815 37.5507 33.9291 37.503C33.9767 37.4554 34.034 37.4184 34.097 37.3947C34.16 37.371 34.2273 37.361 34.2945 37.3654C34.3617 37.361 34.429 37.371 34.492 37.3947C34.5551 37.4184 34.6123 37.4554 34.6599 37.503C34.7075 37.5507 34.7444 37.608 34.7681 37.6711C34.7918 37.7342 34.8017 37.8017 34.7973 37.8689C34.7973 38.9766 33.5906 40.3863 31.8812 40.7891C30.574 41.0911 29.3673 41.5946 28.2612 42.4002C28.1606 42.5009 28.0601 42.5009 27.9595 42.5009ZM35.3001 31.4245C35.1995 31.4245 35.099 31.4245 34.9984 31.3238C32.8867 29.7127 29.9706 26.5911 28.8645 22.9661C27.859 19.7439 28.8645 16.1189 29.3673 14.2057L29.4678 14.0043C29.5684 13.7023 29.7695 13.6016 30.0712 13.6016C30.3728 13.7023 30.4734 13.9036 30.4734 14.2057L30.3728 14.5078C29.8701 16.421 28.9651 19.8446 29.8701 22.7648C30.3728 24.3759 31.2778 25.987 32.4845 27.5981C33.7917 29.2092 35.099 30.3168 35.6017 30.6189C35.8028 30.8203 35.9034 31.1224 35.7023 31.3238C35.6017 31.3238 35.5012 31.4245 35.3001 31.4245Z" fill="#062D4C"/>
<path d="M24.8436 56.6993C23.8917 56.7033 22.9484 56.5185 22.0682 56.1555C21.188 55.7926 20.3883 55.2587 19.7152 54.5847C19.0421 53.9107 18.509 53.1099 18.1466 52.2285C17.7841 51.347 17.5996 50.4025 17.6036 49.4493C17.5996 48.4961 17.7841 47.5515 18.1466 46.6701C18.509 45.7887 19.0421 44.9879 19.7152 44.3138C20.3883 43.6398 21.188 43.1059 22.0682 42.743C22.9484 42.3801 23.8917 42.1953 24.8436 42.1993C25.7955 42.1953 26.7387 42.3801 27.6189 42.743C28.4991 43.1059 29.2988 43.6398 29.9719 44.3138C30.645 44.9879 31.1782 45.7887 31.5406 46.6701C31.903 47.5515 32.0876 48.4961 32.0836 49.4493C32.0876 50.4025 31.903 51.347 31.5406 52.2285C31.1782 53.1099 30.645 53.9107 29.9719 54.5847C29.2988 55.2587 28.4991 55.7926 27.6189 56.1555C26.7387 56.5185 25.7955 56.7033 24.8436 56.6993ZM24.8436 43.2062C21.4247 43.2062 18.6091 46.0257 18.6091 49.4493C18.6091 52.8729 21.4247 55.6923 24.8436 55.6923C28.2625 55.6923 31.078 52.8729 31.078 49.4493C31.078 46.0257 28.2625 43.2062 24.8436 43.2062ZM21.5252 53.2757C21.4247 53.2757 21.2236 53.2757 21.123 53.175C20.9219 52.9736 20.9219 52.6715 21.123 52.4701L27.7597 45.8243C27.9608 45.6229 28.2625 45.6229 28.4636 45.8243C28.6647 46.0257 28.6647 46.3278 28.4636 46.5291L21.8269 53.175C21.8269 53.2757 21.6258 53.2757 21.5252 53.2757Z" fill="#1EC8BB"/>
<path d="M28.1624 53.2763C28.0618 53.2763 27.8607 53.2763 27.7602 53.1756L21.1235 46.5297C20.9224 46.3283 20.9224 46.0263 21.1235 45.8249C21.3246 45.6235 21.6263 45.6235 21.8274 45.8249L28.464 52.4707C28.6652 52.6721 28.6652 52.9742 28.464 53.1756C28.464 53.2763 28.3635 53.2763 28.1624 53.2763Z" fill="#1EC8BB"/>
</svg>
