<svg width="72" height="72" viewBox="0 0 72 72" fill="none" xmlns="http://www.w3.org/2000/svg">
<rect width="70" height="70" transform="translate(1 1.00098)" fill="white"/>
<path d="M69.7 71.001H2.3C1.6 71.001 1 70.401 1 69.701V2.30098C1 1.60098 1.6 1.00098 2.3 1.00098H69.7C70.4 1.00098 71 1.60098 71 2.30098V69.701C71 70.401 70.4 71.001 69.7 71.001Z" stroke="#E8E6D9" stroke-width="0.5" stroke-miterlimit="10"/>
<path d="M43.4004 18.801C40.4004 18.801 38.0004 16.401 38.0004 13.401C38.0004 10.401 40.4004 8.00098 43.4004 8.00098C46.4004 8.00098 48.8004 10.401 48.8004 13.401C48.8004 16.401 46.4004 18.801 43.4004 18.801ZM43.4004 9.90098C41.5004 9.90098 39.9004 11.501 39.9004 13.401C39.9004 15.301 41.5004 16.901 43.4004 16.901C45.3004 16.901 46.9004 15.301 46.9004 13.401C46.9004 11.501 45.4004 9.90098 43.4004 9.90098ZM44.5004 64.001C43.5239 63.9855 42.5918 63.5907 41.9012 62.9002C41.2107 62.2096 40.8159 61.2775 40.8004 60.301V50.001C40.8042 49.7948 40.7499 49.5917 40.6438 49.4149C40.5377 49.2381 40.3841 49.0947 40.2004 49.001L30.4004 43.901C28.6004 43.001 27.4004 41.101 27.4004 39.101V38.901C27.3966 37.5682 27.884 36.2807 28.7694 35.2845C29.6549 34.2884 30.8764 33.6534 32.2004 33.501L39.0004 21.101C40.0004 19.301 42.2004 18.601 44.0004 19.501C44.9004 20.001 45.6004 20.801 46.0004 21.801C46.3004 22.801 46.2004 23.901 45.7004 24.801L38.3004 38.301L46.8004 43.601C47.7004 44.201 48.2004 45.101 48.2004 46.101V60.301C48.185 61.2775 47.7902 62.2096 47.0996 62.9002C46.409 63.5907 45.4769 63.9855 44.5004 64.001ZM32.8004 35.301C30.9004 35.301 29.3004 36.901 29.3004 38.801V39.001C29.3004 40.401 30.1004 41.601 31.3004 42.201L41.1004 47.301C42.1004 47.801 42.7004 48.801 42.7004 50.001V60.301C42.7004 60.7784 42.8901 61.2362 43.2276 61.5738C43.5652 61.9113 44.023 62.101 44.5004 62.101C44.9778 62.101 45.4356 61.9113 45.7732 61.5738C46.1108 61.2362 46.3004 60.7784 46.3004 60.301V46.101C46.3004 45.701 46.1004 45.301 45.8004 45.101L35.8004 38.901L44.0004 23.901C44.3004 23.401 44.3004 22.901 44.2004 22.401C44.0004 21.901 43.7004 21.501 43.2004 21.201C42.3004 20.701 41.1004 21.101 40.6004 22.001L33.3004 35.301H32.8004Z" fill="#062D4C"/>
<path d="M32.7996 38.6012C31.6881 38.5933 30.6244 38.1483 29.8384 37.3623C29.0525 36.5764 28.6075 35.5127 28.5996 34.4012C28.6075 33.2897 29.0525 32.226 29.8384 31.44C30.6244 30.654 31.6881 30.209 32.7996 30.2012C33.9111 30.209 34.9748 30.654 35.7608 31.44C36.5467 32.226 36.9918 33.2897 36.9996 34.4012C36.9918 35.5127 36.5467 36.5764 35.7608 37.3623C34.9748 38.1483 33.9111 38.5933 32.7996 38.6012ZM32.7996 32.0012C32.4961 31.9957 32.1946 32.0515 31.9131 32.1652C31.6316 32.2789 31.3759 32.4481 31.1612 32.6628C30.9465 32.8774 30.7773 33.1331 30.6636 33.4146C30.55 33.6961 30.4942 33.9976 30.4996 34.3012C30.4942 34.6047 30.55 34.9062 30.6636 35.1877C30.7773 35.4692 30.9465 35.7249 31.1612 35.9396C31.3759 36.1543 31.6316 36.3235 31.9131 36.4371C32.1946 36.5508 32.4961 36.6066 32.7996 36.6012C33.1031 36.6066 33.4047 36.5508 33.6862 36.4371C33.9677 36.3235 34.2234 36.1543 34.438 35.9396C34.6527 35.7249 34.8219 35.4692 34.9356 35.1877C35.0492 34.9062 35.105 34.6047 35.0996 34.3012C35.0996 33.1012 34.0996 32.0012 32.7996 32.0012Z" fill="#1EC8BB"/>
<path d="M26.8372 27.7915L28.6392 27.1895L29.8442 30.7935L28.0422 31.3955L26.8372 27.7915ZM23.2012 31.4605L24.0492 29.7605L27.0022 31.2335L26.1542 32.9335L23.2012 31.4605ZM23.5942 34.7195L27.1032 33.5465L27.7052 35.3485L24.1962 36.5215L23.5942 34.7195Z" fill="#062D4C"/>
</svg>
