<svg width="72" height="72" viewBox="0 0 72 72" fill="none" xmlns="http://www.w3.org/2000/svg">
<rect width="70" height="70" transform="translate(1 1.00098)" fill="white"/>
<path d="M69.7 71.001H2.3C1.6 71.001 1 70.401 1 69.701V2.30098C1 1.60098 1.6 1.00098 2.3 1.00098H69.7C70.4 1.00098 71 1.60098 71 2.30098V69.701C71 70.401 70.4 71.001 69.7 71.001Z" stroke="#E8E6D9" stroke-width="0.5" stroke-miterlimit="10"/>
<path d="M11.6 66.4007C11.1 66.4007 10.8 66.0007 10.9 65.6007C12.2 51.8007 14.9 41.6007 16.9 36.7007C19.1 31.5007 24.5 27.4007 31.5 25.8007L44.2 22.9007C45.6 22.6007 46.7 21.8007 47.2 20.8007L49.5 15.3007C49.7 14.9007 50.1 14.7007 50.5 14.9007C50.9 15.1007 51.1 15.5007 50.9 15.9007L48.6 21.4007C48 22.9007 46.5 24.0007 44.6 24.4007L31.9 27.3007C25.5 28.8007 20.4 32.5007 18.4 37.3007C16.4 42.1007 13.8 52.1007 12.5 65.8007C12.3 66.1007 12 66.4007 11.6 66.4007Z" fill="#062D4C"/>
<path d="M60.3997 20.6013C53.0997 20.6013 46.5997 15.1013 43.5997 6.60126C43.4997 6.20126 43.6997 5.80126 44.0997 5.70126C44.4997 5.60126 44.8997 5.80126 44.9997 6.20126C47.6997 14.1013 53.7997 19.2013 60.3997 19.2013C60.4924 19.1985 60.5846 19.2147 60.6708 19.2489C60.757 19.2831 60.8353 19.3346 60.9008 19.4001C60.9664 19.4657 61.0179 19.544 61.0521 19.6301C61.0863 19.7163 61.1025 19.8086 61.0997 19.9013C61.1025 19.9939 61.0863 20.0862 61.0521 20.1724C61.0179 20.2586 60.9664 20.3368 60.9008 20.4024C60.8353 20.468 60.757 20.5194 60.6708 20.5536C60.5846 20.5878 60.4924 20.604 60.3997 20.6013Z" fill="#062D4C"/>
<path d="M31.2003 66.401H30.9003C30.5003 66.301 30.3003 65.801 30.5003 65.401C31.4003 62.801 32.2003 59.901 32.7003 56.801C32.8003 56.401 33.1003 56.101 33.6003 56.201C34.0003 56.301 34.3003 56.601 34.2003 57.101C33.7003 60.301 32.9003 63.301 32.0003 66.001C31.8003 66.201 31.5003 66.401 31.2003 66.401Z" fill="#062D4C"/>
<path d="M42.5012 66.4008C37.2012 66.4008 32.9012 62.2008 32.7012 56.9008C32.7012 56.5008 33.0012 56.1008 33.4012 56.1008C33.8012 56.1008 34.2012 56.4008 34.2012 56.8008C34.3012 61.3008 38.0012 64.8008 42.5012 64.8008C42.5938 64.7981 42.6861 64.8143 42.7723 64.8485C42.8585 64.8827 42.9367 64.9341 43.0023 64.9997C43.0679 65.0652 43.1193 65.1435 43.1535 65.2297C43.1877 65.3159 43.2039 65.4081 43.2012 65.5008C43.2012 65.9008 42.9012 66.4008 42.5012 66.4008ZM60.4012 29.0008C59.5012 29.0008 58.7012 28.7008 57.9012 28.2008L55.4012 26.4008C55.2534 26.2859 55.1518 26.1216 55.1151 25.938C55.0784 25.7544 55.1089 25.5638 55.2012 25.4008C55.3161 25.253 55.4804 25.1515 55.664 25.1148C55.8476 25.078 56.0382 25.1086 56.2012 25.2008L58.7012 27.0008C59.2012 27.3008 59.8012 27.5008 60.3012 27.5008C60.7012 27.5008 61.0012 27.8008 61.1012 28.2008C61.2012 28.6008 60.8012 29.0008 60.4012 29.0008Z" fill="#062D4C"/>
<path d="M20.5006 66.4008H20.4006C20.0006 66.3008 19.7006 66.0008 19.8006 65.5008L23.0006 45.5008C23.3006 43.8008 24.3006 42.4008 25.7006 41.6008C26.8006 41.0008 27.9006 40.8008 29.1006 41.0008C32.1006 41.5008 34.0006 44.2008 33.5006 47.2008C33.3006 48.4008 32.6006 51.3008 30.4006 52.5008C29.0006 53.2008 28.6006 54.5008 28.3006 56.7008L27.0006 65.1008L26.9006 65.8008C26.8006 66.2008 26.5006 66.5008 26.0006 66.4008C25.6006 66.3008 25.3006 66.0008 25.4006 65.5008L25.5006 64.8008L26.8006 56.4008C27.1006 54.3008 27.6006 52.2008 29.7006 51.1008C30.8006 50.5008 31.7006 49.0008 32.0006 46.9008C32.4006 44.7008 31.0006 42.8008 28.8006 42.5008C27.9786 42.3876 27.1415 42.5271 26.4006 42.9008C25.4006 43.5008 24.6006 44.5008 24.4006 45.8008L21.2006 65.8008C21.2006 66.1008 20.9006 66.4008 20.5006 66.4008Z" fill="#1EC8BB"/>
<path d="M49.2004 63.8012C49.1004 63.8012 49.1004 63.8012 49.2004 63.8012C47.9004 63.8012 46.9004 63.1012 46.3004 62.1012C42.4004 55.2012 36.9004 48.5012 31.9004 44.6012C31.6004 44.3012 31.5004 43.9012 31.8004 43.6012C32.1004 43.3012 32.5004 43.2012 32.8004 43.5012C37.9004 47.5012 43.6004 54.4012 47.6004 61.4012C47.9004 62.0012 48.5004 62.3012 49.2004 62.3012C49.9004 62.3012 50.5004 62.0012 50.8004 61.4012L53.1004 57.8012C53.9141 56.5955 54.3013 55.1523 54.2004 53.7012L53.6004 40.7012C53.5004 39.4012 53.2004 38.1012 52.5004 37.0012L49.3004 31.5012C49.2535 31.4093 49.1818 31.3325 49.0934 31.2795C49.005 31.2264 48.9035 31.1993 48.8004 31.2012C48.6004 31.2012 48.4004 31.3012 48.2004 31.4012L46.8004 33.1012C46.7004 33.2012 46.6004 33.3012 46.5004 33.3012L40.8004 36.0012C39.5004 36.6012 37.9004 36.2012 37.0004 35.1012L36.5004 34.5012C36.1004 34.0012 35.4004 33.8012 34.8004 34.2012L31.7004 36.0012C31.2004 36.3012 31.0004 36.8012 31.0004 37.3012L31.6004 42.4012C31.6004 42.8012 31.4004 43.2012 30.9004 43.2012C30.5004 43.2012 30.1004 43.0012 30.1004 42.5012L29.5004 37.4012C29.4004 36.3012 29.9004 35.2012 30.9004 34.6012L34.1004 32.8012C35.3004 32.1012 36.8004 32.4012 37.7004 33.5012L38.2004 34.1012C38.7004 34.7012 39.5004 34.9012 40.2004 34.6012L45.8004 32.0012L47.1004 30.5012C47.5004 30.0012 48.2004 29.7012 48.9004 29.7012C49.6004 29.8012 50.2004 30.2012 50.6004 30.8012L53.8004 36.3012C54.6004 37.6012 55.0004 39.2012 55.1004 40.7012L55.7004 53.7012C55.7948 55.4307 55.3398 57.1459 54.4004 58.6012L52.0004 62.2012C51.4004 63.2012 50.3004 63.8012 49.2004 63.8012ZM44.5004 51.6012C44.2004 51.6012 43.9004 51.4012 43.8004 51.2012C43.0004 49.4012 41.0004 46.7012 38.1004 43.5012C37.5004 42.8012 37.3004 41.9012 37.4004 41.0012C37.6004 40.1012 38.2004 39.4012 39.0004 39.0012L43.2004 37.0012C44.1122 36.6016 45.1261 36.4967 46.1004 36.7012L47.6004 37.0012C48.5004 37.2012 49.3004 37.7012 50.0004 38.3012L51.6004 40.1012C51.9004 40.4012 51.9004 40.9012 51.6004 41.2012C51.3004 41.5012 50.8004 41.5012 50.5004 41.2012L48.9004 39.4012C48.5004 38.9012 47.9004 38.6012 47.3004 38.5012L45.8004 38.2012C45.2004 38.1012 44.5004 38.1012 43.9004 38.4012L39.7004 40.4012C39.3004 40.6012 39.0004 40.9012 39.0004 41.4012C38.9004 41.8012 39.0004 42.2012 39.3004 42.6012C41.4004 45.0012 44.2004 48.3012 45.3004 50.7012C45.5004 51.1012 45.3004 51.5012 44.9004 51.7012C44.7004 51.6012 44.6004 51.6012 44.5004 51.6012ZM32.3004 49.6012C32.1004 49.6012 31.9004 49.5012 31.8004 49.4012L25.0004 43.2012C24.7004 42.9012 24.7004 42.5012 25.0004 42.1012C25.3004 41.8012 25.7004 41.8012 26.1004 42.1012L32.9004 48.4012C33.2004 48.7012 33.2004 49.1012 32.9004 49.5012C32.7004 49.5012 32.5004 49.6012 32.3004 49.6012Z" fill="#1EC8BB"/>
<path d="M32.9997 45.3011H32.8997C32.4997 45.2011 32.1997 44.8011 32.2997 44.4011C33.0997 40.2011 31.5997 35.0011 31.5997 34.9011C31.4997 34.5011 31.6997 34.1011 32.0997 34.0011C32.4997 33.9011 32.8997 34.1011 32.9997 34.5011C33.0997 34.7011 34.4997 40.2011 33.6997 44.7011C33.6997 45.1011 33.2997 45.3011 32.9997 45.3011Z" fill="#1EC8BB"/>
</svg>
