<svg width="72" height="72" viewBox="0 0 72 72" fill="none" xmlns="http://www.w3.org/2000/svg">
<rect width="70" height="70" transform="translate(1.00781 1)" fill="white"/>
<path d="M69.7078 71H2.30781C1.60781 71 1.00781 70.4 1.00781 69.7V2.3C1.00781 1.6 1.60781 1 2.30781 1H69.7078C70.4078 1 71.0078 1.6 71.0078 2.3V69.7C71.0078 70.4 70.4078 71 69.7078 71Z" stroke="#E8E6D9" stroke-width="0.5" stroke-miterlimit="10"/>
<path d="M61.9078 28.2004C60.9078 23.9004 58.9078 19.8004 56.1078 16.1004C52.0078 10.8004 46.8078 7.50039 40.6078 6.30039L38.8078 6.00039C38.5078 6.00039 38.2078 5.90039 38.0078 5.90039H34.2078C34.0078 5.90039 33.7078 6.00039 33.5078 6.00039C33.0078 6.10039 32.5078 6.20039 32.0078 6.20039C27.6078 7.00039 23.6078 8.90039 20.1078 11.9004C19.6078 12.3004 19.6078 12.8004 19.9078 13.2004C20.2078 13.6004 20.8078 13.6004 21.3078 13.3004C21.5078 13.2004 21.7078 13.0004 21.8078 12.9004C22.0078 12.7004 22.3078 12.5004 22.5078 12.3004C25.3078 10.2004 28.3078 8.80039 31.4078 8.10039C34.5078 7.40039 37.8078 7.40039 41.2078 8.20039C47.1078 9.60039 52.0078 13.0004 55.6078 18.3004C58.3078 22.2004 60.0078 26.5004 60.7078 30.9004C61.4078 35.2004 61.1078 39.7004 59.9078 44.5004C59.3078 46.7004 58.4078 48.9004 57.2078 51.1004C56.3078 48.6004 54.6078 46.6004 52.2078 45.1004C52.2078 45.0004 52.3078 45.0004 52.3078 44.9004C52.4078 44.8004 52.4078 44.7004 52.5078 44.5004C53.5078 42.7004 54.2078 40.7004 54.5078 38.7004C54.6078 38.2004 54.3078 37.7004 53.9078 37.6004C53.4078 37.5004 52.9078 37.7004 52.8078 38.2004C52.8078 38.3004 52.7078 38.4004 52.7078 38.5004V38.6004C52.3247 40.5395 51.6146 42.3994 50.6078 44.1004C47.7078 43.2004 45.1078 43.0004 42.8078 43.5004C40.3078 44.1004 38.2078 45.5004 36.3078 47.8004C34.6078 45.6004 32.4078 44.1004 29.8078 43.5004C27.3078 42.9004 24.7078 43.1004 22.0078 44.1004C20.8078 42.2004 19.8078 39.4004 19.6078 37.2004C19.4078 34.3004 19.8078 31.5004 20.7078 29.1004C21.7078 26.7004 23.3078 24.5004 25.6078 22.6004C26.8078 21.6004 28.2078 20.6004 29.9078 20.2004C30.6078 20.0004 31.3078 20.1004 31.7078 20.4004C32.1078 20.7004 32.4078 21.2004 32.5078 21.9004C32.6078 22.9004 32.7078 24.0004 32.5078 25.3004C32.4078 26.6004 31.8078 27.7004 31.3078 28.8004C31.2078 29.0004 31.1078 29.1004 31.0078 29.3004C30.1078 31.1004 29.9078 32.8004 30.3078 34.5004C30.7078 36.0004 31.5078 37.3004 32.8078 38.1004C34.0078 38.9004 35.5078 39.3004 37.1078 39.1004C38.5078 38.9004 39.8078 38.2004 40.7078 37.1004C41.7078 36.0004 42.2078 34.5004 42.2078 33.0004C42.2078 31.5004 41.8078 30.1004 40.9078 28.5004C39.9078 26.7004 39.5078 24.6004 39.8078 22.3004C39.9078 21.5004 40.2078 20.8004 40.7078 20.5004C41.2078 20.1004 41.9078 20.1004 42.7078 20.2004C43.2078 20.3004 43.5078 20.4004 43.8078 20.6004C46.5078 22.1004 48.6078 23.9004 50.1078 26.2004C51.6078 28.4004 52.5078 31.1004 52.9078 34.1004C53.0078 34.8004 53.3078 35.2004 53.9078 35.2004C54.5078 35.2004 54.8078 34.7004 54.7078 34.0004C54.3078 29.4004 52.4078 25.4004 49.1078 22.1004C47.2078 20.3004 45.4078 19.1004 43.5078 18.5004C42.1078 18.1004 40.8078 18.1004 39.8078 18.8004C38.8078 19.4004 38.2078 20.4004 38.0078 21.7004C37.8078 23.0004 37.9078 24.4004 38.0078 25.8004C38.1078 27.2004 38.7078 28.4004 39.3078 29.6004L39.6078 30.2004C40.2078 31.4004 40.4078 32.6004 40.3078 33.8004C40.0078 35.8004 38.2078 37.4004 36.2078 37.4004C34.1078 37.4004 32.4078 35.8004 32.1078 33.8004C31.9078 32.5004 32.2078 31.1004 33.0078 29.8004C34.3078 27.4004 34.8078 24.9004 34.5078 22.1004C34.4078 20.8004 33.8078 19.7004 33.0078 19.1004C32.2078 18.5004 31.2078 18.2004 30.0078 18.3004C29.2078 18.4004 28.3078 18.7004 27.4078 19.2004C23.0078 21.6004 19.8078 25.5004 18.4078 30.3004C17.7078 32.6004 17.5078 35.0004 17.7078 37.5004C18.0078 40.0004 18.7078 42.4004 19.9078 44.6004C20.0078 44.7004 20.0078 44.8004 20.1078 44.9004C20.1078 45.0004 20.2078 45.0004 20.2078 45.1004C17.8078 46.5004 16.2078 48.5004 15.2078 51.0004L15.1078 50.9004C15.0078 50.8004 15.0078 50.7004 14.9078 50.6004C13.3078 47.5004 12.2078 44.2004 11.7078 40.8004C11.1918 37.3837 11.2256 33.9064 11.8078 30.5004C12.7078 25.1004 14.8078 20.3004 18.3078 16.2004C18.8078 15.7004 18.8078 15.1004 18.3078 14.7004C18.1078 14.5004 17.9078 14.4004 17.7078 14.5004C17.4078 14.5004 17.1078 14.7004 16.9078 15.0004C15.1078 17.2004 13.6078 19.6004 12.4078 22.1004C11.0078 25.3004 10.1078 28.7004 9.70777 32.0004C9.30777 35.3004 9.50777 38.8004 10.2078 42.3004C11.3078 48.2004 13.9078 53.3004 17.8078 57.6004C21.7078 61.8004 26.4078 64.5004 31.7078 65.5004L33.5078 65.8004C33.8078 65.8004 34.1078 65.9004 34.3078 65.9004H38.1078C38.4078 65.8004 38.8078 65.8004 39.1078 65.7004C39.8078 65.6004 40.6078 65.5004 41.3078 65.3004C44.0078 64.7004 46.6078 63.7004 49.0078 62.2004C51.2078 60.8004 53.3078 59.0004 55.2078 56.8004C59.0078 52.4004 61.4078 47.2004 62.3078 41.4004C63.0078 36.9004 62.8078 32.4004 61.9078 28.2004ZM35.1078 57.6004V58.2004C35.2078 58.7004 35.5078 58.9004 36.0078 58.9004C36.5078 58.9004 36.8078 58.6004 36.9078 58.2004V57.6004V55.5004V50.5004C36.9078 50.1004 37.0078 49.7004 37.2078 49.5004C39.3078 46.3004 42.4078 44.9004 46.4078 45.2004C49.2078 45.4004 51.5078 46.5004 53.3078 48.5004C54.4648 49.7139 55.2311 51.2467 55.5078 52.9004C55.5078 53.1004 55.5078 53.4004 55.4078 53.5004C53.3078 56.4004 51.0078 58.7004 48.4078 60.4004C45.7078 62.2004 42.6078 63.4004 39.2078 63.9004C33.5078 64.8004 28.1078 63.5004 23.0078 60.0004C20.6078 58.3004 18.4078 56.1004 16.6078 53.5004C16.4078 53.3004 16.4078 52.9004 16.4078 52.7004C17.3078 48.9004 19.8078 46.4004 23.8078 45.4004C24.8078 45.2004 25.7078 45.0004 26.6078 45.0004C28.5078 45.0004 30.3078 45.5004 31.9078 46.6004C33.0078 47.3004 33.9078 48.3004 34.7078 49.5004C34.8078 49.7004 34.9078 50.0004 34.9078 50.3004V53.0004V53.9004V54.8004C35.1078 55.9004 35.1078 56.8004 35.1078 57.6004Z" fill="#062D4C"/>
<path d="M46.608 37.0998C46.608 37.0998 47.708 36.2998 47.108 35.7998C46.508 35.2998 46.208 35.4998 46.308 34.8998C46.408 34.3998 45.508 34.7998 45.208 35.1998C44.908 35.6998 45.408 36.2998 45.708 36.4998C46.008 36.6998 46.308 37.2998 46.608 37.0998ZM49.808 38.9998C49.808 38.9998 49.808 37.5998 49.008 37.7998C48.208 37.9998 48.208 38.2998 47.908 37.8998C47.608 37.4998 47.308 38.4998 47.508 38.9998C47.708 39.4998 48.508 39.4998 48.808 39.3998C49.108 39.2998 49.708 39.2998 49.808 38.9998ZM50.008 31.7998C50.008 31.7998 48.608 31.8998 48.908 32.6998C49.108 33.3998 49.508 33.3998 49.108 33.7998C48.708 34.1998 49.708 34.2998 50.208 33.9998C50.708 33.7998 50.608 32.8998 50.408 32.5998C50.308 32.3998 50.308 31.7998 50.008 31.7998ZM23.508 33.4998C23.508 33.4998 22.108 33.5998 22.408 34.3998C22.608 35.0998 23.008 35.0998 22.608 35.4998C22.208 35.8998 23.208 35.9998 23.708 35.6998C24.208 35.4998 24.108 34.5998 23.908 34.2998C23.808 34.0998 23.808 33.4998 23.508 33.4998ZM20.408 38.6998C20.408 38.6998 21.408 39.6998 21.808 38.9998C22.208 38.2998 22.008 37.9998 22.508 38.0998C23.008 38.1998 22.508 37.2998 22.008 37.0998C21.508 36.8998 20.908 37.4998 20.808 37.7998C20.608 38.0998 20.208 38.4998 20.408 38.6998ZM25.508 39.1998C25.508 39.1998 24.608 38.1998 24.108 38.7998C23.608 39.3998 23.908 39.6998 23.308 39.6998C22.808 39.5998 23.308 40.4998 23.808 40.7998C24.308 41.0998 24.908 40.4998 25.108 40.1998C25.308 39.8998 25.708 39.4998 25.508 39.1998Z" fill="#1EC8BB"/>
</svg>
