<svg width="72" height="72" viewBox="0 0 72 72" fill="none" xmlns="http://www.w3.org/2000/svg">
<rect width="70" height="70" transform="translate(1 1.00098)" fill="white"/>
<path d="M69.7 71.001H2.3C1.6 71.001 1 70.401 1 69.701V2.30098C1 1.60098 1.6 1.00098 2.3 1.00098H69.7C70.4 1.00098 71 1.60098 71 2.30098V69.701C71 70.401 70.4 71.001 69.7 71.001Z" stroke="#E8E6D9" stroke-width="0.5" stroke-miterlimit="10"/>
<path d="M13.4002 65.6014C13.1002 65.6014 12.9002 65.4014 12.9002 65.2014C10.7002 53.1014 10.5002 30.5014 12.5002 21.4014C12.9002 19.6014 13.5002 17.8014 14.1002 16.0014C15.1002 13.0014 16.1002 9.90142 16.1002 6.90142C16.0958 6.83461 16.1057 6.76763 16.1293 6.70497C16.1528 6.6423 16.1895 6.58539 16.2368 6.53805C16.2842 6.49071 16.3411 6.45403 16.4038 6.43046C16.4664 6.4069 16.5334 6.397 16.6002 6.40142C16.667 6.397 16.734 6.4069 16.7967 6.43046C16.8593 6.45403 16.9162 6.49071 16.9636 6.53805C17.0109 6.58539 17.0476 6.6423 17.0712 6.70497C17.0947 6.76763 17.1046 6.83461 17.1002 6.90142C17.1002 10.0014 16.0002 13.2014 15.0002 16.3014C14.4002 18.1014 13.8002 19.8014 13.5002 21.5014C11.5002 30.6014 11.8002 52.9014 14.0002 64.9014C14.0002 65.3014 13.8002 65.5014 13.4002 65.6014ZM58.6002 65.6014C58.2002 65.5014 58.0002 65.3014 58.1002 65.0014C60.3002 53.0014 60.5002 30.7014 58.6002 21.6014C58.2002 19.9014 57.7002 18.2014 57.1002 16.4014C56.1002 13.3014 55.0002 10.1014 55.0002 7.00142C54.9958 6.93461 55.0057 6.86763 55.0293 6.80497C55.0528 6.7423 55.0895 6.68539 55.1368 6.63805C55.1842 6.59071 55.2411 6.55403 55.3038 6.53046C55.3664 6.5069 55.4334 6.497 55.5002 6.50142C55.8002 6.50142 56.0002 6.60142 56.0002 6.90142C56.0002 9.90142 57.0002 13.0014 58.0002 16.0014C58.6002 17.8014 59.2002 19.6014 59.6002 21.4014C61.6002 30.6014 61.3002 53.1014 59.2002 65.2014C59.1002 65.4014 58.9002 65.6014 58.6002 65.6014ZM36.0002 42.4014C31.3002 42.1014 31.2002 38.5014 31.2002 35.7014C31.2002 34.6014 31.2002 33.5014 31.0002 32.7014C30.5002 30.8014 28.1002 28.1014 26.2002 26.0014C26.1038 25.8904 26.0508 25.7484 26.0508 25.6014C26.0508 25.4544 26.1038 25.3124 26.2002 25.2014C26.3112 25.105 26.4532 25.052 26.6002 25.052C26.7472 25.052 26.8892 25.105 27.0002 25.2014C29.0002 27.4014 31.4002 30.1014 32.0002 32.3014C32.3002 33.3014 32.3002 34.5014 32.3002 35.6014C32.3002 38.5014 32.3002 41.0014 36.0002 41.3014C36.3002 41.3014 36.5002 41.6014 36.5002 41.9014C36.5046 41.9682 36.4947 42.0352 36.4712 42.0979C36.4476 42.1605 36.4109 42.2174 36.3636 42.2648C36.3162 42.3121 36.2593 42.3488 36.1967 42.3724C36.134 42.3959 36.067 42.4058 36.0002 42.4014Z" fill="#062D4C"/>
<path d="M36.0001 42.4012C35.9333 42.4056 35.8663 42.3957 35.8036 42.3722C35.741 42.3486 35.6841 42.3119 35.6367 42.2646C35.5894 42.2172 35.5527 42.1603 35.5291 42.0977C35.5056 42.035 35.4957 41.968 35.5001 41.9012C35.5001 41.6012 35.7001 41.4012 36.0001 41.3012C39.7001 41.1012 39.7001 38.6012 39.7001 35.6012C39.7001 34.5012 39.7001 33.3012 40.0001 32.3012C40.6001 30.1012 43.1001 27.4012 45.0001 25.2012C45.2001 25.0012 45.5001 25.0012 45.8001 25.2012C46.0001 25.4012 46.0001 25.7012 45.8001 26.0012C43.9001 28.1012 41.5001 30.7012 41.0001 32.7012C40.8001 33.6012 40.8001 34.6012 40.8001 35.7012C40.8001 38.6012 40.7001 42.1012 36.0001 42.4012ZM36.8001 10.7012C36.0001 10.7012 35.4001 10.3012 35.0001 9.70121C34.9001 9.40121 34.9001 9.10121 35.2001 9.00121C35.5001 8.90121 35.8001 8.90121 35.9001 9.20121C36.0001 9.50121 36.4001 9.60121 36.7001 9.60121C37.1001 9.60121 37.4001 9.50121 37.5001 9.20121C37.8001 9.00121 38.1001 9.00121 38.3001 9.10121C38.5001 9.30121 38.6001 9.60121 38.4001 9.80121C38.1001 10.4012 37.5001 10.7012 36.8001 10.7012ZM33.0001 65.6012C32.6001 65.6012 32.4001 65.3012 32.5001 65.0012L33.1001 60.2012C33.8001 54.1012 34.5001 48.9012 34.2001 41.7012C34.2001 41.4012 34.4001 41.2012 34.7001 41.1012C35.0001 41.1012 35.2001 41.3012 35.3001 41.6012C35.6001 48.9012 34.9001 54.1012 34.2001 60.3012L33.6001 65.1012C33.5001 65.4012 33.2001 65.6012 33.0001 65.6012Z" fill="#062D4C"/>
<path d="M38.9998 65.6016C38.933 65.606 38.8661 65.5961 38.8034 65.5725C38.7407 65.549 38.6838 65.5123 38.6365 65.4649C38.5891 65.4176 38.5525 65.3607 38.5289 65.298C38.5053 65.2353 38.4954 65.1684 38.4998 65.1016L37.8998 60.3016C37.1998 54.2016 36.4998 48.9016 36.7998 41.6016C36.7998 41.3016 37.0998 41.1016 37.3998 41.1016C37.6998 41.1016 37.8998 41.4016 37.8998 41.7016C37.5998 48.9016 38.2998 54.1016 38.9998 60.2016L39.5998 65.0016C39.5998 65.3016 39.3998 65.6016 38.9998 65.6016Z" fill="#062D4C"/>
<path d="M41.3788 13.066C41.9264 11.1547 39.874 8.89017 36.7947 8.00799C33.7155 7.12582 30.7753 7.96007 30.2278 9.87135C29.6802 11.7826 31.7326 14.0472 34.8119 14.9294C37.8912 15.8115 40.8313 14.9773 41.3788 13.066Z" fill="white"/>
<path d="M29.7993 11.8011C29.4993 11.1011 29.3993 10.4011 29.5993 9.70112C29.8993 8.60112 30.8993 7.80112 32.2993 7.40112C33.5993 7.00112 35.2993 7.10112 36.7993 7.50112C40.1993 8.50112 42.3993 11.0011 41.7993 13.2011C41.4993 14.3011 40.4993 15.1011 39.0993 15.5011C37.7993 15.9011 36.0993 15.8011 34.5993 15.4011C32.2993 14.8011 30.4993 13.3011 29.7993 11.8011ZM40.7993 11.6011C40.2993 10.4011 38.6993 9.10112 36.6993 8.50112C35.2993 8.10112 33.8993 8.10112 32.6993 8.40112C31.5993 8.70112 30.8993 9.30112 30.6993 10.0011C30.1993 11.6011 32.1993 13.6011 34.9993 14.4011C36.3993 14.8011 37.7993 14.8011 38.9993 14.5011C40.0993 14.2011 40.7993 13.6011 40.9993 12.9011C40.9993 12.5011 40.9993 12.1011 40.7993 11.6011ZM31.8993 16.8011C31.8993 16.9011 31.8993 17.0011 31.7993 17.0011C31.6993 17.2011 31.3993 17.3011 31.1993 17.2011L26.6993 15.4011L26.3993 17.7011C26.3993 17.9011 26.1993 18.1011 25.9993 18.1011C25.7993 18.2011 25.5993 18.1011 25.4993 18.0011L19.5993 12.5011C19.3993 12.3011 19.3993 12.0011 19.4993 11.8011C19.5993 11.6011 19.8993 11.5011 20.0993 11.6011L24.5993 13.4011L24.8993 11.1011C24.8993 10.9011 25.0993 10.7011 25.2993 10.7011C25.4993 10.6011 25.6993 10.7011 25.7993 10.8011L31.6993 16.3011C31.8993 16.5011 31.8993 16.7011 31.8993 16.8011ZM25.4993 16.6011L25.7993 14.6011C25.7993 14.4011 25.8993 14.3011 26.0993 14.2011C26.1993 14.1011 26.3993 14.1011 26.5993 14.2011L29.0993 15.2011L25.9993 12.3011L25.6993 14.3011C25.6993 14.5011 25.5993 14.6011 25.3993 14.7011C25.2993 14.8011 25.0993 14.8011 24.8993 14.7011L22.3993 13.7011L25.4993 16.6011Z" fill="#1EC8BB"/>
<path d="M48.3 14.9014L54.9 11.4014L44 12.6014L46.6 15.7014L40 19.1014L50.9 17.9014L48.3 14.9014Z" fill="white"/>
<path d="M39.9004 19.601C39.7004 19.601 39.6004 19.401 39.5004 19.201C39.4004 19.001 39.5004 18.701 39.8004 18.601L45.8004 15.501L43.6004 13.001C43.5004 12.901 43.4004 12.601 43.5004 12.501C43.6004 12.301 43.7004 12.201 43.9004 12.201L54.8004 11.001C55.1004 11.001 55.3004 11.101 55.4004 11.401C55.5004 11.601 55.4004 11.901 55.1004 12.001L49.1004 15.101L51.3004 17.701C51.4004 17.801 51.5004 18.101 51.4004 18.201C51.3004 18.401 51.2004 18.501 51.0004 18.501L40.1004 19.701C40.0004 19.701 39.9004 19.701 39.9004 19.601ZM45.1004 13.001L47.1004 15.301C47.2004 15.401 47.2004 15.601 47.2004 15.701C47.2004 15.901 47.1004 16.001 46.9004 16.101L42.8004 18.201L49.9004 17.401L47.9004 15.101C47.8004 15.001 47.8004 14.801 47.8004 14.701C47.8004 14.501 47.9004 14.401 48.1004 14.301L52.2004 12.201L45.1004 13.001Z" fill="#1EC8BB"/>
</svg>
