<svg width="72" height="72" viewBox="0 0 72 72" fill="none" xmlns="http://www.w3.org/2000/svg">
<rect width="70" height="70" transform="translate(1.00781 1)" fill="white"/>
<path d="M69.7078 71H2.30781C1.60781 71 1.00781 70.4 1.00781 69.7V2.3C1.00781 1.6 1.60781 1 2.30781 1H69.7078C70.4078 1 71.0078 1.6 71.0078 2.3V69.7C71.0078 70.4 70.4078 71 69.7078 71Z" stroke="white" stroke-width="0.5" stroke-miterlimit="10"/>
<path d="M61.3084 29.8998H60.3084V28.6998H61.0084C64.0084 27.1998 64.6084 25.6998 64.0084 21.8998C63.8084 20.5998 62.5084 19.6998 60.2084 19.3998C58.2084 19.0998 56.0084 19.1998 54.9084 19.2998H54.6084C52.6084 19.3998 47.7084 19.3998 44.4084 16.6998C41.3084 14.1998 39.0084 13.3998 34.6084 13.4998C31.4084 13.5998 29.3084 15.0998 27.1084 16.6998C26.4084 17.1998 25.6084 17.7998 24.8084 18.2998C22.3084 19.7998 16.7084 19.4998 13.6084 19.2998C12.9084 19.2998 12.2084 19.1998 12.0084 19.1998C11.9084 19.1998 9.60844 19.4998 8.40844 20.9998C7.70844 21.7998 7.50844 22.8998 7.70844 24.1998C7.90844 25.8998 8.80844 27.0998 10.3084 27.5998C11.5084 28.0998 12.6084 27.9998 12.6084 27.9998L12.7084 29.1998C12.6084 29.1998 11.3084 29.2998 9.90844 28.6998C8.60844 28.1998 6.90844 26.9998 6.50844 24.2998C6.30844 22.6998 6.60844 21.2998 7.50844 20.1998C9.00844 18.2998 11.6084 17.8998 11.9084 17.8998C12.2084 17.8998 12.7084 17.8998 13.7084 17.9998C16.4084 18.1998 22.0084 18.4998 24.2084 17.1998C24.9257 16.6766 25.6594 16.1764 26.4084 15.6998C28.7084 13.9998 31.0084 12.2998 34.6084 12.1998C39.2084 12.0998 41.9084 12.9998 45.2084 15.6998C46.2084 16.4998 49.1084 18.3998 54.5084 18.0998H54.8084C57.2084 17.8998 64.4084 17.4998 65.1084 21.7998C65.5084 23.9998 65.4084 25.4998 64.9084 26.6998C64.3084 27.9998 63.2084 28.9998 61.3084 29.8998Z" fill="#062D4C"/>
<path d="M31.5078 46.2C30.8078 46.2 30.0078 46 29.1078 45.5L29.7078 44.4C30.8078 45 31.6078 45.1 32.3078 44.8C33.4078 44.3 33.7078 42.7 33.7078 42.4C33.7078 41.7 34.0078 31.7 33.3078 25.4C33.0078 22.9 31.3078 21 28.2078 19.8C25.8078 18.9 23.5078 18.7 23.5078 18.7L23.6078 17.5C23.7078 17.5 26.1078 17.7 28.7078 18.6C32.2078 19.9 34.2078 22.2 34.5078 25.1C35.3078 31.7 34.9078 42.2 34.9078 42.3C34.9078 42.4 34.5078 44.7 32.8078 45.6C32.4078 46.1 32.0078 46.2 31.5078 46.2ZM41.2078 46.2C40.7078 46.2 40.3078 46.1 39.9078 45.9C38.2078 45 37.9078 42.7 37.8078 42.6C37.8078 42.5 37.5078 32 38.2078 25.4C38.5078 22.5 40.6078 20.2 44.0078 18.9C46.6078 17.9 49.0078 17.8 49.1078 17.8L49.2078 19C49.2078 19 46.8078 19.2 44.5078 20.1C41.4078 21.3 39.7078 23.2 39.4078 25.7C38.7078 32 39.0078 42 39.0078 42.7C39.0078 42.9 39.3078 44.5 40.4078 45.1C41.1078 45.4 41.9078 45.3 43.0078 44.7L43.6078 45.8C42.7078 46 41.9078 46.2 41.2078 46.2Z" fill="#062D4C"/>
<path d="M34.4082 59.7996C34.3082 59.7996 34.1082 59.7996 34.0082 59.6996C33.0082 58.8996 31.6082 56.2996 31.2082 55.3996C30.1082 53.2996 29.3082 51.2996 29.1082 50.1996C28.7082 47.7996 28.9082 44.8996 29.1082 42.6996C29.2082 41.6996 28.8082 39.8996 28.2082 37.8996C27.5082 35.8996 26.7082 34.0996 25.9082 33.1996C25.1082 32.2996 24.5082 30.3996 24.2082 27.6996L23.9082 23.6996C23.9198 23.5443 23.9867 23.3983 24.0968 23.2882C24.2069 23.1781 24.3529 23.1112 24.5082 23.0996C24.6635 23.1112 24.8095 23.1781 24.9196 23.2882C25.0297 23.3983 25.0967 23.5443 25.1082 23.6996C25.1243 24.9715 25.2245 26.2409 25.4082 27.4996C25.6082 29.1996 26.0082 31.3996 26.8082 32.3996C27.7082 33.3996 28.6082 35.2996 29.3082 37.4996C30.0082 39.6996 30.4082 41.5996 30.3082 42.7996C30.1082 44.9996 29.9082 47.6996 30.3082 49.9996C30.5082 50.9996 31.3082 52.8996 32.3082 54.8996C33.5082 57.0996 34.4082 58.3996 34.8082 58.7996C34.8722 58.8417 34.9263 58.8973 34.9668 58.9623C35.0073 59.0274 35.0332 59.1005 35.0427 59.1766C35.0522 59.2526 35.0451 59.3298 35.0219 59.4028C34.9987 59.4759 34.9599 59.543 34.9082 59.5996C34.7082 59.6996 34.6082 59.7996 34.4082 59.7996ZM38.3082 59.7996C38.1082 59.7996 37.9082 59.6996 37.8082 59.5996C37.6082 59.2996 37.6082 58.9996 37.9082 58.7996C38.9082 57.9996 42.0082 52.2996 42.4082 50.0996C42.8082 47.8996 42.6082 45.0996 42.4082 42.8996C42.3082 41.6996 42.7082 39.7996 43.4082 37.5996C44.1082 35.3996 45.1082 33.4996 45.9082 32.4996C46.7082 31.4996 47.1082 29.2996 47.3082 27.5996C47.6082 25.5996 47.6082 23.7996 47.6082 23.7996C47.6198 23.6443 47.6867 23.4983 47.7968 23.3882C47.9069 23.2781 48.0529 23.2112 48.2082 23.1996C48.3635 23.2112 48.5095 23.2781 48.6196 23.3882C48.7297 23.4983 48.7967 23.6443 48.8082 23.7996C48.8082 24.1996 48.8082 25.8996 48.5082 27.7996C48.2082 30.4996 47.6082 32.3996 46.8082 33.2996C46.0082 34.1996 45.2082 35.9996 44.5082 37.9996C43.8082 39.9996 43.5082 41.7996 43.6082 42.7996C43.8082 44.9996 44.0082 47.8996 43.6082 50.2996C43.4082 51.3996 42.6082 53.3996 41.5082 55.4996C41.1082 56.2996 39.6082 58.9996 38.7082 59.7996C38.6082 59.6996 38.4082 59.7996 38.3082 59.7996Z" fill="#062D4C"/>
<path d="M56.807 35.7996C54.307 35.7996 52.207 33.6996 52.207 31.1996C52.207 28.6996 54.307 26.5996 56.807 26.5996C59.307 26.5996 61.407 28.6996 61.407 31.1996C61.407 33.6996 59.407 35.7996 56.807 35.7996ZM56.807 27.7996C56.3594 27.7956 55.9155 27.8808 55.5012 28.0503C55.0869 28.2197 54.7105 28.47 54.3939 28.7865C54.0774 29.103 53.8271 29.4794 53.6577 29.8938C53.4882 30.3081 53.403 30.752 53.407 31.1996C53.407 32.1013 53.7652 32.9661 54.4029 33.6038C55.0405 34.2414 55.9053 34.5996 56.807 34.5996C57.7088 34.5996 58.5736 34.2414 59.2112 33.6038C59.8488 32.9661 60.207 32.1013 60.207 31.1996C60.211 30.752 60.1258 30.3081 59.9564 29.8938C59.7869 29.4794 59.5366 29.103 59.2201 28.7865C58.9036 28.47 58.5272 28.2197 58.1129 28.0503C57.6986 27.8808 57.2546 27.7956 56.807 27.7996ZM16.307 34.2996C13.807 34.2996 11.707 32.1996 11.707 29.6996C11.707 27.1996 13.807 25.0996 16.307 25.0996C18.807 25.0996 20.907 27.1996 20.907 29.6996C20.907 32.1996 18.807 34.2996 16.307 34.2996ZM16.307 26.2996C15.8594 26.2956 15.4155 26.3808 15.0012 26.5503C14.5869 26.7197 14.2105 26.97 13.8939 27.2865C13.5774 27.603 13.3271 27.9794 13.1577 28.3938C12.9882 28.8081 12.903 29.252 12.907 29.6996C12.903 30.1472 12.9882 30.5911 13.1577 31.0055C13.3271 31.4198 13.5774 31.7962 13.8939 32.1127C14.2105 32.4292 14.5869 32.6795 15.0012 32.849C15.4155 33.0184 15.8594 33.1036 16.307 33.0996C16.7546 33.1036 17.1986 33.0184 17.6129 32.849C18.0272 32.6795 18.4036 32.4292 18.7201 32.1127C19.0366 31.7962 19.2869 31.4198 19.4564 31.0055C19.6258 30.5911 19.711 30.1472 19.707 29.6996C19.711 29.252 19.6258 28.8081 19.4564 28.3938C19.2869 27.9794 19.0366 27.603 18.7201 27.2865C18.4036 26.97 18.0272 26.7197 17.6129 26.5503C17.1986 26.3808 16.7546 26.2956 16.307 26.2996Z" fill="#062D4C"/>
<path d="M27.5078 36.7998C28.3362 36.7998 29.0078 36.1282 29.0078 35.2998C29.0078 34.4714 28.3362 33.7998 27.5078 33.7998C26.6794 33.7998 26.0078 34.4714 26.0078 35.2998C26.0078 36.1282 26.6794 36.7998 27.5078 36.7998Z" fill="#1EC8BB"/>
<path d="M29.4082 45.5996C30.2366 45.5996 30.9082 44.928 30.9082 44.0996C30.9082 43.2712 30.2366 42.5996 29.4082 42.5996C28.5798 42.5996 27.9082 43.2712 27.9082 44.0996C27.9082 44.928 28.5798 45.5996 29.4082 45.5996Z" fill="#1EC8BB"/>
<path d="M44.707 36.5996C45.5355 36.5996 46.207 35.928 46.207 35.0996C46.207 34.2712 45.5355 33.5996 44.707 33.5996C43.8786 33.5996 43.207 34.2712 43.207 35.0996C43.207 35.928 43.8786 36.5996 44.707 36.5996Z" fill="#1EC8BB"/>
<path d="M43.3086 45.5996C44.137 45.5996 44.8086 44.928 44.8086 44.0996C44.8086 43.2712 44.137 42.5996 43.3086 42.5996C42.4802 42.5996 41.8086 43.2712 41.8086 44.0996C41.8086 44.928 42.4802 45.5996 43.3086 45.5996Z" fill="#1EC8BB"/>
</svg>
