<svg width="72" height="72" viewBox="0 0 72 72" fill="none" xmlns="http://www.w3.org/2000/svg">
<rect width="70" height="70" transform="translate(1 1.00098)" fill="white"/>
<path d="M69.7 71.001H2.3C1.6 71.001 1 70.401 1 69.701V2.30098C1 1.60098 1.6 1.00098 2.3 1.00098H69.7C70.4 1.00098 71 1.60098 71 2.30098V69.701C71 70.401 70.4 71.001 69.7 71.001Z" stroke="#E8E6D9" stroke-width="0.5" stroke-miterlimit="10"/>
<path d="M40.7003 45.2006C40.7003 43.6006 40.3003 42.1006 39.9003 40.6006C39.3003 38.4006 38.3003 36.4006 37.3003 34.4006C37.0003 33.8006 36.6003 33.5006 36.0003 33.5006C35.3003 33.5006 34.8003 33.9006 34.5003 34.5006C33.4003 36.6006 32.4003 38.8006 31.8003 41.2006C31.2003 43.5006 30.9003 45.8006 31.6003 48.2006C32.3003 50.4006 33.4003 52.2006 34.8003 53.9006C35.5003 54.7006 36.5003 54.6006 37.2003 53.8006L38.7003 51.7006C39.8003 49.7006 40.7003 47.6006 40.7003 45.2006ZM37.5003 26.9006C37.5003 25.9006 36.8003 25.1006 35.9003 25.1006C35.0003 25.1006 34.3003 25.9006 34.3003 26.9006C34.3003 27.9006 35.0003 28.8006 35.9003 28.8006C36.8003 28.8006 37.5003 27.9006 37.5003 26.9006Z" fill="#E8E6D9"/>
<path d="M40.7 45.2008C40.7 47.6008 39.8 49.7008 38.6 51.7008L37.1 53.8008C36.4 54.7008 35.4 54.7008 34.7 53.9008C33.3 52.2008 32.2 50.4008 31.5 48.2008C30.8 45.8008 31 43.5008 31.7 41.2008C32.3 38.8008 33.3 36.7008 34.4 34.5008C34.7 33.8008 35.2 33.4008 35.9 33.5008C36.5 33.5008 36.9 33.8008 37.2 34.4008C38.2 36.4008 39.2 38.4008 39.8 40.6008C40.3 42.0008 40.7 43.6008 40.7 45.2008ZM35.9 39.1008C35.2 40.7008 34.7 42.3008 34.4 44.0008C34.1 46.1008 34.7 47.8008 35.7 49.4008C35.8 49.5008 35.9 49.8008 36 49.5008C36.9 48.0008 37.6 46.3008 37.4 44.3008C37.2 42.5008 36.7 40.9008 35.9 39.1008ZM37.5 25.2008C37.5 26.2008 36.8 27.0008 35.9 27.0008C35 27.0008 34.3 26.2008 34.3 25.1008C34.3 24.1008 35 23.3008 35.9 23.3008C36.8 23.3008 37.5 24.2008 37.5 25.2008Z" fill="#1EC8BB"/>
<path d="M36.2 65.4006C36 65.4006 31.2 65.4006 26.4 62.9006C21.9 60.6006 16.5 55.8006 16.5 45.6006C16.5 37.7006 19.6 29.0006 25.7 19.5006C30.2 12.5006 34.7 7.80059 34.9 7.70059L36 6.60059L37.1 7.70059C37.3 7.90059 41.7 12.6006 46.3 19.5006C52.4 29.0006 55.5 37.8006 55.5 45.6006C55.5 55.7006 50.2 60.6006 45.8 62.8006C41.1 65.3006 36.4 65.4006 36.2 65.4006ZM36 10.9006C32.2 15.2006 19.5 30.8006 19.5 45.7006C19.5 52.6006 22.3 57.5006 27.7 60.3006C31.9 62.4006 36.2 62.5006 36.2 62.5006C36.2 62.5006 40.4 62.5006 44.5 60.3006C49.8 57.5006 52.5 52.6006 52.5 45.7006C52.5 30.7006 39.8 15.2006 36 10.9006Z" fill="#062D4C"/>
</svg>
