<svg width="72" height="72" viewBox="0 0 72 72" fill="none" xmlns="http://www.w3.org/2000/svg">
<rect width="70" height="70" transform="translate(1 1.00098)" fill="white"/>
<path d="M69.7 71.001H2.3C1.6 71.001 1 70.401 1 69.701V2.30098C1 1.60098 1.6 1.00098 2.3 1.00098H69.7C70.4 1.00098 71 1.60098 71 2.30098V69.701C71 70.401 70.4 71.001 69.7 71.001Z" stroke="#E8E6D9" stroke-width="0.5" stroke-miterlimit="10"/>
<path d="M14.9006 64.4008C14.5006 64.4008 14.2006 64.1008 14.1006 63.7008C11.1006 41.0008 11.4006 25.0008 15.1006 17.3008C16.9006 13.5008 16.9006 8.20078 16.9006 8.10078C16.9006 7.70078 17.3006 7.30078 17.7006 7.30078C18.1006 7.30078 18.5006 7.70078 18.5006 8.10078C18.5006 8.30078 18.5006 13.9008 16.5006 18.0008C15.1006 20.9008 14.2006 25.1008 13.8006 30.5008C13.2006 38.9008 13.8006 50.0008 15.6006 63.5008C15.7006 63.9008 15.4006 64.3008 14.9006 64.4008Z" fill="#062D4C"/>
<path d="M47.8629 34.9052C48.3953 31.9709 47.285 29.3124 45.3832 28.9674C43.4813 28.6223 41.508 30.7214 40.9756 33.6557C40.4433 36.59 41.5535 39.2485 43.4554 39.5935C45.3572 39.9385 47.3306 37.8395 47.8629 34.9052Z" fill="#1EC8BB"/>
<path d="M29.9883 36.4388C31.2907 36.1927 32.0389 34.3654 31.6594 32.3575C31.28 30.3496 29.9165 28.9215 28.6141 29.1676C27.3117 29.4137 26.5635 31.241 26.9429 33.2489C27.3224 35.2568 28.6859 36.685 29.9883 36.4388Z" fill="#1EC8BB"/>
<path d="M57.1008 64.4008H57.0008C56.6008 64.3008 56.3008 63.9008 56.3008 63.5008C58.1008 50.0008 58.7008 38.9008 58.1008 30.5008C57.7008 25.1008 56.8008 20.9008 55.4008 18.0008C53.4008 13.9008 53.4008 8.40078 53.4008 8.10078C53.4008 7.70078 53.8008 7.30078 54.2008 7.30078C54.6008 7.30078 55.0008 7.70078 55.0008 8.10078C55.0008 8.20078 55.0008 13.5008 56.8008 17.3008C60.5008 25.0008 60.8008 41.0008 57.8008 63.7008C57.9008 64.1008 57.5008 64.4008 57.1008 64.4008ZM36.5008 42.4008C35.5008 42.4008 34.4008 42.2008 33.3008 41.6008C31.3008 40.7008 31.2008 37.7008 31.2008 35.1008C31.2008 33.9008 31.2008 32.6008 30.9008 32.1008C30.3008 30.6008 27.5008 27.8008 26.4008 26.9008C26.1008 26.6008 26.1008 26.1008 26.4008 25.8008C26.7008 25.5008 27.2008 25.5008 27.5008 25.8008C27.9008 26.2008 31.5008 29.5008 32.3008 31.6008C32.7008 32.5008 32.7008 33.7008 32.7008 35.2008C32.7008 37.2008 32.8008 39.8008 33.9008 40.3008C36.0008 41.3008 37.9008 41.0008 38.5008 40.1008C39.2008 39.1008 39.4008 36.9008 39.4008 34.0008C39.4008 33.2008 39.6008 32.3008 40.1008 31.4008C40.4008 30.7008 40.9008 30.0008 41.5008 29.3008C42.7008 27.9008 44.0008 27.1008 44.2008 27.0008C44.6008 26.8008 45.1008 26.9008 45.3008 27.2008C45.5008 27.6008 45.4008 28.1008 45.1008 28.3008C44.6008 28.6008 43.6008 29.3008 42.7008 30.3008C41.9008 31.2008 41.0008 32.5008 41.0008 33.9008C41.0008 37.3008 40.8008 39.5008 39.9008 40.9008C39.1008 41.8008 37.9008 42.4008 36.5008 42.4008Z" fill="#062D4C"/>
<path d="M33.2012 64.7012H33.0012C32.6012 64.6012 32.3012 64.2012 32.5012 63.7012C34.4012 57.0012 34.0012 41.8012 34.0012 41.6012C34.0012 41.2012 34.3012 40.8012 34.8012 40.8012C35.2012 40.8012 35.6012 41.1012 35.6012 41.6012C35.6012 42.2012 36.0012 57.3012 34.0012 64.2012C33.8012 64.4012 33.5012 64.7012 33.2012 64.7012ZM38.9012 64.7012C38.6012 64.7012 38.2012 64.5012 38.1012 64.1012C36.2012 57.2012 36.5012 42.2012 36.5012 41.5012C36.5012 41.1012 36.9012 40.7012 37.3012 40.7012C37.7012 40.7012 38.1012 41.1012 38.1012 41.5012C38.1012 41.7012 37.7012 56.9012 39.6012 63.6012C39.7012 64.0012 39.5012 64.4012 39.1012 64.6012C39.1012 64.7012 39.0012 64.7012 38.9012 64.7012Z" fill="#062D4C"/>
<path d="M36.8001 12.5012C35.6001 12.5012 34.7001 11.3012 34.6001 11.2012C34.4001 10.8012 34.4001 10.4012 34.8001 10.1012C35.2001 9.90119 35.6001 9.90119 35.9001 10.3012C36.0001 10.5012 36.5001 10.9012 36.8001 10.9012C37.1001 10.9012 37.4001 10.5012 37.5001 10.3012C37.7001 9.90119 38.2001 9.80119 38.6001 10.1012C39.0001 10.3012 39.1001 10.8012 38.8001 11.2012C38.1001 12.2012 37.3001 12.5012 36.8001 12.5012Z" fill="#062D4C"/>
</svg>
