<svg width="72" height="72" viewBox="0 0 72 72" fill="none" xmlns="http://www.w3.org/2000/svg">
<rect width="70" height="70" transform="translate(1.00195 1.00098)" fill="white"/>
<path d="M24.442 42.131H22.077V26.971H18.987C14.033 26.971 10.002 22.94 10.002 17.986C10.002 13.032 14.033 9.00098 18.987 9.00098H43.453V11.366H18.987C15.337 11.366 12.367 14.336 12.367 17.986C12.367 21.636 15.337 24.606 18.987 24.606H24.442V42.131Z" fill="#062D4C"/>
<path d="M37.7387 44.605L37.6797 24.606H43.1387C46.7887 24.606 49.7587 21.636 49.7587 17.986C49.7587 14.336 46.7887 11.366 43.1387 11.366V9.00098C48.0927 9.00098 52.1237 13.032 52.1237 17.986C52.1237 22.94 48.0927 26.971 43.1387 26.971H40.0517L40.1037 44.599L37.7387 44.605Z" fill="#062D4C"/>
<path d="M24.4421 44.6022H22.0781V40.9482H24.4281V42.1312H24.4421V44.6022Z" fill="#062D4C"/>
<path d="M22.9126 46.2773H21.9746V48.6423H22.9126V46.2773Z" fill="#1EC8BB"/>
<path d="M38.233 48.6414H36.298V46.2764H38.233V48.6414ZM35.169 48.6414H33.233V46.2764H35.168L35.169 48.6414ZM32.105 48.6414H30.17V46.2764H32.105V48.6414ZM29.04 48.6414H27.105V46.2764H29.04V48.6414ZM25.976 48.6414H24.041V46.2764H25.976V48.6414Z" fill="#1EC8BB"/>
<path d="M40.2993 46.2773H39.3613V48.6423H40.2993V46.2773Z" fill="#1EC8BB"/>
<path d="M31.3333 64.0106C26.2263 64.0106 22.0723 59.8556 22.0723 54.7496V50.5566H24.4373V54.7496C24.4373 58.5526 27.5313 61.6466 31.3343 61.6466C35.1373 61.6466 38.2313 58.5526 38.2313 54.7496V50.5566H40.5963V54.7496C40.5943 59.8566 36.4403 64.0106 31.3333 64.0106Z" fill="#062D4C"/>
<path d="M32.3181 60.3353H29.9531V58.4583H32.3181V60.3353ZM32.3181 57.3633H29.9531V55.4863H32.3181V57.3633ZM32.3181 54.3923H29.9531V52.5153H32.3181V54.3923ZM32.3181 51.4203H29.9531V49.5433H32.3181V51.4203ZM32.3181 48.4493H29.9531V46.5723H32.3181V48.4493Z" fill="#1EC8BB"/>
<path d="M47.1827 62.9307C54.8926 62.9307 61.1427 56.6806 61.1427 48.9707C61.1427 41.2608 54.8926 35.0107 47.1827 35.0107C39.4728 35.0107 33.2227 41.2608 33.2227 48.9707C33.2227 56.6806 39.4728 62.9307 47.1827 62.9307Z" fill="white" stroke="#062D4C" stroke-width="2" stroke-miterlimit="10"/>
<path d="M41.8179 40.5146C41.8179 40.5146 42.7149 40.5146 42.6789 41.8066C42.6429 43.0986 41.9259 46.6867 46.1229 48.5517C46.1229 46.5427 46.1229 44.3896 46.1229 44.3896L44.7599 43.0266L47.3429 41.9856L49.9259 42.9907L48.5979 44.3186V48.5527C48.5979 48.5527 53.1189 47.1537 52.1859 41.1977C52.3299 40.4797 53.1909 40.2647 53.2619 40.9467C53.3339 41.6287 53.5849 47.6566 52.2209 49.9526C50.8569 52.2486 49.0639 53.3966 49.0639 53.3966L49.4229 54.0066V57.4156L49.8179 57.8106C49.8179 57.8106 47.7729 59.8556 44.6869 57.8106C45.0099 57.5236 45.1179 57.4516 45.1179 57.4516V53.8637L45.5309 53.4506C45.5309 53.4506 43.1449 50.9566 42.5349 49.8806C41.9249 48.8036 41.1359 44.5336 41.8179 40.5146Z" stroke="#062D4C" stroke-width="0.7" stroke-miterlimit="10"/>
<path d="M43.9163 48.5166L45.9883 49.8616V51.9066L43.7812 49.1886L43.9163 48.5166Z" stroke="#062D4C" stroke-width="0.7" stroke-miterlimit="10"/>
<path d="M50.8318 48.5166L48.7598 49.8616V51.9066L50.9668 49.1886L50.8318 48.5166Z" stroke="#062D4C" stroke-width="0.7" stroke-miterlimit="10"/>
<path d="M69.702 71.001H2.30195C1.60195 71.001 1.00195 70.401 1.00195 69.701V2.30098C1.00195 1.60098 1.60195 1.00098 2.30195 1.00098H69.702C70.402 1.00098 71.002 1.60098 71.002 2.30098V69.701C71.002 70.401 70.402 71.001 69.702 71.001Z" stroke="#E8E6D9" stroke-width="0.5" stroke-miterlimit="10"/>
</svg>
