<svg width="34" height="34" viewBox="0 0 34 34" fill="none" xmlns="http://www.w3.org/2000/svg">
<path d="M32.5225 16.2178C32.5212 14.8503 32.1326 13.5112 31.4018 12.3554C30.671 11.1995 29.6278 10.2743 28.393 9.68667V9.50729C28.3918 8.17708 27.9624 6.88258 27.1684 5.81534C26.3744 4.7481 25.2579 3.96482 23.9841 3.58139C22.7104 3.19796 21.347 3.23476 20.0958 3.68633C18.8446 4.13791 17.772 4.98027 17.0367 6.08878C16.3014 4.98027 15.2287 4.13791 13.9775 3.68633C12.7263 3.23476 11.3629 3.19796 10.0892 3.58139C8.81544 3.96482 7.69895 4.7481 6.90493 5.81534C6.1109 6.88258 5.68153 8.17708 5.68034 9.50729V9.68667C4.44449 10.2727 3.4003 11.1973 2.66912 12.3532C1.93795 13.5091 1.5498 14.8488 1.5498 16.2165C1.5498 17.5843 1.93795 18.924 2.66912 20.0799C3.4003 21.2358 4.44449 22.1604 5.68034 22.7464V22.9284C5.68153 24.2586 6.1109 25.5531 6.90493 26.6203C7.69895 27.6876 8.81544 28.4709 10.0892 28.8543C11.3629 29.2377 12.7263 29.2009 13.9775 28.7493C15.2287 28.2978 16.3014 27.4554 17.0367 26.3469C17.772 27.4554 18.8446 28.2978 20.0958 28.7493C21.347 29.2009 22.7104 29.2377 23.9841 28.8543C25.2579 28.4709 26.3744 27.6876 27.1684 26.6203C27.9624 25.5531 28.3918 24.2586 28.393 22.9284V22.7464C29.6276 22.1593 30.6707 21.2345 31.4015 20.0791C32.1323 18.9237 32.521 17.585 32.5225 16.2178ZM11.8747 27.058C10.8564 27.0578 9.87412 26.6815 9.11643 26.0012C8.35874 25.3209 7.87911 24.3847 7.76964 23.3723C8.1035 23.4199 8.44028 23.4441 8.77752 23.4446H9.80991C10.0837 23.4446 10.3463 23.3358 10.5399 23.1422C10.7335 22.9486 10.8423 22.686 10.8423 22.4122C10.8423 22.1384 10.7335 21.8758 10.5399 21.6822C10.3463 21.4886 10.0837 21.3798 9.80991 21.3798H8.77752C7.55873 21.3812 6.37874 20.9513 5.44648 20.1663C4.51421 19.3812 3.8898 18.2916 3.6838 17.0903C3.47779 15.8891 3.70348 14.6537 4.32091 13.6028C4.93833 12.552 5.90767 11.7536 7.05729 11.3488C7.25844 11.2776 7.43259 11.1458 7.55576 10.9716C7.67894 10.7973 7.74509 10.5892 7.74512 10.3758V9.50729C7.74512 8.41206 8.1802 7.36169 8.95465 6.58724C9.72909 5.8128 10.7795 5.37772 11.8747 5.37772C12.9699 5.37772 14.0203 5.8128 14.7947 6.58724C15.5692 7.36169 16.0043 8.41206 16.0043 9.50729V18.3162C14.8706 17.2965 13.3994 16.7329 11.8747 16.734C11.6009 16.734 11.3383 16.8428 11.1447 17.0364C10.9511 17.23 10.8423 17.4926 10.8423 17.7664C10.8423 18.0402 10.9511 18.3028 11.1447 18.4964C11.3383 18.69 11.6009 18.7988 11.8747 18.7988C12.9699 18.7988 14.0203 19.2339 14.7947 20.0083C15.5692 20.7828 16.0043 21.8332 16.0043 22.9284C16.0043 24.0236 15.5692 25.074 14.7947 25.8484C14.0203 26.6229 12.9699 27.058 11.8747 27.058ZM25.2958 21.3798H24.2634C23.9896 21.3798 23.727 21.4886 23.5334 21.6822C23.3398 21.8758 23.231 22.1384 23.231 22.4122C23.231 22.686 23.3398 22.9486 23.5334 23.1422C23.727 23.3358 23.9896 23.4446 24.2634 23.4446H25.2958C25.633 23.4441 25.9698 23.4199 26.3037 23.3723C26.2179 24.1655 25.9042 24.9169 25.4004 25.5356C24.8967 26.1544 24.2245 26.6139 23.4652 26.8587C22.7058 27.1036 21.8918 27.1232 21.1216 26.9152C20.3513 26.7072 19.6578 26.2805 19.1248 25.6868C18.5919 25.093 18.2424 24.3576 18.1185 23.5695C17.9947 22.7813 18.1018 21.9741 18.4269 21.2455C18.752 20.5169 19.2813 19.8981 19.9506 19.4639C20.62 19.0297 21.4008 18.7987 22.1986 18.7988C22.4724 18.7988 22.735 18.69 22.9286 18.4964C23.1222 18.3028 23.231 18.0402 23.231 17.7664C23.231 17.4926 23.1222 17.23 22.9286 17.0364C22.735 16.8428 22.4724 16.734 22.1986 16.734C20.6739 16.7329 19.2027 17.2965 18.069 18.3162V9.50729C18.069 8.41206 18.5041 7.36169 19.2786 6.58724C20.053 5.8128 21.1034 5.37772 22.1986 5.37772C23.2938 5.37772 24.3442 5.8128 25.1187 6.58724C25.8931 7.36169 26.3282 8.41206 26.3282 9.50729V10.3758C26.3282 10.5892 26.3944 10.7973 26.5175 10.9716C26.6407 11.1458 26.8149 11.2776 27.016 11.3488C28.1656 11.7536 29.135 12.552 29.7524 13.6028C30.3698 14.6537 30.5955 15.8891 30.3895 17.0903C30.1835 18.2916 29.5591 19.3812 28.6268 20.1663C27.6946 20.9513 26.5146 21.3812 25.2958 21.3798ZM27.3606 14.6692C27.3606 14.9431 27.2518 15.2056 27.0582 15.3993C26.8646 15.5929 26.602 15.7016 26.3282 15.7016H25.812C24.5799 15.7016 23.3982 15.2122 22.5269 14.3409C21.6557 13.4697 21.1662 12.288 21.1662 11.0559V10.5397C21.1662 10.2659 21.275 10.0033 21.4686 9.80967C21.6622 9.61606 21.9248 9.50729 22.1986 9.50729C22.4724 9.50729 22.735 9.61606 22.9286 9.80967C23.1222 10.0033 23.231 10.2659 23.231 10.5397V11.0559C23.231 11.7404 23.5029 12.3969 23.987 12.8809C24.471 13.3649 25.1275 13.6369 25.812 13.6369H26.3282C26.602 13.6369 26.8646 13.7456 27.0582 13.9392C27.2518 14.1328 27.3606 14.3954 27.3606 14.6692ZM8.26132 15.7016H7.74512C7.47132 15.7016 7.20872 15.5929 7.01511 15.3993C6.8215 15.2056 6.71273 14.9431 6.71273 14.6692C6.71273 14.3954 6.8215 14.1328 7.01511 13.9392C7.20872 13.7456 7.47132 13.6369 7.74512 13.6369H8.26132C8.94584 13.6369 9.60232 13.3649 10.0863 12.8809C10.5704 12.3969 10.8423 11.7404 10.8423 11.0559V10.5397C10.8423 10.2659 10.9511 10.0033 11.1447 9.80967C11.3383 9.61606 11.6009 9.50729 11.8747 9.50729C12.1485 9.50729 12.4111 9.61606 12.6047 9.80967C12.7983 10.0033 12.9071 10.2659 12.9071 10.5397V11.0559C12.9071 12.288 12.4176 13.4697 11.5464 14.3409C10.6751 15.2122 9.49345 15.7016 8.26132 15.7016Z" fill="#FBBC05"/>
</svg>
