<svg width="34" height="34" viewBox="0 0 34 34" fill="none" xmlns="http://www.w3.org/2000/svg">
<path d="M25.8843 17.1733L19.2279 14.7137L16.776 8.05215C16.6308 7.65768 16.3681 7.31725 16.0233 7.07678C15.6786 6.83631 15.2683 6.70737 14.848 6.70737C14.4276 6.70737 14.0174 6.83631 13.6727 7.07678C13.3279 7.31725 13.0652 7.65768 12.92 8.05215L10.4526 14.7137L3.79106 17.1656C3.3966 17.3108 3.05616 17.5735 2.81569 17.9183C2.57522 18.263 2.44629 18.6732 2.44629 19.0936C2.44629 19.5139 2.57522 19.9242 2.81569 20.2689C3.05616 20.6137 3.3966 20.8764 3.79106 21.0216L10.4526 23.489L12.9045 30.1505C13.0497 30.545 13.3124 30.8854 13.6572 31.1259C14.0019 31.3663 14.4122 31.4953 14.8325 31.4953C15.2528 31.4953 15.6631 31.3663 16.0078 31.1259C16.3526 30.8854 16.6153 30.545 16.7605 30.1505L19.2279 23.489L25.8894 21.0371C26.2839 20.8919 26.6243 20.6292 26.8648 20.2844C27.1053 19.9396 27.2342 19.5294 27.2342 19.1091C27.2342 18.6887 27.1053 18.2785 26.8648 17.9337C26.6243 17.589 26.2839 17.3263 25.8894 17.1811L25.8843 17.1733ZM18.0665 21.7107C17.9263 21.7623 17.7991 21.8438 17.6935 21.9494C17.5879 22.055 17.5064 22.1823 17.4548 22.3224L14.8402 29.4059L12.2309 22.3276C12.1793 22.1859 12.0974 22.0573 11.9908 21.9508C11.8842 21.8442 11.7556 21.7623 11.614 21.7107L4.53568 19.1013L11.614 16.492C11.7556 16.4404 11.8842 16.3584 11.9908 16.2519C12.0974 16.1453 12.1793 16.0167 12.2309 15.8751L14.8402 8.79676L17.4496 15.8751C17.5013 16.0152 17.5827 16.1425 17.6883 16.2481C17.7939 16.3537 17.9212 16.4351 18.0613 16.4868L25.1448 19.1013L18.0665 21.7107ZM18.9698 5.68023C18.9698 5.40642 19.0786 5.14383 19.2722 4.95022C19.4658 4.75661 19.7284 4.64784 20.0022 4.64784H22.067V2.58305C22.067 2.30924 22.1758 2.04665 22.3694 1.85304C22.563 1.65943 22.8256 1.55066 23.0994 1.55066C23.3732 1.55066 23.6358 1.65943 23.8294 1.85304C24.023 2.04665 24.1318 2.30924 24.1318 2.58305V4.64784H26.1966C26.4704 4.64784 26.733 4.75661 26.9266 4.95022C27.1202 5.14383 27.2289 5.40642 27.2289 5.68023C27.2289 5.95404 27.1202 6.21663 26.9266 6.41024C26.733 6.60385 26.4704 6.71262 26.1966 6.71262H24.1318V8.7774C24.1318 9.05121 24.023 9.3138 23.8294 9.50742C23.6358 9.70103 23.3732 9.8098 23.0994 9.8098C22.8256 9.8098 22.563 9.70103 22.3694 9.50742C22.1758 9.3138 22.067 9.05121 22.067 8.7774V6.71262H20.0022C19.7284 6.71262 19.4658 6.60385 19.2722 6.41024C19.0786 6.21663 18.9698 5.95404 18.9698 5.68023ZM32.3909 11.8746C32.3909 12.1484 32.2821 12.411 32.0885 12.6046C31.8949 12.7982 31.6323 12.907 31.3585 12.907H30.3261V13.9394C30.3261 14.2132 30.2174 14.4758 30.0237 14.6694C29.8301 14.863 29.5675 14.9718 29.2937 14.9718C29.0199 14.9718 28.7573 14.863 28.5637 14.6694C28.3701 14.4758 28.2613 14.2132 28.2613 13.9394V12.907H27.2289C26.9551 12.907 26.6925 12.7982 26.4989 12.6046C26.3053 12.411 26.1966 12.1484 26.1966 11.8746C26.1966 11.6008 26.3053 11.3382 26.4989 11.1446C26.6925 10.951 26.9551 10.8422 27.2289 10.8422H28.2613V9.8098C28.2613 9.53599 28.3701 9.2734 28.5637 9.07978C28.7573 8.88617 29.0199 8.7774 29.2937 8.7774C29.5675 8.7774 29.8301 8.88617 30.0237 9.07978C30.2174 9.2734 30.3261 9.53599 30.3261 9.8098V10.8422H31.3585C31.6323 10.8422 31.8949 10.951 32.0885 11.1446C32.2821 11.3382 32.3909 11.6008 32.3909 11.8746Z" fill="#FBBC05"/>
</svg>
