<svg width="34" height="34" viewBox="0 0 34 34" fill="none" xmlns="http://www.w3.org/2000/svg">
<path d="M32.3072 19.6249C32.1988 19.7062 32.0754 19.7654 31.944 19.7991C31.8127 19.8327 31.676 19.8402 31.5418 19.821C31.4076 19.8018 31.2785 19.7564 31.1618 19.6873C31.0452 19.6182 30.9432 19.5269 30.8619 19.4184C30.2396 18.582 29.4297 17.9034 28.4973 17.4371C27.5648 16.9709 26.5359 16.7301 25.4935 16.7342C25.2904 16.7342 25.0919 16.6743 24.9228 16.562C24.7536 16.4498 24.6213 16.2902 24.5424 16.1031C24.4888 15.9761 24.4612 15.8397 24.4612 15.7018C24.4612 15.5639 24.4888 15.4275 24.5424 15.3004C24.6213 15.1134 24.7536 14.9538 24.9228 14.8415C25.0919 14.7293 25.2904 14.6694 25.4935 14.6694C26.0727 14.6693 26.6404 14.5068 27.1319 14.2004C27.6234 13.8939 28.0192 13.4557 28.2742 12.9356C28.5291 12.4154 28.6332 11.8342 28.5744 11.2579C28.5156 10.6817 28.2964 10.1334 27.9416 9.67549C27.5869 9.21756 27.1108 8.86829 26.5675 8.66735C26.0242 8.46642 25.4355 8.42187 24.8681 8.53878C24.3008 8.65568 23.7776 8.92935 23.358 9.32869C22.9384 9.72804 22.6392 10.2371 22.4944 10.7979C22.4605 10.9293 22.401 11.0526 22.3195 11.161C22.2379 11.2694 22.1358 11.3606 22.0189 11.4295C21.9021 11.4984 21.7728 11.5437 21.6385 11.5626C21.5042 11.5815 21.3675 11.5739 21.2361 11.54C21.1048 11.5061 20.9814 11.4466 20.873 11.3651C20.7647 11.2835 20.6734 11.1814 20.6045 11.0645C20.5356 10.9477 20.4904 10.8184 20.4715 10.6841C20.4525 10.5498 20.4602 10.4131 20.4941 10.2817C20.6951 9.50397 21.0749 8.78386 21.6031 8.17869C22.1314 7.57352 22.7936 7.09999 23.5371 6.7958C24.2806 6.4916 25.0848 6.36512 25.8858 6.42643C26.6868 6.48774 27.4624 6.73515 28.1509 7.14895C28.8395 7.56276 29.4219 8.13156 29.8519 8.81008C30.282 9.4886 30.5477 10.2581 30.628 11.0574C30.7083 11.8567 30.6009 12.6637 30.3144 13.4142C30.0279 14.1647 29.5702 14.838 28.9778 15.3805C30.3816 15.9883 31.6019 16.9528 32.5176 18.1782C32.5989 18.287 32.658 18.4107 32.6915 18.5423C32.7249 18.6739 32.7321 18.8108 32.7126 18.9452C32.693 19.0796 32.6472 19.2088 32.5776 19.3254C32.5081 19.442 32.4162 19.5438 32.3072 19.6249ZM25.3541 27.5743C25.4288 27.6918 25.4789 27.8232 25.5015 27.9606C25.5241 28.098 25.5187 28.2385 25.4856 28.3738C25.4525 28.509 25.3923 28.6362 25.3088 28.7475C25.2252 28.8589 25.12 28.9523 24.9995 29.022C24.8789 29.0916 24.7455 29.1362 24.6073 29.153C24.4691 29.1698 24.3289 29.1585 24.1952 29.1197C24.0615 29.0809 23.937 29.0154 23.8292 28.9273C23.7214 28.8391 23.6326 28.7301 23.568 28.6067C22.9177 27.5055 21.9915 26.5929 20.8808 25.9589C19.7701 25.3249 18.5132 24.9914 17.2343 24.9914C15.9554 24.9914 14.6986 25.3249 13.5879 25.9589C12.4772 26.5929 11.5509 27.5055 10.9006 28.6067C10.8361 28.7301 10.7472 28.8391 10.6394 28.9273C10.5317 29.0154 10.4072 29.0809 10.2735 29.1197C10.1397 29.1585 9.99954 29.1698 9.86132 29.153C9.7231 29.1362 9.5897 29.0916 9.46915 29.022C9.34861 28.9523 9.2434 28.8589 9.15986 28.7475C9.07632 28.6362 9.01619 28.509 8.98306 28.3738C8.94993 28.2385 8.9445 28.098 8.9671 27.9606C8.9897 27.8232 9.03986 27.6918 9.11456 27.5743C10.1155 25.8546 11.6416 24.5012 13.4687 23.7132C12.4406 22.926 11.685 21.8365 11.3081 20.5977C10.9313 19.3589 10.9521 18.0332 11.3676 16.8068C11.7832 15.5805 12.5726 14.5152 13.6249 13.7607C14.6772 13.0062 15.9395 12.6005 17.2343 12.6005C18.5292 12.6005 19.7914 13.0062 20.8437 13.7607C21.896 14.5152 22.6854 15.5805 23.101 16.8068C23.5166 18.0332 23.5374 19.3589 23.1605 20.5977C22.7836 21.8365 22.0281 22.926 21 23.7132C22.8271 24.5012 24.3532 25.8546 25.3541 27.5743ZM17.2343 22.9285C18.0511 22.9285 18.8495 22.6863 19.5286 22.2326C20.2077 21.7788 20.737 21.1339 21.0495 20.3793C21.3621 19.6247 21.4439 18.7944 21.2845 17.9933C21.1252 17.1923 20.7319 16.4565 20.1544 15.8789C19.5768 15.3014 18.841 14.9081 18.04 14.7487C17.2389 14.5894 16.4086 14.6712 15.654 14.9837C14.8994 15.2963 14.2545 15.8256 13.8007 16.5047C13.3469 17.1838 13.1048 17.9822 13.1048 18.799C13.1048 19.8942 13.5398 20.9446 14.3143 21.719C15.0887 22.4935 16.1391 22.9285 17.2343 22.9285ZM10.0076 15.7018C10.0076 15.428 9.8988 15.1654 9.70519 14.9718C9.51158 14.7782 9.24899 14.6694 8.97518 14.6694C8.39592 14.6693 7.82828 14.5068 7.33674 14.2004C6.8452 13.8939 6.44946 13.4557 6.19448 12.9356C5.93949 12.4154 5.83548 11.8342 5.89426 11.2579C5.95304 10.6817 6.17226 10.1334 6.527 9.67549C6.88175 9.21756 7.35781 8.86829 7.90111 8.66735C8.44441 8.46642 9.03316 8.42187 9.60051 8.53878C10.1679 8.65568 10.691 8.92935 11.1107 9.32869C11.5303 9.72804 11.8295 10.2371 11.9743 10.7979C12.0427 11.0632 12.2138 11.2904 12.4497 11.4295C12.6857 11.5687 12.9673 11.6084 13.2325 11.54C13.4978 11.4715 13.725 11.3005 13.8641 11.0645C14.0033 10.8286 14.043 10.547 13.9745 10.2817C13.7735 9.50397 13.3938 8.78386 12.8655 8.17869C12.3372 7.57352 11.675 7.09999 10.9315 6.7958C10.188 6.4916 9.38379 6.36512 8.58282 6.42643C7.78185 6.48774 7.00624 6.73515 6.31771 7.14895C5.62918 7.56276 5.04673 8.13156 4.61671 8.81008C4.18669 9.4886 3.92096 10.2581 3.84067 11.0574C3.76038 11.8567 3.86775 12.6637 4.15423 13.4142C4.44071 14.1647 4.89839 14.838 5.49086 15.3805C4.08846 15.9889 2.86951 16.9533 1.95492 18.1782C1.79046 18.3973 1.71976 18.6727 1.75836 18.9439C1.79696 19.215 1.9417 19.4598 2.16075 19.6242C2.3798 19.7887 2.6552 19.8594 2.92638 19.8208C3.19755 19.7822 3.44229 19.6374 3.60674 19.4184C4.229 18.582 5.03895 17.9034 5.97138 17.4371C6.90382 16.9709 7.93269 16.7301 8.97518 16.7342C9.24899 16.7342 9.51158 16.6254 9.70519 16.4318C9.8988 16.2382 10.0076 15.9756 10.0076 15.7018Z" fill="#FBBC05"/>
</svg>
