<svg xmlns="http://www.w3.org/2000/svg" viewBox="0 0 72 72" xmlns:v="https://vecta.io/nano"><path fill="none" stroke="#e8e6d9" stroke-width=".5" stroke-miterlimit="10" d="M69.7 71H2.3c-.7 0-1.3-.6-1.3-1.3V2.3C1 1.6 1.6 1 2.3 1h67.4c.7 0 1.3.6 1.3 1.3v67.4c0 .7-.6 1.3-1.3 1.3z"/><path d="M16.8 19.8c-1.5-5.2 0-12.1 0-12.2.1-.5-.2-1-.7-1.1s-1 .2-1.1.7c-.1.3-1.7 7.5 0 13.1.3 1.1.7 2.1 1.2 3.3 1.9 5 4.1 10.6-.5 18C11.2 48.8 9.3 55 12.9 65c.1.4.5.6.9.6.1 0 .2 0 .3-.1.5-.2.7-.7.6-1.2-3.4-9.3-1.7-14.8 2.6-21.7 5.1-8.2 2.6-14.5.7-19.7-.5-1.1-.9-2.2-1.2-3.1zm20.6 3.7c2.2 0 3.7-.5 4.5-.8 2.7 2.3 4.8 4.7 6.3 7.1l1.8-.6c-1.5-2.6-3.7-5.2-6.5-7.7 1-1 2.4-2.9 2.7-5.6.3-3-1-6.2-4-9.4-.3-.4-.9-.4-1.3 0-.4.3-.4.9 0 1.3 2.6 2.8 3.7 5.4 3.5 7.9-.3 3.1-2.8 5-2.8 5-.4.2-1.7.7-4 .7-.5 0-.9.4-.9.9s.1 1.2.7 1.2z" fill="#427bbf"/><path d="M52.1 30.8c-4.9 0-8.8 4-8.8 8.8s4 8.8 8.8 8.8 8.8-4 8.8-8.8-3.9-8.8-8.8-8.8zm0 15.9c-3.9 0-7-3.1-7-7s3.1-7 7-7 7 3.1 7 7-3.1 7-7 7zm2.9-9.9a.85.85 0 0 0-1.3 0l-1.6 1.6-1.6-1.6a.85.85 0 0 0-1.3 0 .85.85 0 0 0 0 1.3l1.6 1.6-1.6 1.6a.85.85 0 0 0 0 1.3c.2.2.4.3.7.3s.5-.1.7-.3l1.6-1.6 1.6 1.6c.2.2.4.3.7.3s.5-.1.7-.3a.85.85 0 0 0 0-1.3l-1.6-1.6 1.6-1.6c.2-.3.2-.9-.2-1.3z" fill="#f58320"/><path d="M43.7 51.9c-.1 0-.1.1-.2.1-.4.3-1.5 1.1-3.2 1.7l-2.2.6c-1.2.2-2.5.3-4 .2-.5 0-1 .3-1 .8s.3 1 .8 1 1 .1 1.5.1c2 0 3.7-.4 5.1-.8-.8 1.6-1.2 3.5-1 5.4.2 2.4.9 4 .9 4.1.1.4.5.6.9.6.1 0 .2 0 .3-.1a.88.88 0 0 0 .5-1.2s-.6-1.5-.8-3.5c-.3-2.8.9-5.5 3-7.2.1-.1.2-.2.3-.2 1-.7 2.4-2 3.6-3.7-.6-.2-1.2-.5-1.7-.8-1.3 1.8-2.7 2.9-2.8 2.9zm-.4-23.1c-.4.4-.3 1 0 1.3a11.92 11.92 0 0 1 1.5 1.8c.4-.4.9-.8 1.5-1.1a16.32 16.32 0 0 0-1.7-2c-.3-.3-.9-.3-1.3 0zm-8 23.6c3.7-.1 7.1-1.6 9.6-4.2.1-.1.2-.3.3-.4-.5-.4-.9-.8-1.3-1.3-.1.1-.2.3-.4.4l-.8.8c0-.1-.1-.2-.2-.3l-.8-.9c-1.3-1.6-3.3-1.6-5.1-1.6-.1-.2-.1-.4-.2-.7.5-.1.9-.4 1.3-.7.5-.5.8-1.2.8-2 0-.7-.3-1.5-.8-2s-1.2-.8-2-.8l-2.2.1c-.6-1-1.5-1.8-2.5-2.4 1.1-.8 1.8-2.2 1.8-3.6 0-2.5-2.1-4.6-4.6-4.6s-4.6 2.1-4.6 4.6c0 .4.1.8.2 1.2-1.9 2.3-2.6 5.2-1.9 8.1.6 2.4 1.9 4.6 3.8 6.5 2.6 2.5 5.9 3.9 9.5 3.9 0-.1.1-.1.1-.1zM28.1 30c1.5 0 2.8 1.2 2.8 2.8 0 1.5-1.2 2.8-2.8 2.8-1.5 0-2.8-1.2-2.8-2.8.1-1.6 1.3-2.8 2.8-2.8zm-4.6 11.6c-.5-2-.1-4.1 1.1-5.8.8 1 2.1 1.6 3.5 1.6h.1c1.1.1 2.1.7 3 1.5l-2.5.1c-.5 0-.9.4-.9 1 0 .5.5.9 1 .9l7.1-.2a1.08 1.08 0 0 1 .7.3c.2.2.3.4.3.7 0 .5-.4 1-1 1l-7.1.2c-.5 0-.9.4-.9 1 0 .5.4.9.9.9l5.8-.2c.4 1 .6 1.7.6 1.7.1.4.5.7.9.7h.7c1.5 0 3 0 3.8 1l.8.9c0 .1.1.1.1.1-1.8 1.1-3.9 1.8-6.1 1.8-3.2.1-6.2-1.1-8.4-3.3-1.8-1.9-3-3.8-3.5-5.9z" fill="#427bbf"/></svg>