<svg xmlns="http://www.w3.org/2000/svg" width="72.001" height="72.001" viewBox="0 0 72.001 72.001"><defs><style>.a{fill:#fff;}.b{fill:#3d7cc9;}.c{fill:#ff8300;}.d,.e{stroke:none;}.e{fill:#e7e8e8;}</style></defs><g transform="translate(-175 -174)"><g transform="translate(156 -507)"><g class="a" transform="translate(19 681)"><path class="d" d="M 66.46244049072266 71.7509765625 L 5.538538455963135 71.7509765625 C 2.622428178787231 71.7509765625 0.2499982863664627 69.37854766845703 0.2499982863664627 66.46244049072266 L 0.2499982863664627 5.538538455963135 C 0.2499982863664627 2.622428178787231 2.622428178787231 0.2499982863664627 5.538538455963135 0.2499982863664627 L 66.46244049072266 0.2499982863664627 C 69.37854766845703 0.2499982863664627 71.7509765625 2.622428178787231 71.7509765625 5.538538455963135 L 71.7509765625 66.46244049072266 C 71.7509765625 69.37854766845703 69.37854766845703 71.7509765625 66.46244049072266 71.7509765625 Z"/><path class="e" d="M 5.538536071777344 0.5 C 2.760276794433594 0.5 0.5 2.760276794433594 0.5 5.538536071777344 L 0.5 66.46244049072266 C 0.5 69.24069976806641 2.760276794433594 71.5009765625 5.538536071777344 71.5009765625 L 66.46244049072266 71.5009765625 C 69.24069976806641 71.5009765625 71.5009765625 69.24069976806641 71.5009765625 66.46244049072266 L 71.5009765625 5.538536071777344 C 71.5009765625 2.760276794433594 69.24069976806641 0.5 66.46244049072266 0.5 L 5.538536071777344 0.5 M 5.538536071777344 0 L 66.46244049072266 0 C 69.52128601074219 0 72.0009765625 2.479690551757812 72.0009765625 5.538536071777344 L 72.0009765625 66.46244049072266 C 72.0009765625 69.52128601074219 69.52128601074219 72.0009765625 66.46244049072266 72.0009765625 L 5.538536071777344 72.0009765625 C 2.479690551757812 72.0009765625 0 69.52128601074219 0 66.46244049072266 L 0 5.538536071777344 C 0 2.479690551757812 2.479690551757812 0 5.538536071777344 0 Z"/></g></g><g transform="translate(-714.899 -330.39)"><path class="b" d="M965.947,538.133c0-2.868-2.234-4.828-4.029-6.4-1.134-.995-2.205-1.934-2.2-2.662.03-2.491,0-8.45,0-8.509a.773.773,0,0,0-.773-.769H949.8a.773.773,0,0,0-.773.769c0,.06-.03,6.019,0,8.509.009.727-1.062,1.667-2.2,2.662-1.795,1.575-4.029,3.534-4.029,6.4a5.762,5.762,0,0,0,.269,1.743c-1.452,4.27.961,6.55,3.1,8.565,1.4,1.316,2.714,2.56,2.858,4.25v7.485a.773.773,0,0,0,.773.773h9.149a.773.773,0,0,0,.773-.773v-7.485c.144-1.69,1.462-2.934,2.858-4.25,2.137-2.015,4.55-4.295,3.1-8.565A5.762,5.762,0,0,0,965.947,538.133Zm-18.1-5.241c1.47-1.29,2.74-2.4,2.723-3.842-.023-1.942-.01-6.015,0-7.714h7.608c.007,1.7.02,5.772,0,7.714h0c-.017,1.439,1.253,2.552,2.723,3.842,1.642,1.44,3.5,3.072,3.5,5.241a4.244,4.244,0,0,1-4.239,4.239,3.552,3.552,0,0,1-2.5-1.121,5.416,5.416,0,0,0-3.219-1.518l-.065,0-.065,0a5.415,5.415,0,0,0-3.219,1.518,3.553,3.553,0,0,1-2.5,1.121,4.244,4.244,0,0,1-4.239-4.239C944.349,535.964,946.21,534.332,947.851,532.892Zm13.668,14.424c-1.555,1.467-3.164,2.984-3.341,5.284,0,.02,0,.039,0,.059V559.4h-7.6V552.66c0-.02,0-.039,0-.059-.177-2.3-1.785-3.818-3.341-5.284-1.712-1.615-3.232-3.05-3.029-5.419a5.773,5.773,0,0,0,4.387,2.02,5.025,5.025,0,0,0,3.489-1.477,2.852,2.852,0,0,1,4.595,0,5.025,5.025,0,0,0,3.49,1.477,5.773,5.773,0,0,0,4.387-2.02C964.751,544.266,963.232,545.7,961.519,547.316Z" transform="translate(-28.353)"/></g><path class="c" d="M6957.5-6667.3c-10.752,0-19.5-2.75-19.5-6.13,0-.963.694-1.886,2.062-2.742a19.432,19.432,0,0,1,5.518-2.106l-.017.008v1.3a14.113,14.113,0,0,0-3.9,1.584c-.952.619-1.435,1.277-1.435,1.957,0,2.7,7.748,4.9,17.271,4.9s17.271-2.2,17.271-4.9c0-1.436-2.213-2.8-6.073-3.731l-.093-1.28-.042-.034c5.283,1.148,8.437,3.036,8.437,5.045C6977-6670.049,6968.252-6667.3,6957.5-6667.3Z" transform="translate(-6746 6885.299)"/></g></svg>