<svg xmlns="http://www.w3.org/2000/svg" width="72.001" height="72.001" viewBox="0 0 72.001 72.001"><defs><style>.a{fill:#fff;}.b{fill:#3d7cc9;}.c{fill:#ff8300;}.d,.e{stroke:none;}.e{fill:#e7e8e8;}</style></defs><g transform="translate(-175 -174)"><g transform="translate(156 -507)"><g class="a" transform="translate(19 681)"><path class="d" d="M 66.46244049072266 71.7509765625 L 5.538538455963135 71.7509765625 C 2.622428178787231 71.7509765625 0.2499982863664627 69.37854766845703 0.2499982863664627 66.46244049072266 L 0.2499982863664627 5.538538455963135 C 0.2499982863664627 2.622428178787231 2.622428178787231 0.2499982863664627 5.538538455963135 0.2499982863664627 L 66.46244049072266 0.2499982863664627 C 69.37854766845703 0.2499982863664627 71.7509765625 2.622428178787231 71.7509765625 5.538538455963135 L 71.7509765625 66.46244049072266 C 71.7509765625 69.37854766845703 69.37854766845703 71.7509765625 66.46244049072266 71.7509765625 Z"/><path class="e" d="M 5.538536071777344 0.5 C 2.760276794433594 0.5 0.5 2.760276794433594 0.5 5.538536071777344 L 0.5 66.46244049072266 C 0.5 69.24069976806641 2.760276794433594 71.5009765625 5.538536071777344 71.5009765625 L 66.46244049072266 71.5009765625 C 69.24069976806641 71.5009765625 71.5009765625 69.24069976806641 71.5009765625 66.46244049072266 L 71.5009765625 5.538536071777344 C 71.5009765625 2.760276794433594 69.24069976806641 0.5 66.46244049072266 0.5 L 5.538536071777344 0.5 M 5.538536071777344 0 L 66.46244049072266 0 C 69.52128601074219 0 72.0009765625 2.479690551757812 72.0009765625 5.538536071777344 L 72.0009765625 66.46244049072266 C 72.0009765625 69.52128601074219 69.52128601074219 72.0009765625 66.46244049072266 72.0009765625 L 5.538536071777344 72.0009765625 C 2.479690551757812 72.0009765625 0 69.52128601074219 0 66.46244049072266 L 0 5.538536071777344 C 0 2.479690551757812 2.479690551757812 0 5.538536071777344 0 Z"/></g></g><g transform="translate(-2.226 -0.522)"><g transform="translate(198.145 190.043)"><path class="b" d="M313.693,254.408a4.7,4.7,0,1,1,4.7-4.7A4.709,4.709,0,0,1,313.693,254.408Zm0-7.862a3.158,3.158,0,1,0,3.158,3.158A3.161,3.161,0,0,0,313.693,246.547Z" transform="translate(-308.989 -245)"/><g transform="translate(23.658 31.275)"><rect class="c" width="1.731" height="5.341" transform="translate(0 1.422) rotate(-55.23)"/></g><g transform="translate(25.265 26.694)"><rect class="c" width="1.731" height="4.563" transform="matrix(0.028, -1, 1, 0.028, 0, 1.731)"/></g><g transform="translate(23.663 20.202)"><rect class="c" width="4.563" height="1.732" transform="matrix(0.817, -0.577, 0.577, 0.817, 0, 2.633)"/></g></g><path class="b" d="M317.687,301.995l5.681-5.644-4.239-4.239a4.016,4.016,0,0,1,2.842-6.861H334.31v10.664a2.572,2.572,0,0,1-1.755,2.436,4.01,4.01,0,0,1-.66.863l-7.355,7.307v6.869a4.02,4.02,0,1,1-8.04,0v-8.542A4.046,4.046,0,0,1,317.687,301.995Zm.153,11.394a2.68,2.68,0,1,0,5.36,0V306.24a.67.67,0,0,1,.2-.475l7.482-7.433a2.572,2.572,0,0,1-1.706-2.419v-3.231l-2.352-2.352h-2.785v-1.34h6.476V292.4h0v3.509a1.228,1.228,0,1,0,2.457,0V286.59H322.238a.678.678,0,0,1-.115,0,2.709,2.709,0,0,0-.453.013,2.65,2.65,0,0,0-1.594.768,2.683,2.683,0,0,0,0,3.79l4.714,4.714a.67.67,0,0,1,0,.949l-6.158,6.118a2.7,2.7,0,0,0-.791,1.9Zm11.334-22.6v-.457h-.457Z" transform="translate(-113.121 -86.502)"/></g></g></svg>