<svg xmlns="http://www.w3.org/2000/svg" width="72.001" height="72.001" viewBox="0 0 72.001 72.001"><defs><style>.a{fill:#fff;}.b{fill:#efa803;}.c,.f{fill:none;}.d,.e{fill:#ff8300;}.d{stroke:#ff8300;stroke-width:0.5px;}.f{stroke:#3d7cc9;stroke-width:1.4px;}.g,.h{stroke:none;}.h{fill:#e7e8e8;}</style></defs><g transform="translate(-175 -174)"><g transform="translate(156 -507)"><g class="a" transform="translate(19 681)"><path class="g" d="M 66.46244049072266 71.7509765625 L 5.538538455963135 71.7509765625 C 2.622428178787231 71.7509765625 0.2499982863664627 69.37854766845703 0.2499982863664627 66.46244049072266 L 0.2499982863664627 5.538538455963135 C 0.2499982863664627 2.622428178787231 2.622428178787231 0.2499982863664627 5.538538455963135 0.2499982863664627 L 66.46244049072266 0.2499982863664627 C 69.37854766845703 0.2499982863664627 71.7509765625 2.622428178787231 71.7509765625 5.538538455963135 L 71.7509765625 66.46244049072266 C 71.7509765625 69.37854766845703 69.37854766845703 71.7509765625 66.46244049072266 71.7509765625 Z"/><path class="h" d="M 5.538536071777344 0.5 C 2.760276794433594 0.5 0.5 2.760276794433594 0.5 5.538536071777344 L 0.5 66.46244049072266 C 0.5 69.24069976806641 2.760276794433594 71.5009765625 5.538536071777344 71.5009765625 L 66.46244049072266 71.5009765625 C 69.24069976806641 71.5009765625 71.5009765625 69.24069976806641 71.5009765625 66.46244049072266 L 71.5009765625 5.538536071777344 C 71.5009765625 2.760276794433594 69.24069976806641 0.5 66.46244049072266 0.5 L 5.538536071777344 0.5 M 5.538536071777344 0 L 66.46244049072266 0 C 69.52128601074219 0 72.0009765625 2.479690551757812 72.0009765625 5.538536071777344 L 72.0009765625 66.46244049072266 C 72.0009765625 69.52128601074219 69.52128601074219 72.0009765625 66.46244049072266 72.0009765625 L 5.538536071777344 72.0009765625 C 2.479690551757812 72.0009765625 0 69.52128601074219 0 66.46244049072266 L 0 5.538536071777344 C 0 2.479690551757812 2.479690551757812 0 5.538536071777344 0 Z"/></g></g><g transform="translate(69.26 39.496)"><g transform="translate(123.74 154.919)"><g transform="translate(0 -0.416)"><path class="b" d="M1715.489,1152.411a.667.667,0,1,1-.655-.542A.606.606,0,0,1,1715.489,1152.411Z" transform="translate(-1696.709 -1135.608)"/></g><g transform="translate(0 -0.416)"><path class="c" d="M1639.15,1053.994s-9.129,1.613-12.22,1.6c-2.937-.015-11.6-1.6-11.6-1.6a31.8,31.8,0,0,1,.541,4.108,25.614,25.614,0,0,1-.647,6.988c-1.279,5.6-6.2,10.755-6.2,16.682,0,0,13.4,3.5,17.943,3.509,4.614.007,18.246-3.509,18.246-3.509,0-5.927-5.134-11.081-6.413-16.682C1638.136,1062.151,1638.517,1057.737,1639.15,1053.994Z" transform="translate(-1609.032 -1053.994)"/><g transform="matrix(0.966, 0.259, -0.259, 0.966, 7.825, 18.429)"><path class="d" d="M1685.074,1222.623c-.85-1.141-.691-.543-1.853-1.508-.383-.317-.777-.645-1.161-.98a8.544,8.544,0,0,1-1.818-2.815,10.04,10.04,0,0,0-3.147-4.246l.312-.442a10.486,10.486,0,0,1,3.32,4.453,8.2,8.2,0,0,0,1.687,2.644c.379.33.77.656,1.15.971,1.135.943,1.053.409,1.942,1.6Z" transform="translate(-1677.096 -1212.632)"/></g><path class="e" d="M1715.489,1152.411a.667.667,0,1,1-.655-.542A.606.606,0,0,1,1715.489,1152.411Z" transform="translate(-1696.709 -1135.608)"/></g><path class="f" d="M1639.15,1053.994s-9.129,1.613-12.22,1.6c-2.937-.015-11.6-1.6-11.6-1.6a31.8,31.8,0,0,1,.541,4.108,25.614,25.614,0,0,1-.647,6.988c-1.279,5.6-6.2,10.755-6.2,16.682,0,0,5.02,1.312,10.281,2.4a46.957,46.957,0,0,0,7.662,1.112c4.614.007,18.246-3.509,18.246-3.509,0-5.927-5.134-11.081-6.413-16.682C1638.136,1062.151,1638.517,1057.737,1639.15,1053.994Z" transform="translate(-1609.032 -1054.41)"/></g></g></g></svg>