<svg xmlns="http://www.w3.org/2000/svg" viewBox="0 0 72 72" xmlns:v="https://vecta.io/nano"><path fill="none" stroke="#e8e6d9" stroke-width=".5" stroke-miterlimit="10" d="M69.7 71H2.3c-.7 0-1.3-.6-1.3-1.3V2.3C1 1.6 1.6 1 2.3 1h67.4c.7 0 1.3.6 1.3 1.3v67.4c0 .7-.6 1.3-1.3 1.3z"/><g fill="#427bbf"><path d="M34.2 21c-.2 0-.5-.1-.6-.3-5.3-6-7.8-11.5-7.9-11.7-.2-.4 0-.9.4-1.1s.9 0 1.1.4c0 .1 2.4 5.5 7.6 11.4.3.3.3.9-.1 1.2-.1.1-.3.1-.5.1zm14.1 11.2c-.1 0-.3 0-.4-.1-2.8-1.5-5.4-3.1-7.8-5-.4-.3-.4-.8-.2-1.2.3-.4.8-.4 1.2-.2 2.3 1.8 4.8 3.4 7.5 4.8.4.2.6.7.4 1.1-.1.5-.4.6-.7.6zm-26.7 32c-.1 0-.3 0-.4-.1-.4-.2-.6-.7-.4-1.1.5-1.1 1.2-2.1 2-3.1 2.6-3.3 2.8-4.4 2.8-4.6s0-.5.2-.6c.2-.2.5-.3.8-.3 7.7 1.2 13.9-.2 18.4-4.1 3.7-3.3 5.5-7.6 6.3-10.7a.89.89 0 0 1 1-.6.89.89 0 0 1 .6 1c-.9 3.3-2.8 8-6.8 11.5-4.7 4.1-11.1 5.7-18.9 4.7-.5 1.3-1.8 3.2-3 4.8-.7.9-1.3 1.8-1.8 2.8-.2.2-.5.4-.8.4zm4.1-8.7zm0 0zm0 0zm0 0zm0 0z"/><path d="M52.7 38.2h-.2c-2.2-.4-2.6-1.8-2.6-2l1.6-.4s.1.2.5.4v-.1c0-.2.1-.4.2-.5l.6-.6a.47.47 0 0 0 .1-.6c-.1-.2-.3-.4-.5-.4l-.7-.1c-.1 0-.2 0-.2-.1l-1.1-.5c-.4-.2-.6-.7-.4-1.1s.7-.6 1.1-.4.7.3 1 .5l.6.1c.9.1 1.6.7 1.9 1.5s.1 1.7-.4 2.3l-.4.4c0 .2-.1.5-.1.9 0 .2-.2.4-.4.6-.3 0-.5.1-.6.1z"/></g><path d="M40.1 29.5c-.3 0-.6-.2-.8-.5v-.1c-.5-1.1-.3-2.4.4-3.4.3-.4.4-.9.4-1.4-.1-.9-.8-1.7-1.8-1.8-.6-.1-1.1.1-1.6.5-.9.8-2.1 1.1-3.3.7l-.8-.3c-.4-.1-.7-.6-.5-1.1.1-.4.6-.7 1.1-.5l.8.3c.6.2 1.2.1 1.6-.3.8-.7 1.8-1.1 2.9-1 1.7.2 3.1 1.6 3.3 3.3.1.9-.2 1.8-.7 2.5-.4.5-.5 1.1-.2 1.7v.1c.2.4 0 .9-.4 1.1-.1.2-.2.2-.4.2zm-.4-10.8c-.5 0-.8-.4-.8-.8v-3.4c0-.5.4-.8.8-.8.5 0 .8.4.8.8v3.4c0 .4-.4.8-.8.8zm8.4 5.8h-3.4c-.5 0-.8-.4-.8-.8s.4-.8.8-.8h3.4c.5 0 .8.4.8.8s-.3.8-.8.8zm-4.9-3.8a1.08 1.08 0 0 1-.7-.3c-.3-.4-.2-.9.1-1.2l2.7-2.1c.4-.3.9-.2 1.2.1.3.4.2.9-.1 1.2l-2.7 2.1c-.2.1-.4.2-.5.2z" fill="#f58320"/><path fill="#427bbf" d="M26.5 56h-.2c-6.1-1.2-8.7-5.7-8.8-5.9-.2-.4-.1-.9.3-1.1s.9-.1 1.1.3h0s2.4 4 7.7 5.1c.5.1.7.5.7 1-.1.4-.4.6-.8.6z"/></svg>