<svg xmlns="http://www.w3.org/2000/svg" viewBox="0 0 72 72" xmlns:v="https://vecta.io/nano"><path fill="none" stroke="#e8e6d9" stroke-width=".5" stroke-miterlimit="10" d="M69.7 71H2.3c-.7 0-1.3-.6-1.3-1.3V2.3C1 1.6 1.6 1 2.3 1h67.4c.7 0 1.3.6 1.3 1.3v67.4c0 .7-.6 1.3-1.3 1.3z"/><path fill="#427bbf" d="M42.9 67.1c-.1 0-.3 0-.4-.1-.4-.2-.6-.8-.4-1.2.1-.2 1.9-3.8 1.5-6.8-.3-2.8-1.5-11.3-1.7-13l-.1-.5-.5.1c-.7.1-1.1.2-1.3.2h-.8c-3.9 0-7.1-1.4-9.6-4.1-2.3-2.5-3.4-5.7-4-7.9-.7-2.6.3-5.4 2.2-6.6.4-.2 8.4-5.6 13.6-10.4l.2-.2-.1-.3c0-.1-.1-.3 0-.4l1.3-10.3c.1-.5.4-.8.9-.8h.1c.5.1.8.5.8 1l-1.1 8.7.9-1c.2-.2.4-.3.7-.3.2 0 .4.1.5.2.2.1.3.4.3.6s0 .5-.2.7c-4.3 5.6-16.5 13.7-17 14-1.3.8-1.9 2.8-1.4 4.6.5 2 1.6 4.9 3.6 7.2 2.1 2.4 4.9 3.5 8.2 3.5h.6c.6-.1 6.1-.8 8.1-4.6.2-.3.5-.5.8-.5.2 0 .3 0 .4.1.2.1.4.3.4.5.1.2 0 .5-.1.7-1.3 2.5-3.8 3.9-5.7 4.6l-.1.2.1.4c.2 1.1 1.4 10.4 1.8 13.4.4 3.6-1.6 7.7-1.7 7.9-.2.3-.5.4-.8.4z"/><g fill="#f58320"><path d="M22.9 44.4c-.2 0-.3-.1-.4-.2-.1-.2-.3-.4-.4-.5s-.1-.3-.1-.4a.76.76 0 0 1 .2-.4c.1-.1.2-.1.3-.1.2 0 .3.1.5.2.1.2.3.4.4.5.2.2.1.6-.1.8-.2 0-.3.1-.4.1zm-4.6-8.3c-.2 0-.5-.2-.5-.4-.1-.2-.2-.4-.2-.7v-.4l.3-.3h.2c.2 0 .5.2.5.4.1.2.1.4.2.6.1.1 0 .3 0 .4l-.3.3c-.1.1-.1.1-.2.1zm1.5-8.6a.55.55 0 0 1-.5-.3c-.2-.3-.1-.6.2-.8l.1-.1.4-.3c.1-.1.2-.1.3-.1.2 0 .4.1.5.2.2.3.1.6-.1.8-.2.1-.3.2-.4.3l-.3.2c-.1.1-.2.1-.2.1zm18.8-14.3c-.2 0-.3-.1-.4-.2-.2-.2-.2-.3-.2-.5s.1-.3.2-.4l.5-.4c.1-.1.2-.1.4-.1s.3.1.4.2a.53.53 0 0 1-.1.8l-.5.4c-.1.1-.2.2-.3.2zM17.5 31.5c-.3 0-.5-.3-.5-.6 0-.2.1-.5.1-.7.1-.3.3-.4.6-.4h.1a.76.76 0 0 1 .4.2c.1.1.1.3.1.4 0 .2-.1.4-.1.6-.1.3-.3.5-.7.5h0zm9.9-9.6c-.2 0-.3-.1-.5-.2-.1-.1-.1-.3-.1-.4 0-.2.1-.3.2-.4l.5-.4c.1-.1.2-.1.3-.1.2 0 .3.1.5.2.1.1.1.3.1.4a.76.76 0 0 1-.2.4l-.5.4c-.1 0-.2.1-.3.1zm-7.1 18.5a.55.55 0 0 1-.5-.3l-.3-.6c-.1-.3 0-.6.2-.8.1 0 .2-.1.3-.1a.55.55 0 0 1 .5.3l.3.6c.2.3.1.6-.2.8-.1.1-.2.1-.3.1zm14.1 11.7h-.1c-.2 0-.5-.1-.7-.2-.1 0-.3-.1-.3-.3-.1-.1-.1-.3-.1-.4.1-.3.3-.4.6-.4h.1c.2.1.4.1.6.1.3.1.5.4.4.7a.47.47 0 0 1-.5.5zM23.6 24.7c-.2 0-.3-.1-.5-.2-.2-.3-.1-.6.1-.8l.5-.4c.1-.1.2-.1.3-.1.2 0 .3.1.5.2.2.3.1.6-.1.8l-.5.4c-.1 0-.2.1-.3.1zm14.8 27.7c-.3 0-.6-.2-.6-.6 0-.3.2-.6.6-.6h.7c.3 0 .6.2.6.5s-.2.6-.5.6c-.3.1-.6.1-.8.1h0z"/><path d="M34.9 16.1c-.2 0-.3-.1-.4-.2-.2-.2-.1-.6.1-.8l.5-.4c.1-.1.2-.1.4-.1s.3.1.4.2.1.3.1.4a.76.76 0 0 1-.2.4l-.6.4c-.1.1-.2.1-.3.1zm-8.8 31.7c-.1 0-.3-.1-.4-.1l-.5-.5a.61.61 0 0 1 0-.8.76.76 0 0 1 .4-.2.76.76 0 0 1 .4.2c.2.1.3.3.5.4.1.1.2.2.2.4s0 .3-.1.4c-.2.1-.4.2-.5.2zm5-28.8c-.2 0-.3-.1-.5-.2-.1-.1-.1-.3-.1-.4 0-.2.1-.3.2-.4l.5-.4c.1-.1.2-.1.3-.1.2 0 .3.1.5.2.1.1.1.3.1.4 0 .2-.1.3-.2.4l-.5.4c0 .1-.1.1-.3.1zM30 50.5c-.1 0-.2 0-.3-.1l-.6-.3-.3-.3c0-.1 0-.3.1-.4a.55.55 0 0 1 .5-.3c.1 0 .2 0 .3.1l.6.3.3.3v.4c-.2.2-.4.3-.6.3zM30 33h-.2c-.5-.2-.7-1-.4-1.7.2-.7.7-1.2 1.2-1.2h.2c.5.2.7 1 .4 1.7S30.4 33 30 33z"/></g></svg>