<svg xmlns="http://www.w3.org/2000/svg" viewBox="0 0 72 72" xmlns:v="https://vecta.io/nano"><path fill="none" stroke="#e8e6d9" stroke-width=".5" stroke-miterlimit="10" d="M69.7 71H2.3c-.7 0-1.3-.6-1.3-1.3V2.3C1 1.6 1.6 1 2.3 1h67.4c.7 0 1.3.6 1.3 1.3v67.4c0 .7-.6 1.3-1.3 1.3z"/><g fill="#f58320"><path d="M42.1 48.9c-.1 0-.2 0-.2-.1-.3-.6-1.3-.8-2.1-.9-.2 0-.4-.1-.6-.1 0-.2.1-.5.1-.8 0-.4.1-1.2.3-1.4.2 0 .6-.1 1-.3.6-.2 1.2-.4 1.8-.4.5 0 .8.2 1 .5h0 0s1.5 1.5.8 2.2c-.7.9-1.6 1.3-2.1 1.3zm-2.6-8.8c-.1 0-.3-.2-.6-.7-.1-.2-.3-.4-.4-.6-.3-.4-.2-.8-.1-1.2.2-.6.7-1.1 1-1.2h.1c.6 0 1.2 1.2 1.6 1.7.2.3.3.4.3.5-.1.1-.4.5-1.3 1.1-.4.4-.6.4-.6.4z"/><path d="M44.1 43c-.1-.1-.2-.3-.4-.7-.1-.2-.1-.3-.1-.3s.2-.1.3-.1c.1-.1.3-.1.4-.2h.1c.4 0 .8.4.8.6 0 .1-.2.2-1 .6 0 0 0 0-.1.1z"/></g><g fill="#427bbf"><path d="M21.8 66c-.5 0-.8-.4-.8-.9.2-5.9.3-17.6-.5-19.4-.2-.5-1-1.6-2-2.5l.9-1.4c1.4 1.1 2.3 2.5 2.6 3.2.2.4.8 1.8.8 11.9l-.1 8.2c0 .6-.4.9-.9.9h0z"/><path d="M13.1 57a7.27 7.27 0 0 1-4.6-1.7c-1.6-1.3-3.6-4-3.9-9.2-.2-3.6.5-6.8 2-9.6 2.7-4.9 7.3-6.5 7.8-6.7 1.3-.5 2.7-.7 4-.7s2.5.2 3.6.7c2.2.9 3.3 3.8 3 5.9-.3 2.6-2.2 3.8-3.5 4.7-.3.2-.6.4-.8.5-2.4 1.8-2 4.1-2 4.3.9 4 .6 7-.9 9.1-1.2 1.8-3 2.4-3.9 2.5-.2.1-.5.2-.8.2zm5.3-26.2c-1.1 0-2.3.2-3.5.6-.1 0-4.4 1.5-6.9 5.9-1.4 2.5-2 5.4-1.8 8.7.2 4.6 1.9 6.9 3.3 8 1.4 1.2 2.9 1.3 3.6 1.3.2 0 .5 0 .7-.1.7-.1 1.9-.5 2.8-1.8 1.1-1.7 1.3-4.3.6-7.8-.1-.4-.7-3.6 2.6-6.1l.9-.6c1.2-.8 2.5-1.6 2.8-3.5.2-1.7-.7-3.7-2-4.2-1-.2-2-.4-3.1-.4zm13 35.2c-.5 0-.8-.4-.8-.8l-.1-8.2c0-10.1.6-11.5.8-11.9.3-.7 1.2-2.1 2.6-3.2l.9 1.4c-1 .8-1.7 2-2 2.5-.8 1.8-.7 13.5-.5 19.4 0 .4-.4.8-.9.8h0z"/><path d="M40.2 57c-.3 0-.6 0-.9-.1-.9-.2-2.7-.7-3.9-2.5-1.4-2.1-1.7-5.1-.9-9.1.1-.5.4-2.6-1.9-4.4-.2-.2-.5-.3-.8-.5-1.3-.9-3.2-2.1-3.5-4.7-.3-2.2.8-5.1 3-5.9 1.1-.5 2.3-.7 3.6-.7s2.7.2 4 .7c.2.1 5.1 1.7 7.8 6.7 1.5 2.8 2.2 6 2 9.6-.3 5.2-2.3 7.9-3.9 9.2-1.3 1-3 1.7-4.6 1.7zm-5.3-26.2c-1.1 0-2.1.2-3 .6-1.2.5-2.2 2.5-2 4.2.2 1.9 1.5 2.7 2.8 3.5l.9.6c3.3 2.5 2.6 5.7 2.6 6.1-.7 3.4-.5 6.1.6 7.8.9 1.3 2.1 1.7 2.8 1.8.2 0 .4.1.7.1.7 0 2.1-.2 3.6-1.3 1.4-1.1 3-3.4 3.3-8 .2-3.3-.4-6.2-1.8-8.7-2.5-4.5-6.8-5.9-6.8-5.9-1.4-.6-2.5-.8-3.7-.8z"/></g><g fill="#f58320"><path d="M54 27.5c-1.5 0-3.1-.5-4.4-1.3-1.6-1.1-2.8-2.7-3.3-4.5l1.6-.3c.4 1.4 1.3 2.6 2.5 3.4 1 .7 2.2 1 3.4 1h.7l.3 1.6c-.1.1-.4.1-.8.1z"/><path d="M54 32.3a12.5 12.5 0 0 1-7-2.1c-2.7-1.8-4.6-4.4-5.3-7.5l1.6-.3c.7 2.7 2.3 5 4.6 6.5 1.8 1.2 3.9 1.8 6.1 1.8.6 0 1.1 0 1.7-.1l.3 1.6-2 .1z"/><path d="M54 22.8c-.6 0-1.2-.2-1.8-.5-.6-.4-1-.9-1.2-1.5l1.7-.3c.1.2.3.4.5.5s.4.2.6.2l.3 1.7c0-.1 0-.1-.1-.1zm4-2.7c-.2 0-.5-.1-.7-.2l-5-3.3c-.2-.1-.4-.4-.5-.6l-2.7-6.4c-.1-.3-.1-.7.1-1l1.5-2.2c.2-.3.5-.4.7-.4a.9.9 0 0 1 .5.1c.2.1.3.3.4.5 0 .2 0 .4-.1.6l-1.3 1.9 2.5 6 4.8 3.2h6.5l1.3-1.9c.2-.2.4-.4.7-.4a.9.9 0 0 1 .5.1c.2.1.3.3.4.5 0 .2 0 .4-.1.6L66 19.4c-.2.3-.5.5-.9.5l-7.1.2h0z"/></g></svg>