<svg xmlns="http://www.w3.org/2000/svg" viewBox="0 0 72 72" xmlns:v="https://vecta.io/nano"><path fill="none" stroke="#e8e6d9" stroke-width=".5" stroke-miterlimit="10" d="M69.7 71H2.3c-.7 0-1.3-.6-1.3-1.3V2.3C1 1.6 1.6 1 2.3 1h67.4c.7 0 1.3.6 1.3 1.3v67.4c0 .7-.6 1.3-1.3 1.3z"/><path fill="#427bbf" d="M12.7 67.3c-.4 0-.8-.3-.9-.8-3.3-25-2.9-42.7 1.1-51.2 2-4.2 2-10.1 2-10.2 0-.5.4-.9.9-.9s.9.4.9.9c0 .3 0 6.4-2.2 10.9-1.5 3.2-2.5 7.8-2.9 13.8-.7 9.2 0 21.5 2 36.4.1.5-.3.9-.7 1-.1.1-.2.1-.2.1z"/><g fill="#f58320"><ellipse transform="matrix(.1785 -.9839 .9839 .1785 4.2638 70.0388)" cx="44.1" cy="32.5" rx="4.1" ry="2.6"/><ellipse transform="matrix(.9826 -.1857 .1857 .9826 -5.5306 5.8792)" cx="28.6" cy="32.5" rx="2.6" ry="4.1"/></g><g fill="#427bbf"><path d="M59.3 67.3h-.1c-.5-.1-.8-.5-.7-1 2-14.9 2.6-27.2 2-36.4-.4-6-1.4-10.6-2.9-13.8-2.2-4.5-2.2-10.6-2.2-10.9 0-.5.4-.9.9-.9s.9.4.9.9h0c0 .1 0 6 2 10.2 4.1 8.4 4.4 26.1 1.1 51.2-.2.4-.6.7-1 .7zM57 5.2h0 0zM36.5 43c-1.1 0-2.3-.3-3.6-.8-2.2-1-2.3-4.3-2.3-7.2 0-1.3 0-2.7-.3-3.4-.7-1.7-3.8-4.7-4.9-5.8-.4-.2-.4-.8-.1-1.1.3-.4.9-.4 1.2-.1.4.4 4.4 4.1 5.3 6.4.4.9.4 2.4.5 4 0 2.3.1 5.1 1.3 5.6 2.4 1.1 4.4.7 5.1-.2.8-1.1.9-3.5.9-6.7 0-.9.2-1.9.7-2.8.4-.8.9-1.5 1.6-2.3 1.4-1.5 2.8-2.5 3-2.6.4-.3.9-.1 1.2.3s.1.9-.3 1.2c-.5.3-1.6 1.2-2.6 2.3-.9 1-1.9 2.4-1.9 3.9 0 3.7-.2 6.2-1.2 7.7-.6 1-2 1.6-3.6 1.6z"/><path d="M32.9 67.6h-.2c-.5-.1-.7-.6-.6-1.1 2-7.4 1.7-24.2 1.6-24.4 0-.5.4-.9.8-.9.5 0 .9.4.9.8 0 .7.4 17.3-1.7 24.9-.1.5-.5.7-.8.7zm6.3 0c-.4 0-.7-.3-.8-.6-2.1-7.6-1.7-24.2-1.7-24.9 0-.5.4-.9.9-.8.5 0 .9.4.8.9 0 .2-.4 17 1.6 24.4.1.5-.1.9-.6 1.1 0-.1-.1-.1-.2-.1z"/></g><path fill="#7ba5d7" d="M36.8 10c-1.4 0-2.3-1.3-2.4-1.5-.3-.4-.2-.9.2-1.2s.9-.2 1.2.2c.2.2.6.7 1 .7.3 0 .6-.4.8-.7.3-.4.8-.5 1.2-.3.4.3.5.8.3 1.2-.8 1.4-1.7 1.6-2.3 1.6z"/><path fill="#427bbf" d="M43.8 36c1 0 1.7-.7 2-1.6.2-.4.2-1.4-.2-1.6-.6-.3-1.1 1-1.4 1.3-.5.5-1.4 0-1.9.6-.6.7.8 1.1 1.3 1.2.1.1.2.1.2.1z"/></svg>