<svg xmlns="http://www.w3.org/2000/svg" viewBox="0 0 72 72" xmlns:v="https://vecta.io/nano"><path fill="none" stroke="#e8e6d9" stroke-width=".5" stroke-miterlimit="10" d="M69.7 71H2.3c-.7 0-1.3-.6-1.3-1.3V2.3C1 1.6 1.6 1 2.3 1h67.4c.7 0 1.3.6 1.3 1.3v67.4c0 .7-.6 1.3-1.3 1.3z"/><path fill="#427bbf" d="M47.1 19.5c-2.5-4.9-6.1-9.2-10.5-12.6-.3-.3-.8-.3-1.1 0-4.4 3.3-8 7.7-10.5 12.6-2.7 5.1-4 10.7-4 16.5s1.3 11.4 3.9 16.5c2.5 4.9 6.1 9.2 10.5 12.6.3.3.8.3 1.1 0 4.4-3.3 8-7.7 10.5-12.6 2.7-5.1 4-10.7 4-16.5s-1.3-11.4-3.9-16.5zM36 63.1C27.6 56.5 22.8 46.7 22.8 36S27.6 15.5 36 8.9c8.4 6.6 13.2 16.5 13.2 27.1S44.4 56.5 36 63.1z"/><path d="M43.6 24.9c-1.7-3.3-4.1-6.2-7.1-8.4h0c-.3-.3-.8-.3-1.1 0h0c-2.9 2.2-5.4 5.1-7.1 8.4-1.8 3.4-2.6 7.2-2.6 11.1s.9 7.6 2.6 11.1c1.7 3.3 4.1 6.2 7.1 8.4.3.3.8.3 1.1 0 2.9-2.2 5.4-5.1 7.1-8.4 1.8-3.4 2.6-7.2 2.6-11.1s-.8-7.6-2.6-11.1zM36 18.4c1.2 1 2.3 2 3.2 3.2-.4.9-1.2 2.4-3 3.9-.1.1-.3.1-.4 0-1.8-1.5-2.7-3-3-3.9.9-1.1 2-2.2 3.2-3.2zm0 35.2c-5.3-4.3-8.4-10.7-8.4-17.6A22.64 22.64 0 0 1 32 22.6c.5 1 1.4 2.4 3.1 3.7l.1.1c.5.4 1.1.4 1.6 0l.1-.1c1.7-1.4 2.6-2.7 3.1-3.7 2.9 3.8 4.4 8.5 4.4 13.4 0 6.9-3.1 13.3-8.4 17.6zM39.2 36c-.8-1.8-1.9-2.7-3.2-2.7s-2.4 1-3.2 2.7c-.7 1.5-1 3.5-1 5.6s.4 4.1 1 5.6c.8 1.8 1.9 2.7 3.2 2.7s2.4-1 3.2-2.7c.7-1.5 1-3.5 1-5.6s-.4-4.1-1-5.6zM36 48c-1 0-2.3-2.5-2.3-6.5S35.1 35 36 35c1 0 2.3 2.5 2.3 6.5S37 48 36 48z" fill="#f58320"/></svg>