<svg xmlns="http://www.w3.org/2000/svg" viewBox="0 0 72 72" xmlns:v="https://vecta.io/nano"><path fill="none" stroke="#e8e6d9" stroke-width=".5" stroke-miterlimit="10" d="M69.7 71H2.3c-.7 0-1.3-.6-1.3-1.3V2.3C1 1.6 1.6 1 2.3 1h67.4c.7 0 1.3.6 1.3 1.3v67.4c0 .7-.6 1.3-1.3 1.3z"/><g fill="#427bbf"><path d="M63 28.3h-1.2v-1.8h.7c3-1.6 3.7-3 3-6.9-.4-2.1-3.5-3-9.4-2.6h-.3c-2.1.1-7.4.1-11-2.9-3.2-2.7-5.7-3.5-10.2-3.4-3.4.1-5.5 1.7-7.9 3.4-.8.6-1.6 1.2-2.4 1.7-2.7 1.7-8.8 1.3-12 1.1-.7 0-1.5-.1-1.7-.1-.1 0-2.4.3-3.7 1.9-.7.8-.9 1.9-.7 3.3.6 4.1 4.8 3.9 5 3.9l.1 1.8c-2.1.1-6.2-.8-6.8-5.4-.2-1.8.1-3.4 1.1-4.6 1.7-2.1 4.6-2.5 4.9-2.5s.9 0 2 .1c2.8.2 8.7.6 11-.8.8-.5 1.5-1 2.3-1.6 2.3-1.7 5-3.6 8.9-3.7 5-.1 7.9.8 11.4 3.8 3.1 2.6 7.8 2.6 9.7 2.4h.3c2.6-.2 10.5-.7 11.2 4.1.7 4.1.2 6.7-4.2 8.9l-.1-.1z"/><path d="M31.2 45.7c-.8 0-1.7-.3-2.6-.8l.8-1.6c1.1.6 1.9.7 2.5.4.9-.5 1.3-1.8 1.4-2.3 0-.8.3-11.4-.5-18-.7-6.2-10.1-6.8-10.2-6.8l.1-1.8c.4 0 11 .7 11.8 8.4.8 7 .5 17.9.5 18.3v.1c0 .1-.4 2.7-2.3 3.7-.4.3-1 .4-1.5.4zm10.3 0c-.6 0-1.1-.1-1.5-.4-1.9-1-2.3-3.6-2.3-3.7v-.1c0-.5-.3-11.3.5-18.3.9-7.7 11.4-8.4 11.8-8.4l.1 1.8c-.1 0-9.5.6-10.2 6.8-.8 6.6-.5 17.2-.5 18 .1.5.5 1.9 1.4 2.3.6.3 1.5.2 2.5-.4l.8 1.6a4.61 4.61 0 0 1-2.6.8z"/><path d="M34.3 60.1c-.2 0-.4-.1-.6-.2-1.5-1.2-4.9-7.6-5.3-10.2-.5-2.6-.3-5.7 0-8.1.2-2.1-1.6-7.9-3.4-9.9-2.1-2.5-2.2-10.2-2.2-10.2 0-.5.4-.9.9-.9s.9.4.9.9c0 2.2.4 7.5 1.8 9.1 1.9 2.3 4 8.5 3.8 11.2-.2 2.1-.4 5.2 0 7.6.4 2.3 3.6 8.3 4.7 9.1.4.3.4.9.1 1.2-.2.3-.5.4-.7.4zm4.1 0c-.3 0-.5-.1-.7-.3-.3-.4-.2-.9.1-1.2 1.1-.9 4.3-6.8 4.7-9.1.4-2.4.2-5.5 0-7.6-.3-2.7 1.8-8.9 3.8-11.3 1.3-1.6 1.8-6.9 1.8-9.1 0-.5.4-.9.9-.9s.9.4.9.9c0 .1 0 7.7-2.2 10.2-1.8 2.1-3.6 7.9-3.4 9.9.2 2.4.4 5.5 0 8.1-.5 2.6-3.8 9-5.3 10.2-.2.2-.4.2-.6.2zm19.8-25.5c-2.8 0-5.2-2.3-5.2-5.1s2.3-5.2 5.2-5.2 5.2 2.3 5.2 5.2c-.1 2.8-2.4 5.1-5.2 5.1zm0-8.5a3.37 3.37 0 0 0-3.4 3.4 3.4 3.4 0 1 0 6.8 0 3.37 3.37 0 0 0-3.4-3.4zM15 33c-2.8 0-5.2-2.3-5.2-5.2s2.3-5.2 5.2-5.2 5.2 2.3 5.2 5.2S17.9 33 15 33zm0-8.5a3.37 3.37 0 0 0-3.4 3.4 3.37 3.37 0 0 0 3.4 3.4 3.37 3.37 0 0 0 3.4-3.4 3.37 3.37 0 0 0-3.4-3.4z"/></g><circle fill="#f58320" cx="42.7" cy="57.3" r="5.6"/><path fill="#fff" d="M45.2 58.1h-4.9c-.1 0-.2-.1-.2-.2v-1.2c0-.1.1-.2.2-.2h4.9c.1 0 .2.1.2.2v1.2c0 .1-.1.2-.2.2z"/></svg>