<svg xmlns="http://www.w3.org/2000/svg" viewBox="0 0 72 72" xmlns:v="https://vecta.io/nano"><path fill="none" stroke="#e8e6d9" stroke-width=".5" stroke-miterlimit="10" d="M69.7 71H2.3c-.7 0-1.3-.6-1.3-1.3V2.3C1 1.6 1.6 1 2.3 1h67.4c.7 0 1.3.6 1.3 1.3v67.4c0 .7-.6 1.3-1.3 1.3z"/><g fill="#427bbf"><path d="M12.5 66.3c-.3 0-.5-.2-.5-.4-2.2-12.1-2.4-34.7-.4-43.8.4-1.8 1-3.6 1.6-5.4 1-3 2-6.1 2-9.1a.47.47 0 0 1 .5-.5.47.47 0 0 1 .5.5c0 3.1-1.1 6.3-2.1 9.4-.6 1.8-1.2 3.5-1.5 5.2-2 9.1-1.7 31.4.5 43.4 0 .4-.2.7-.6.7h0zm45.3 0c-.1 0-.1 0 0 0-.4-.1-.6-.3-.5-.6 2.2-12 2.4-34.3.5-43.4-.4-1.7-.9-3.4-1.5-5.2-1-3.1-2.1-6.3-2.1-9.4a.47.47 0 0 1 .5-.5.47.47 0 0 1 .5.5c0 3 1 6.1 2 9.1.6 1.8 1.2 3.6 1.6 5.4 2 9.2 1.7 31.7-.4 43.8-.2.2-.4.3-.6.3zM35.2 43.2c-.1 0-.1 0 0 0-4.7-.3-4.8-3.9-4.8-6.7 0-1.1 0-2.2-.2-3-.5-1.9-2.9-4.6-4.8-6.7a.61.61 0 0 1 0-.8.61.61 0 0 1 .8 0c2 2.2 4.4 4.9 5 7.1.3 1 .3 2.2.3 3.3 0 2.9 0 5.4 3.7 5.7.3 0 .5.3.5.6s-.3.5-.5.5z"/><path d="M35.2 43.2a.47.47 0 0 1-.5-.5c0-.3.2-.5.5-.6 3.7-.2 3.7-2.7 3.7-5.7 0-1.1 0-2.3.3-3.3.6-2.2 3.1-4.9 5-7.1.2-.2.5-.2.8 0s.2.5 0 .8c-1.9 2.1-4.3 4.7-4.8 6.7-.2.9-.2 1.9-.2 3-.1 2.8-.1 6.4-4.8 6.7zm.7-31.7c-.8 0-1.4-.4-1.8-1-.1-.3-.1-.6.2-.7s.6-.1.7.2.5.4.8.4c.4 0 .7-.1.8-.4.2-.2.5-.3.7-.1s.3.5.1.7c-.1.5-.8.9-1.5.9zm-3.8 54.8c-.4 0-.6-.3-.5-.6l.6-4.8c.7-6.1 1.4-11.3 1.1-18.5 0-.3.2-.5.5-.6.3 0 .5.2.6.5.3 7.3-.4 12.5-1.1 18.7l-.6 4.8c-.1.3-.3.5-.6.5z"/><path d="M38.2 66.3a.47.47 0 0 1-.5-.5l-.6-4.8c-.7-6-1.4-11.3-1.1-18.6 0-.3.3-.5.6-.5s.5.3.5.6c-.3 7.2.4 12.4 1.1 18.5l.6 4.8c-.1.2-.3.5-.6.5z"/></g><ellipse transform="matrix(.6259 -.7799 .7799 .6259 -4.8549 41.5799)" fill="#fff" cx="40.9" cy="25.9" rx="5.8" ry="3.6"/><path d="M38.9 31.5c-.7 0-1.4-.2-2-.6-.9-.7-1.3-1.9-1.1-3.4.2-1.4.8-2.9 1.9-4.1 2.2-2.8 5.4-3.8 7.2-2.4h0c.9.7 1.3 1.9 1.1 3.4-.2 1.4-.8 2.9-1.9 4.1-1.5 1.9-3.5 3-5.2 3zM43 21.3c-1.4 0-3.1 1-4.4 2.6-.9 1.1-1.5 2.4-1.6 3.6-.1 1.1.1 2 .7 2.4 1.3 1 3.9 0 5.7-2.2.9-1.1 1.5-2.4 1.6-3.6.1-1.1-.1-2-.7-2.4h0c-.4-.3-.9-.4-1.3-.4zm1.2-2.7c-.1 0-.2 0-.2-.1-.2-.1-.3-.4-.3-.6l1.3-4.7-2.3-.1a.55.55 0 0 1-.5-.3c-.1-.2-.1-.4.1-.5l4.9-6.5c.2-.2.4-.3.7-.2.2.1.3.4.3.6L46.8 11l2.3.1a.55.55 0 0 1 .5.3c.1.2.1.4-.1.5l-4.9 6.5c-.1.2-.2.2-.4.2zm-.5-6.4l2 .1c.2 0 .3.1.4.2s.1.3.1.5l-.7 2.6 2.6-3.4-2-.1c-.2 0-.3-.1-.4-.2s-.1-.3-.1-.5l.7-2.6-2.6 3.4z" fill="#f58320"/><path fill="#fff" d="M55.9 15.7l5.4-5.1-10.2 4.1 3.4 2.3-5.4 5.1 10.1-4.2z"/><path fill="#f58320" d="M49.1 22.6c-.2 0-.3-.1-.4-.2-.1-.2-.1-.5.1-.7l4.9-4.7-2.8-1.9c-.2-.1-.3-.3-.2-.5 0-.2.1-.4.3-.4l10-4.1c.2-.1.5 0 .6.2s.1.5-.1.7l-4.9 4.7 2.8 1.9c.2.1.3.3.2.5 0 .2-.1.4-.3.4l-10.1 4.2c0-.1 0-.1-.1-.1zm3.1-7.7l2.5 1.7c.1.1.2.2.2.4s0 .3-.2.4l-3.3 3.2 6.6-2.7-2.5-1.7c-.1-.1-.2-.2-.2-.4s0-.3.2-.4l3.3-3.2-6.6 2.7z"/></svg>