<svg xmlns="http://www.w3.org/2000/svg" viewBox="0 0 72 72" xmlns:v="https://vecta.io/nano"><path fill="none" stroke="#e8e6d9" stroke-width=".5" stroke-miterlimit="10" d="M69.7 71H2.3c-.7 0-1.3-.6-1.3-1.3V2.3C1 1.6 1.6 1 2.3 1h67.4c.7 0 1.3.6 1.3 1.3v67.4c0 .7-.6 1.3-1.3 1.3z"/><path fill="#fff" d="M39.8 43.6c0-1.1-.3-2.2-.6-3.2-.5-1.5-1.3-2.9-2.1-4.3a1.1 1.1 0 0 0-1-.6c-.6 0-.9.3-1.2.7-.9 1.5-1.7 3-2.2 4.6s-.7 3.2-.1 4.8c.5 1.5 1.5 2.8 2.6 3.9.5.6 1.3.5 1.9-.1l1.2-1.4c.8-1.3 1.5-2.7 1.5-4.4zm-2.5-12.7c0-.7-.6-1.3-1.3-1.3s-1.3.6-1.3 1.2c0 .7.6 1.3 1.3 1.3.7.1 1.3-.5 1.3-1.2z"/><path d="M39.8 43.6c0 1.7-.7 3.1-1.6 4.5L37 49.5c-.5.6-1.3.6-1.9.1-1.1-1.1-2-2.4-2.6-3.9-.6-1.6-.4-3.2.1-4.8s1.3-3.1 2.2-4.6c.3-.5.6-.7 1.2-.7a1 1 0 0 1 1 .6c.8 1.4 1.6 2.8 2.1 4.3.4.9.7 2 .7 3.1zM36 39.3c-.6 1.1-1 2.2-1.2 3.4-.3 1.4.3 2.6 1 3.8.1.1.1.3.3.1.7-1.1 1.3-2.2 1.1-3.6-.2-1.3-.6-2.4-1.2-3.7zm1.3-8.4c0 .7-.6 1.3-1.3 1.3s-1.3-.6-1.3-1.3.6-1.2 1.3-1.2 1.3.5 1.3 1.2z" fill="#f48220"/><path fill="#427cbf" d="M35.9 64.9c-.1 0-.2 0-.3-.1h0c-1.7-.6-6.2-2.2-10.2-5.6-5.2-4.4-7.8-10-7.8-16.8 0-6.5 3-14.4 8.8-23.2 4.3-6.5 8.6-11.1 8.8-11.3l.8-.8.8.8c.2.2 4.3 4.8 8.6 11.3 5.8 8.9 8.8 16.6 9 23.2.3 8.9-5 14.7-9.5 18-2.2 1.6-4.4 2.8-5.9 3.4-2 .9-2.7 1.1-3.1 1.1zm.1-54.7C32.6 14 19.7 29.6 19.7 42.4c0 11.8 8.8 17.6 16.3 20.4 2.2-.8 16.8-6.5 16.3-20.3-.2-6-3.2-13.7-8.7-22.1-3.1-4.8-6.2-8.6-7.6-10.2z"/><path fill="#7aa3d6" d="M36.1 58.7c-.4 0-1.6-.5-2-.8l.9-1.7c.5.3.9.4 1.1.5l2.1-1 1 1.6c-.7.4-1.3.7-2 1v.3l-1.1.1zm-2.9-1.3c-1.4-.8-2.7-1.7-3.8-2.8l1.3-1.4c1 1 2.2 1.8 3.5 2.5l-1 1.7zm6.8-.6l-1-1.6c1.2-.8 2.3-1.7 3.3-2.8l1.4 1.3a27.62 27.62 0 0 1-3.7 3.1zm-11.3-2.9c-1.1-1.2-2.1-2.5-2.8-3.9l1.7-.9c.6 1.2 1.4 2.4 2.4 3.4l-1.3 1.4zm15.6-1l-1.5-1.2c.9-1.1 1.6-2.3 2.1-3.6l1.8.7a19.08 19.08 0 0 1-2.4 4.1zM25.5 49c-.6-1.5-1-3-1.1-4.7l1.9-.2c.1 1.4.4 2.8 1 4.1l-1.8.8zM47 47.8l-1.8-.6c.4-1.3.6-2.7.6-4.2v-.9l1.9-.1v1c0 1.7-.2 3.3-.7 4.8zm-22.7-4.5V43c0-1.4.2-2.9.5-4.4l1.9.4c-.3 1.4-.5 2.7-.5 4v.2l-1.9.1zm21.4-2.1c-.1-1.3-.5-2.8-.9-4.2l1.8-.6c.5 1.6.8 3.1 1 4.6l-1.9.2zm-18.8-3l-1.9-.5c.4-1.4.9-2.9 1.6-4.4l1.7.8c-.6 1.3-1.1 2.7-1.4 4.1zm17.6-2.1c-.5-1.3-1.1-2.7-1.8-4l1.7-.9 1.9 4.3-1.8.6zm-15.7-2.9l-1.8-.8c.6-1.3 1.4-2.7 2.2-4.1l1.6 1-2 3.9zm13.5-1.9L40 27.5l1.6-1.1c.9 1.3 1.7 2.6 2.4 3.9l-1.7 1zm-10.9-2.8l-1.6-1c.8-1.3 1.7-2.5 2.7-3.8l1.5 1.2c-1 1.2-1.8 2.4-2.6 3.6zm8-1.8l-2.7-3.5 1.5-1.2 2.8 3.6-1.6 1.1zm-4.9-2.6L33 22.9l2-2.3v-2l1.6 1.7a14.82 14.82 0 0 0 .8.9L36 22.5s0-.1-.1-.1l-1.4 1.7z"/></svg>