<svg xmlns="http://www.w3.org/2000/svg" viewBox="0 0 72 72" xmlns:v="https://vecta.io/nano"><path fill="none" stroke="#e8e6d9" stroke-width=".5" stroke-miterlimit="10" d="M69.7 71H2.3c-.7 0-1.3-.6-1.3-1.3V2.3C1 1.6 1.6 1 2.3 1h67.4c.7 0 1.3.6 1.3 1.3v67.4c0 .7-.6 1.3-1.3 1.3z"/><path d="M14.4 63.7L13 61.2c-4.6-10.6-5.9-21.6-2.9-32.8.9-3.4 2.6-6.8 4.5-9.8 1.7-2.8 3.5-5.4 4-8.7.1-.4.4-.9.8-1.2.3 3.4-.7 6.5-2.9 9.2-3.6 4.4-5.4 9.5-6.3 15-1.5 9.6-.2 18.9 3.7 27.9.3.6.5 1.2.7 1.8.1 0 0 .1-.2 1.1zm42.7-1c.3-.8.6-1.6 1-2.3 5.3-12.6 5.6-25.3.8-38.1-.7-1.8-1.8-3.4-2.7-5.1-1.7-2.9-2.4-5.8-2-9 .3.5.6.8.7 1.1.3 3.6 2.2 6.6 3.8 9.8 6.8 14.2 6.4 28.6 0 42.9-.2.4-.6.7-.8 1-.4 0-.6-.2-.8-.3zM28 37.7c3 2.3 5.9 4.7 9.1 7.2 2.2-2.3 3.9-5.7 7.4-7 .1.2.3.3.4.5-.4.4-.8.8-1.2 1.1-4.2 3.4-7.4 7.3-6.7 13.3.4 3.1.1 6.3.1 9.5h-.8c-.1-.7-.2-1.3-.2-2V49.7c.2-3-1-5.1-3.3-6.9l-5.5-4.2c.3-.3.5-.6.7-.9zm7.5-20.2v-4.7c.7 1.2 1.4 2 1.4 2.7 0 .8-.7 1.6-1.1 2.3l-.3-.3z" fill="#427bbf"/><path d="M26.1 40.8c-.1 0-.2 0-.2-.1-.6-.3-1-.4-1-.4-.3-.1-.4-.3-.3-.6s.3-.4.6-.3c0 0 .5.1 1.2.5.2.1.3.4.2.7-.2.2-.4.2-.5.2zm7.7 18.3a.47.47 0 0 1-.5-.5v-1.2V56a.47.47 0 0 1 .5-.5.47.47 0 0 1 .5.5v1.4 1.2a.47.47 0 0 1-.5.5zm-.2-5.2c-.2 0-.5-.2-.5-.4l-.4-2.5c-.1-.3.1-.5.4-.6s.5.1.6.4c.2.8.3 1.7.4 2.6a.47.47 0 0 1-.5.5zm-1.2-5.1a.55.55 0 0 1-.5-.3c-.3-.8-.6-1.6-1-2.3-.1-.2 0-.5.2-.7.2-.1.5 0 .7.2l1.1 2.5c.1.3 0 .5-.3.6h-.2zM30 44.2a.76.76 0 0 1-.4-.2c-.5-.7-1.1-1.3-1.7-1.8-.2-.2-.2-.5 0-.7s.5-.2.7 0c.7.6 1.3 1.2 1.9 2 .2.2.1.5-.1.7H30zM33.5 63c-.3 0-.5-.3-.5-.5 0-.4.1-.8.1-1.2 0-.3.3-.5.5-.4.3 0 .5.3.4.5 0 .4-.1.8-.1 1.2.1.2-.1.4-.4.4zm13.4-22.2c-.2 0-.3-.1-.4-.3s0-.5.2-.7c.7-.4 1.2-.5 1.2-.5.3-.1.5.1.6.3.1.3-.1.5-.3.6 0 0-.4.1-1 .4-.1.2-.2.2-.3.2zm-7.7 18.3a.47.47 0 0 1-.5-.5v-1.2V56a.47.47 0 0 1 .5-.5.47.47 0 0 1 .5.5v1.4 1.2a.47.47 0 0 1-.5.5zm.2-5.2c-.3 0-.5-.3-.5-.5l.4-2.6c.1-.3.3-.4.6-.4.3.1.4.3.4.6-.2.8-.3 1.7-.4 2.5 0 .2-.3.4-.5.4zm1.1-5.1h-.2c-.3-.1-.4-.4-.3-.6.3-.9.7-1.7 1.1-2.5.1-.2.4-.3.7-.2.2.1.3.4.2.7-.4.7-.7 1.5-1 2.3a.55.55 0 0 1-.5.3zm2.5-4.6c-.1 0-.2 0-.3-.1-.2-.2-.3-.5-.1-.7.6-.7 1.2-1.4 1.9-2 .2-.2.5-.2.7 0s.2.5 0 .7c-.6.5-1.2 1.2-1.7 1.8-.2.3-.4.3-.5.3zM39.5 63c-.2 0-.5-.2-.5-.4 0-.4-.1-.8-.1-1.2 0-.3.2-.5.4-.5.3 0 .5.2.5.4 0 .4.1.8.1 1.2.1.2-.1.5-.4.5zm-11.6-9.9h-1c-.1 0-.2-.1-.2-.2s.1-.2.2-.2h1c.1 0 .2.1.2.2.1.1 0 .2-.2.2zm-1.9 0h-1c-.1 0-.2-.1-.2-.2s.1-.2.2-.2h1c.1 0 .2.1.2.2s-.1.2-.2.2zm-1.9 0h-1c-.1 0-.2-.1-.2-.2s.1-.2.2-.2h1c.1 0 .2.1.2.2s-.1.2-.2.2zm-2 0h-1c-.1 0-.2-.1-.2-.2s.1-.2.2-.2h1c.1 0 .2.1.2.2.1.1-.1.2-.2.2zm-1.9 0h-1c-.1 0-.2-.1-.2-.2s.1-.2.2-.2h1c.1 0 .2.1.2.2s-.1.2-.2.2zm-2 0h-1c-.1 0-.2-.1-.2-.2s.1-.2.2-.2h1c.1 0 .2.1.2.2.1.1 0 .2-.2.2zm9.7.6l.8-.9-.8-.8h.7l.8.8-.8.9zm26.6-.6h-1c-.1 0-.2-.1-.2-.2s.1-.2.2-.2h1c.1 0 .2.1.2.2s-.1.2-.2.2zm-2 0h-1c-.1 0-.2-.1-.2-.2s.1-.2.2-.2h1c.1 0 .2.1.2.2.1.1 0 .2-.2.2zm-1.9 0h-1c-.1 0-.2-.1-.2-.2s.1-.2.2-.2h1c.1 0 .2.1.2.2s-.1.2-.2.2zm-1.9 0h-1c-.1 0-.2-.1-.2-.2s.1-.2.2-.2h1c.1 0 .2.1.2.2s-.1.2-.2.2zm-2 0h-1c-.1 0-.2-.1-.2-.2s.1-.2.2-.2h1c.1 0 .2.1.2.2s-.1.2-.2.2zm-1.9 0h-1c-.1 0-.2-.1-.2-.2s.1-.2.2-.2h1c.1 0 .2.1.2.2s-.1.2-.2.2zm-1-1.1l-.8.8.8.9h-.7l-.8-.9.8-.8z" fill="#f58320"/></svg>