<svg xmlns="http://www.w3.org/2000/svg" viewBox="0 0 72 72" xmlns:v="https://vecta.io/nano"><path fill="none" stroke="#e8e6d9" stroke-width=".5" stroke-miterlimit="10" d="M69.7 71H2.3c-.7 0-1.3-.6-1.3-1.3V2.3C1 1.6 1.6 1 2.3 1h67.4c.7 0 1.3.6 1.3 1.3v67.4c0 .7-.6 1.3-1.3 1.3z"/><path d="M46 30.1c-1.4 0-2.7-.5-3.6-1.5-1-1-1.5-2.3-1.5-3.6 0-1.4.5-2.7 1.5-3.6 1-1 2.3-1.5 3.6-1.5 1.4 0 2.7.5 3.6 1.5 1 1 1.5 2.3 1.5 3.6 0 1.4-.5 2.7-1.5 3.6-.9 1-2.2 1.5-3.6 1.5zM29.7 54.3c-1.2 0-2.2 0-3.1-.1-5-.4-9.5-1.8-13-3.9s-5.9-4.8-6.8-7.8c-1.3-4.1-.9-10.9 9.2-19.6 4.8-4.2 9.6-7.5 14.2-9.6 4.5-2.1 8.7-3.2 12.5-3.2s7.2 1.1 9.9 3.3c1.4 1.1 2.5 2.4 3.4 3.9s1.6 3.2 2 5c.8 3.5.7 7.4-.2 11.4l-1.7-.3c.9-3.6 1-7.2.4-10.3-.7-3.5-2.5-6.4-5-8.4s-5.5-3-9-3c-3.6 0-7.7 1.1-12 3.2s-8.9 5.2-13.5 9.3c-1.2 1.1-2.5 2.3-3.7 3.6l-.4.4.3.5c.7 1.1 1.4 1.7 2.4 2h0c.3.1.6.1.9.1 1.1 0 2.5-.5 3.9-1.5.9-.6 1.8-.9 2.7-.9.4 0 .8 0 1.2.1h0c1.2.3 2.5 1 3.8 2.1 1.1.9 2.1 2.1 2.9 3.2l.5.8 3.3-3.2-3.5-5.4a1.69 1.69 0 0 1-.3-1c0-.7.4-1.3.9-1.6h0 0c.3-.2.6-.2.9-.2a1.75 1.75 0 0 1 1.4.7l7.8 9.6c.9 1.1.8 2.8-.2 3.8l-8.6 8.6c-.8.8-1.8 1.2-2.9 1.2H30c-1.2-.1-2.3-.7-3-1.7h0 0s-.1-.1-.1-.2v-.1l-3.1-6.5-4.6 4.4c-.4.4-.9.6-1.4.6s-1-.2-1.4-.6-.6-.9-.6-1.4.2-1 .6-1.4l6.3-6.3c.4-.4.9-.6 1.4-.6h.3c.6.1 1.2.5 1.5 1.1h0l2 3.9 3.2-3.2-.4-.5c-1.4-2.1-4-4.8-6.6-5.4h0c-.3-.1-.7-.1-1-.1-.8 0-1.7.3-2.4.8-1.6 1.1-3 1.6-4.2 1.6-.4 0-.7-.1-1.1-.2h0c-.9-.2-1.6-.8-2.3-1.7l-.6-.8-.6.8C10.2 31.8 9 33.9 8.4 36s-.6 4.2 0 6c.5 1.4 1.3 2.7 2.4 3.9s2.5 2.2 4.1 3.2c3.3 1.9 7.4 3 11.9 3.4 1 .1 2 .1 3 .1 2.5 0 5-.3 7.4-.8.1.6.1 1.1.3 1.7-2.6.5-5.2.8-7.8.8z" fill="#447cbf"/><path d="M53.9 62.1a12.04 12.04 0 0 1-12-12 12.04 12.04 0 0 1 12-12 12.04 12.04 0 0 1 12 12 12.04 12.04 0 0 1-12 12zm0-22.3c-5.7 0-10.3 4.6-10.3 10.3s4.6 10.3 10.3 10.3 10.3-4.6 10.3-10.3c-.1-5.7-4.7-10.3-10.3-10.3zm3.3 14.5c-.2 0-.4-.1-.6-.3l-2.8-2.8-2.7 2.8c-.2.2-.4.3-.6.3s-.4-.1-.6-.3-.3-.4-.3-.6.1-.4.3-.6l2.8-2.8-2.8-2.8c-.3-.3-.3-.9 0-1.2.2-.2.4-.3.6-.3s.4.1.6.3l2.8 2.8 2.8-2.8c.2-.2.4-.3.6-.3s.4.1.6.3.3.4.3.6-.1.4-.3.6L55.1 50l2.8 2.8c.2.2.3.4.3.6s-.2.5-.3.6c-.2.2-.4.3-.7.3z" fill="#f5831f"/></svg>