<svg xmlns="http://www.w3.org/2000/svg" viewBox="0 0 72 72" xmlns:v="https://vecta.io/nano"><path fill="#e8e6d9" d="M69.7 71.3H2.3a1.54 1.54 0 0 1-1.5-1.5V2.3A1.54 1.54 0 0 1 2.3.8h67.4a1.54 1.54 0 0 1 1.5 1.5v67.4c0 .9-.6 1.6-1.5 1.6zM2.3 1.3c-.6 0-1 .5-1 1v67.4c0 .6.5 1 1 1h67.4c.6 0 1-.5 1-1V2.3c0-.6-.5-1-1-1H2.3z"/><g fill="#427bbf"><path d="M37.5 27.1c-.7 0-2.1-.5-3.8-3.6-1.2-2.2-2-5-2.2-7.3a.47.47 0 0 1 .5-.5.47.47 0 0 1 .5.5c.2 2.2 1 4.8 2.1 7 1.2 2.4 2.4 3.2 2.9 3.1.9-.1 1.7-.8 2.3-2.1.5-1.1.9-2.5 1.1-4.1 0-.3.3-.5.6-.4.3 0 .5.3.4.6-.3 2-1.3 6.8-4.3 7.1 0-.3-.1-.3-.1-.3z"/><path d="M51.6 38.4c-.1 0-.2 0-.2-.1-.2-.1-.3-.4-.2-.7.4-.7.6-3.2.3-6.9-.2-2.3-.8-6.8-2.4-11.2-.8-2.2-1.8-4-2.9-5.4-1.2-1.6-2.6-2.7-4-3.3-3.1-1.2-5.5-1.1-6.9-.9-1.6.3-3 1.1-3.7 2-.5.7-.7 1.5-.5 2.2.1.5.5 1.2 1.4 1.6.7.3 1.8.6 3 .9 2.3.5 4.7 1.1 5.7 2.3.7.8 2.6 3 3.4 4.9.1.3 0 .5-.2.7-.3.1-.5 0-.7-.2-.8-1.8-2.6-3.9-3.3-4.7-.8-1-3.2-1.5-5.2-2-1.2-.3-2.4-.6-3.2-.9-1-.5-1.7-1.3-2-2.3s0-2.1.6-3.1c.9-1.2 2.4-2 4.3-2.4 2.3-.4 4.8-.1 7.5.9 1.6.6 3.2 1.9 4.5 3.6a21.7 21.7 0 0 1 3 5.7c1.7 4.5 2.3 9.1 2.5 11.5.3 3.5.1 6.4-.4 7.5 0 .2-.2.3-.4.3zm-15.8.8c-.5 0-1.1-.1-1.5-.2-1-.4-1.8-1-2.2-2-.7-1.6 1.4-3.5 3.6-5.5 1.2-1.1 2.5-2.2 2.9-3 .3-.7.2-1 0-1.8 0-.2-.1-.3-.1-.5-.1-.3.1-.5.4-.6s.5.1.6.4c0 .2.1.3.1.5.2.8.4 1.5-.1 2.5s-1.8 2.1-3.1 3.3c-1.6 1.4-3.8 3.4-3.3 4.3.3.7.9 1.2 1.6 1.5 1.1.4 2.5.2 3.8-.5.2-.1.5 0 .7.2.1.2 0 .5-.2.7-1.2.4-2.2.7-3.2.7z"/><path d="M34.4 63.2h-.1c-.2 0-.8-.1-3.8-1.9l-2.8-1.7c-.2-.2-.3-.5-.1-.7s.5-.3.7-.1c2.5 1.6 5.5 3.4 6.1 3.4.1 0 .7-.1 3.5-1.6l2.9-1.7 5.7-5.3 6-6.2c.1-.5-.3-3.5-1.2-8.1-.9-4.7-1.7-7.7-2-8.2-.7-1-1.1-1.3-1.8-1.7L46 28.3c-1.2-1-1.5-2-1.8-2.9-.1-.4-.2-.7-.4-1.1-.1-.2 0-.5.2-.7.2-.1.5 0 .7.2.2.4.3.8.4 1.2.3.9.5 1.6 1.5 2.4.5.5 1 .7 1.4 1 .7.4 1.3.8 2.1 2 .7 1.1 2 7.4 2.2 8.7l.9 5.4c.4 2.6.2 3 .2 3.2-.1.2-.3.8-6.2 6.5l-5.8 5.4-.1.1s-1.4.9-3 1.7c-2.9 1.7-3.6 1.8-3.9 1.8zm-3-3.8a.55.55 0 0 1-.5-.3c-.1-.3 0-.5.3-.6 1.1-.4 2.6-.6 4.5-.7l2.2.1 9-11.7c-.1-.8-1.6-5.8-2.9-10.2-.1-.3.1-.5.3-.6.3-.1.5.1.6.3a163.3 163.3 0 0 0 1.5 5c1.5 5.1 1.5 5.5 1.5 5.7s-.1.6-4.8 6.6l-4.6 5.8a.76.76 0 0 1-.4.2s-4.2-.4-6.5.5c-.1-.2-.1-.1-.2-.1zm15.5-13.2h0 0zm0-.1z"/><path d="M28 59.7c-.1 0-.2 0-.3-.1l-1.2-1.2c-.2-.2-.1-.5.1-.7s.5-.1.7.1a5.73 5.73 0 0 0 1.1 1.1c.2.2.2.5 0 .7-.1 0-.3.1-.4.1zm.8-16.5c-.2 0-.3-.1-.4-.2-.2-.2-.1-.5.1-.7 1.2-.9 2.5-1.5 4-1.8 1.3-.3 2.1-1.4 2.1-1.9a.47.47 0 0 1 .5-.5.47.47 0 0 1 .5.5c0 1.1-1.2 2.5-2.9 2.9-1.3.3-2.5.8-3.6 1.6-.1.1-.2.1-.3.1zm7.3-11c-.1 0-.2 0-.3-.1-2.1-1.6-5-4.7-6.1-8.3-1-3.2 0-6.8.5-8.7l.1-.2c.1-.3.3-.4.6-.4.3.1.4.3.4.6l-.1.3c-.5 1.9-1.4 5.3-.5 8.2.5 1.6 1.4 3.2 2.6 4.8 1.3 1.6 2.6 2.7 3.1 3 .2.2.3.5.1.7-.1 0-.2.1-.4.1z"/></g><g fill="#f58320"><path d="M25.7 57.3a7.17 7.17 0 0 1-7.2-7.2 7.17 7.17 0 0 1 7.2-7.2 7.17 7.17 0 0 1 7.2 7.2 7.17 7.17 0 0 1-7.2 7.2zm0-13.4c-3.4 0-6.2 2.8-6.2 6.2s2.8 6.2 6.2 6.2 6.2-2.8 6.2-6.2-2.8-6.2-6.2-6.2zm-3.3 10c-.1 0-.3 0-.4-.1-.2-.2-.2-.5 0-.7l6.6-6.6c.2-.2.5-.2.7 0s.2.5 0 .7l-6.6 6.6c0 .1-.2.1-.3.1z"/><path d="M29 53.9c-.1 0-.3 0-.4-.1L22 47.2c-.2-.2-.2-.5 0-.7s.5-.2.7 0l6.6 6.6c.2.2.2.5 0 .7 0 .1-.1.1-.3.1z"/></g></svg>