<svg xmlns="http://www.w3.org/2000/svg" viewBox="0 0 72 72" xmlns:v="https://vecta.io/nano"><path fill="none" stroke="#e8e6d9" stroke-width=".5" stroke-miterlimit="10" d="M69.7 71H2.3c-.7 0-1.3-.6-1.3-1.3V2.3C1 1.6 1.6 1 2.3 1h67.4c.7 0 1.3.6 1.3 1.3v67.4c0 .7-.6 1.3-1.3 1.3z"/><g fill="#427bbf"><path d="M64 29.5h-1.2v-1.8h.8c3.2-1.6 3.8-3.1 3.2-7.2-.4-2.2-3.7-3.1-9.8-2.8h-.3c-2.2.1-7.7.1-11.4-3-3.3-2.8-5.9-3.6-10.7-3.5-3.5.1-5.8 1.8-8.2 3.5-.8.6-1.6 1.2-2.5 1.7-2.8 1.7-9.1 1.3-12.5 1.1-.8 0-1.6-.1-1.8-.1-.1 0-2.5.3-3.8 1.9-.7.9-.9 2-.8 3.4.6 4.3 5 4.1 5.2 4l.1 1.8c-2.2.1-6.4-.9-7.1-5.6-.3-1.9.1-3.5 1.1-4.7C6 16 9 15.6 9.4 15.6c.3 0 .9 0 2.1.1 3 .2 9.1.6 11.4-.9.8-.5 1.6-1.1 2.4-1.7 2.5-1.9 5.1-3.8 9.2-3.9 5.2-.1 8.2.8 11.8 3.9 3.2 2.7 8.2 2.7 10.1 2.6h.3c2.7-.2 10.8-.7 11.6 4.2.7 4.2.2 6.9-4.3 9.2v.4z"/><path d="M31 47.5c-.8 0-1.7-.3-2.7-.8l.8-1.6c1.1.6 2 .7 2.6.4.9-.5 1.4-1.9 1.4-2.5 0-.9.3-11.8-.5-18.7-.7-6.5-10.5-7.1-10.6-7.1l.1-1.8c.5 0 11.4.7 12.3 8.7.8 7.3.5 18.9.5 19v.1c0 .1-.4 2.8-2.4 3.8-.4.4-.9.5-1.5.5zm10.7 0c-.6 0-1.1-.1-1.6-.4-2-1-2.4-3.7-2.4-3.8v-.1c0-.1-.4-11.8.5-19 .9-8 11.8-8.7 12.3-8.7l.1 1.8c-.1 0-9.9.7-10.6 7.1-.8 6.9-.5 17.9-.5 18.7.1.6.5 2 1.4 2.5.7.3 1.5.2 2.6-.4l.8 1.6c-.8.5-1.7.7-2.6.7z"/><path d="M34.2 62.5c-.2 0-.4-.1-.6-.2-1.6-1.2-5-7.9-5.5-10.6s-.3-5.9 0-8.4c.2-2.2-1.7-8.2-3.5-10.4-2.2-2.6-2.2-10.5-2.2-10.6 0-.5.4-.9.9-.9s.9.4.9.9c0 1.5.3 7.7 1.8 9.5 2 2.4 4.2 8.8 3.9 11.7-.2 2.4-.4 5.4 0 7.9.4 2.4 3.7 8.6 4.9 9.5.4.3.4.9.1 1.2-.2.3-.4.4-.7.4zm4.3 0c-.3 0-.5-.1-.7-.3-.3-.4-.2-.9.1-1.2 1.1-.9 4.4-7.1 4.9-9.5.5-2.5.2-5.5 0-7.9-.3-2.8 1.9-9.3 3.9-11.7 1.5-1.8 1.8-8 1.8-9.5 0-.5.4-.9.9-.9s.9.4.9.9c0 .1 0 8-2.2 10.6-1.8 2.2-3.7 8.2-3.5 10.4.2 2.5.5 5.7 0 8.4s-4 9.3-5.5 10.6c-.2 0-.4.1-.6.1zM59.1 36a5.34 5.34 0 0 1-5.3-5.3 5.34 5.34 0 0 1 5.3-5.3 5.34 5.34 0 0 1 5.3 5.3 5.34 5.34 0 0 1-5.3 5.3zm0-8.9c-2 0-3.5 1.6-3.5 3.5s1.6 3.5 3.5 3.5c2 0 3.5-1.6 3.5-3.5s-1.6-3.5-3.5-3.5zm-44.9 7.2A5.34 5.34 0 0 1 8.9 29a5.34 5.34 0 0 1 5.3-5.3 5.34 5.34 0 0 1 5.3 5.3 5.34 5.34 0 0 1-5.3 5.3zm0-8.9c-2 0-3.5 1.6-3.5 3.5s1.6 3.5 3.5 3.5 3.5-1.6 3.5-3.5-1.5-3.5-3.5-3.5z"/></g><circle fill="#f58320" cx="14.1" cy="31.1" r="1.7"/></svg>