<svg xmlns="http://www.w3.org/2000/svg" viewBox="0 0 72 72" xmlns:v="https://vecta.io/nano"><path fill="none" stroke="#e8e6d9" stroke-width=".5" stroke-miterlimit="10" d="M2.3 1h67.4c.7 0 1.3.6 1.3 1.3v67.4c0 .7-.6 1.3-1.3 1.3H2.3c-.7 0-1.3-.6-1.3-1.3V2.3C1 1.6 1.6 1 2.3 1z"/><g fill="#f58320"><path d="M12.8 38.5c3.9 1.9 6.8 5.3 8.3 9.9.8 2.4 1 4.6 1.1 5.9 0 .7-.3 1.3-.8 1.3H21h0c-.2 0-.4-.6-.4-1.3-.1-1.2-.3-3.2-1-5.4-1.4-4.2-3.8-7.2-7.3-8.9-.7-.3-1.1-.9-.9-1.3.1-.4.8-.6 1.4-.2z"/><path d="M16.1 35.8c.7 1.2 1.5 3.4.7 6.5l-1.6-.4c.6-2.3.1-3.9-.3-4.9-.3-.7-.5-1.4-.1-1.7.2-.3.9-.2 1.3.5zm4.6 14.5v.8c-.1 0-1.8.1-2.7 2-.3.7-.8 1.2-1.2 1.1s-.7-.8-.4-1.4c1.1-2.5 3.2-3.2 4.3-3.2v.7z"/></g><path d="M15.9 29.7c.4 0 .7 0 1 .1 1 .2 2.9.7 4.3 2.7s1.8 4.9 1.2 8.6c-.1.4-.4.7-.8.7h-.2c-.5-.1-.8-.6-.7-1.1.5-3.1.2-5.6-.9-7.2-1-1.5-2.4-1.9-3.1-2-.2 0-.5-.1-.7-.1-.8 0-2.4.2-4 1.5-1.5 1.2-3.4 3.7-3.6 8.8C8 50 12.1 54.2 14.6 56c2.2 1.5 4.7 2.4 7.2 2.4 1.2 0 2.3-.2 3.3-.6 1.3-.5 2.4-2.8 2.2-4.6-.2-2.1-1.6-3.1-2.7-3.8-.4-.3-.6-.8-.4-1.2.1-.3.4-.5.8-.5.1 0 .3 0 .4.1 2.2 1.3 3.4 3 3.7 5.2.3 2.4-.9 5.5-3.3 6.5-1.2.5-2.6.7-4 .7-2.8 0-5.7-1-8.2-2.7-2.2-1.6-4-3.7-5.2-6.2-1.3-2.8-1.9-6.1-1.8-9.6.3-5.7 2.5-8.6 4.3-10.1 1.5-1.2 3.3-1.9 5-1.9zM27 13.4c.2 9.6 0 27.6-.8 29.3-.5 1-1.5 3.3-5.5 4.5l-.4-1.7c3.1-.9 3.9-2.6 4.3-3.5.9-2 .7-25 .7-28.5l1.7-.1zm17.9 16.3c1.7 0 3.6.7 5 1.9 1.8 1.4 4 4.4 4.3 10.1.2 3.6-.4 6.8-1.8 9.6-1.2 2.5-3 4.7-5.2 6.2-2.5 1.8-5.4 2.7-8.2 2.7-1.4 0-2.8-.3-4-.7-2.4-1-3.5-4.1-3.3-6.5.3-2.2 1.5-3.9 3.7-5.2.1-.1.2-.1.4-.1.3 0 .6.2.8.5.2.4 0 1-.4 1.2-1 .6-2.4 1.7-2.7 3.8-.2 1.8.8 4.1 2.2 4.6 1 .4 2.1.6 3.3.6 2.4 0 5-.9 7.2-2.4 2.5-1.8 6.6-6 6.2-14.3-.3-5.1-2.1-7.6-3.6-8.8-1.6-1.3-3.2-1.5-4-1.5-.3 0-.5 0-.7.1-.7.1-2.1.5-3.1 2-1.1 1.6-1.4 4.1-.9 7.2.1.5-.2 1-.7 1.1h-.2c-.4 0-.8-.3-.8-.7-.6-3.7-.2-6.6 1.2-8.6s3.3-2.6 4.3-2.7c.3-.1.7-.1 1-.1zm-9.3-16.3c0 3.5-.2 26.6.7 28.6.2.5 1.4 2.7 4.3 3.5l-.4 1.7c-3.1-.8-4.5-3-5.2-4.1-.1-.2-.3-.4-.4-.5-1.3-1.7-1-19.6-.8-27.3v-1.9h1.8z" fill="#427bbf"/><g fill="#f58320"><path d="M49.5 38.7c.2.4-.3 1-.9 1.3-3.5 1.7-5.9 4.7-7.3 8.9-.7 2.1-1 4.1-1 5.4-.1.7-.4 1.3-.8 1.4-.4 0-.8-.6-.8-1.3.1-1.3.3-3.5 1.1-5.9 1.5-4.6 4.4-8 8.3-9.9.6-.5 1.3-.3 1.4.1z"/><path d="M46.1 35.3c.3.3.2 1-.1 1.7-.5 1-.9 2.7-.3 4.9l-1.6.4c-.8-3.1 0-5.3.7-6.5.4-.7 1-.8 1.3-.5zm-1.6 17.4c.3.7.1 1.3-.4 1.4-.4.1-.9-.4-1.2-1.1-1-1.9-2.7-2-2.7-2l.1-1.6c1 .1 3.1.9 4.2 3.3z"/></g><path fill="none" stroke="#f58320" stroke-linecap="round" stroke-linejoin="round" stroke-miterlimit="10" d="M62.1 36.7v9.5H46.9"/><g fill="#427bbf"><path d="M62.1 38.1c-.5 0-.9-.4-.9-.8l-1.4-7.6v-.3-.1l-.1-7.6H61l.1 7.5v.2l1 5.7 1.1-5.6v-.2l-.1-7.5h1.3l.1 7.7v.1s0 .1-.1.3L63 37.3c-.1.4-.5.8-.9.8zm.4-1.1h0zm-.8 0h0zm2.8-19.3h-1.3l.1-3.9c0-.2-.1-.3-.2-.5-.1-.1-.3-.2-.5-.2h-1c-.2 0-.3.1-.5.2-.1.1-.2.3-.2.5v3.9h-1.3v-3.9c0-.5.2-1 .6-1.4s.9-.6 1.4-.6h1c.5 0 1 .2 1.4.6s.6.9.6 1.4l-.1 3.9z"/><path d="M62.1 23c-1.9 0-3.3-1.5-3.3-3.4a3.33 3.33 0 0 1 3.3-3.3c.9 0 1.7.4 2.3 1s1 1.5 1 2.4-.4 1.7-1 2.3c-.6.7-1.4 1-2.3 1zm0-5.3c-1.1 0-2 .9-2 2s.9 2 2 2c.5 0 1-.2 1.4-.6s.6-.9.6-1.4h0c0-.5-.2-1-.6-1.4s-.9-.6-1.4-.6zm-1.687 12.199l.013-1.3 3.6.036-.013 1.3z"/></g><g fill="#f58320"><circle cx="45.4" cy="49.2" r=".7"/><circle cx="45.5" cy="46.1" r=".7"/><circle cx="49.7" cy="41.8" r=".7"/></g></svg>