<svg xmlns="http://www.w3.org/2000/svg" viewBox="0 0 72 72" xmlns:v="https://vecta.io/nano"><path fill="none" stroke="#e8e6d9" stroke-width=".5" stroke-miterlimit="10" d="M69.7 71H2.3c-.7 0-1.3-.6-1.3-1.3V2.3C1 1.6 1.6 1 2.3 1h67.4c.7 0 1.3.6 1.3 1.3v67.4c0 .7-.6 1.3-1.3 1.3z"/><path d="M43.4 18.8c-3 0-5.4-2.4-5.4-5.4S40.4 8 43.4 8s5.4 2.4 5.4 5.4-2.4 5.4-5.4 5.4zm0-8.9c-1.9 0-3.5 1.6-3.5 3.5s1.6 3.5 3.5 3.5 3.5-1.6 3.5-3.5-1.5-3.5-3.5-3.5zM44.5 64a3.76 3.76 0 0 1-3.7-3.7V50a1.1 1.1 0 0 0-.6-1l-9.8-5.1c-1.8-.9-3-2.8-3-4.8v-.2a5.42 5.42 0 0 1 4.8-5.4L39 21.1c1-1.8 3.2-2.5 5-1.6.9.5 1.6 1.3 2 2.3.3 1 .2 2.1-.3 3l-7.4 13.5 8.5 5.3c.9.6 1.4 1.5 1.4 2.5v14.2a3.76 3.76 0 0 1-3.7 3.7zM32.8 35.3c-1.9 0-3.5 1.6-3.5 3.5v.2c0 1.4.8 2.6 2 3.2h0l9.8 5.1c1 .5 1.6 1.5 1.6 2.7v10.3a1.8 1.8 0 1 0 3.6 0V46.1c0-.4-.2-.8-.5-1l-10-6.2 8.2-15c.3-.5.3-1 .2-1.5-.2-.5-.5-.9-1-1.2-.9-.5-2.1-.1-2.6.8l-7.3 13.3h-.5z" fill="#7ba5d7"/><path fill="#f58220" d="M32.8 38.6a4.23 4.23 0 0 1-4.2-4.2 4.23 4.23 0 0 1 4.2-4.2 4.23 4.23 0 0 1 4.2 4.2 4.23 4.23 0 0 1-4.2 4.2zm0-6.6a2.26 2.26 0 0 0-2.3 2.3 2.26 2.26 0 0 0 2.3 2.3 2.26 2.26 0 0 0 2.3-2.3c0-1.2-1-2.3-2.3-2.3z"/><path d="M26.838 27.79l1.802-.602 1.205 3.604-1.802.602zm-3.636 3.669l.848-1.7 2.953 1.473-.848 1.7zm.393 3.259l3.509-1.173.602 1.802-3.509 1.173z" fill="#427cbf"/></svg>