<svg xmlns="http://www.w3.org/2000/svg" viewBox="0 0 72 72" xmlns:v="https://vecta.io/nano"><path fill="none" stroke="#e8e6d9" stroke-width=".5" stroke-miterlimit="10" d="M69.7 71H2.3c-.7 0-1.3-.6-1.3-1.3V2.3C1 1.6 1.6 1 2.3 1h67.4c.7 0 1.3.6 1.3 1.3v67.4c0 .7-.6 1.3-1.3 1.3z"/><g fill="#427bbf"><path d="M20.2 54.1c-.5 0-.9-.4-.9-.8l-1.4-7.6v-.3-.1l-.1-7.6h1.3l.1 7.5v.2l1 5.7 1.1-5.6v-.2l-.1-7.5h1.3l.1 7.7v.1s0 .1-.1.3L21 53.5c0 .2-.4.6-.8.6zm.3-1.1h0zm-.7 0h0zm2.8-19.3h-1.3l.1-3.9c0-.2-.1-.3-.2-.5-.1-.1-.3-.2-.5-.2h-1c-.2 0-.3.1-.5.2-.1.1-.2.3-.2.5v3.9h-1.3v-3.9c0-.5.2-1 .6-1.4s.9-.6 1.4-.6h1c.5 0 1 .2 1.4.6s.6.9.6 1.4l-.1 3.9z"/><path d="M20.2 39c-.1 0-.1 0 0 0-1.9 0-3.3-1.5-3.3-3.4a3.33 3.33 0 0 1 3.3-3.3c.9 0 1.7.4 2.3 1s1 1.5 1 2.4-.4 1.7-1 2.3c-.6.7-1.5 1-2.3 1zm0-5.3c-1.1 0-2 .9-2 2s.9 2 2 2c.5 0 1-.2 1.4-.6s.6-.9.6-1.4h0c0-.5-.2-1-.6-1.4s-.9-.6-1.4-.6zm-1.787 12.16l.013-1.3 3.6.036-.013 1.3z"/></g><g fill="#f58320"><circle cx="17.6" cy="14.1" r=".7"/><circle cx="17.5" cy="17.2" r=".7"/><circle cx="18.2" cy="20.3" r=".7"/></g><path d="M47.9 16.7v-.2-.1a.76.76 0 0 0-.2-.4c-.1-.1-.2-.1-.4-.1-.8 0-2.1.3-3.2 1.3-2.2 2-3.1 5.7-2.8 11.2.1 1.9.4 3.9.9 5.9.5 2.1.7 4.2.6 6.3 0 .9-.1 1.8-.3 2.7.4.4.7.8 1 1.2.3-1.3.4-2.6.5-3.8.1-2.2-.1-4.5-.7-6.6-.5-2-.8-3.9-.9-5.7-.4-6.3 1-9 2.3-10.2h0c.9-.8 1.8-1 2.4-1.1.6 0 .7-.1.8-.4h0zm-20.1.6h0c-1.1-1-2.4-1.3-3.2-1.3-.1 0-.2 0-.3.1s-.2.2-.2.4v.1.2c0 .2.2.4.5.4.6 0 1.6.3 2.4 1.1 1.3 1.2 2.7 3.9 2.3 10.2-.1 1.8-.4 3.8-.9 5.7-.5 2.2-.8 4.4-.7 6.6.1 1.3.2 2.5.5 3.7l.1-.2c.3-.4.6-.7.9-1.1l-.3-2.6c-.1-2.1.1-4.2.6-6.3.5-2 .8-4 .9-5.9.5-5.4-.4-9.2-2.6-11.1h0zm-12.5-4.2h0c.5-1.6 1.7-2.8 3.2-3.2 1.3-.4 2.3-.1 3.3.7 1 .9 1.3 2.4.7 3.7 0 .1-.1.1-.2.2h-.2a.76.76 0 0 0-.4-.2c-.4-.2-.9-.4-1.4-.4h-.7c.2.1.4.3.6.4l1 .8.4.4.3.3c.1.1.1.2 0 .3 0 .1-.1.2-.2.2-.2 0-.4.1-.6.1-.4.1-.7.2-1 .2-.1 0-.2.1-.4.1.1 0 .3.1.4.1.3.1.6.2 1 .2.2 0 .4.1.6.1.1 0 .2.1.2.2s0 .2-.1.3c-.1 0-.1.1-.2.1-.1.1-.3.2-.4.3-.3.2-.5.5-.7.8-.1.2-.2.3-.3.5 0 .1-.1.2-.1.3h.3c.2 0 .4-.1.6-.1.4-.1.7-.3 1-.6.1-.1.1-.1.2-.1s.1 0 .2.1c.8 1 .9 2.3.3 3.3-.2.4-.6.7-1 .9s-.8.3-1.3.3h-.6c-2.1-.3-3.6-1.2-4.4-2.6-1.5-2.3-.7-5.8-.1-7.7h0zm4.3 11.6c.3 0 .5.1.8.1.7 0 1.3-.1 1.8-.4.6-.3 1.2-.8 1.5-1.3.9-1.4.7-3.3-.4-4.7l-.1-.1c0-.2-.2-.3-.4-.3s-.3-.1-.3-.3l.1-2.1c0-.2.1-.3.3-.3a.55.55 0 0 0 .5-.3c.9-1.7.6-4-.9-5.3-.9-.8-1.9-1.2-3-1.2-.5 0-.9.1-1.4.2-1.9.6-3.3 2-3.9 4-.8 2.6-1.4 6.2.2 8.8 1.1 1.7 2.8 2.8 5.2 3.2h0zm10.9 21.2h0c1.1-1.5 2.6-2.4 4.4-2.6 1.8-.3 3.6.2 5.1 1.4.5.4 1 .9 1.4 1.4.5.6.9 1.3 1.1 2 .3.7.4 1.5.4 2.2-.1 2.2-1.1 4.3-2.9 5.8s-3.1 3.4-3.8 5.6c0 .1-.1.2-.3.2-.1 0-.2-.1-.3-.2-.7-2.2-2-4-3.8-5.6-1.8-1.5-2.8-3.6-2.9-5.8 0-.8.1-1.5.4-2.3.3-.9.8-1.5 1-1.9.2-.1.2-.2.2-.2h0zm-.9-.7h0c0 .1-.1.1-.1.2a9 9 0 0 0-1.2 2.1c-.3.9-.5 1.8-.5 2.7.1 2.5 1.3 4.9 3.3 6.7 1.8 1.6 3.1 3.5 3.7 5.7.1.5.6.8 1.1.8h.2c.5 0 .9-.3 1.1-.8.6-2.2 1.8-4.1 3.7-5.7 2-1.7 3.2-4.1 3.3-6.7 0-.9-.1-1.8-.4-2.6s-.7-1.6-1.3-2.3c-.4-.6-1-1.1-1.6-1.6A7.88 7.88 0 0 0 36 42c-.4 0-.7 0-1.1.1-2.2.3-4.1 1.4-5.3 3.1h0zm27-24.2c-.8 1.4-2.3 2.2-4.4 2.6h-.6c-.5 0-.9-.1-1.3-.3s-.8-.5-1-.9c-.6-1-.5-2.4.3-3.3h0c0-.1.1-.1.2-.1s.2 0 .2.1c.3.3.6.5 1 .6.2.1.4.1.6.1h.3c0-.1-.1-.2-.1-.3-.1-.2-.2-.4-.3-.5-.2-.3-.4-.5-.7-.8-.1-.1-.3-.2-.4-.3-.1 0-.1-.1-.2-.1-.1-.1-.2-.2-.1-.3 0-.1.1-.2.2-.2.2 0 .4-.1.6-.1.4-.1.7-.2 1-.2.1 0 .2-.1.4-.1-.1 0-.3-.1-.4-.1-.3-.1-.6-.2-1-.2-.2 0-.4-.1-.6-.1-.1 0-.2-.1-.2-.2V16c.1-.1.1-.2.3-.3l.4-.4c.3-.3.6-.5 1-.8.2-.1.4-.3.6-.4h-.7c-.5.1-.9.2-1.4.4-.1.1-.3.2-.4.3s-.2.1-.3 0-.2-.2-.1-.3v-.2c-.4-1.2-.1-2.6.9-3.4 1-.9 2-1.1 3.3-.7 1.5.5 2.7 1.7 3.2 3.2.4 1.6 1.2 5.1-.3 7.6h0zM53.9 8.7h0c-1.6-.5-3.1-.2-4.4 1s-1.7 3-1.2 4.6c.1.2.3.4.6.4.1 0 .1 0 .2.1s.1.1.1.2l.2 2.8c0 .2-.1.3-.3.3s-.3.1-.4.2c-1.1 1.3-1.3 3.3-.4 4.7.4.6.9 1 1.5 1.3s1.2.4 1.8.4c.3 0 .5 0 .8-.1 2.4-.4 4.2-1.4 5.2-3.1 1.6-2.7 1-6.3.2-8.8-.6-1.9-2.1-3.4-3.9-4h0z" fill="#427bbf"/><g fill="none" stroke-miterlimit="10" stroke="#f58320" stroke-linecap="round" stroke-linejoin="round"><path d="M35.8 63.4s-2.2-13.6-4.3-15.5m-11.2 6v9.6h15.2"/><path stroke-width=".6" d="M28.6 43.3s-.5-3.9.4-9.1 2-10.3.5-13.2c-1.5-2.8-2.5-3.9-4.9-4.5s-5.7.6-5.7.6"/></g></svg>