<svg xmlns="http://www.w3.org/2000/svg" viewBox="0 0 72 72" xmlns:v="https://vecta.io/nano"><path fill="none" stroke="#e8e6d9" stroke-width=".5" stroke-miterlimit="10" d="M69.7 71H2.3c-.7 0-1.3-.6-1.3-1.3V2.3C1 1.6 1.6 1 2.3 1h67.4c.7 0 1.3.6 1.3 1.3v67.4c0 .7-.6 1.3-1.3 1.3z"/><path d="M22.3 23.9c.4.4.3 1.1-.1 1.5-.3.3-.8.3-1.1.2l-6.8-3.1c-.5-.2-.8-.9-.5-1.4.2-.5.9-.7 1.4-.5l6.8 3.1c.1 0 .2.1.3.2zM37 12.6c.3.3.3.8.2 1.1L34 20.6c-.2.5-.9.8-1.4.5-.5-.2-.8-.9-.5-1.4l3.1-6.8c.2-.5.9-.8 1.4-.5.2.1.3.1.4.2h0zm-10.9 1c.1.1.2.3.2.5l1.3 6a1.11 1.11 0 0 1-.8 1.3 1.11 1.11 0 0 1-1.3-.8h0l-1.3-6a1.11 1.11 0 0 1 .8-1.3c.5-.1.9 0 1.1.3z" fill="#8eadd6"/><path d="M56.2 28.5c-.5 0-.9.4-.9.9v5.3H37.4c-.5 0-1.1 0-1.6-.1l-2.2-.4c-1.9-.3-3.9-.1-5.7.7a.88.88 0 0 0-.5 1.2.88.88 0 0 0 1.2.5c.8-.3 1.6-.5 2.4-.6l3.6 2.2c1.3.8 2.8 1.3 4.4 1.4L55.3 41v6.2c-2.9.2-12.2.6-18.8-.2-2.2-.3-2.9-.7-3.1-.9.5-.6 3.4-1.8 7.5-1.8.5 0 .9-.4.9-.9s-.4-.9-.9-.9c-3.9 0-8.1 1.1-9.2 2.8h0c-.7.8-.8 1.9-.4 2.9.7 1.5 2.6 2.6 6 3.5 4 1 10.1 1.6 18.1 1.6V58c-2.9.2-12.2.6-18.8-.2-1.8-.2-2.6-.5-3-.7.8-.5 3.4-1.4 7.4-1.4.5 0 .9-.4.9-.9s-.4-.9-.9-.9c-3.1 0-7.7.6-9.1 2.3l-.3-.2c-.7.8-.8 1.9-.4 2.9.7 1.5 2.6 2.6 6 3.5 4 1 10.1 1.6 18.1 1.6v1.9c0 .5.4.9.9.9s.9-.4.9-.9v-2.8c0-.5-.4-.9-.9-.9-14.6-.1-20.1-1.7-22.1-2.9.7.2 1.4.3 2.1.4 3.1.4 6.8.5 9.9.5h3.2c3.9-.1 6.9-.3 6.9-.3.5 0 .9-.5.9-1h0v-.1-.1-6.2c0-.5-.4-.9-.9-.9-14.7-.3-20.2-1.9-22.2-3.1.7.2 1.4.3 2.2.4 3.1.4 6.8.5 9.9.5h3.2c3.9-.1 6.9-.3 6.9-.3.5 0 .9-.4.9-.9v-8c0-.5-.4-.9-.9-.9l-17-1.4c-1.3-.1-2.5-.5-3.6-1.2l-.4-.2h.2c.6.1 1.2.1 1.9.1h18.8c.5 0 .9-.4.9-.9v-6.2c.1-.6-.3-1-.8-1zM26.7 43.8c-.5 0-1 .4-1 .9l-1 19.3c0 .5.4 1 .9 1s.9-.4.9-.9l1-19.3c.1-.6-.3-1-.8-1zm30-28c-4.9-.9-7.6-4.2-7.9-4.6l-2.9-5.5c-.2-.5-.8-.6-1.3-.4s-.6.8-.4 1.3L47 12l.2 9.7-30.1 9.1c-3.3.9-5.8 3.7-6.2 7.1L7.7 64.5c-.1.5.3 1 .8 1h.1c.5 0 .9-.4.9-.8L12.9 38c.3-2.7 2.2-4.9 4.8-5.5l30.8-9.3c.4-.1.7-.5.7-.9l-.2-8.2c2.1 1.8 4.6 3 7.3 3.6.5.1 1-.2 1.1-.7.2-.6-.2-1.1-.7-1.2h0zm-18 17.4c.4 0 .7-.2.9-.6 0 0 .5-1.2 2.2-2.3 2.9-1.9 7.1-2.2 10.2-2 .5 0 .9-.4 1-.9 0-.5-.4-.9-.9-1h0c-11.8-.5-14.1 5.3-14.2 5.5-.2.5.1 1 .5 1.2.1 0 .2.1.3.1h0zm21.9 2.9l2.7.1c.5 0 .9-.4.9-.9s-.4-.9-.9-.9l-1.8-.1v-4.8c0-.5-.4-.9-.9-.9s-.9.4-.9.9v5.7c.1.5.4.9.9.9zm-.1 12.8l2.7.5c.5.1 1-.2 1.1-.7s-.2-1-.7-1.1h0l-1.9-.4V40c0-.5-.4-.9-.9-.9s-.9.4-.9.9v8c-.1.4.2.8.6.9zm3.1 9.3l-1.9-.4v-5.1c0-.5-.4-.9-.9-.9s-.9.4-.9.9v5.9c0 .4.3.8.8.9l2.7.5c.5.1 1-.2 1.1-.7-.1-.5-.4-1-.9-1.1h0zm-2.9 3.7c-.5 0-.9.4-.9.9h0v3c0 .5.4.9.9.9s.9-.4.9-.9v-3c0-.5-.4-.9-.9-.9h0z" fill="#4881c3"/><path d="M25.7 40.3l.8-1.8a.88.88 0 0 0-.5-1.2.88.88 0 0 0-1.2.5l-.8 1.6c-.9-.5-2-.5-3-.2l-2.6.9c-.2.1-.4.1-.6.1-.7-.1-1.2-.8-1.1-1.5 0-.1.1-.3.1-.4l.2-.4c.2-.4.6-.7 1-.7l4.5-.4c.5-.1.9-.5.8-1s-.5-.9-1-.8l-4.5.4c-1.1.1-2 .7-2.5 1.7l-.2.4c-.8 1.6-.2 3.5 1.3 4.3.8.4 1.7.5 2.5.2l2.6-.9c.5-.2 1.1-.1 1.6.1 1 .4 2.1 0 2.6-.9h0zm-4.1 3.2l-.4-.2c-.6-.4-1.4-.5-2.1-.3l-.9.2c-1.2.3-2.1 1.4-2.2 2.7v1.5l-1.9 16.5c-.1.5.3 1 .8 1 .5.1 1-.3 1-.8h0l1.9-16.6v-.1-1.5c0-.4.3-.8.7-.9l.9-.2c.3-.1.5 0 .7.1l.4.2c.5.3.6.9.3 1.3l-.3.3c-.6.5-1 1.2-1.1 1.9l-1.9 15c-.1.5.3 1 .8 1 .5.1 1-.3 1-.8l1.9-15c0-.3.2-.5.4-.7 1.3-.9 1.5-2.7.6-4 0-.1-.3-.4-.6-.6h0z" fill="#f1873b"/></svg>