<svg xmlns="http://www.w3.org/2000/svg" viewBox="0 0 72 72" xmlns:v="https://vecta.io/nano"><path fill="none" stroke="#e8e6d9" stroke-width=".5" stroke-miterlimit="10" d="M69.7 71H2.3c-.7 0-1.3-.6-1.3-1.3V2.3C1 1.6 1.6 1 2.3 1h67.4c.7 0 1.3.6 1.3 1.3v67.4c0 .7-.6 1.3-1.3 1.3z"/><path fill="#4881c3" d="M11.6 66.4s-.1 0 0 0c-.5 0-.8-.4-.7-.8 1.3-13.8 4-24 6-28.9 2.2-5.2 7.6-9.3 14.6-10.9l12.7-2.9c1.4-.3 2.5-1.1 3-2.1l2.3-5.5c.2-.4.6-.6 1-.4s.6.6.4 1l-2.3 5.5c-.6 1.5-2.1 2.6-4 3l-12.7 2.9c-6.4 1.5-11.5 5.2-13.5 10s-4.6 14.8-5.9 28.5c-.2.3-.5.6-.9.6z"/><path fill="#7ca4d6" d="M60.4 20.6c-7.3 0-13.8-5.5-16.8-14-.1-.4.1-.8.5-.9s.8.1.9.5c2.7 7.9 8.8 13 15.4 13a.68.68 0 0 1 .7.7.68.68 0 0 1-.7.7z"/><g fill="#4881c3"><path d="M31.2 66.4h-.3c-.4-.1-.6-.6-.4-1 .9-2.6 1.7-5.5 2.2-8.6.1-.4.4-.7.9-.6.4.1.7.4.6.9-.5 3.2-1.3 6.2-2.2 8.9-.2.2-.5.4-.8.4z"/><path d="M42.5 66.4c-5.3 0-9.6-4.2-9.8-9.5 0-.4.3-.8.7-.8s.8.3.8.7c.1 4.5 3.8 8 8.3 8a.68.68 0 0 1 .7.7c0 .4-.3.9-.7.9zM60.4 29c-.9 0-1.7-.3-2.5-.8l-2.5-1.8a.78.78 0 0 1-.2-1 .78.78 0 0 1 1-.2l2.5 1.8c.5.3 1.1.5 1.6.5.4 0 .7.3.8.7s-.3.8-.7.8z"/></g><g fill="#f1873b"><path d="M20.5 66.4h-.1c-.4-.1-.7-.4-.6-.9l3.2-20c.3-1.7 1.3-3.1 2.7-3.9 1.1-.6 2.2-.8 3.4-.6 3 .5 4.9 3.2 4.4 6.2-.2 1.2-.9 4.1-3.1 5.3-1.4.7-1.8 2-2.1 4.2L27 65.1l-.1.7c-.1.4-.4.7-.9.6-.4-.1-.7-.4-.6-.9l.1-.7 1.3-8.4c.3-2.1.8-4.2 2.9-5.3 1.1-.6 2-2.1 2.3-4.2.4-2.2-1-4.1-3.2-4.4a4.09 4.09 0 0 0-2.4.4c-1 .6-1.8 1.6-2 2.9l-3.2 20c0 .3-.3.6-.7.6z"/><path d="M49.2 63.8c-.1 0-.1 0 0 0-1.3 0-2.3-.7-2.9-1.7-3.9-6.9-9.4-13.6-14.4-17.5-.3-.3-.4-.7-.1-1s.7-.4 1-.1c5.1 4 10.8 10.9 14.8 17.9.3.6.9.9 1.6.9s1.3-.3 1.6-.9l2.3-3.6a6.52 6.52 0 0 0 1.1-4.1l-.6-13c-.1-1.3-.4-2.6-1.1-3.7l-3.2-5.5a.55.55 0 0 0-.5-.3c-.2 0-.4.1-.6.2l-1.4 1.7c-.1.1-.2.2-.3.2L40.8 36c-1.3.6-2.9.2-3.8-.9l-.5-.6c-.4-.5-1.1-.7-1.7-.3L31.7 36c-.5.3-.7.8-.7 1.3l.6 5.1c0 .4-.2.8-.7.8-.4 0-.8-.2-.8-.7l-.6-5.1c-.1-1.1.4-2.2 1.4-2.8l3.2-1.8c1.2-.7 2.7-.4 3.6.7l.5.6c.5.6 1.3.8 2 .5l5.6-2.6 1.3-1.5c.4-.5 1.1-.8 1.8-.8.7.1 1.3.5 1.7 1.1l3.2 5.5c.8 1.3 1.2 2.9 1.3 4.4l.6 13a8.21 8.21 0 0 1-1.3 4.9L52 62.2c-.6 1-1.7 1.6-2.8 1.6zm-4.7-12.2c-.3 0-.6-.2-.7-.4-.8-1.8-2.8-4.5-5.7-7.7-.6-.7-.8-1.6-.7-2.5.2-.9.8-1.6 1.6-2l4.2-2a4.78 4.78 0 0 1 2.9-.3l1.5.3c.9.2 1.7.7 2.4 1.3l1.6 1.8c.3.3.3.8 0 1.1s-.8.3-1.1 0l-1.6-1.8c-.4-.5-1-.8-1.6-.9l-1.5-.3c-.6-.1-1.3-.1-1.9.2l-4.2 2c-.4.2-.7.5-.7 1-.1.4 0 .8.3 1.2 2.1 2.4 4.9 5.7 6 8.1.2.4 0 .8-.4 1-.2-.1-.3-.1-.4-.1zm-12.2-2c-.2 0-.4-.1-.5-.2L25 43.2c-.3-.3-.3-.7 0-1.1.3-.3.7-.3 1.1 0l6.8 6.3c.3.3.3.7 0 1.1-.2 0-.4.1-.6.1z"/><path d="M33 45.3h-.1c-.4-.1-.7-.5-.6-.9.8-4.2-.7-9.4-.7-9.5-.1-.4.1-.8.5-.9s.8.1.9.5c.1.2 1.5 5.7.7 10.2 0 .4-.4.6-.7.6z"/></g></svg>