<?xml version="1.0" encoding="utf-8"?>
<!-- Generator: Adobe Illustrator 26.3.1, SVG Export Plug-In . SVG Version: 6.00 Build 0)  -->
<svg version="1.1" id="Layer_1" xmlns="http://www.w3.org/2000/svg" xmlns:xlink="http://www.w3.org/1999/xlink" x="0px" y="0px"
	 viewBox="0 0 72 72" enable-background="new 0 0 72 72" xml:space="preserve">
<g>
	<path fill="#E8E6D9" d="M69.7,71.3H2.3c-0.8,0-1.5-0.7-1.5-1.5V2.3c0-0.8,0.7-1.5,1.5-1.5h67.4c0.8,0,1.5,0.7,1.5,1.5v67.4
		C71.3,70.6,70.6,71.3,69.7,71.3z M2.3,1.3c-0.6,0-1,0.5-1,1v67.4c0,0.6,0.5,1,1,1h67.4c0.6,0,1-0.5,1-1V2.3c0-0.6-0.5-1-1-1H2.3z"
		/>
</g>
<g>
	<g>
		<circle fill="#427BBF" cx="35.3" cy="28.3" r="0.8"/>
	</g>
	<g>
		<circle fill="#427BBF" cx="34.5" cy="31.7" r="0.8"/>
	</g>
	<g>
		<circle fill="#427BBF" cx="33.6" cy="35.5" r="1.1"/>
	</g>
	<g>
		<circle fill="#F58320" cx="36.2" cy="40" r="1.3"/>
	</g>
	<g>
		<circle fill="#F58320" cx="37.9" cy="45.4" r="1.3"/>
	</g>
	<g>
		<circle fill="#427BBF" cx="37" cy="54.3" r="1.1"/>
	</g>
	<g>
		<circle fill="#F58320" cx="37.9" cy="49.8" r="1.1"/>
	</g>
	<g>
		<circle fill="#427BBF" cx="35.3" cy="58.8" r="0.8"/>
	</g>
	<g>
		<path fill="#427BBF" d="M38.7,28c-0.2,0-0.3-0.1-0.5-0.2c-0.2-0.3-0.2-0.7,0-0.9c1.5-1.3,2.3-3.6,2.3-6c0-4-2.4-7.3-5.3-7.3
			c-2.9,0-5.3,3.3-5.3,7.3c0,2.4,0.9,4.7,2.3,6c0.3,0.2,0.3,0.7,0,0.9c-0.2,0.3-0.7,0.3-0.9,0c-1.7-1.6-2.8-4.2-2.8-7
			c0-4.7,3-8.6,6.6-8.6c3.6,0,6.6,3.8,6.6,8.6c0,2.8-1,5.4-2.8,7C39,28,38.9,28,38.7,28z"/>
	</g>
	<g>
		<path fill="#427BBF" d="M51,59.5C50.9,59.5,50.9,59.5,51,59.5c-0.4,0-0.7-0.4-0.6-0.7c0.8-7.6,0-23-1.4-25.3
			c-0.4-0.7-2.2-0.9-3.9-1.2c-3.1-0.5-7-1-7-4.8v-0.8c0-0.4,0.3-0.6,0.6-0.6s0.6,0.3,0.6,0.6v0.8c0,2.5,2.5,3,5.9,3.5
			c2.2,0.3,4,0.6,4.8,1.8c1.8,3,2.4,19.2,1.6,26.1C51.6,59.2,51.3,59.5,51,59.5z"/>
	</g>
	<g>
		<path fill="#427BBF" d="M22.2,59.5c-0.4,0-0.6-0.3-0.6-0.6c0-2-0.3-4.9-0.7-8c-0.8-6.7-1.2-11.3-0.2-13c0.6-1,2-1.9,3.9-3
			c3-1.9,6.8-4.3,6.8-7.4v-0.8c0-0.4,0.3-0.6,0.6-0.6s0.6,0.3,0.6,0.6v0.8c0,3.8-4.1,6.4-7.5,8.5c-1.6,1-3,1.9-3.4,2.6
			c-0.9,1.5-0.2,7.4,0.4,12.2c0.4,3.1,0.7,6.1,0.7,8.1C22.9,59.2,22.6,59.5,22.2,59.5z"/>
	</g>
	<g>
		<path fill="#427BBF" d="M45.5,59.5c0,0-0.1,0-0.1,0c-0.4-0.1-0.6-0.4-0.5-0.8c2.4-11.7,1-17,0.7-18c-0.1-0.1-0.2-0.2-0.2-0.4
			c-0.1-0.4,0.2-0.7,0.3-0.7c0.2-0.1,0.5-0.1,0.7,0c0.7,0.5,2.4,6.6-0.2,19.4C46.1,59.2,45.8,59.5,45.5,59.5z"/>
	</g>
	<g>
		<path fill="#427BBF" d="M28.5,59.5C28.5,59.5,28.5,59.5,28.5,59.5c-0.5-0.1-0.7-0.4-0.6-0.7c0.8-5-0.3-8.1-1.3-11.1
			c-0.6-1.6-1.1-3.2-1.2-4.9c0-0.4,0.2-0.7,0.6-0.7c0.4,0,0.7,0.2,0.7,0.6c0.2,1.6,0.7,3,1.2,4.6c1,3,2.2,6.4,1.4,11.7
			C29.1,59.2,28.8,59.5,28.5,59.5z"/>
	</g>
</g>
</svg>
