<svg xmlns="http://www.w3.org/2000/svg" viewBox="0 0 72 72" xmlns:v="https://vecta.io/nano"><path fill="none" stroke="#e8e6d9" stroke-width=".5" stroke-miterlimit="10" d="M69.7 71H2.3c-.7 0-1.3-.6-1.3-1.3V2.3C1 1.6 1.6 1 2.3 1h67.4c.7 0 1.3.6 1.3 1.3v67.4c0 .7-.6 1.3-1.3 1.3z"/><g fill="#427bbf"><path d="M13.4 65.6c-.3 0-.5-.2-.5-.4-2.2-12.1-2.4-34.7-.4-43.8.4-1.8 1-3.6 1.6-5.4 1-3 2-6.1 2-9.1a.47.47 0 0 1 .5-.5.47.47 0 0 1 .5.5c0 3.1-1.1 6.3-2.1 9.4-.6 1.8-1.2 3.5-1.5 5.2-2 9.1-1.7 31.4.5 43.4 0 .4-.2.6-.6.7h0zm45.2 0s-.1 0 0 0c-.4-.1-.6-.3-.5-.6 2.2-12 2.4-34.3.5-43.4-.4-1.7-.9-3.4-1.5-5.2-1-3.1-2.1-6.3-2.1-9.4a.47.47 0 0 1 .5-.5c.3 0 .5.1.5.4 0 3 1 6.1 2 9.1.6 1.8 1.2 3.6 1.6 5.4 2 9.2 1.7 31.7-.4 43.8-.1.2-.3.4-.6.4zM36 42.4c-4.7-.3-4.8-3.9-4.8-6.7 0-1.1 0-2.2-.2-3-.5-1.9-2.9-4.6-4.8-6.7a.61.61 0 0 1 0-.8.61.61 0 0 1 .8 0c2 2.2 4.4 4.9 5 7.1.3 1 .3 2.2.3 3.3 0 2.9 0 5.4 3.7 5.7.3 0 .5.3.5.6a.47.47 0 0 1-.5.5z"/><path d="M36 42.4a.47.47 0 0 1-.5-.5c0-.3.2-.5.5-.6 3.7-.2 3.7-2.7 3.7-5.7 0-1.1 0-2.3.3-3.3.6-2.2 3.1-4.9 5-7.1.2-.2.5-.2.8 0 .2.2.2.5 0 .8-1.9 2.1-4.3 4.7-4.8 6.7-.2.9-.2 1.9-.2 3 0 2.9-.1 6.4-4.8 6.7zm.8-31.7s-.1 0 0 0c-.8 0-1.4-.4-1.8-1-.1-.3-.1-.6.2-.7s.6-.1.7.2.5.4.8.4c.4 0 .7-.1.8-.4.3-.2.6-.2.8-.1.2.2.3.5.1.7-.3.6-.9.9-1.6.9zM33 65.6s-.1 0 0 0c-.4 0-.6-.3-.5-.6l.6-4.8c.7-6.1 1.4-11.3 1.1-18.5 0-.3.2-.5.5-.6.3 0 .5.2.6.5.3 7.3-.4 12.5-1.1 18.7l-.6 4.8c-.1.3-.4.5-.6.5z"/><path d="M39 65.6a.47.47 0 0 1-.5-.5l-.6-4.8c-.7-6.1-1.4-11.4-1.1-18.7 0-.3.3-.5.6-.5s.5.3.5.6c-.3 7.2.4 12.4 1.1 18.5l.6 4.8c0 .3-.2.6-.6.6h0z"/></g><ellipse transform="matrix(.2754 -.9613 .9613 .2754 14.89 42.715)" fill="#fff" cx="35.8" cy="11.5" rx="3.6" ry="5.8"/><path d="M29.8 11.8c-.3-.7-.4-1.4-.2-2.1.3-1.1 1.3-1.9 2.7-2.3 1.3-.4 3-.3 4.5.1 3.4 1 5.6 3.5 5 5.7h0c-.3 1.1-1.3 1.9-2.7 2.3-1.3.4-3 .3-4.5-.1-2.3-.6-4.1-2.1-4.8-3.6zm11-.2c-.5-1.2-2.1-2.5-4.1-3.1-1.4-.4-2.8-.4-4-.1-1.1.3-1.8.9-2 1.6-.5 1.6 1.5 3.6 4.3 4.4 1.4.4 2.8.4 4 .1 1.1-.3 1.8-.9 2-1.6h0c0-.4 0-.8-.2-1.3zm-8.9 5.2c0 .1 0 .2-.1.2-.1.2-.4.3-.6.2l-4.5-1.8-.3 2.3c0 .2-.2.4-.4.4-.2.1-.4 0-.5-.1l-5.9-5.5c-.2-.2-.2-.5-.1-.7s.4-.3.6-.2l4.5 1.8.3-2.3c0-.2.2-.4.4-.4.2-.1.4 0 .5.1l5.9 5.5c.2.2.2.4.2.5zm-6.4-.2l.3-2c0-.2.1-.3.3-.4.1-.1.3-.1.5 0l2.5 1-3.1-2.9-.3 2c0 .2-.1.3-.3.4-.1.1-.3.1-.5 0l-2.5-1 3.1 2.9z" fill="#f58320"/><path fill="#fff" d="M48.3 14.9l6.6-3.5L44 12.6l2.6 3.1-6.6 3.4 10.9-1.2z"/><path fill="#f58320" d="M39.9 19.6c-.2 0-.3-.2-.4-.4s0-.5.3-.6l6-3.1-2.2-2.5c-.1-.1-.2-.4-.1-.5.1-.2.2-.3.4-.3L54.8 11c.3 0 .5.1.6.4.1.2 0 .5-.3.6l-6 3.1 2.2 2.6c.1.1.2.4.1.5-.1.2-.2.3-.4.3l-10.9 1.2c-.1 0-.2 0-.2-.1zm5.2-6.6l2 2.3c.1.1.1.3.1.4 0 .2-.1.3-.3.4l-4.1 2.1 7.1-.8-2-2.3c-.1-.1-.1-.3-.1-.4 0-.2.1-.3.3-.4l4.1-2.1-7.1.8z"/></svg>