<svg xmlns="http://www.w3.org/2000/svg" viewBox="0 0 72 72" xmlns:v="https://vecta.io/nano"><path fill="none" stroke="#e8e6d9" stroke-width=".5" stroke-miterlimit="10" d="M69.7 71H2.3c-.7 0-1.3-.6-1.3-1.3V2.3C1 1.6 1.6 1 2.3 1h67.4c.7 0 1.3.6 1.3 1.3v67.4c0 .7-.6 1.3-1.3 1.3z"/><path d="M50.8 55.4a.47.47 0 0 1-.5-.5l-.4 9.7c0 .3.2.5.5.6.3 0 .5-.2.6-.5l.4-9.8c-.1.3-.3.5-.6.5zm-4.4-33.3c1.5-5.6.6-13.1-6.8-15.6-4.7-1.6-10.8-.4-15.5 3-6.9 4.9-10.7 14-10.7 25.4 0 23.1 9.3 31.3 17.3 31.3 5.6 0 8.9-5.8 10.1-10.8 1.2-4.8.8-10.7-2.4-13.8 1.5.4 3.2 1.4 4.4 4.6-.1-.3 0-.6.3-.7s.6 0 .7.3c-1.9-5.1-5.2-5.4-7-5.5h-.3c-1.5 0-2.7.6-3.6 1.7-2 2.6-1.8 7.8.4 15.4.1.2.3.4.5.4h.1c.3-.1.4-.4.4-.6-2.7-9.1-1.8-12.9-.6-14.5a3.17 3.17 0 0 1 2.6-1.3c4.2 2.2 4.7 8.7 3.5 13.9-1.1 4.6-4.2 10-9.1 10-7.5 0-16.3-7.9-16.3-30.2 0-11.1 3.7-19.8 10.3-24.6 4.5-3.4 10.2-4.5 14.5-3 6.7 2.3 7.6 8.9 6.2 14.3-1.4 5.1-4.6 8.9-7.3 8.4-.6-.1-1.2-.8-1.5-1.8-.7-2.2 0-6 4-9.9.2-.2.2-.5 0-.7s-.5-.2-.7 0c-4.3 4.3-5 8.5-4.3 10.9.4 1.4 1.3 2.3 2.3 2.5 4.8 1.2 7.5 4.8 9.3 7.8.8 1.4 1.7 3 2.3 6.1-.1-.3.1-.6.4-.6.3-.1.6.1.6.4-.7-3.3-1.6-5-2.5-6.4-1.6-2.7-4-5.8-7.8-7.5 2.8-1.2 5.2-4.9 6.2-8.9zm-1.6 33.4a.47.47 0 0 1-.5-.5c.1 2.9 0 6.2-.3 10 0 .3.2.5.5.6.3 0 .5-.2.6-.5.3-3.8.4-7.2.3-10.1-.1.3-.4.5-.6.5zM32.6 19.4h.4c1.5 0 3.3-1.6 5.4-4.9.2-.2.1-.6-.2-.7-.2-.2-.6-.1-.7.2-2.7 4.1-4.1 4.5-4.7 4.4-.9-.2-1.5-1.7-1.9-4.2 0-.3-.3-.5-.6-.4-.3 0-.5.3-.4.6.5 3.1 1.4 4.7 2.7 5zm-5.8-3.5c-.2-.2-.5-.3-.7-.1s-.3.5-.1.7c1.8 2.3 2.5 4.8 1.7 5.7-.7.8-2.6.5-5.3-.8-.3-.1-.6 0-.7.2-.1.3 0 .6.2.7 1.8.9 3.3 1.3 4.5 1.3.9 0 1.6-.3 2-.8 1.3-1.5.1-4.6-1.6-6.9zm-7.2 15.8c.6 0 1.1.1 1.7.1 2.8 0 4.7-.6 5.5-1.7.4-.6.5-1.3.1-1.9-.7-1.4-2.9-2.5-5.7-2.7-.3 0-.5.2-.6.5 0 .3.2.5.5.6 2.8.2 4.5 1.2 4.9 2.1.2.3.1.6-.1.9-.5.8-2.5 1.5-6.2 1.2-.3 0-.5.2-.6.5 0 .2.2.4.5.4zm7 4.4c-.6-1.5-3.3-1.7-7.1-.6-.3.1-.4.4-.4.6.1.3.4.4.6.4 3.9-1.1 5.7-.6 5.9 0s-.6 2.4-5.4 5.2c-.2.1-.3.5-.2.7a.55.55 0 0 0 .5.3c.1 0 .2 0 .3-.1 4.3-2.5 6.4-4.9 5.8-6.5zm-.4 8.1c-1.3-.4-3 1.1-5.3 4.8-.2.2-.1.6.2.7.2.2.6.1.7-.2 2.7-4.2 3.8-4.4 4.1-4.3 1.7.5 1.5 9.7 1.4 13.6a.47.47 0 0 0 .5.5.47.47 0 0 0 .5-.5c.2-9-.1-13.9-2.1-14.6zm6.3-12.9a3.8 3.8 0 1 0 3.8 3.8c-.1-2.1-1.8-3.8-3.8-3.8zm0 6.5a2.7 2.7 0 1 1 0-5.4 2.7 2.7 0 1 1 0 5.4zm0-3.7c-.5 0-1 .4-1 1 0 .5.4 1 1 1 .5 0 1-.4 1-1-.1-.6-.5-1-1-1zm15 12.6c-1.3 0-2.4.6-3 1.6.3 1.4.5 3 .7 4.8.6.5 1.5.9 2.4.9 1.1 0 2.1-.5 2.8-1.3l-.4-5.1c-.8-.6-1.6-.9-2.5-.9zm0 6.3a2.65 2.65 0 0 1-2.6-2.6 2.65 2.65 0 0 1 2.6-2.6 2.65 2.65 0 0 1 2.6 2.6c0 1.4-1.1 2.6-2.6 2.6zm0-3.6c-.5 0-.9.4-.9.9s.4.9.9.9.9-.4.9-.9c0-.4-.4-.9-.9-.9z" fill="#427bbf"/><path d="M49.9 44.5c-.3.1-.5.3-.4.6.2.8.3 1.6.4 2.5.2 1.5.3 3.3.4 5.1v2.2a.47.47 0 0 0 .5.5.47.47 0 0 0 .5-.5c0-4-.3-7.3-.8-10-.1-.3-.3-.5-.6-.4zm-6.1 1.3c-.1-.3-.4-.4-.7-.3s-.4.4-.3.7c.8 2.2 1.3 5.2 1.4 8.9a.47.47 0 0 0 .5.5c.3 0 .5-.3.5-.5 0-.6-.1-1.3-.1-1.9-.1-1.8-.4-3.4-.7-4.8-.1-1-.4-1.9-.6-2.6zm13-2.9l-3.3 1.8c-.3.1-.3.5-.2.7a.55.55 0 0 0 .5.3c.1 0 .2 0 .2-.1l3.3-1.8c.3-.1.3-.5.2-.7-.1-.3-.4-.4-.7-.2zm1.9 6.5a.47.47 0 0 0-.5-.5l-3.9.1a.47.47 0 0 0-.5.5.47.47 0 0 0 .5.5l3.8-.1c.3 0 .6-.2.6-.5zm-4.1 4.2c-.3-.1-.6 0-.7.3s0 .6.3.7l3.2 1.2h.2a.55.55 0 0 0 .5-.3c.1-.3 0-.6-.3-.7l-3.2-1.2z" fill="#f58320"/></svg>