<svg xmlns="http://www.w3.org/2000/svg" viewBox="0 0 72 72" xmlns:v="https://vecta.io/nano"><path fill="none" stroke="#e8e6d9" stroke-width=".5" stroke-miterlimit="10" d="M69.7 71H2.3c-.7 0-1.3-.6-1.3-1.3V2.3C1 1.6 1.6 1 2.3 1h67.4c.7 0 1.3.6 1.3 1.3v67.4c0 .7-.6 1.3-1.3 1.3z"/><path fill="#e8e6d9" d="M40.7 45.2c0-1.6-.4-3.1-.8-4.6-.6-2.2-1.6-4.2-2.6-6.2-.3-.6-.7-.9-1.3-.9-.7 0-1.2.4-1.5 1-1.1 2.1-2.1 4.3-2.7 6.7-.6 2.3-.9 4.6-.2 7 .7 2.2 1.8 4 3.2 5.7.7.8 1.7.7 2.4-.1l1.5-2.1c1.1-2 2-4.1 2-6.5zm-3.2-18.3c0-1-.7-1.8-1.6-1.8s-1.6.8-1.6 1.8.7 1.9 1.6 1.9 1.6-.9 1.6-1.9z"/><path d="M40.7 45.2c0 2.4-.9 4.5-2.1 6.5l-1.5 2.1c-.7.9-1.7.9-2.4.1-1.4-1.7-2.5-3.5-3.2-5.7-.7-2.4-.5-4.7.2-7 .6-2.4 1.6-4.5 2.7-6.7.3-.7.8-1.1 1.5-1 .6 0 1 .3 1.3.9 1 2 2 4 2.6 6.2.5 1.4.9 3 .9 4.6zm-4.8-6.1c-.7 1.6-1.2 3.2-1.5 4.9-.3 2.1.3 3.8 1.3 5.4.1.1.2.4.3.1.9-1.5 1.6-3.2 1.4-5.2-.2-1.8-.7-3.4-1.5-5.2zm1.6-13.9c0 1-.7 1.8-1.6 1.8s-1.6-.8-1.6-1.9c0-1 .7-1.8 1.6-1.8s1.6.9 1.6 1.9z" fill="#f48220"/><path fill="#7aa3d6" d="M36.2 65.4c-.2 0-5 0-9.8-2.5-4.5-2.3-9.9-7.1-9.9-17.3 0-7.9 3.1-16.6 9.2-26.1 4.5-7 9-11.7 9.2-11.8L36 6.6l1.1 1.1c.2.2 4.6 4.9 9.2 11.8 6.1 9.5 9.2 18.3 9.2 26.1 0 10.1-5.3 15-9.7 17.2-4.7 2.5-9.4 2.6-9.6 2.6zM36 10.9c-3.8 4.3-16.5 19.9-16.5 34.8 0 6.9 2.8 11.8 8.2 14.6 4.2 2.1 8.5 2.2 8.5 2.2s4.2 0 8.3-2.2c5.3-2.8 8-7.7 8-14.6 0-15-12.7-30.5-16.5-34.8z"/></svg>