<svg xmlns="http://www.w3.org/2000/svg" viewBox="0 0 72 72" xmlns:v="https://vecta.io/nano"><path fill="none" stroke="#e8e6d9" stroke-width=".5" stroke-miterlimit="10" d="M69.7 71H2.3c-.7 0-1.3-.6-1.3-1.3V2.3C1 1.6 1.6 1 2.3 1h67.4c.7 0 1.3.6 1.3 1.3v67.4c0 .7-.6 1.3-1.3 1.3z"/><path fill="#427bbf" d="M14.9 64.4c-.4 0-.7-.3-.8-.7-3-22.7-2.7-38.7 1-46.4 1.8-3.8 1.8-9.1 1.8-9.2 0-.4.4-.8.8-.8s.8.4.8.8c0 .2 0 5.8-2 9.9-1.4 2.9-2.3 7.1-2.7 12.5-.6 8.4 0 19.5 1.8 33 .1.4-.2.8-.7.9z"/><g fill="#f58320"><ellipse transform="matrix(.1785 -.9839 .9839 .1785 2.7458 71.8423)" cx="44.4" cy="34.3" rx="5.4" ry="3.5"/><ellipse transform="matrix(.9826 -.1857 .1857 .9826 -5.5802 6.0136)" cx="29.3" cy="32.8" rx="2.4" ry="3.7"/></g><g fill="#427bbf"><path d="M57.1 64.4H57c-.4-.1-.7-.5-.7-.9 1.8-13.5 2.4-24.6 1.8-33-.4-5.4-1.3-9.6-2.7-12.5-2-4.1-2-9.6-2-9.9 0-.4.4-.8.8-.8s.8.4.8.8h0c0 .1 0 5.4 1.8 9.2 3.7 7.7 4 23.7 1 46.4.1.4-.3.7-.7.7zm-2-56.3h0 0zM36.5 42.4c-1 0-2.1-.2-3.2-.8-2-.9-2.1-3.9-2.1-6.5 0-1.2 0-2.5-.3-3-.6-1.5-3.4-4.3-4.5-5.2-.3-.3-.3-.8 0-1.1s.8-.3 1.1 0c.4.4 4 3.7 4.8 5.8.4.9.4 2.1.4 3.6 0 2 .1 4.6 1.2 5.1 2.1 1 4 .7 4.6-.2.7-1 .9-3.2.9-6.1 0-.8.2-1.7.7-2.6.3-.7.8-1.4 1.4-2.1 1.2-1.4 2.5-2.2 2.7-2.3.4-.2.9-.1 1.1.2.2.4.1.9-.2 1.1-.5.3-1.5 1-2.4 2-.8.9-1.7 2.2-1.7 3.6 0 3.4-.2 5.6-1.1 7-.8.9-2 1.5-3.4 1.5z"/><path d="M33.2 64.7H33c-.4-.1-.7-.5-.5-1C34.4 57 34 41.8 34 41.6c0-.4.3-.8.8-.8.4 0 .8.3.8.8 0 .6.4 15.7-1.6 22.6-.2.2-.5.5-.8.5zm5.7 0c-.3 0-.7-.2-.8-.6-1.9-6.9-1.6-21.9-1.6-22.6 0-.4.4-.8.8-.8s.8.4.8.8c0 .2-.4 15.4 1.5 22.1.1.4-.1.8-.5 1 0 .1-.1.1-.2.1z"/></g><path fill="#7ba5d7" d="M36.8 12.5c-1.2 0-2.1-1.2-2.2-1.3-.2-.4-.2-.8.2-1.1.4-.2.8-.2 1.1.2.1.2.6.6.9.6s.6-.4.7-.6c.2-.4.7-.5 1.1-.2.4.2.5.7.2 1.1-.7 1-1.5 1.3-2 1.3z"/></svg>