<svg xmlns="http://www.w3.org/2000/svg" width="72.001" height="72.001" viewBox="0 0 72.001 72.001"><defs><style>.a{fill:#fff;}.b{fill:#f36a10;}.c{fill:#6095cf;}.d,.e{stroke:none;}.e{fill:#e7e8e8;}</style></defs><g transform="translate(-175 -174)"><g transform="translate(156 -507)"><g class="a" transform="translate(19 681)"><path class="d" d="M 66.46244049072266 71.7509765625 L 5.538538455963135 71.7509765625 C 2.622428178787231 71.7509765625 0.2499982863664627 69.37854766845703 0.2499982863664627 66.46244049072266 L 0.2499982863664627 5.538538455963135 C 0.2499982863664627 2.622428178787231 2.622428178787231 0.2499982863664627 5.538538455963135 0.2499982863664627 L 66.46244049072266 0.2499982863664627 C 69.37854766845703 0.2499982863664627 71.7509765625 2.622428178787231 71.7509765625 5.538538455963135 L 71.7509765625 66.46244049072266 C 71.7509765625 69.37854766845703 69.37854766845703 71.7509765625 66.46244049072266 71.7509765625 Z"/><path class="e" d="M 5.538536071777344 0.5 C 2.760276794433594 0.5 0.5 2.760276794433594 0.5 5.538536071777344 L 0.5 66.46244049072266 C 0.5 69.24069976806641 2.760276794433594 71.5009765625 5.538536071777344 71.5009765625 L 66.46244049072266 71.5009765625 C 69.24069976806641 71.5009765625 71.5009765625 69.24069976806641 71.5009765625 66.46244049072266 L 71.5009765625 5.538536071777344 C 71.5009765625 2.760276794433594 69.24069976806641 0.5 66.46244049072266 0.5 L 5.538536071777344 0.5 M 5.538536071777344 0 L 66.46244049072266 0 C 69.52128601074219 0 72.0009765625 2.479690551757812 72.0009765625 5.538536071777344 L 72.0009765625 66.46244049072266 C 72.0009765625 69.52128601074219 69.52128601074219 72.0009765625 66.46244049072266 72.0009765625 L 5.538536071777344 72.0009765625 C 2.479690551757812 72.0009765625 0 69.52128601074219 0 66.46244049072266 L 0 5.538536071777344 C 0 2.479690551757812 2.479690551757812 0 5.538536071777344 0 Z"/></g></g><g transform="translate(-50.265 -53.837)"><g transform="translate(253.431 243.882)"><path class="b" d="M305.711,261.105l-.03-.945.015.472-.018-.472a4.81,4.81,0,0,0,2.688-1.254c1.8-1.594,2.814-4.478,2.92-8.339l.945.026c-.116,4.231-1.224,7.283-3.3,9.072A5.631,5.631,0,0,1,305.711,261.105Z" transform="translate(-305.678 -250.567)"/></g><path class="b" d="M345.864,496.485c-5.473-.623-6.09-4.329-6.114-4.487l-.468.068-.468.066a5.553,5.553,0,0,0,1.134,2.416,6.47,6.47,0,0,0,.794.845,4.5,4.5,0,0,1-.836,1.948l.374.289.373.29a5.839,5.839,0,0,0,.929-1.889,9.772,9.772,0,0,0,4.174,1.393Z" transform="translate(-80.904 -215.481)"/><path class="b" d="M282.036,264.736c-2.934-7.181-2.543-12.582-1.7-15.848a14.144,14.144,0,0,1,2.558-5.422l-.353-.314-.353-.314a14.734,14.734,0,0,0-2.751,5.754,23.638,23.638,0,0,0,.138,11.655,7.021,7.021,0,0,1-3.053-4.054,11.281,11.281,0,0,1,.062-6.745c1.528-4.734.058-6.389-.115-6.562l-.676.661c.013.014,1.244,1.422-.108,5.611a12.247,12.247,0,0,0-.063,7.322,7.7,7.7,0,0,0,4.274,4.978,35.168,35.168,0,0,0,1.263,3.636c1.6,3.923,3.3,9.388,2.259,13.142a3.982,3.982,0,0,1-1.864,2.732l.355.876a4.422,4.422,0,0,0,2.107-2.449C285.7,275.4,283.868,269.22,282.036,264.736Z" transform="translate(-25.797)"/><g transform="translate(245.265 246.771)"><path class="c" d="M273.213,310.495H253.389c-1.5,0-2.483-.39-3.011-1.191-.842-1.277-.093-3.025.454-4.3.1-.233.194-.454.265-.639.063-.165.143-.348.235-.559.882-2.014,2.947-6.732-2.039-15.6-5.811-10.335-3.655-16.028-3.56-16.265l1.507.6-.753-.3.755.3a9.711,9.711,0,0,0-.313,3.78,28.221,28.221,0,0,0,3.778,11.094c2.293,4.078,3.445,7.861,3.425,11.244a13.856,13.856,0,0,1-1.314,5.8c-.084.191-.156.356-.2.484-.082.217-.183.452-.29.7-.356.831-.952,2.222-.591,2.77.2.3.785.462,1.657.462h19.824a1.77,1.77,0,0,0,1.2-.444c.046-.042.273-.257.24-.38s-.513-1.288-6.6-2.605c-11.818-2.557-8.555-21.465-6.8-31.623.1-.6.2-1.176.293-1.714l1.6.269c-.091.54-.19,1.115-.295,1.721-.873,5.059-2.069,11.987-1.7,18.015.428,6.942,2.8,10.784,7.244,11.746,5,1.082,7.415,2.244,7.826,3.768a1.944,1.944,0,0,1-.712,2A3.388,3.388,0,0,1,273.213,310.495Z" transform="translate(-245.265 -271.94)"/></g></g></g></svg>