<svg width="31" height="32" viewBox="0 0 31 32" fill="none" xmlns="http://www.w3.org/2000/svg">
<path d="M28.9687 18.7659L24.4815 14.2786H14.0113C13.6146 14.2786 13.2342 14.121 12.9537 13.8406C12.6732 13.5601 12.5156 13.1796 12.5156 12.783V3.80849C12.5156 3.41179 12.6732 3.03135 12.9537 2.75084C13.2342 2.47033 13.6146 2.31274 14.0113 2.31274H27.473C27.8697 2.31274 28.2502 2.47033 28.5307 2.75084C28.8111 3.03135 28.9687 3.41179 28.9687 3.80849V18.7659Z" stroke="#FF990C" stroke-width="1.86056" stroke-linecap="round" stroke-linejoin="round"/>
<path d="M18.498 20.261V23.2525C18.498 23.6492 18.3404 24.0296 18.06 24.3102C17.7795 24.5907 17.399 24.7482 17.0024 24.7482H6.53214L2.04492 29.2354V14.2781C2.04492 13.8814 2.2025 13.5009 2.48302 13.2204C2.76352 12.9399 3.14397 12.7823 3.54067 12.7823H6.53214" stroke="#FF990C" stroke-width="1.86056" stroke-linecap="round" stroke-linejoin="round"/>
<path d="M17.0029 8.2951H24.4816" stroke="#FF990C" stroke-width="1.86056" stroke-linecap="round" stroke-linejoin="round"/>
</svg>
