<svg width="31" height="32" viewBox="0 0 31 32" fill="none" xmlns="http://www.w3.org/2000/svg">
<g clip-path="url(#clip0_2077_3209)">
<path d="M26.2682 19.0106C26.2682 19.3535 26.1665 19.6888 25.976 19.9738C25.7855 20.2589 25.5147 20.4812 25.1979 20.6124C24.8811 20.7436 24.5325 20.7779 24.1962 20.7111C23.86 20.6441 23.551 20.479 23.3086 20.2365C23.0662 19.9941 22.901 19.6852 22.8341 19.3489C22.7672 19.0126 22.8015 18.664 22.9327 18.3472C23.0639 18.0304 23.2862 17.7596 23.5713 17.5691C23.8564 17.3787 24.1916 17.2769 24.5345 17.2769C24.9943 17.2769 25.4353 17.4596 25.7604 17.7848C26.0856 18.1099 26.2682 18.5508 26.2682 19.0106ZM25.6109 24.6871C25.357 26.3237 24.5266 27.8158 23.2697 28.8942C22.0126 29.9727 20.4117 30.5665 18.7555 30.5686H15.2881C13.4494 30.5667 11.6867 29.8355 10.3866 28.5354C9.08645 27.2352 8.35521 25.4725 8.35329 23.6338V17.7812C6.11903 17.4997 4.0643 16.4125 2.57467 14.7236C1.08506 13.0348 0.262978 10.8604 0.262695 8.60845V1.67365C0.262695 1.36711 0.384467 1.07313 0.601222 0.856379C0.817976 0.639624 1.11196 0.517853 1.41849 0.517853H4.88589C5.19243 0.517853 5.48641 0.639624 5.70316 0.856379C5.91992 1.07313 6.04169 1.36711 6.04169 1.67365C6.04169 1.98019 5.91992 2.27417 5.70316 2.49092C5.48641 2.70768 5.19243 2.82945 4.88589 2.82945H2.57429V8.60845C2.57421 9.52698 2.75661 10.4364 3.11088 11.2838C3.46515 12.1312 3.98425 12.8999 4.63803 13.5451C5.29181 14.1902 6.06725 14.6991 6.91931 15.0422C7.77139 15.3851 8.68311 15.5555 9.60155 15.5432C13.3738 15.4941 16.4439 12.3286 16.4439 8.48853V2.82945H14.1323C13.8258 2.82945 13.5317 2.70768 13.315 2.49092C13.0983 2.27417 12.9765 1.98019 12.9765 1.67365C12.9765 1.36711 13.0983 1.07313 13.315 0.856379C13.5317 0.639624 13.8258 0.517853 14.1323 0.517853H17.5997C17.9062 0.517853 18.2002 0.639624 18.417 0.856379C18.6337 1.07313 18.7555 1.36711 18.7555 1.67365V8.48853C18.7555 13.2331 15.2115 17.1989 10.6649 17.7797V23.6338C10.6649 24.86 11.152 26.036 12.019 26.9029C12.886 27.7699 14.0619 28.257 15.2881 28.257H18.7555C19.8053 28.2553 20.8235 27.897 21.643 27.2407C22.4626 26.5845 23.0348 25.6693 23.266 24.6452C21.8701 24.3317 20.6402 23.5114 19.8141 22.3434C18.9881 21.1753 18.6247 19.7423 18.7942 18.3218C18.9638 16.9012 19.6542 15.594 20.732 14.6532C21.8098 13.7123 23.1982 13.2046 24.6287 13.2285C26.0591 13.2523 27.4299 13.8058 28.4758 14.782C29.5216 15.7581 30.1682 17.0876 30.2904 18.513C30.4126 19.9384 30.0018 21.3585 29.1373 22.4985C28.2729 23.6385 27.0163 24.4172 25.6109 24.6841V24.6871ZM28.0019 19.0106C28.0019 18.3248 27.7986 17.6545 27.4175 17.0842C27.0366 16.514 26.495 16.0696 25.8614 15.8072C25.2278 15.5447 24.5306 15.4761 23.858 15.6099C23.1854 15.7436 22.5676 16.0739 22.0826 16.5588C21.5977 17.0438 21.2675 17.6616 21.1338 18.3342C21 19.0068 21.0686 19.7039 21.3311 20.3376C21.5935 20.9712 22.0379 21.5127 22.6081 21.8937C23.1783 22.2747 23.8487 22.478 24.5345 22.478C25.4541 22.478 26.3361 22.1127 26.9863 21.4625C27.6366 20.8122 28.0019 19.9303 28.0019 19.0106Z" fill="#FF990C"/>
</g>
<defs>
<clipPath id="clip0_2077_3209">
<rect width="30.5131" height="30.5131" fill="white" transform="translate(0.0322266 0.517853)"/>
</clipPath>
</defs>
</svg>
